%TF.GenerationSoftware,KiCad,Pcbnew,7.0.7*%
%TF.CreationDate,2024-12-30T17:22:27+01:00*%
%TF.ProjectId,Movement5037,4d6f7665-6d65-46e7-9435-3033372e6b69,rev?*%
%TF.SameCoordinates,Original*%
%TF.FileFunction,Soldermask,Top*%
%TF.FilePolarity,Negative*%
%FSLAX46Y46*%
G04 Gerber Fmt 4.6, Leading zero omitted, Abs format (unit mm)*
G04 Created by KiCad (PCBNEW 7.0.7) date 2024-12-30 17:22:27*
%MOMM*%
%LPD*%
G01*
G04 APERTURE LIST*
G04 Aperture macros list*
%AMRoundRect*
0 Rectangle with rounded corners*
0 $1 Rounding radius*
0 $2 $3 $4 $5 $6 $7 $8 $9 X,Y pos of 4 corners*
0 Add a 4 corners polygon primitive as box body*
4,1,4,$2,$3,$4,$5,$6,$7,$8,$9,$2,$3,0*
0 Add four circle primitives for the rounded corners*
1,1,$1+$1,$2,$3*
1,1,$1+$1,$4,$5*
1,1,$1+$1,$6,$7*
1,1,$1+$1,$8,$9*
0 Add four rect primitives between the rounded corners*
20,1,$1+$1,$2,$3,$4,$5,0*
20,1,$1+$1,$4,$5,$6,$7,0*
20,1,$1+$1,$6,$7,$8,$9,0*
20,1,$1+$1,$8,$9,$2,$3,0*%
G04 Aperture macros list end*
%ADD10RoundRect,0.249999X-0.512501X-1.075001X0.512501X-1.075001X0.512501X1.075001X-0.512501X1.075001X0*%
%ADD11R,1.700000X1.700000*%
%ADD12O,1.700000X1.700000*%
%ADD13RoundRect,0.250000X-0.412500X-0.650000X0.412500X-0.650000X0.412500X0.650000X-0.412500X0.650000X0*%
%ADD14C,1.000000*%
%ADD15RoundRect,0.250000X0.337500X0.475000X-0.337500X0.475000X-0.337500X-0.475000X0.337500X-0.475000X0*%
%ADD16RoundRect,0.250000X-0.337500X-0.475000X0.337500X-0.475000X0.337500X0.475000X-0.337500X0.475000X0*%
%ADD17C,1.500000*%
%ADD18RoundRect,0.150000X-1.100000X-0.150000X1.100000X-0.150000X1.100000X0.150000X-1.100000X0.150000X0*%
%ADD19RoundRect,0.250000X-0.350000X-0.450000X0.350000X-0.450000X0.350000X0.450000X-0.350000X0.450000X0*%
%ADD20R,2.000000X0.550000*%
%ADD21R,0.550000X2.000000*%
%ADD22R,3.000000X3.000000*%
%ADD23C,3.000000*%
G04 APERTURE END LIST*
D10*
%TO.C,D3*%
X81609500Y-74930000D03*
X86284500Y-74930000D03*
%TD*%
D11*
%TO.C,J1*%
X87376000Y-96354000D03*
D12*
X89916000Y-96354000D03*
X92456000Y-96354000D03*
X94996000Y-96354000D03*
X97536000Y-96354000D03*
%TD*%
D13*
%TO.C,C8*%
X73660000Y-66040000D03*
X76785000Y-66040000D03*
%TD*%
D14*
%TO.C,Y2*%
X89090000Y-69408000D03*
X89090000Y-71308000D03*
%TD*%
D15*
%TO.C,C2*%
X91821000Y-87884000D03*
X89746000Y-87884000D03*
%TD*%
D16*
%TO.C,C1*%
X76581000Y-87884000D03*
X78656000Y-87884000D03*
%TD*%
%TO.C,C3*%
X68410000Y-65278000D03*
X70485000Y-65278000D03*
%TD*%
%TO.C,C5*%
X111717000Y-79756000D03*
X113792000Y-79756000D03*
%TD*%
D17*
%TO.C,Y1*%
X84486500Y-83820000D03*
X89366500Y-83820000D03*
%TD*%
D10*
%TO.C,D1*%
X81609500Y-78486000D03*
X86284500Y-78486000D03*
%TD*%
D16*
%TO.C,C7*%
X91672500Y-76835000D03*
X93747500Y-76835000D03*
%TD*%
D18*
%TO.C,U2*%
X91378000Y-69596000D03*
X91378000Y-70866000D03*
X91378000Y-72136000D03*
X91378000Y-73406000D03*
X96328000Y-73406000D03*
X96328000Y-72136000D03*
X96328000Y-70866000D03*
X96328000Y-69596000D03*
%TD*%
D19*
%TO.C,R2*%
X68485000Y-67564000D03*
X70485000Y-67564000D03*
%TD*%
D20*
%TO.C,U3*%
X99001000Y-77210000D03*
X99001000Y-78010000D03*
X99001000Y-78810000D03*
X99001000Y-79610000D03*
X99001000Y-80410000D03*
X99001000Y-81210000D03*
X99001000Y-82010000D03*
X99001000Y-82810000D03*
D21*
X100451000Y-84260000D03*
X101251000Y-84260000D03*
X102051000Y-84260000D03*
X102851000Y-84260000D03*
X103651000Y-84260000D03*
X104451000Y-84260000D03*
X105251000Y-84260000D03*
X106051000Y-84260000D03*
D20*
X107501000Y-82810000D03*
X107501000Y-82010000D03*
X107501000Y-81210000D03*
X107501000Y-80410000D03*
X107501000Y-79610000D03*
X107501000Y-78810000D03*
X107501000Y-78010000D03*
X107501000Y-77210000D03*
D21*
X106051000Y-75760000D03*
X105251000Y-75760000D03*
X104451000Y-75760000D03*
X103651000Y-75760000D03*
X102851000Y-75760000D03*
X102051000Y-75760000D03*
X101251000Y-75760000D03*
X100451000Y-75760000D03*
%TD*%
D10*
%TO.C,D2*%
X70814500Y-92202000D03*
X75489500Y-92202000D03*
%TD*%
D19*
%TO.C,R1*%
X72406000Y-87884000D03*
X74406000Y-87884000D03*
%TD*%
%TO.C,R3*%
X68469000Y-69850000D03*
X70469000Y-69850000D03*
%TD*%
D16*
%TO.C,C6*%
X111760000Y-82042000D03*
X113835000Y-82042000D03*
%TD*%
D11*
%TO.C,J4*%
X84836000Y-65405000D03*
D12*
X87376000Y-65405000D03*
X89916000Y-65405000D03*
X92456000Y-65405000D03*
X94996000Y-65405000D03*
X97536000Y-65405000D03*
%TD*%
D16*
%TO.C,C4*%
X111717000Y-77597000D03*
X113792000Y-77597000D03*
%TD*%
D11*
%TO.C,J6*%
X69088000Y-74422000D03*
D12*
X69088000Y-76962000D03*
X69088000Y-79502000D03*
X69088000Y-82042000D03*
X69088000Y-84582000D03*
X69088000Y-87122000D03*
%TD*%
D22*
%TO.C,BT1*%
X104267000Y-69030000D03*
D23*
X104267000Y-89520000D03*
%TD*%
D11*
%TO.C,J7*%
X76708000Y-71374000D03*
D12*
X74168000Y-71374000D03*
X76708000Y-73914000D03*
X74168000Y-73914000D03*
X76708000Y-76454000D03*
X74168000Y-76454000D03*
%TD*%
M02*
