%TF.GenerationSoftware,KiCad,Pcbnew,7.0.7*%
%TF.CreationDate,2024-10-22T18:38:38+02:00*%
%TF.ProjectId,FaceBerlinUhr,46616365-4265-4726-9c69-6e5568722e6b,rev?*%
%TF.SameCoordinates,Original*%
%TF.FileFunction,Legend,Top*%
%TF.FilePolarity,Positive*%
%FSLAX46Y46*%
G04 Gerber Fmt 4.6, Leading zero omitted, Abs format (unit mm)*
G04 Created by KiCad (PCBNEW 7.0.7) date 2024-10-22 18:38:38*
%MOMM*%
%LPD*%
G01*
G04 APERTURE LIST*
%ADD10C,0.100000*%
%ADD11C,0.120000*%
G04 APERTURE END LIST*
D10*
X132262714Y-88722419D02*
X132262714Y-87722419D01*
X132262714Y-87722419D02*
X132500809Y-87722419D01*
X132500809Y-87722419D02*
X132643666Y-87770038D01*
X132643666Y-87770038D02*
X132738904Y-87865276D01*
X132738904Y-87865276D02*
X132786523Y-87960514D01*
X132786523Y-87960514D02*
X132834142Y-88150990D01*
X132834142Y-88150990D02*
X132834142Y-88293847D01*
X132834142Y-88293847D02*
X132786523Y-88484323D01*
X132786523Y-88484323D02*
X132738904Y-88579561D01*
X132738904Y-88579561D02*
X132643666Y-88674800D01*
X132643666Y-88674800D02*
X132500809Y-88722419D01*
X132500809Y-88722419D02*
X132262714Y-88722419D01*
X133786523Y-88722419D02*
X133215095Y-88722419D01*
X133500809Y-88722419D02*
X133500809Y-87722419D01*
X133500809Y-87722419D02*
X133405571Y-87865276D01*
X133405571Y-87865276D02*
X133310333Y-87960514D01*
X133310333Y-87960514D02*
X133215095Y-88008133D01*
X134405571Y-87722419D02*
X134500809Y-87722419D01*
X134500809Y-87722419D02*
X134596047Y-87770038D01*
X134596047Y-87770038D02*
X134643666Y-87817657D01*
X134643666Y-87817657D02*
X134691285Y-87912895D01*
X134691285Y-87912895D02*
X134738904Y-88103371D01*
X134738904Y-88103371D02*
X134738904Y-88341466D01*
X134738904Y-88341466D02*
X134691285Y-88531942D01*
X134691285Y-88531942D02*
X134643666Y-88627180D01*
X134643666Y-88627180D02*
X134596047Y-88674800D01*
X134596047Y-88674800D02*
X134500809Y-88722419D01*
X134500809Y-88722419D02*
X134405571Y-88722419D01*
X134405571Y-88722419D02*
X134310333Y-88674800D01*
X134310333Y-88674800D02*
X134262714Y-88627180D01*
X134262714Y-88627180D02*
X134215095Y-88531942D01*
X134215095Y-88531942D02*
X134167476Y-88341466D01*
X134167476Y-88341466D02*
X134167476Y-88103371D01*
X134167476Y-88103371D02*
X134215095Y-87912895D01*
X134215095Y-87912895D02*
X134262714Y-87817657D01*
X134262714Y-87817657D02*
X134310333Y-87770038D01*
X134310333Y-87770038D02*
X134405571Y-87722419D01*
X217659605Y-64517419D02*
X217659605Y-63517419D01*
X217659605Y-63517419D02*
X217897700Y-63517419D01*
X217897700Y-63517419D02*
X218040557Y-63565038D01*
X218040557Y-63565038D02*
X218135795Y-63660276D01*
X218135795Y-63660276D02*
X218183414Y-63755514D01*
X218183414Y-63755514D02*
X218231033Y-63945990D01*
X218231033Y-63945990D02*
X218231033Y-64088847D01*
X218231033Y-64088847D02*
X218183414Y-64279323D01*
X218183414Y-64279323D02*
X218135795Y-64374561D01*
X218135795Y-64374561D02*
X218040557Y-64469800D01*
X218040557Y-64469800D02*
X217897700Y-64517419D01*
X217897700Y-64517419D02*
X217659605Y-64517419D01*
X218707224Y-64517419D02*
X218897700Y-64517419D01*
X218897700Y-64517419D02*
X218992938Y-64469800D01*
X218992938Y-64469800D02*
X219040557Y-64422180D01*
X219040557Y-64422180D02*
X219135795Y-64279323D01*
X219135795Y-64279323D02*
X219183414Y-64088847D01*
X219183414Y-64088847D02*
X219183414Y-63707895D01*
X219183414Y-63707895D02*
X219135795Y-63612657D01*
X219135795Y-63612657D02*
X219088176Y-63565038D01*
X219088176Y-63565038D02*
X218992938Y-63517419D01*
X218992938Y-63517419D02*
X218802462Y-63517419D01*
X218802462Y-63517419D02*
X218707224Y-63565038D01*
X218707224Y-63565038D02*
X218659605Y-63612657D01*
X218659605Y-63612657D02*
X218611986Y-63707895D01*
X218611986Y-63707895D02*
X218611986Y-63945990D01*
X218611986Y-63945990D02*
X218659605Y-64041228D01*
X218659605Y-64041228D02*
X218707224Y-64088847D01*
X218707224Y-64088847D02*
X218802462Y-64136466D01*
X218802462Y-64136466D02*
X218992938Y-64136466D01*
X218992938Y-64136466D02*
X219088176Y-64088847D01*
X219088176Y-64088847D02*
X219135795Y-64041228D01*
X219135795Y-64041228D02*
X219183414Y-63945990D01*
X168330714Y-88722419D02*
X168330714Y-87722419D01*
X168330714Y-87722419D02*
X168568809Y-87722419D01*
X168568809Y-87722419D02*
X168711666Y-87770038D01*
X168711666Y-87770038D02*
X168806904Y-87865276D01*
X168806904Y-87865276D02*
X168854523Y-87960514D01*
X168854523Y-87960514D02*
X168902142Y-88150990D01*
X168902142Y-88150990D02*
X168902142Y-88293847D01*
X168902142Y-88293847D02*
X168854523Y-88484323D01*
X168854523Y-88484323D02*
X168806904Y-88579561D01*
X168806904Y-88579561D02*
X168711666Y-88674800D01*
X168711666Y-88674800D02*
X168568809Y-88722419D01*
X168568809Y-88722419D02*
X168330714Y-88722419D01*
X169854523Y-88722419D02*
X169283095Y-88722419D01*
X169568809Y-88722419D02*
X169568809Y-87722419D01*
X169568809Y-87722419D02*
X169473571Y-87865276D01*
X169473571Y-87865276D02*
X169378333Y-87960514D01*
X169378333Y-87960514D02*
X169283095Y-88008133D01*
X170187857Y-87722419D02*
X170806904Y-87722419D01*
X170806904Y-87722419D02*
X170473571Y-88103371D01*
X170473571Y-88103371D02*
X170616428Y-88103371D01*
X170616428Y-88103371D02*
X170711666Y-88150990D01*
X170711666Y-88150990D02*
X170759285Y-88198609D01*
X170759285Y-88198609D02*
X170806904Y-88293847D01*
X170806904Y-88293847D02*
X170806904Y-88531942D01*
X170806904Y-88531942D02*
X170759285Y-88627180D01*
X170759285Y-88627180D02*
X170711666Y-88674800D01*
X170711666Y-88674800D02*
X170616428Y-88722419D01*
X170616428Y-88722419D02*
X170330714Y-88722419D01*
X170330714Y-88722419D02*
X170235476Y-88674800D01*
X170235476Y-88674800D02*
X170187857Y-88627180D01*
X148010714Y-112777419D02*
X148010714Y-111777419D01*
X148010714Y-111777419D02*
X148248809Y-111777419D01*
X148248809Y-111777419D02*
X148391666Y-111825038D01*
X148391666Y-111825038D02*
X148486904Y-111920276D01*
X148486904Y-111920276D02*
X148534523Y-112015514D01*
X148534523Y-112015514D02*
X148582142Y-112205990D01*
X148582142Y-112205990D02*
X148582142Y-112348847D01*
X148582142Y-112348847D02*
X148534523Y-112539323D01*
X148534523Y-112539323D02*
X148486904Y-112634561D01*
X148486904Y-112634561D02*
X148391666Y-112729800D01*
X148391666Y-112729800D02*
X148248809Y-112777419D01*
X148248809Y-112777419D02*
X148010714Y-112777419D01*
X148963095Y-111872657D02*
X149010714Y-111825038D01*
X149010714Y-111825038D02*
X149105952Y-111777419D01*
X149105952Y-111777419D02*
X149344047Y-111777419D01*
X149344047Y-111777419D02*
X149439285Y-111825038D01*
X149439285Y-111825038D02*
X149486904Y-111872657D01*
X149486904Y-111872657D02*
X149534523Y-111967895D01*
X149534523Y-111967895D02*
X149534523Y-112063133D01*
X149534523Y-112063133D02*
X149486904Y-112205990D01*
X149486904Y-112205990D02*
X148915476Y-112777419D01*
X148915476Y-112777419D02*
X149534523Y-112777419D01*
X150153571Y-111777419D02*
X150248809Y-111777419D01*
X150248809Y-111777419D02*
X150344047Y-111825038D01*
X150344047Y-111825038D02*
X150391666Y-111872657D01*
X150391666Y-111872657D02*
X150439285Y-111967895D01*
X150439285Y-111967895D02*
X150486904Y-112158371D01*
X150486904Y-112158371D02*
X150486904Y-112396466D01*
X150486904Y-112396466D02*
X150439285Y-112586942D01*
X150439285Y-112586942D02*
X150391666Y-112682180D01*
X150391666Y-112682180D02*
X150344047Y-112729800D01*
X150344047Y-112729800D02*
X150248809Y-112777419D01*
X150248809Y-112777419D02*
X150153571Y-112777419D01*
X150153571Y-112777419D02*
X150058333Y-112729800D01*
X150058333Y-112729800D02*
X150010714Y-112682180D01*
X150010714Y-112682180D02*
X149963095Y-112586942D01*
X149963095Y-112586942D02*
X149915476Y-112396466D01*
X149915476Y-112396466D02*
X149915476Y-112158371D01*
X149915476Y-112158371D02*
X149963095Y-111967895D01*
X149963095Y-111967895D02*
X150010714Y-111872657D01*
X150010714Y-111872657D02*
X150058333Y-111825038D01*
X150058333Y-111825038D02*
X150153571Y-111777419D01*
X156900714Y-88722419D02*
X156900714Y-87722419D01*
X156900714Y-87722419D02*
X157138809Y-87722419D01*
X157138809Y-87722419D02*
X157281666Y-87770038D01*
X157281666Y-87770038D02*
X157376904Y-87865276D01*
X157376904Y-87865276D02*
X157424523Y-87960514D01*
X157424523Y-87960514D02*
X157472142Y-88150990D01*
X157472142Y-88150990D02*
X157472142Y-88293847D01*
X157472142Y-88293847D02*
X157424523Y-88484323D01*
X157424523Y-88484323D02*
X157376904Y-88579561D01*
X157376904Y-88579561D02*
X157281666Y-88674800D01*
X157281666Y-88674800D02*
X157138809Y-88722419D01*
X157138809Y-88722419D02*
X156900714Y-88722419D01*
X158424523Y-88722419D02*
X157853095Y-88722419D01*
X158138809Y-88722419D02*
X158138809Y-87722419D01*
X158138809Y-87722419D02*
X158043571Y-87865276D01*
X158043571Y-87865276D02*
X157948333Y-87960514D01*
X157948333Y-87960514D02*
X157853095Y-88008133D01*
X158805476Y-87817657D02*
X158853095Y-87770038D01*
X158853095Y-87770038D02*
X158948333Y-87722419D01*
X158948333Y-87722419D02*
X159186428Y-87722419D01*
X159186428Y-87722419D02*
X159281666Y-87770038D01*
X159281666Y-87770038D02*
X159329285Y-87817657D01*
X159329285Y-87817657D02*
X159376904Y-87912895D01*
X159376904Y-87912895D02*
X159376904Y-88008133D01*
X159376904Y-88008133D02*
X159329285Y-88150990D01*
X159329285Y-88150990D02*
X158757857Y-88722419D01*
X158757857Y-88722419D02*
X159376904Y-88722419D01*
X192460714Y-88722419D02*
X192460714Y-87722419D01*
X192460714Y-87722419D02*
X192698809Y-87722419D01*
X192698809Y-87722419D02*
X192841666Y-87770038D01*
X192841666Y-87770038D02*
X192936904Y-87865276D01*
X192936904Y-87865276D02*
X192984523Y-87960514D01*
X192984523Y-87960514D02*
X193032142Y-88150990D01*
X193032142Y-88150990D02*
X193032142Y-88293847D01*
X193032142Y-88293847D02*
X192984523Y-88484323D01*
X192984523Y-88484323D02*
X192936904Y-88579561D01*
X192936904Y-88579561D02*
X192841666Y-88674800D01*
X192841666Y-88674800D02*
X192698809Y-88722419D01*
X192698809Y-88722419D02*
X192460714Y-88722419D01*
X193984523Y-88722419D02*
X193413095Y-88722419D01*
X193698809Y-88722419D02*
X193698809Y-87722419D01*
X193698809Y-87722419D02*
X193603571Y-87865276D01*
X193603571Y-87865276D02*
X193508333Y-87960514D01*
X193508333Y-87960514D02*
X193413095Y-88008133D01*
X194889285Y-87722419D02*
X194413095Y-87722419D01*
X194413095Y-87722419D02*
X194365476Y-88198609D01*
X194365476Y-88198609D02*
X194413095Y-88150990D01*
X194413095Y-88150990D02*
X194508333Y-88103371D01*
X194508333Y-88103371D02*
X194746428Y-88103371D01*
X194746428Y-88103371D02*
X194841666Y-88150990D01*
X194841666Y-88150990D02*
X194889285Y-88198609D01*
X194889285Y-88198609D02*
X194936904Y-88293847D01*
X194936904Y-88293847D02*
X194936904Y-88531942D01*
X194936904Y-88531942D02*
X194889285Y-88627180D01*
X194889285Y-88627180D02*
X194841666Y-88674800D01*
X194841666Y-88674800D02*
X194746428Y-88722419D01*
X194746428Y-88722419D02*
X194508333Y-88722419D01*
X194508333Y-88722419D02*
X194413095Y-88674800D01*
X194413095Y-88674800D02*
X194365476Y-88627180D01*
X182057205Y-64517419D02*
X182057205Y-63517419D01*
X182057205Y-63517419D02*
X182295300Y-63517419D01*
X182295300Y-63517419D02*
X182438157Y-63565038D01*
X182438157Y-63565038D02*
X182533395Y-63660276D01*
X182533395Y-63660276D02*
X182581014Y-63755514D01*
X182581014Y-63755514D02*
X182628633Y-63945990D01*
X182628633Y-63945990D02*
X182628633Y-64088847D01*
X182628633Y-64088847D02*
X182581014Y-64279323D01*
X182581014Y-64279323D02*
X182533395Y-64374561D01*
X182533395Y-64374561D02*
X182438157Y-64469800D01*
X182438157Y-64469800D02*
X182295300Y-64517419D01*
X182295300Y-64517419D02*
X182057205Y-64517419D01*
X183485776Y-63517419D02*
X183295300Y-63517419D01*
X183295300Y-63517419D02*
X183200062Y-63565038D01*
X183200062Y-63565038D02*
X183152443Y-63612657D01*
X183152443Y-63612657D02*
X183057205Y-63755514D01*
X183057205Y-63755514D02*
X183009586Y-63945990D01*
X183009586Y-63945990D02*
X183009586Y-64326942D01*
X183009586Y-64326942D02*
X183057205Y-64422180D01*
X183057205Y-64422180D02*
X183104824Y-64469800D01*
X183104824Y-64469800D02*
X183200062Y-64517419D01*
X183200062Y-64517419D02*
X183390538Y-64517419D01*
X183390538Y-64517419D02*
X183485776Y-64469800D01*
X183485776Y-64469800D02*
X183533395Y-64422180D01*
X183533395Y-64422180D02*
X183581014Y-64326942D01*
X183581014Y-64326942D02*
X183581014Y-64088847D01*
X183581014Y-64088847D02*
X183533395Y-63993609D01*
X183533395Y-63993609D02*
X183485776Y-63945990D01*
X183485776Y-63945990D02*
X183390538Y-63898371D01*
X183390538Y-63898371D02*
X183200062Y-63898371D01*
X183200062Y-63898371D02*
X183104824Y-63945990D01*
X183104824Y-63945990D02*
X183057205Y-63993609D01*
X183057205Y-63993609D02*
X183009586Y-64088847D01*
X130188414Y-112777419D02*
X130188414Y-111777419D01*
X130188414Y-111777419D02*
X130426509Y-111777419D01*
X130426509Y-111777419D02*
X130569366Y-111825038D01*
X130569366Y-111825038D02*
X130664604Y-111920276D01*
X130664604Y-111920276D02*
X130712223Y-112015514D01*
X130712223Y-112015514D02*
X130759842Y-112205990D01*
X130759842Y-112205990D02*
X130759842Y-112348847D01*
X130759842Y-112348847D02*
X130712223Y-112539323D01*
X130712223Y-112539323D02*
X130664604Y-112634561D01*
X130664604Y-112634561D02*
X130569366Y-112729800D01*
X130569366Y-112729800D02*
X130426509Y-112777419D01*
X130426509Y-112777419D02*
X130188414Y-112777419D01*
X131712223Y-112777419D02*
X131140795Y-112777419D01*
X131426509Y-112777419D02*
X131426509Y-111777419D01*
X131426509Y-111777419D02*
X131331271Y-111920276D01*
X131331271Y-111920276D02*
X131236033Y-112015514D01*
X131236033Y-112015514D02*
X131140795Y-112063133D01*
X132283652Y-112205990D02*
X132188414Y-112158371D01*
X132188414Y-112158371D02*
X132140795Y-112110752D01*
X132140795Y-112110752D02*
X132093176Y-112015514D01*
X132093176Y-112015514D02*
X132093176Y-111967895D01*
X132093176Y-111967895D02*
X132140795Y-111872657D01*
X132140795Y-111872657D02*
X132188414Y-111825038D01*
X132188414Y-111825038D02*
X132283652Y-111777419D01*
X132283652Y-111777419D02*
X132474128Y-111777419D01*
X132474128Y-111777419D02*
X132569366Y-111825038D01*
X132569366Y-111825038D02*
X132616985Y-111872657D01*
X132616985Y-111872657D02*
X132664604Y-111967895D01*
X132664604Y-111967895D02*
X132664604Y-112015514D01*
X132664604Y-112015514D02*
X132616985Y-112110752D01*
X132616985Y-112110752D02*
X132569366Y-112158371D01*
X132569366Y-112158371D02*
X132474128Y-112205990D01*
X132474128Y-112205990D02*
X132283652Y-112205990D01*
X132283652Y-112205990D02*
X132188414Y-112253609D01*
X132188414Y-112253609D02*
X132140795Y-112301228D01*
X132140795Y-112301228D02*
X132093176Y-112396466D01*
X132093176Y-112396466D02*
X132093176Y-112586942D01*
X132093176Y-112586942D02*
X132140795Y-112682180D01*
X132140795Y-112682180D02*
X132188414Y-112729800D01*
X132188414Y-112729800D02*
X132283652Y-112777419D01*
X132283652Y-112777419D02*
X132474128Y-112777419D01*
X132474128Y-112777419D02*
X132569366Y-112729800D01*
X132569366Y-112729800D02*
X132616985Y-112682180D01*
X132616985Y-112682180D02*
X132664604Y-112586942D01*
X132664604Y-112586942D02*
X132664604Y-112396466D01*
X132664604Y-112396466D02*
X132616985Y-112301228D01*
X132616985Y-112301228D02*
X132569366Y-112253609D01*
X132569366Y-112253609D02*
X132474128Y-112205990D01*
X139247714Y-112777419D02*
X139247714Y-111777419D01*
X139247714Y-111777419D02*
X139485809Y-111777419D01*
X139485809Y-111777419D02*
X139628666Y-111825038D01*
X139628666Y-111825038D02*
X139723904Y-111920276D01*
X139723904Y-111920276D02*
X139771523Y-112015514D01*
X139771523Y-112015514D02*
X139819142Y-112205990D01*
X139819142Y-112205990D02*
X139819142Y-112348847D01*
X139819142Y-112348847D02*
X139771523Y-112539323D01*
X139771523Y-112539323D02*
X139723904Y-112634561D01*
X139723904Y-112634561D02*
X139628666Y-112729800D01*
X139628666Y-112729800D02*
X139485809Y-112777419D01*
X139485809Y-112777419D02*
X139247714Y-112777419D01*
X140771523Y-112777419D02*
X140200095Y-112777419D01*
X140485809Y-112777419D02*
X140485809Y-111777419D01*
X140485809Y-111777419D02*
X140390571Y-111920276D01*
X140390571Y-111920276D02*
X140295333Y-112015514D01*
X140295333Y-112015514D02*
X140200095Y-112063133D01*
X141247714Y-112777419D02*
X141438190Y-112777419D01*
X141438190Y-112777419D02*
X141533428Y-112729800D01*
X141533428Y-112729800D02*
X141581047Y-112682180D01*
X141581047Y-112682180D02*
X141676285Y-112539323D01*
X141676285Y-112539323D02*
X141723904Y-112348847D01*
X141723904Y-112348847D02*
X141723904Y-111967895D01*
X141723904Y-111967895D02*
X141676285Y-111872657D01*
X141676285Y-111872657D02*
X141628666Y-111825038D01*
X141628666Y-111825038D02*
X141533428Y-111777419D01*
X141533428Y-111777419D02*
X141342952Y-111777419D01*
X141342952Y-111777419D02*
X141247714Y-111825038D01*
X141247714Y-111825038D02*
X141200095Y-111872657D01*
X141200095Y-111872657D02*
X141152476Y-111967895D01*
X141152476Y-111967895D02*
X141152476Y-112205990D01*
X141152476Y-112205990D02*
X141200095Y-112301228D01*
X141200095Y-112301228D02*
X141247714Y-112348847D01*
X141247714Y-112348847D02*
X141342952Y-112396466D01*
X141342952Y-112396466D02*
X141533428Y-112396466D01*
X141533428Y-112396466D02*
X141628666Y-112348847D01*
X141628666Y-112348847D02*
X141676285Y-112301228D01*
X141676285Y-112301228D02*
X141723904Y-112205990D01*
X156265714Y-136272419D02*
X156265714Y-135272419D01*
X156265714Y-135272419D02*
X156503809Y-135272419D01*
X156503809Y-135272419D02*
X156646666Y-135320038D01*
X156646666Y-135320038D02*
X156741904Y-135415276D01*
X156741904Y-135415276D02*
X156789523Y-135510514D01*
X156789523Y-135510514D02*
X156837142Y-135700990D01*
X156837142Y-135700990D02*
X156837142Y-135843847D01*
X156837142Y-135843847D02*
X156789523Y-136034323D01*
X156789523Y-136034323D02*
X156741904Y-136129561D01*
X156741904Y-136129561D02*
X156646666Y-136224800D01*
X156646666Y-136224800D02*
X156503809Y-136272419D01*
X156503809Y-136272419D02*
X156265714Y-136272419D01*
X157170476Y-135272419D02*
X157789523Y-135272419D01*
X157789523Y-135272419D02*
X157456190Y-135653371D01*
X157456190Y-135653371D02*
X157599047Y-135653371D01*
X157599047Y-135653371D02*
X157694285Y-135700990D01*
X157694285Y-135700990D02*
X157741904Y-135748609D01*
X157741904Y-135748609D02*
X157789523Y-135843847D01*
X157789523Y-135843847D02*
X157789523Y-136081942D01*
X157789523Y-136081942D02*
X157741904Y-136177180D01*
X157741904Y-136177180D02*
X157694285Y-136224800D01*
X157694285Y-136224800D02*
X157599047Y-136272419D01*
X157599047Y-136272419D02*
X157313333Y-136272419D01*
X157313333Y-136272419D02*
X157218095Y-136224800D01*
X157218095Y-136224800D02*
X157170476Y-136177180D01*
X158741904Y-136272419D02*
X158170476Y-136272419D01*
X158456190Y-136272419D02*
X158456190Y-135272419D01*
X158456190Y-135272419D02*
X158360952Y-135415276D01*
X158360952Y-135415276D02*
X158265714Y-135510514D01*
X158265714Y-135510514D02*
X158170476Y-135558133D01*
X167653414Y-136272419D02*
X167653414Y-135272419D01*
X167653414Y-135272419D02*
X167891509Y-135272419D01*
X167891509Y-135272419D02*
X168034366Y-135320038D01*
X168034366Y-135320038D02*
X168129604Y-135415276D01*
X168129604Y-135415276D02*
X168177223Y-135510514D01*
X168177223Y-135510514D02*
X168224842Y-135700990D01*
X168224842Y-135700990D02*
X168224842Y-135843847D01*
X168224842Y-135843847D02*
X168177223Y-136034323D01*
X168177223Y-136034323D02*
X168129604Y-136129561D01*
X168129604Y-136129561D02*
X168034366Y-136224800D01*
X168034366Y-136224800D02*
X167891509Y-136272419D01*
X167891509Y-136272419D02*
X167653414Y-136272419D01*
X168558176Y-135272419D02*
X169177223Y-135272419D01*
X169177223Y-135272419D02*
X168843890Y-135653371D01*
X168843890Y-135653371D02*
X168986747Y-135653371D01*
X168986747Y-135653371D02*
X169081985Y-135700990D01*
X169081985Y-135700990D02*
X169129604Y-135748609D01*
X169129604Y-135748609D02*
X169177223Y-135843847D01*
X169177223Y-135843847D02*
X169177223Y-136081942D01*
X169177223Y-136081942D02*
X169129604Y-136177180D01*
X169129604Y-136177180D02*
X169081985Y-136224800D01*
X169081985Y-136224800D02*
X168986747Y-136272419D01*
X168986747Y-136272419D02*
X168701033Y-136272419D01*
X168701033Y-136272419D02*
X168605795Y-136224800D01*
X168605795Y-136224800D02*
X168558176Y-136177180D01*
X169558176Y-135367657D02*
X169605795Y-135320038D01*
X169605795Y-135320038D02*
X169701033Y-135272419D01*
X169701033Y-135272419D02*
X169939128Y-135272419D01*
X169939128Y-135272419D02*
X170034366Y-135320038D01*
X170034366Y-135320038D02*
X170081985Y-135367657D01*
X170081985Y-135367657D02*
X170129604Y-135462895D01*
X170129604Y-135462895D02*
X170129604Y-135558133D01*
X170129604Y-135558133D02*
X170081985Y-135700990D01*
X170081985Y-135700990D02*
X169510557Y-136272419D01*
X169510557Y-136272419D02*
X170129604Y-136272419D01*
X205287714Y-136272419D02*
X205287714Y-135272419D01*
X205287714Y-135272419D02*
X205525809Y-135272419D01*
X205525809Y-135272419D02*
X205668666Y-135320038D01*
X205668666Y-135320038D02*
X205763904Y-135415276D01*
X205763904Y-135415276D02*
X205811523Y-135510514D01*
X205811523Y-135510514D02*
X205859142Y-135700990D01*
X205859142Y-135700990D02*
X205859142Y-135843847D01*
X205859142Y-135843847D02*
X205811523Y-136034323D01*
X205811523Y-136034323D02*
X205763904Y-136129561D01*
X205763904Y-136129561D02*
X205668666Y-136224800D01*
X205668666Y-136224800D02*
X205525809Y-136272419D01*
X205525809Y-136272419D02*
X205287714Y-136272419D01*
X206192476Y-135272419D02*
X206811523Y-135272419D01*
X206811523Y-135272419D02*
X206478190Y-135653371D01*
X206478190Y-135653371D02*
X206621047Y-135653371D01*
X206621047Y-135653371D02*
X206716285Y-135700990D01*
X206716285Y-135700990D02*
X206763904Y-135748609D01*
X206763904Y-135748609D02*
X206811523Y-135843847D01*
X206811523Y-135843847D02*
X206811523Y-136081942D01*
X206811523Y-136081942D02*
X206763904Y-136177180D01*
X206763904Y-136177180D02*
X206716285Y-136224800D01*
X206716285Y-136224800D02*
X206621047Y-136272419D01*
X206621047Y-136272419D02*
X206335333Y-136272419D01*
X206335333Y-136272419D02*
X206240095Y-136224800D01*
X206240095Y-136224800D02*
X206192476Y-136177180D01*
X207716285Y-135272419D02*
X207240095Y-135272419D01*
X207240095Y-135272419D02*
X207192476Y-135748609D01*
X207192476Y-135748609D02*
X207240095Y-135700990D01*
X207240095Y-135700990D02*
X207335333Y-135653371D01*
X207335333Y-135653371D02*
X207573428Y-135653371D01*
X207573428Y-135653371D02*
X207668666Y-135700990D01*
X207668666Y-135700990D02*
X207716285Y-135748609D01*
X207716285Y-135748609D02*
X207763904Y-135843847D01*
X207763904Y-135843847D02*
X207763904Y-136081942D01*
X207763904Y-136081942D02*
X207716285Y-136177180D01*
X207716285Y-136177180D02*
X207668666Y-136224800D01*
X207668666Y-136224800D02*
X207573428Y-136272419D01*
X207573428Y-136272419D02*
X207335333Y-136272419D01*
X207335333Y-136272419D02*
X207240095Y-136224800D01*
X207240095Y-136224800D02*
X207192476Y-136177180D01*
X174638414Y-112777419D02*
X174638414Y-111777419D01*
X174638414Y-111777419D02*
X174876509Y-111777419D01*
X174876509Y-111777419D02*
X175019366Y-111825038D01*
X175019366Y-111825038D02*
X175114604Y-111920276D01*
X175114604Y-111920276D02*
X175162223Y-112015514D01*
X175162223Y-112015514D02*
X175209842Y-112205990D01*
X175209842Y-112205990D02*
X175209842Y-112348847D01*
X175209842Y-112348847D02*
X175162223Y-112539323D01*
X175162223Y-112539323D02*
X175114604Y-112634561D01*
X175114604Y-112634561D02*
X175019366Y-112729800D01*
X175019366Y-112729800D02*
X174876509Y-112777419D01*
X174876509Y-112777419D02*
X174638414Y-112777419D01*
X175590795Y-111872657D02*
X175638414Y-111825038D01*
X175638414Y-111825038D02*
X175733652Y-111777419D01*
X175733652Y-111777419D02*
X175971747Y-111777419D01*
X175971747Y-111777419D02*
X176066985Y-111825038D01*
X176066985Y-111825038D02*
X176114604Y-111872657D01*
X176114604Y-111872657D02*
X176162223Y-111967895D01*
X176162223Y-111967895D02*
X176162223Y-112063133D01*
X176162223Y-112063133D02*
X176114604Y-112205990D01*
X176114604Y-112205990D02*
X175543176Y-112777419D01*
X175543176Y-112777419D02*
X176162223Y-112777419D01*
X176495557Y-111777419D02*
X177114604Y-111777419D01*
X177114604Y-111777419D02*
X176781271Y-112158371D01*
X176781271Y-112158371D02*
X176924128Y-112158371D01*
X176924128Y-112158371D02*
X177019366Y-112205990D01*
X177019366Y-112205990D02*
X177066985Y-112253609D01*
X177066985Y-112253609D02*
X177114604Y-112348847D01*
X177114604Y-112348847D02*
X177114604Y-112586942D01*
X177114604Y-112586942D02*
X177066985Y-112682180D01*
X177066985Y-112682180D02*
X177019366Y-112729800D01*
X177019366Y-112729800D02*
X176924128Y-112777419D01*
X176924128Y-112777419D02*
X176638414Y-112777419D01*
X176638414Y-112777419D02*
X176543176Y-112729800D01*
X176543176Y-112729800D02*
X176495557Y-112682180D01*
X192079714Y-112777419D02*
X192079714Y-111777419D01*
X192079714Y-111777419D02*
X192317809Y-111777419D01*
X192317809Y-111777419D02*
X192460666Y-111825038D01*
X192460666Y-111825038D02*
X192555904Y-111920276D01*
X192555904Y-111920276D02*
X192603523Y-112015514D01*
X192603523Y-112015514D02*
X192651142Y-112205990D01*
X192651142Y-112205990D02*
X192651142Y-112348847D01*
X192651142Y-112348847D02*
X192603523Y-112539323D01*
X192603523Y-112539323D02*
X192555904Y-112634561D01*
X192555904Y-112634561D02*
X192460666Y-112729800D01*
X192460666Y-112729800D02*
X192317809Y-112777419D01*
X192317809Y-112777419D02*
X192079714Y-112777419D01*
X193032095Y-111872657D02*
X193079714Y-111825038D01*
X193079714Y-111825038D02*
X193174952Y-111777419D01*
X193174952Y-111777419D02*
X193413047Y-111777419D01*
X193413047Y-111777419D02*
X193508285Y-111825038D01*
X193508285Y-111825038D02*
X193555904Y-111872657D01*
X193555904Y-111872657D02*
X193603523Y-111967895D01*
X193603523Y-111967895D02*
X193603523Y-112063133D01*
X193603523Y-112063133D02*
X193555904Y-112205990D01*
X193555904Y-112205990D02*
X192984476Y-112777419D01*
X192984476Y-112777419D02*
X193603523Y-112777419D01*
X194508285Y-111777419D02*
X194032095Y-111777419D01*
X194032095Y-111777419D02*
X193984476Y-112253609D01*
X193984476Y-112253609D02*
X194032095Y-112205990D01*
X194032095Y-112205990D02*
X194127333Y-112158371D01*
X194127333Y-112158371D02*
X194365428Y-112158371D01*
X194365428Y-112158371D02*
X194460666Y-112205990D01*
X194460666Y-112205990D02*
X194508285Y-112253609D01*
X194508285Y-112253609D02*
X194555904Y-112348847D01*
X194555904Y-112348847D02*
X194555904Y-112586942D01*
X194555904Y-112586942D02*
X194508285Y-112682180D01*
X194508285Y-112682180D02*
X194460666Y-112729800D01*
X194460666Y-112729800D02*
X194365428Y-112777419D01*
X194365428Y-112777419D02*
X194127333Y-112777419D01*
X194127333Y-112777419D02*
X194032095Y-112729800D01*
X194032095Y-112729800D02*
X193984476Y-112682180D01*
X183528414Y-112777419D02*
X183528414Y-111777419D01*
X183528414Y-111777419D02*
X183766509Y-111777419D01*
X183766509Y-111777419D02*
X183909366Y-111825038D01*
X183909366Y-111825038D02*
X184004604Y-111920276D01*
X184004604Y-111920276D02*
X184052223Y-112015514D01*
X184052223Y-112015514D02*
X184099842Y-112205990D01*
X184099842Y-112205990D02*
X184099842Y-112348847D01*
X184099842Y-112348847D02*
X184052223Y-112539323D01*
X184052223Y-112539323D02*
X184004604Y-112634561D01*
X184004604Y-112634561D02*
X183909366Y-112729800D01*
X183909366Y-112729800D02*
X183766509Y-112777419D01*
X183766509Y-112777419D02*
X183528414Y-112777419D01*
X184480795Y-111872657D02*
X184528414Y-111825038D01*
X184528414Y-111825038D02*
X184623652Y-111777419D01*
X184623652Y-111777419D02*
X184861747Y-111777419D01*
X184861747Y-111777419D02*
X184956985Y-111825038D01*
X184956985Y-111825038D02*
X185004604Y-111872657D01*
X185004604Y-111872657D02*
X185052223Y-111967895D01*
X185052223Y-111967895D02*
X185052223Y-112063133D01*
X185052223Y-112063133D02*
X185004604Y-112205990D01*
X185004604Y-112205990D02*
X184433176Y-112777419D01*
X184433176Y-112777419D02*
X185052223Y-112777419D01*
X185909366Y-112110752D02*
X185909366Y-112777419D01*
X185671271Y-111729800D02*
X185433176Y-112444085D01*
X185433176Y-112444085D02*
X186052223Y-112444085D01*
X216717714Y-136272419D02*
X216717714Y-135272419D01*
X216717714Y-135272419D02*
X216955809Y-135272419D01*
X216955809Y-135272419D02*
X217098666Y-135320038D01*
X217098666Y-135320038D02*
X217193904Y-135415276D01*
X217193904Y-135415276D02*
X217241523Y-135510514D01*
X217241523Y-135510514D02*
X217289142Y-135700990D01*
X217289142Y-135700990D02*
X217289142Y-135843847D01*
X217289142Y-135843847D02*
X217241523Y-136034323D01*
X217241523Y-136034323D02*
X217193904Y-136129561D01*
X217193904Y-136129561D02*
X217098666Y-136224800D01*
X217098666Y-136224800D02*
X216955809Y-136272419D01*
X216955809Y-136272419D02*
X216717714Y-136272419D01*
X217622476Y-135272419D02*
X218241523Y-135272419D01*
X218241523Y-135272419D02*
X217908190Y-135653371D01*
X217908190Y-135653371D02*
X218051047Y-135653371D01*
X218051047Y-135653371D02*
X218146285Y-135700990D01*
X218146285Y-135700990D02*
X218193904Y-135748609D01*
X218193904Y-135748609D02*
X218241523Y-135843847D01*
X218241523Y-135843847D02*
X218241523Y-136081942D01*
X218241523Y-136081942D02*
X218193904Y-136177180D01*
X218193904Y-136177180D02*
X218146285Y-136224800D01*
X218146285Y-136224800D02*
X218051047Y-136272419D01*
X218051047Y-136272419D02*
X217765333Y-136272419D01*
X217765333Y-136272419D02*
X217670095Y-136224800D01*
X217670095Y-136224800D02*
X217622476Y-136177180D01*
X219098666Y-135272419D02*
X218908190Y-135272419D01*
X218908190Y-135272419D02*
X218812952Y-135320038D01*
X218812952Y-135320038D02*
X218765333Y-135367657D01*
X218765333Y-135367657D02*
X218670095Y-135510514D01*
X218670095Y-135510514D02*
X218622476Y-135700990D01*
X218622476Y-135700990D02*
X218622476Y-136081942D01*
X218622476Y-136081942D02*
X218670095Y-136177180D01*
X218670095Y-136177180D02*
X218717714Y-136224800D01*
X218717714Y-136224800D02*
X218812952Y-136272419D01*
X218812952Y-136272419D02*
X219003428Y-136272419D01*
X219003428Y-136272419D02*
X219098666Y-136224800D01*
X219098666Y-136224800D02*
X219146285Y-136177180D01*
X219146285Y-136177180D02*
X219193904Y-136081942D01*
X219193904Y-136081942D02*
X219193904Y-135843847D01*
X219193904Y-135843847D02*
X219146285Y-135748609D01*
X219146285Y-135748609D02*
X219098666Y-135700990D01*
X219098666Y-135700990D02*
X219003428Y-135653371D01*
X219003428Y-135653371D02*
X218812952Y-135653371D01*
X218812952Y-135653371D02*
X218717714Y-135700990D01*
X218717714Y-135700990D02*
X218670095Y-135748609D01*
X218670095Y-135748609D02*
X218622476Y-135843847D01*
X210029014Y-112777419D02*
X210029014Y-111777419D01*
X210029014Y-111777419D02*
X210267109Y-111777419D01*
X210267109Y-111777419D02*
X210409966Y-111825038D01*
X210409966Y-111825038D02*
X210505204Y-111920276D01*
X210505204Y-111920276D02*
X210552823Y-112015514D01*
X210552823Y-112015514D02*
X210600442Y-112205990D01*
X210600442Y-112205990D02*
X210600442Y-112348847D01*
X210600442Y-112348847D02*
X210552823Y-112539323D01*
X210552823Y-112539323D02*
X210505204Y-112634561D01*
X210505204Y-112634561D02*
X210409966Y-112729800D01*
X210409966Y-112729800D02*
X210267109Y-112777419D01*
X210267109Y-112777419D02*
X210029014Y-112777419D01*
X210981395Y-111872657D02*
X211029014Y-111825038D01*
X211029014Y-111825038D02*
X211124252Y-111777419D01*
X211124252Y-111777419D02*
X211362347Y-111777419D01*
X211362347Y-111777419D02*
X211457585Y-111825038D01*
X211457585Y-111825038D02*
X211505204Y-111872657D01*
X211505204Y-111872657D02*
X211552823Y-111967895D01*
X211552823Y-111967895D02*
X211552823Y-112063133D01*
X211552823Y-112063133D02*
X211505204Y-112205990D01*
X211505204Y-112205990D02*
X210933776Y-112777419D01*
X210933776Y-112777419D02*
X211552823Y-112777419D01*
X211886157Y-111777419D02*
X212552823Y-111777419D01*
X212552823Y-111777419D02*
X212124252Y-112777419D01*
X156858414Y-112777419D02*
X156858414Y-111777419D01*
X156858414Y-111777419D02*
X157096509Y-111777419D01*
X157096509Y-111777419D02*
X157239366Y-111825038D01*
X157239366Y-111825038D02*
X157334604Y-111920276D01*
X157334604Y-111920276D02*
X157382223Y-112015514D01*
X157382223Y-112015514D02*
X157429842Y-112205990D01*
X157429842Y-112205990D02*
X157429842Y-112348847D01*
X157429842Y-112348847D02*
X157382223Y-112539323D01*
X157382223Y-112539323D02*
X157334604Y-112634561D01*
X157334604Y-112634561D02*
X157239366Y-112729800D01*
X157239366Y-112729800D02*
X157096509Y-112777419D01*
X157096509Y-112777419D02*
X156858414Y-112777419D01*
X157810795Y-111872657D02*
X157858414Y-111825038D01*
X157858414Y-111825038D02*
X157953652Y-111777419D01*
X157953652Y-111777419D02*
X158191747Y-111777419D01*
X158191747Y-111777419D02*
X158286985Y-111825038D01*
X158286985Y-111825038D02*
X158334604Y-111872657D01*
X158334604Y-111872657D02*
X158382223Y-111967895D01*
X158382223Y-111967895D02*
X158382223Y-112063133D01*
X158382223Y-112063133D02*
X158334604Y-112205990D01*
X158334604Y-112205990D02*
X157763176Y-112777419D01*
X157763176Y-112777419D02*
X158382223Y-112777419D01*
X159334604Y-112777419D02*
X158763176Y-112777419D01*
X159048890Y-112777419D02*
X159048890Y-111777419D01*
X159048890Y-111777419D02*
X158953652Y-111920276D01*
X158953652Y-111920276D02*
X158858414Y-112015514D01*
X158858414Y-112015514D02*
X158763176Y-112063133D01*
X181623414Y-88722419D02*
X181623414Y-87722419D01*
X181623414Y-87722419D02*
X181861509Y-87722419D01*
X181861509Y-87722419D02*
X182004366Y-87770038D01*
X182004366Y-87770038D02*
X182099604Y-87865276D01*
X182099604Y-87865276D02*
X182147223Y-87960514D01*
X182147223Y-87960514D02*
X182194842Y-88150990D01*
X182194842Y-88150990D02*
X182194842Y-88293847D01*
X182194842Y-88293847D02*
X182147223Y-88484323D01*
X182147223Y-88484323D02*
X182099604Y-88579561D01*
X182099604Y-88579561D02*
X182004366Y-88674800D01*
X182004366Y-88674800D02*
X181861509Y-88722419D01*
X181861509Y-88722419D02*
X181623414Y-88722419D01*
X183147223Y-88722419D02*
X182575795Y-88722419D01*
X182861509Y-88722419D02*
X182861509Y-87722419D01*
X182861509Y-87722419D02*
X182766271Y-87865276D01*
X182766271Y-87865276D02*
X182671033Y-87960514D01*
X182671033Y-87960514D02*
X182575795Y-88008133D01*
X184004366Y-88055752D02*
X184004366Y-88722419D01*
X183766271Y-87674800D02*
X183528176Y-88389085D01*
X183528176Y-88389085D02*
X184147223Y-88389085D01*
X143364605Y-64517419D02*
X143364605Y-63517419D01*
X143364605Y-63517419D02*
X143602700Y-63517419D01*
X143602700Y-63517419D02*
X143745557Y-63565038D01*
X143745557Y-63565038D02*
X143840795Y-63660276D01*
X143840795Y-63660276D02*
X143888414Y-63755514D01*
X143888414Y-63755514D02*
X143936033Y-63945990D01*
X143936033Y-63945990D02*
X143936033Y-64088847D01*
X143936033Y-64088847D02*
X143888414Y-64279323D01*
X143888414Y-64279323D02*
X143840795Y-64374561D01*
X143840795Y-64374561D02*
X143745557Y-64469800D01*
X143745557Y-64469800D02*
X143602700Y-64517419D01*
X143602700Y-64517419D02*
X143364605Y-64517419D01*
X144269367Y-63517419D02*
X144888414Y-63517419D01*
X144888414Y-63517419D02*
X144555081Y-63898371D01*
X144555081Y-63898371D02*
X144697938Y-63898371D01*
X144697938Y-63898371D02*
X144793176Y-63945990D01*
X144793176Y-63945990D02*
X144840795Y-63993609D01*
X144840795Y-63993609D02*
X144888414Y-64088847D01*
X144888414Y-64088847D02*
X144888414Y-64326942D01*
X144888414Y-64326942D02*
X144840795Y-64422180D01*
X144840795Y-64422180D02*
X144793176Y-64469800D01*
X144793176Y-64469800D02*
X144697938Y-64517419D01*
X144697938Y-64517419D02*
X144412224Y-64517419D01*
X144412224Y-64517419D02*
X144316986Y-64469800D01*
X144316986Y-64469800D02*
X144269367Y-64422180D01*
X205160714Y-88722419D02*
X205160714Y-87722419D01*
X205160714Y-87722419D02*
X205398809Y-87722419D01*
X205398809Y-87722419D02*
X205541666Y-87770038D01*
X205541666Y-87770038D02*
X205636904Y-87865276D01*
X205636904Y-87865276D02*
X205684523Y-87960514D01*
X205684523Y-87960514D02*
X205732142Y-88150990D01*
X205732142Y-88150990D02*
X205732142Y-88293847D01*
X205732142Y-88293847D02*
X205684523Y-88484323D01*
X205684523Y-88484323D02*
X205636904Y-88579561D01*
X205636904Y-88579561D02*
X205541666Y-88674800D01*
X205541666Y-88674800D02*
X205398809Y-88722419D01*
X205398809Y-88722419D02*
X205160714Y-88722419D01*
X206684523Y-88722419D02*
X206113095Y-88722419D01*
X206398809Y-88722419D02*
X206398809Y-87722419D01*
X206398809Y-87722419D02*
X206303571Y-87865276D01*
X206303571Y-87865276D02*
X206208333Y-87960514D01*
X206208333Y-87960514D02*
X206113095Y-88008133D01*
X207541666Y-87722419D02*
X207351190Y-87722419D01*
X207351190Y-87722419D02*
X207255952Y-87770038D01*
X207255952Y-87770038D02*
X207208333Y-87817657D01*
X207208333Y-87817657D02*
X207113095Y-87960514D01*
X207113095Y-87960514D02*
X207065476Y-88150990D01*
X207065476Y-88150990D02*
X207065476Y-88531942D01*
X207065476Y-88531942D02*
X207113095Y-88627180D01*
X207113095Y-88627180D02*
X207160714Y-88674800D01*
X207160714Y-88674800D02*
X207255952Y-88722419D01*
X207255952Y-88722419D02*
X207446428Y-88722419D01*
X207446428Y-88722419D02*
X207541666Y-88674800D01*
X207541666Y-88674800D02*
X207589285Y-88627180D01*
X207589285Y-88627180D02*
X207636904Y-88531942D01*
X207636904Y-88531942D02*
X207636904Y-88293847D01*
X207636904Y-88293847D02*
X207589285Y-88198609D01*
X207589285Y-88198609D02*
X207541666Y-88150990D01*
X207541666Y-88150990D02*
X207446428Y-88103371D01*
X207446428Y-88103371D02*
X207255952Y-88103371D01*
X207255952Y-88103371D02*
X207160714Y-88150990D01*
X207160714Y-88150990D02*
X207113095Y-88198609D01*
X207113095Y-88198609D02*
X207065476Y-88293847D01*
X218495714Y-112777419D02*
X218495714Y-111777419D01*
X218495714Y-111777419D02*
X218733809Y-111777419D01*
X218733809Y-111777419D02*
X218876666Y-111825038D01*
X218876666Y-111825038D02*
X218971904Y-111920276D01*
X218971904Y-111920276D02*
X219019523Y-112015514D01*
X219019523Y-112015514D02*
X219067142Y-112205990D01*
X219067142Y-112205990D02*
X219067142Y-112348847D01*
X219067142Y-112348847D02*
X219019523Y-112539323D01*
X219019523Y-112539323D02*
X218971904Y-112634561D01*
X218971904Y-112634561D02*
X218876666Y-112729800D01*
X218876666Y-112729800D02*
X218733809Y-112777419D01*
X218733809Y-112777419D02*
X218495714Y-112777419D01*
X219448095Y-111872657D02*
X219495714Y-111825038D01*
X219495714Y-111825038D02*
X219590952Y-111777419D01*
X219590952Y-111777419D02*
X219829047Y-111777419D01*
X219829047Y-111777419D02*
X219924285Y-111825038D01*
X219924285Y-111825038D02*
X219971904Y-111872657D01*
X219971904Y-111872657D02*
X220019523Y-111967895D01*
X220019523Y-111967895D02*
X220019523Y-112063133D01*
X220019523Y-112063133D02*
X219971904Y-112205990D01*
X219971904Y-112205990D02*
X219400476Y-112777419D01*
X219400476Y-112777419D02*
X220019523Y-112777419D01*
X220590952Y-112205990D02*
X220495714Y-112158371D01*
X220495714Y-112158371D02*
X220448095Y-112110752D01*
X220448095Y-112110752D02*
X220400476Y-112015514D01*
X220400476Y-112015514D02*
X220400476Y-111967895D01*
X220400476Y-111967895D02*
X220448095Y-111872657D01*
X220448095Y-111872657D02*
X220495714Y-111825038D01*
X220495714Y-111825038D02*
X220590952Y-111777419D01*
X220590952Y-111777419D02*
X220781428Y-111777419D01*
X220781428Y-111777419D02*
X220876666Y-111825038D01*
X220876666Y-111825038D02*
X220924285Y-111872657D01*
X220924285Y-111872657D02*
X220971904Y-111967895D01*
X220971904Y-111967895D02*
X220971904Y-112015514D01*
X220971904Y-112015514D02*
X220924285Y-112110752D01*
X220924285Y-112110752D02*
X220876666Y-112158371D01*
X220876666Y-112158371D02*
X220781428Y-112205990D01*
X220781428Y-112205990D02*
X220590952Y-112205990D01*
X220590952Y-112205990D02*
X220495714Y-112253609D01*
X220495714Y-112253609D02*
X220448095Y-112301228D01*
X220448095Y-112301228D02*
X220400476Y-112396466D01*
X220400476Y-112396466D02*
X220400476Y-112586942D01*
X220400476Y-112586942D02*
X220448095Y-112682180D01*
X220448095Y-112682180D02*
X220495714Y-112729800D01*
X220495714Y-112729800D02*
X220590952Y-112777419D01*
X220590952Y-112777419D02*
X220781428Y-112777419D01*
X220781428Y-112777419D02*
X220876666Y-112729800D01*
X220876666Y-112729800D02*
X220924285Y-112682180D01*
X220924285Y-112682180D02*
X220971904Y-112586942D01*
X220971904Y-112586942D02*
X220971904Y-112396466D01*
X220971904Y-112396466D02*
X220924285Y-112301228D01*
X220924285Y-112301228D02*
X220876666Y-112253609D01*
X220876666Y-112253609D02*
X220781428Y-112205990D01*
X192079714Y-136272419D02*
X192079714Y-135272419D01*
X192079714Y-135272419D02*
X192317809Y-135272419D01*
X192317809Y-135272419D02*
X192460666Y-135320038D01*
X192460666Y-135320038D02*
X192555904Y-135415276D01*
X192555904Y-135415276D02*
X192603523Y-135510514D01*
X192603523Y-135510514D02*
X192651142Y-135700990D01*
X192651142Y-135700990D02*
X192651142Y-135843847D01*
X192651142Y-135843847D02*
X192603523Y-136034323D01*
X192603523Y-136034323D02*
X192555904Y-136129561D01*
X192555904Y-136129561D02*
X192460666Y-136224800D01*
X192460666Y-136224800D02*
X192317809Y-136272419D01*
X192317809Y-136272419D02*
X192079714Y-136272419D01*
X192984476Y-135272419D02*
X193603523Y-135272419D01*
X193603523Y-135272419D02*
X193270190Y-135653371D01*
X193270190Y-135653371D02*
X193413047Y-135653371D01*
X193413047Y-135653371D02*
X193508285Y-135700990D01*
X193508285Y-135700990D02*
X193555904Y-135748609D01*
X193555904Y-135748609D02*
X193603523Y-135843847D01*
X193603523Y-135843847D02*
X193603523Y-136081942D01*
X193603523Y-136081942D02*
X193555904Y-136177180D01*
X193555904Y-136177180D02*
X193508285Y-136224800D01*
X193508285Y-136224800D02*
X193413047Y-136272419D01*
X193413047Y-136272419D02*
X193127333Y-136272419D01*
X193127333Y-136272419D02*
X193032095Y-136224800D01*
X193032095Y-136224800D02*
X192984476Y-136177180D01*
X194460666Y-135605752D02*
X194460666Y-136272419D01*
X194222571Y-135224800D02*
X193984476Y-135939085D01*
X193984476Y-135939085D02*
X194603523Y-135939085D01*
X192894605Y-64517419D02*
X192894605Y-63517419D01*
X192894605Y-63517419D02*
X193132700Y-63517419D01*
X193132700Y-63517419D02*
X193275557Y-63565038D01*
X193275557Y-63565038D02*
X193370795Y-63660276D01*
X193370795Y-63660276D02*
X193418414Y-63755514D01*
X193418414Y-63755514D02*
X193466033Y-63945990D01*
X193466033Y-63945990D02*
X193466033Y-64088847D01*
X193466033Y-64088847D02*
X193418414Y-64279323D01*
X193418414Y-64279323D02*
X193370795Y-64374561D01*
X193370795Y-64374561D02*
X193275557Y-64469800D01*
X193275557Y-64469800D02*
X193132700Y-64517419D01*
X193132700Y-64517419D02*
X192894605Y-64517419D01*
X193799367Y-63517419D02*
X194466033Y-63517419D01*
X194466033Y-63517419D02*
X194037462Y-64517419D01*
X180988414Y-136272419D02*
X180988414Y-135272419D01*
X180988414Y-135272419D02*
X181226509Y-135272419D01*
X181226509Y-135272419D02*
X181369366Y-135320038D01*
X181369366Y-135320038D02*
X181464604Y-135415276D01*
X181464604Y-135415276D02*
X181512223Y-135510514D01*
X181512223Y-135510514D02*
X181559842Y-135700990D01*
X181559842Y-135700990D02*
X181559842Y-135843847D01*
X181559842Y-135843847D02*
X181512223Y-136034323D01*
X181512223Y-136034323D02*
X181464604Y-136129561D01*
X181464604Y-136129561D02*
X181369366Y-136224800D01*
X181369366Y-136224800D02*
X181226509Y-136272419D01*
X181226509Y-136272419D02*
X180988414Y-136272419D01*
X181893176Y-135272419D02*
X182512223Y-135272419D01*
X182512223Y-135272419D02*
X182178890Y-135653371D01*
X182178890Y-135653371D02*
X182321747Y-135653371D01*
X182321747Y-135653371D02*
X182416985Y-135700990D01*
X182416985Y-135700990D02*
X182464604Y-135748609D01*
X182464604Y-135748609D02*
X182512223Y-135843847D01*
X182512223Y-135843847D02*
X182512223Y-136081942D01*
X182512223Y-136081942D02*
X182464604Y-136177180D01*
X182464604Y-136177180D02*
X182416985Y-136224800D01*
X182416985Y-136224800D02*
X182321747Y-136272419D01*
X182321747Y-136272419D02*
X182036033Y-136272419D01*
X182036033Y-136272419D02*
X181940795Y-136224800D01*
X181940795Y-136224800D02*
X181893176Y-136177180D01*
X182845557Y-135272419D02*
X183464604Y-135272419D01*
X183464604Y-135272419D02*
X183131271Y-135653371D01*
X183131271Y-135653371D02*
X183274128Y-135653371D01*
X183274128Y-135653371D02*
X183369366Y-135700990D01*
X183369366Y-135700990D02*
X183416985Y-135748609D01*
X183416985Y-135748609D02*
X183464604Y-135843847D01*
X183464604Y-135843847D02*
X183464604Y-136081942D01*
X183464604Y-136081942D02*
X183416985Y-136177180D01*
X183416985Y-136177180D02*
X183369366Y-136224800D01*
X183369366Y-136224800D02*
X183274128Y-136272419D01*
X183274128Y-136272419D02*
X182988414Y-136272419D01*
X182988414Y-136272419D02*
X182893176Y-136224800D01*
X182893176Y-136224800D02*
X182845557Y-136177180D01*
X157334605Y-64517419D02*
X157334605Y-63517419D01*
X157334605Y-63517419D02*
X157572700Y-63517419D01*
X157572700Y-63517419D02*
X157715557Y-63565038D01*
X157715557Y-63565038D02*
X157810795Y-63660276D01*
X157810795Y-63660276D02*
X157858414Y-63755514D01*
X157858414Y-63755514D02*
X157906033Y-63945990D01*
X157906033Y-63945990D02*
X157906033Y-64088847D01*
X157906033Y-64088847D02*
X157858414Y-64279323D01*
X157858414Y-64279323D02*
X157810795Y-64374561D01*
X157810795Y-64374561D02*
X157715557Y-64469800D01*
X157715557Y-64469800D02*
X157572700Y-64517419D01*
X157572700Y-64517419D02*
X157334605Y-64517419D01*
X158763176Y-63850752D02*
X158763176Y-64517419D01*
X158525081Y-63469800D02*
X158286986Y-64184085D01*
X158286986Y-64184085D02*
X158906033Y-64184085D01*
X217225714Y-88722419D02*
X217225714Y-87722419D01*
X217225714Y-87722419D02*
X217463809Y-87722419D01*
X217463809Y-87722419D02*
X217606666Y-87770038D01*
X217606666Y-87770038D02*
X217701904Y-87865276D01*
X217701904Y-87865276D02*
X217749523Y-87960514D01*
X217749523Y-87960514D02*
X217797142Y-88150990D01*
X217797142Y-88150990D02*
X217797142Y-88293847D01*
X217797142Y-88293847D02*
X217749523Y-88484323D01*
X217749523Y-88484323D02*
X217701904Y-88579561D01*
X217701904Y-88579561D02*
X217606666Y-88674800D01*
X217606666Y-88674800D02*
X217463809Y-88722419D01*
X217463809Y-88722419D02*
X217225714Y-88722419D01*
X218749523Y-88722419D02*
X218178095Y-88722419D01*
X218463809Y-88722419D02*
X218463809Y-87722419D01*
X218463809Y-87722419D02*
X218368571Y-87865276D01*
X218368571Y-87865276D02*
X218273333Y-87960514D01*
X218273333Y-87960514D02*
X218178095Y-88008133D01*
X219082857Y-87722419D02*
X219749523Y-87722419D01*
X219749523Y-87722419D02*
X219320952Y-88722419D01*
X200969714Y-112777419D02*
X200969714Y-111777419D01*
X200969714Y-111777419D02*
X201207809Y-111777419D01*
X201207809Y-111777419D02*
X201350666Y-111825038D01*
X201350666Y-111825038D02*
X201445904Y-111920276D01*
X201445904Y-111920276D02*
X201493523Y-112015514D01*
X201493523Y-112015514D02*
X201541142Y-112205990D01*
X201541142Y-112205990D02*
X201541142Y-112348847D01*
X201541142Y-112348847D02*
X201493523Y-112539323D01*
X201493523Y-112539323D02*
X201445904Y-112634561D01*
X201445904Y-112634561D02*
X201350666Y-112729800D01*
X201350666Y-112729800D02*
X201207809Y-112777419D01*
X201207809Y-112777419D02*
X200969714Y-112777419D01*
X201922095Y-111872657D02*
X201969714Y-111825038D01*
X201969714Y-111825038D02*
X202064952Y-111777419D01*
X202064952Y-111777419D02*
X202303047Y-111777419D01*
X202303047Y-111777419D02*
X202398285Y-111825038D01*
X202398285Y-111825038D02*
X202445904Y-111872657D01*
X202445904Y-111872657D02*
X202493523Y-111967895D01*
X202493523Y-111967895D02*
X202493523Y-112063133D01*
X202493523Y-112063133D02*
X202445904Y-112205990D01*
X202445904Y-112205990D02*
X201874476Y-112777419D01*
X201874476Y-112777419D02*
X202493523Y-112777419D01*
X203350666Y-111777419D02*
X203160190Y-111777419D01*
X203160190Y-111777419D02*
X203064952Y-111825038D01*
X203064952Y-111825038D02*
X203017333Y-111872657D01*
X203017333Y-111872657D02*
X202922095Y-112015514D01*
X202922095Y-112015514D02*
X202874476Y-112205990D01*
X202874476Y-112205990D02*
X202874476Y-112586942D01*
X202874476Y-112586942D02*
X202922095Y-112682180D01*
X202922095Y-112682180D02*
X202969714Y-112729800D01*
X202969714Y-112729800D02*
X203064952Y-112777419D01*
X203064952Y-112777419D02*
X203255428Y-112777419D01*
X203255428Y-112777419D02*
X203350666Y-112729800D01*
X203350666Y-112729800D02*
X203398285Y-112682180D01*
X203398285Y-112682180D02*
X203445904Y-112586942D01*
X203445904Y-112586942D02*
X203445904Y-112348847D01*
X203445904Y-112348847D02*
X203398285Y-112253609D01*
X203398285Y-112253609D02*
X203350666Y-112205990D01*
X203350666Y-112205990D02*
X203255428Y-112158371D01*
X203255428Y-112158371D02*
X203064952Y-112158371D01*
X203064952Y-112158371D02*
X202969714Y-112205990D01*
X202969714Y-112205990D02*
X202922095Y-112253609D01*
X202922095Y-112253609D02*
X202874476Y-112348847D01*
X175106905Y-38482419D02*
X175106905Y-37482419D01*
X175106905Y-37482419D02*
X175345000Y-37482419D01*
X175345000Y-37482419D02*
X175487857Y-37530038D01*
X175487857Y-37530038D02*
X175583095Y-37625276D01*
X175583095Y-37625276D02*
X175630714Y-37720514D01*
X175630714Y-37720514D02*
X175678333Y-37910990D01*
X175678333Y-37910990D02*
X175678333Y-38053847D01*
X175678333Y-38053847D02*
X175630714Y-38244323D01*
X175630714Y-38244323D02*
X175583095Y-38339561D01*
X175583095Y-38339561D02*
X175487857Y-38434800D01*
X175487857Y-38434800D02*
X175345000Y-38482419D01*
X175345000Y-38482419D02*
X175106905Y-38482419D01*
X176630714Y-38482419D02*
X176059286Y-38482419D01*
X176345000Y-38482419D02*
X176345000Y-37482419D01*
X176345000Y-37482419D02*
X176249762Y-37625276D01*
X176249762Y-37625276D02*
X176154524Y-37720514D01*
X176154524Y-37720514D02*
X176059286Y-37768133D01*
X142930714Y-88722419D02*
X142930714Y-87722419D01*
X142930714Y-87722419D02*
X143168809Y-87722419D01*
X143168809Y-87722419D02*
X143311666Y-87770038D01*
X143311666Y-87770038D02*
X143406904Y-87865276D01*
X143406904Y-87865276D02*
X143454523Y-87960514D01*
X143454523Y-87960514D02*
X143502142Y-88150990D01*
X143502142Y-88150990D02*
X143502142Y-88293847D01*
X143502142Y-88293847D02*
X143454523Y-88484323D01*
X143454523Y-88484323D02*
X143406904Y-88579561D01*
X143406904Y-88579561D02*
X143311666Y-88674800D01*
X143311666Y-88674800D02*
X143168809Y-88722419D01*
X143168809Y-88722419D02*
X142930714Y-88722419D01*
X144454523Y-88722419D02*
X143883095Y-88722419D01*
X144168809Y-88722419D02*
X144168809Y-87722419D01*
X144168809Y-87722419D02*
X144073571Y-87865276D01*
X144073571Y-87865276D02*
X143978333Y-87960514D01*
X143978333Y-87960514D02*
X143883095Y-88008133D01*
X145406904Y-88722419D02*
X144835476Y-88722419D01*
X145121190Y-88722419D02*
X145121190Y-87722419D01*
X145121190Y-87722419D02*
X145025952Y-87865276D01*
X145025952Y-87865276D02*
X144930714Y-87960514D01*
X144930714Y-87960514D02*
X144835476Y-88008133D01*
X132696605Y-64517419D02*
X132696605Y-63517419D01*
X132696605Y-63517419D02*
X132934700Y-63517419D01*
X132934700Y-63517419D02*
X133077557Y-63565038D01*
X133077557Y-63565038D02*
X133172795Y-63660276D01*
X133172795Y-63660276D02*
X133220414Y-63755514D01*
X133220414Y-63755514D02*
X133268033Y-63945990D01*
X133268033Y-63945990D02*
X133268033Y-64088847D01*
X133268033Y-64088847D02*
X133220414Y-64279323D01*
X133220414Y-64279323D02*
X133172795Y-64374561D01*
X133172795Y-64374561D02*
X133077557Y-64469800D01*
X133077557Y-64469800D02*
X132934700Y-64517419D01*
X132934700Y-64517419D02*
X132696605Y-64517419D01*
X133648986Y-63612657D02*
X133696605Y-63565038D01*
X133696605Y-63565038D02*
X133791843Y-63517419D01*
X133791843Y-63517419D02*
X134029938Y-63517419D01*
X134029938Y-63517419D02*
X134125176Y-63565038D01*
X134125176Y-63565038D02*
X134172795Y-63612657D01*
X134172795Y-63612657D02*
X134220414Y-63707895D01*
X134220414Y-63707895D02*
X134220414Y-63803133D01*
X134220414Y-63803133D02*
X134172795Y-63945990D01*
X134172795Y-63945990D02*
X133601367Y-64517419D01*
X133601367Y-64517419D02*
X134220414Y-64517419D01*
X132770714Y-136272419D02*
X132770714Y-135272419D01*
X132770714Y-135272419D02*
X133008809Y-135272419D01*
X133008809Y-135272419D02*
X133151666Y-135320038D01*
X133151666Y-135320038D02*
X133246904Y-135415276D01*
X133246904Y-135415276D02*
X133294523Y-135510514D01*
X133294523Y-135510514D02*
X133342142Y-135700990D01*
X133342142Y-135700990D02*
X133342142Y-135843847D01*
X133342142Y-135843847D02*
X133294523Y-136034323D01*
X133294523Y-136034323D02*
X133246904Y-136129561D01*
X133246904Y-136129561D02*
X133151666Y-136224800D01*
X133151666Y-136224800D02*
X133008809Y-136272419D01*
X133008809Y-136272419D02*
X132770714Y-136272419D01*
X133723095Y-135367657D02*
X133770714Y-135320038D01*
X133770714Y-135320038D02*
X133865952Y-135272419D01*
X133865952Y-135272419D02*
X134104047Y-135272419D01*
X134104047Y-135272419D02*
X134199285Y-135320038D01*
X134199285Y-135320038D02*
X134246904Y-135367657D01*
X134246904Y-135367657D02*
X134294523Y-135462895D01*
X134294523Y-135462895D02*
X134294523Y-135558133D01*
X134294523Y-135558133D02*
X134246904Y-135700990D01*
X134246904Y-135700990D02*
X133675476Y-136272419D01*
X133675476Y-136272419D02*
X134294523Y-136272419D01*
X134770714Y-136272419D02*
X134961190Y-136272419D01*
X134961190Y-136272419D02*
X135056428Y-136224800D01*
X135056428Y-136224800D02*
X135104047Y-136177180D01*
X135104047Y-136177180D02*
X135199285Y-136034323D01*
X135199285Y-136034323D02*
X135246904Y-135843847D01*
X135246904Y-135843847D02*
X135246904Y-135462895D01*
X135246904Y-135462895D02*
X135199285Y-135367657D01*
X135199285Y-135367657D02*
X135151666Y-135320038D01*
X135151666Y-135320038D02*
X135056428Y-135272419D01*
X135056428Y-135272419D02*
X134865952Y-135272419D01*
X134865952Y-135272419D02*
X134770714Y-135320038D01*
X134770714Y-135320038D02*
X134723095Y-135367657D01*
X134723095Y-135367657D02*
X134675476Y-135462895D01*
X134675476Y-135462895D02*
X134675476Y-135700990D01*
X134675476Y-135700990D02*
X134723095Y-135796228D01*
X134723095Y-135796228D02*
X134770714Y-135843847D01*
X134770714Y-135843847D02*
X134865952Y-135891466D01*
X134865952Y-135891466D02*
X135056428Y-135891466D01*
X135056428Y-135891466D02*
X135151666Y-135843847D01*
X135151666Y-135843847D02*
X135199285Y-135796228D01*
X135199285Y-135796228D02*
X135246904Y-135700990D01*
X205594605Y-64517419D02*
X205594605Y-63517419D01*
X205594605Y-63517419D02*
X205832700Y-63517419D01*
X205832700Y-63517419D02*
X205975557Y-63565038D01*
X205975557Y-63565038D02*
X206070795Y-63660276D01*
X206070795Y-63660276D02*
X206118414Y-63755514D01*
X206118414Y-63755514D02*
X206166033Y-63945990D01*
X206166033Y-63945990D02*
X206166033Y-64088847D01*
X206166033Y-64088847D02*
X206118414Y-64279323D01*
X206118414Y-64279323D02*
X206070795Y-64374561D01*
X206070795Y-64374561D02*
X205975557Y-64469800D01*
X205975557Y-64469800D02*
X205832700Y-64517419D01*
X205832700Y-64517419D02*
X205594605Y-64517419D01*
X206737462Y-63945990D02*
X206642224Y-63898371D01*
X206642224Y-63898371D02*
X206594605Y-63850752D01*
X206594605Y-63850752D02*
X206546986Y-63755514D01*
X206546986Y-63755514D02*
X206546986Y-63707895D01*
X206546986Y-63707895D02*
X206594605Y-63612657D01*
X206594605Y-63612657D02*
X206642224Y-63565038D01*
X206642224Y-63565038D02*
X206737462Y-63517419D01*
X206737462Y-63517419D02*
X206927938Y-63517419D01*
X206927938Y-63517419D02*
X207023176Y-63565038D01*
X207023176Y-63565038D02*
X207070795Y-63612657D01*
X207070795Y-63612657D02*
X207118414Y-63707895D01*
X207118414Y-63707895D02*
X207118414Y-63755514D01*
X207118414Y-63755514D02*
X207070795Y-63850752D01*
X207070795Y-63850752D02*
X207023176Y-63898371D01*
X207023176Y-63898371D02*
X206927938Y-63945990D01*
X206927938Y-63945990D02*
X206737462Y-63945990D01*
X206737462Y-63945990D02*
X206642224Y-63993609D01*
X206642224Y-63993609D02*
X206594605Y-64041228D01*
X206594605Y-64041228D02*
X206546986Y-64136466D01*
X206546986Y-64136466D02*
X206546986Y-64326942D01*
X206546986Y-64326942D02*
X206594605Y-64422180D01*
X206594605Y-64422180D02*
X206642224Y-64469800D01*
X206642224Y-64469800D02*
X206737462Y-64517419D01*
X206737462Y-64517419D02*
X206927938Y-64517419D01*
X206927938Y-64517419D02*
X207023176Y-64469800D01*
X207023176Y-64469800D02*
X207070795Y-64422180D01*
X207070795Y-64422180D02*
X207118414Y-64326942D01*
X207118414Y-64326942D02*
X207118414Y-64136466D01*
X207118414Y-64136466D02*
X207070795Y-64041228D01*
X207070795Y-64041228D02*
X207023176Y-63993609D01*
X207023176Y-63993609D02*
X206927938Y-63945990D01*
X165579014Y-112777419D02*
X165579014Y-111777419D01*
X165579014Y-111777419D02*
X165817109Y-111777419D01*
X165817109Y-111777419D02*
X165959966Y-111825038D01*
X165959966Y-111825038D02*
X166055204Y-111920276D01*
X166055204Y-111920276D02*
X166102823Y-112015514D01*
X166102823Y-112015514D02*
X166150442Y-112205990D01*
X166150442Y-112205990D02*
X166150442Y-112348847D01*
X166150442Y-112348847D02*
X166102823Y-112539323D01*
X166102823Y-112539323D02*
X166055204Y-112634561D01*
X166055204Y-112634561D02*
X165959966Y-112729800D01*
X165959966Y-112729800D02*
X165817109Y-112777419D01*
X165817109Y-112777419D02*
X165579014Y-112777419D01*
X166531395Y-111872657D02*
X166579014Y-111825038D01*
X166579014Y-111825038D02*
X166674252Y-111777419D01*
X166674252Y-111777419D02*
X166912347Y-111777419D01*
X166912347Y-111777419D02*
X167007585Y-111825038D01*
X167007585Y-111825038D02*
X167055204Y-111872657D01*
X167055204Y-111872657D02*
X167102823Y-111967895D01*
X167102823Y-111967895D02*
X167102823Y-112063133D01*
X167102823Y-112063133D02*
X167055204Y-112205990D01*
X167055204Y-112205990D02*
X166483776Y-112777419D01*
X166483776Y-112777419D02*
X167102823Y-112777419D01*
X167483776Y-111872657D02*
X167531395Y-111825038D01*
X167531395Y-111825038D02*
X167626633Y-111777419D01*
X167626633Y-111777419D02*
X167864728Y-111777419D01*
X167864728Y-111777419D02*
X167959966Y-111825038D01*
X167959966Y-111825038D02*
X168007585Y-111872657D01*
X168007585Y-111872657D02*
X168055204Y-111967895D01*
X168055204Y-111967895D02*
X168055204Y-112063133D01*
X168055204Y-112063133D02*
X168007585Y-112205990D01*
X168007585Y-112205990D02*
X167436157Y-112777419D01*
X167436157Y-112777419D02*
X168055204Y-112777419D01*
X168764605Y-64517419D02*
X168764605Y-63517419D01*
X168764605Y-63517419D02*
X169002700Y-63517419D01*
X169002700Y-63517419D02*
X169145557Y-63565038D01*
X169145557Y-63565038D02*
X169240795Y-63660276D01*
X169240795Y-63660276D02*
X169288414Y-63755514D01*
X169288414Y-63755514D02*
X169336033Y-63945990D01*
X169336033Y-63945990D02*
X169336033Y-64088847D01*
X169336033Y-64088847D02*
X169288414Y-64279323D01*
X169288414Y-64279323D02*
X169240795Y-64374561D01*
X169240795Y-64374561D02*
X169145557Y-64469800D01*
X169145557Y-64469800D02*
X169002700Y-64517419D01*
X169002700Y-64517419D02*
X168764605Y-64517419D01*
X170240795Y-63517419D02*
X169764605Y-63517419D01*
X169764605Y-63517419D02*
X169716986Y-63993609D01*
X169716986Y-63993609D02*
X169764605Y-63945990D01*
X169764605Y-63945990D02*
X169859843Y-63898371D01*
X169859843Y-63898371D02*
X170097938Y-63898371D01*
X170097938Y-63898371D02*
X170193176Y-63945990D01*
X170193176Y-63945990D02*
X170240795Y-63993609D01*
X170240795Y-63993609D02*
X170288414Y-64088847D01*
X170288414Y-64088847D02*
X170288414Y-64326942D01*
X170288414Y-64326942D02*
X170240795Y-64422180D01*
X170240795Y-64422180D02*
X170193176Y-64469800D01*
X170193176Y-64469800D02*
X170097938Y-64517419D01*
X170097938Y-64517419D02*
X169859843Y-64517419D01*
X169859843Y-64517419D02*
X169764605Y-64469800D01*
X169764605Y-64469800D02*
X169716986Y-64422180D01*
X143523414Y-136272419D02*
X143523414Y-135272419D01*
X143523414Y-135272419D02*
X143761509Y-135272419D01*
X143761509Y-135272419D02*
X143904366Y-135320038D01*
X143904366Y-135320038D02*
X143999604Y-135415276D01*
X143999604Y-135415276D02*
X144047223Y-135510514D01*
X144047223Y-135510514D02*
X144094842Y-135700990D01*
X144094842Y-135700990D02*
X144094842Y-135843847D01*
X144094842Y-135843847D02*
X144047223Y-136034323D01*
X144047223Y-136034323D02*
X143999604Y-136129561D01*
X143999604Y-136129561D02*
X143904366Y-136224800D01*
X143904366Y-136224800D02*
X143761509Y-136272419D01*
X143761509Y-136272419D02*
X143523414Y-136272419D01*
X144428176Y-135272419D02*
X145047223Y-135272419D01*
X145047223Y-135272419D02*
X144713890Y-135653371D01*
X144713890Y-135653371D02*
X144856747Y-135653371D01*
X144856747Y-135653371D02*
X144951985Y-135700990D01*
X144951985Y-135700990D02*
X144999604Y-135748609D01*
X144999604Y-135748609D02*
X145047223Y-135843847D01*
X145047223Y-135843847D02*
X145047223Y-136081942D01*
X145047223Y-136081942D02*
X144999604Y-136177180D01*
X144999604Y-136177180D02*
X144951985Y-136224800D01*
X144951985Y-136224800D02*
X144856747Y-136272419D01*
X144856747Y-136272419D02*
X144571033Y-136272419D01*
X144571033Y-136272419D02*
X144475795Y-136224800D01*
X144475795Y-136224800D02*
X144428176Y-136177180D01*
X145666271Y-135272419D02*
X145761509Y-135272419D01*
X145761509Y-135272419D02*
X145856747Y-135320038D01*
X145856747Y-135320038D02*
X145904366Y-135367657D01*
X145904366Y-135367657D02*
X145951985Y-135462895D01*
X145951985Y-135462895D02*
X145999604Y-135653371D01*
X145999604Y-135653371D02*
X145999604Y-135891466D01*
X145999604Y-135891466D02*
X145951985Y-136081942D01*
X145951985Y-136081942D02*
X145904366Y-136177180D01*
X145904366Y-136177180D02*
X145856747Y-136224800D01*
X145856747Y-136224800D02*
X145761509Y-136272419D01*
X145761509Y-136272419D02*
X145666271Y-136272419D01*
X145666271Y-136272419D02*
X145571033Y-136224800D01*
X145571033Y-136224800D02*
X145523414Y-136177180D01*
X145523414Y-136177180D02*
X145475795Y-136081942D01*
X145475795Y-136081942D02*
X145428176Y-135891466D01*
X145428176Y-135891466D02*
X145428176Y-135653371D01*
X145428176Y-135653371D02*
X145475795Y-135462895D01*
X145475795Y-135462895D02*
X145523414Y-135367657D01*
X145523414Y-135367657D02*
X145571033Y-135320038D01*
X145571033Y-135320038D02*
X145666271Y-135272419D01*
D11*
%TO.C,D10*%
X132232000Y-90605170D02*
X132232000Y-90955170D01*
X132232000Y-93345000D02*
X132232000Y-93695000D01*
X137781999Y-92150462D02*
G75*
G03*
X132232001Y-90605170I-2989999J462D01*
G01*
X132232000Y-93694830D02*
G75*
G03*
X137782000Y-92149538I2560000J1544830D01*
G01*
%TO.C,D9*%
X217152700Y-66400170D02*
X217152700Y-66750170D01*
X217152700Y-69140000D02*
X217152700Y-69490000D01*
X222702699Y-67945462D02*
G75*
G03*
X217152701Y-66400170I-2989999J462D01*
G01*
X217152700Y-69489830D02*
G75*
G03*
X222702700Y-67944538I2560000J1544830D01*
G01*
%TO.C,D13*%
X168300000Y-90605170D02*
X168300000Y-90955170D01*
X168300000Y-93345000D02*
X168300000Y-93695000D01*
X173849999Y-92150462D02*
G75*
G03*
X168300001Y-90605170I-2989999J462D01*
G01*
X168300000Y-93694830D02*
G75*
G03*
X173850000Y-92149538I2560000J1544830D01*
G01*
%TO.C,D20*%
X147980000Y-114660170D02*
X147980000Y-115010170D01*
X147980000Y-117400000D02*
X147980000Y-117750000D01*
X153529999Y-116205462D02*
G75*
G03*
X147980001Y-114660170I-2989999J462D01*
G01*
X147980000Y-117749830D02*
G75*
G03*
X153530000Y-116204538I2560000J1544830D01*
G01*
%TO.C,D12*%
X156870000Y-90605170D02*
X156870000Y-90955170D01*
X156870000Y-93345000D02*
X156870000Y-93695000D01*
X162419999Y-92150462D02*
G75*
G03*
X156870001Y-90605170I-2989999J462D01*
G01*
X156870000Y-93694830D02*
G75*
G03*
X162420000Y-92149538I2560000J1544830D01*
G01*
%TO.C,D15*%
X192430000Y-90605170D02*
X192430000Y-90955170D01*
X192430000Y-93345000D02*
X192430000Y-93695000D01*
X197979999Y-92150462D02*
G75*
G03*
X192430001Y-90605170I-2989999J462D01*
G01*
X192430000Y-93694830D02*
G75*
G03*
X197980000Y-92149538I2560000J1544830D01*
G01*
%TO.C,D6*%
X181550300Y-66400170D02*
X181550300Y-66750170D01*
X181550300Y-69140000D02*
X181550300Y-69490000D01*
X187100299Y-67945462D02*
G75*
G03*
X181550301Y-66400170I-2989999J462D01*
G01*
X181550300Y-69489830D02*
G75*
G03*
X187100300Y-67944538I2560000J1544830D01*
G01*
%TO.C,D18*%
X130157700Y-114660170D02*
X130157700Y-115010170D01*
X130157700Y-117400000D02*
X130157700Y-117750000D01*
X135707699Y-116205462D02*
G75*
G03*
X130157701Y-114660170I-2989999J462D01*
G01*
X130157700Y-117749830D02*
G75*
G03*
X135707700Y-116204538I2560000J1544830D01*
G01*
%TO.C,D19*%
X139217000Y-114660170D02*
X139217000Y-115010170D01*
X139217000Y-117400000D02*
X139217000Y-117750000D01*
X144766999Y-116205462D02*
G75*
G03*
X139217001Y-114660170I-2989999J462D01*
G01*
X139217000Y-117749830D02*
G75*
G03*
X144767000Y-116204538I2560000J1544830D01*
G01*
%TO.C,D31*%
X156235000Y-138155170D02*
X156235000Y-138505170D01*
X156235000Y-140895000D02*
X156235000Y-141245000D01*
X161784999Y-139700462D02*
G75*
G03*
X156235001Y-138155170I-2989999J462D01*
G01*
X156235000Y-141244830D02*
G75*
G03*
X161785000Y-139699538I2560000J1544830D01*
G01*
%TO.C,D32*%
X167622700Y-138155170D02*
X167622700Y-138505170D01*
X167622700Y-140895000D02*
X167622700Y-141245000D01*
X173172699Y-139700462D02*
G75*
G03*
X167622701Y-138155170I-2989999J462D01*
G01*
X167622700Y-141244830D02*
G75*
G03*
X173172700Y-139699538I2560000J1544830D01*
G01*
%TO.C,D35*%
X205257000Y-138155170D02*
X205257000Y-138505170D01*
X205257000Y-140895000D02*
X205257000Y-141245000D01*
X210806999Y-139700462D02*
G75*
G03*
X205257001Y-138155170I-2989999J462D01*
G01*
X205257000Y-141244830D02*
G75*
G03*
X210807000Y-139699538I2560000J1544830D01*
G01*
%TO.C,D23*%
X174607700Y-114660170D02*
X174607700Y-115010170D01*
X174607700Y-117400000D02*
X174607700Y-117750000D01*
X180157699Y-116205462D02*
G75*
G03*
X174607701Y-114660170I-2989999J462D01*
G01*
X174607700Y-117749830D02*
G75*
G03*
X180157700Y-116204538I2560000J1544830D01*
G01*
%TO.C,D25*%
X192049000Y-114660170D02*
X192049000Y-115010170D01*
X192049000Y-117400000D02*
X192049000Y-117750000D01*
X197598999Y-116205462D02*
G75*
G03*
X192049001Y-114660170I-2989999J462D01*
G01*
X192049000Y-117749830D02*
G75*
G03*
X197599000Y-116204538I2560000J1544830D01*
G01*
%TO.C,D24*%
X183497700Y-114660170D02*
X183497700Y-115010170D01*
X183497700Y-117400000D02*
X183497700Y-117750000D01*
X189047699Y-116205462D02*
G75*
G03*
X183497701Y-114660170I-2989999J462D01*
G01*
X183497700Y-117749830D02*
G75*
G03*
X189047700Y-116204538I2560000J1544830D01*
G01*
%TO.C,D36*%
X216687000Y-138155170D02*
X216687000Y-138505170D01*
X216687000Y-140895000D02*
X216687000Y-141245000D01*
X222236999Y-139700462D02*
G75*
G03*
X216687001Y-138155170I-2989999J462D01*
G01*
X216687000Y-141244830D02*
G75*
G03*
X222237000Y-139699538I2560000J1544830D01*
G01*
%TO.C,D27*%
X209998300Y-114660170D02*
X209998300Y-115010170D01*
X209998300Y-117400000D02*
X209998300Y-117750000D01*
X215548299Y-116205462D02*
G75*
G03*
X209998301Y-114660170I-2989999J462D01*
G01*
X209998300Y-117749830D02*
G75*
G03*
X215548300Y-116204538I2560000J1544830D01*
G01*
%TO.C,D21*%
X156827700Y-114660170D02*
X156827700Y-115010170D01*
X156827700Y-117400000D02*
X156827700Y-117750000D01*
X162377699Y-116205462D02*
G75*
G03*
X156827701Y-114660170I-2989999J462D01*
G01*
X156827700Y-117749830D02*
G75*
G03*
X162377700Y-116204538I2560000J1544830D01*
G01*
%TO.C,D14*%
X181592700Y-90605170D02*
X181592700Y-90955170D01*
X181592700Y-93345000D02*
X181592700Y-93695000D01*
X187142699Y-92150462D02*
G75*
G03*
X181592701Y-90605170I-2989999J462D01*
G01*
X181592700Y-93694830D02*
G75*
G03*
X187142700Y-92149538I2560000J1544830D01*
G01*
%TO.C,D3*%
X142857700Y-66400170D02*
X142857700Y-66750170D01*
X142857700Y-69140000D02*
X142857700Y-69490000D01*
X148407699Y-67945462D02*
G75*
G03*
X142857701Y-66400170I-2989999J462D01*
G01*
X142857700Y-69489830D02*
G75*
G03*
X148407700Y-67944538I2560000J1544830D01*
G01*
%TO.C,D16*%
X205130000Y-90605170D02*
X205130000Y-90955170D01*
X205130000Y-93345000D02*
X205130000Y-93695000D01*
X210679999Y-92150462D02*
G75*
G03*
X205130001Y-90605170I-2989999J462D01*
G01*
X205130000Y-93694830D02*
G75*
G03*
X210680000Y-92149538I2560000J1544830D01*
G01*
%TO.C,D28*%
X218465000Y-114660170D02*
X218465000Y-115010170D01*
X218465000Y-117400000D02*
X218465000Y-117750000D01*
X224014999Y-116205462D02*
G75*
G03*
X218465001Y-114660170I-2989999J462D01*
G01*
X218465000Y-117749830D02*
G75*
G03*
X224015000Y-116204538I2560000J1544830D01*
G01*
%TO.C,D34*%
X192049000Y-138155170D02*
X192049000Y-138505170D01*
X192049000Y-140895000D02*
X192049000Y-141245000D01*
X197598999Y-139700462D02*
G75*
G03*
X192049001Y-138155170I-2989999J462D01*
G01*
X192049000Y-141244830D02*
G75*
G03*
X197599000Y-139699538I2560000J1544830D01*
G01*
%TO.C,D7*%
X192387700Y-66400170D02*
X192387700Y-66750170D01*
X192387700Y-69140000D02*
X192387700Y-69490000D01*
X197937699Y-67945462D02*
G75*
G03*
X192387701Y-66400170I-2989999J462D01*
G01*
X192387700Y-69489830D02*
G75*
G03*
X197937700Y-67944538I2560000J1544830D01*
G01*
%TO.C,D33*%
X180957700Y-138155170D02*
X180957700Y-138505170D01*
X180957700Y-140895000D02*
X180957700Y-141245000D01*
X186507699Y-139700462D02*
G75*
G03*
X180957701Y-138155170I-2989999J462D01*
G01*
X180957700Y-141244830D02*
G75*
G03*
X186507700Y-139699538I2560000J1544830D01*
G01*
%TO.C,D4*%
X156827700Y-66400170D02*
X156827700Y-66750170D01*
X156827700Y-69140000D02*
X156827700Y-69490000D01*
X162377699Y-67945462D02*
G75*
G03*
X156827701Y-66400170I-2989999J462D01*
G01*
X156827700Y-69489830D02*
G75*
G03*
X162377700Y-67944538I2560000J1544830D01*
G01*
%TO.C,D17*%
X217195000Y-90605170D02*
X217195000Y-90955170D01*
X217195000Y-93345000D02*
X217195000Y-93695000D01*
X222744999Y-92150462D02*
G75*
G03*
X217195001Y-90605170I-2989999J462D01*
G01*
X217195000Y-93694830D02*
G75*
G03*
X222745000Y-92149538I2560000J1544830D01*
G01*
%TO.C,D26*%
X200939000Y-114660170D02*
X200939000Y-115010170D01*
X200939000Y-117400000D02*
X200939000Y-117750000D01*
X206488999Y-116205462D02*
G75*
G03*
X200939001Y-114660170I-2989999J462D01*
G01*
X200939000Y-117749830D02*
G75*
G03*
X206489000Y-116204538I2560000J1544830D01*
G01*
%TO.C,D1*%
X174600000Y-40365170D02*
X174600000Y-40715170D01*
X174600000Y-43105000D02*
X174600000Y-43455000D01*
X180149999Y-41910462D02*
G75*
G03*
X174600001Y-40365170I-2989999J462D01*
G01*
X174600000Y-43454830D02*
G75*
G03*
X180150000Y-41909538I2560000J1544830D01*
G01*
%TO.C,D11*%
X142900000Y-90605170D02*
X142900000Y-90955170D01*
X142900000Y-93345000D02*
X142900000Y-93695000D01*
X148449999Y-92150462D02*
G75*
G03*
X142900001Y-90605170I-2989999J462D01*
G01*
X142900000Y-93694830D02*
G75*
G03*
X148450000Y-92149538I2560000J1544830D01*
G01*
%TO.C,D2*%
X132189700Y-66400170D02*
X132189700Y-66750170D01*
X132189700Y-69140000D02*
X132189700Y-69490000D01*
X137739699Y-67945462D02*
G75*
G03*
X132189701Y-66400170I-2989999J462D01*
G01*
X132189700Y-69489830D02*
G75*
G03*
X137739700Y-67944538I2560000J1544830D01*
G01*
%TO.C,D29*%
X132740000Y-138155170D02*
X132740000Y-138505170D01*
X132740000Y-140895000D02*
X132740000Y-141245000D01*
X138289999Y-139700462D02*
G75*
G03*
X132740001Y-138155170I-2989999J462D01*
G01*
X132740000Y-141244830D02*
G75*
G03*
X138290000Y-139699538I2560000J1544830D01*
G01*
%TO.C,D8*%
X205087700Y-66400170D02*
X205087700Y-66750170D01*
X205087700Y-69140000D02*
X205087700Y-69490000D01*
X210637699Y-67945462D02*
G75*
G03*
X205087701Y-66400170I-2989999J462D01*
G01*
X205087700Y-69489830D02*
G75*
G03*
X210637700Y-67944538I2560000J1544830D01*
G01*
%TO.C,D22*%
X165548300Y-114660170D02*
X165548300Y-115010170D01*
X165548300Y-117400000D02*
X165548300Y-117750000D01*
X171098299Y-116205462D02*
G75*
G03*
X165548301Y-114660170I-2989999J462D01*
G01*
X165548300Y-117749830D02*
G75*
G03*
X171098300Y-116204538I2560000J1544830D01*
G01*
%TO.C,D5*%
X168257700Y-66400170D02*
X168257700Y-66750170D01*
X168257700Y-69140000D02*
X168257700Y-69490000D01*
X173807699Y-67945462D02*
G75*
G03*
X168257701Y-66400170I-2989999J462D01*
G01*
X168257700Y-69489830D02*
G75*
G03*
X173807700Y-67944538I2560000J1544830D01*
G01*
%TO.C,D30*%
X143492700Y-138155170D02*
X143492700Y-138505170D01*
X143492700Y-140895000D02*
X143492700Y-141245000D01*
X149042699Y-139700462D02*
G75*
G03*
X143492701Y-138155170I-2989999J462D01*
G01*
X143492700Y-141244830D02*
G75*
G03*
X149042700Y-139699538I2560000J1544830D01*
G01*
%TD*%
M02*
