%TF.GenerationSoftware,KiCad,Pcbnew,7.0.7*%
%TF.CreationDate,2024-10-22T18:38:38+02:00*%
%TF.ProjectId,FaceBerlinUhr,46616365-4265-4726-9c69-6e5568722e6b,rev?*%
%TF.SameCoordinates,Original*%
%TF.FileFunction,Soldermask,Top*%
%TF.FilePolarity,Negative*%
%FSLAX46Y46*%
G04 Gerber Fmt 4.6, Leading zero omitted, Abs format (unit mm)*
G04 Created by KiCad (PCBNEW 7.0.7) date 2024-10-22 18:38:38*
%MOMM*%
%LPD*%
G01*
G04 APERTURE LIST*
%ADD10R,0.900000X1.800000*%
%ADD11O,0.900000X1.800000*%
%ADD12R,1.524000X3.000000*%
%ADD13O,1.524000X3.000000*%
G04 APERTURE END LIST*
D10*
%TO.C,D10*%
X137033000Y-91850000D03*
D11*
X135763000Y-92450000D03*
X134493000Y-91850000D03*
X133223000Y-92450000D03*
%TD*%
D10*
%TO.C,D9*%
X221953700Y-67645000D03*
D11*
X220683700Y-68245000D03*
X219413700Y-67645000D03*
X218143700Y-68245000D03*
%TD*%
D10*
%TO.C,D13*%
X173101000Y-91850000D03*
D11*
X171831000Y-92450000D03*
X170561000Y-91850000D03*
X169291000Y-92450000D03*
%TD*%
D10*
%TO.C,D20*%
X152781000Y-115905000D03*
D11*
X151511000Y-116505000D03*
X150241000Y-115905000D03*
X148971000Y-116505000D03*
%TD*%
D10*
%TO.C,D12*%
X161671000Y-91850000D03*
D11*
X160401000Y-92450000D03*
X159131000Y-91850000D03*
X157861000Y-92450000D03*
%TD*%
D10*
%TO.C,D15*%
X197231000Y-91850000D03*
D11*
X195961000Y-92450000D03*
X194691000Y-91850000D03*
X193421000Y-92450000D03*
%TD*%
D10*
%TO.C,D6*%
X186351300Y-67645000D03*
D11*
X185081300Y-68245000D03*
X183811300Y-67645000D03*
X182541300Y-68245000D03*
%TD*%
D10*
%TO.C,D18*%
X134958700Y-115905000D03*
D11*
X133688700Y-116505000D03*
X132418700Y-115905000D03*
X131148700Y-116505000D03*
%TD*%
D10*
%TO.C,D19*%
X144018000Y-115905000D03*
D11*
X142748000Y-116505000D03*
X141478000Y-115905000D03*
X140208000Y-116505000D03*
%TD*%
D10*
%TO.C,D31*%
X161036000Y-139400000D03*
D11*
X159766000Y-140000000D03*
X158496000Y-139400000D03*
X157226000Y-140000000D03*
%TD*%
D10*
%TO.C,D32*%
X172423700Y-139400000D03*
D11*
X171153700Y-140000000D03*
X169883700Y-139400000D03*
X168613700Y-140000000D03*
%TD*%
D10*
%TO.C,D35*%
X210058000Y-139400000D03*
D11*
X208788000Y-140000000D03*
X207518000Y-139400000D03*
X206248000Y-140000000D03*
%TD*%
D10*
%TO.C,D23*%
X179408700Y-115905000D03*
D11*
X178138700Y-116505000D03*
X176868700Y-115905000D03*
X175598700Y-116505000D03*
%TD*%
D10*
%TO.C,D25*%
X196850000Y-115905000D03*
D11*
X195580000Y-116505000D03*
X194310000Y-115905000D03*
X193040000Y-116505000D03*
%TD*%
D10*
%TO.C,D24*%
X188298700Y-115905000D03*
D11*
X187028700Y-116505000D03*
X185758700Y-115905000D03*
X184488700Y-116505000D03*
%TD*%
D10*
%TO.C,D36*%
X221488000Y-139400000D03*
D11*
X220218000Y-140000000D03*
X218948000Y-139400000D03*
X217678000Y-140000000D03*
%TD*%
D10*
%TO.C,D27*%
X214799300Y-115905000D03*
D11*
X213529300Y-116505000D03*
X212259300Y-115905000D03*
X210989300Y-116505000D03*
%TD*%
D10*
%TO.C,D21*%
X161628700Y-115905000D03*
D11*
X160358700Y-116505000D03*
X159088700Y-115905000D03*
X157818700Y-116505000D03*
%TD*%
D10*
%TO.C,D14*%
X186393700Y-91850000D03*
D11*
X185123700Y-92450000D03*
X183853700Y-91850000D03*
X182583700Y-92450000D03*
%TD*%
D10*
%TO.C,D3*%
X147658700Y-67645000D03*
D11*
X146388700Y-68245000D03*
X145118700Y-67645000D03*
X143848700Y-68245000D03*
%TD*%
D10*
%TO.C,D16*%
X209931000Y-91850000D03*
D11*
X208661000Y-92450000D03*
X207391000Y-91850000D03*
X206121000Y-92450000D03*
%TD*%
D10*
%TO.C,D28*%
X223266000Y-115905000D03*
D11*
X221996000Y-116505000D03*
X220726000Y-115905000D03*
X219456000Y-116505000D03*
%TD*%
D10*
%TO.C,D34*%
X196850000Y-139400000D03*
D11*
X195580000Y-140000000D03*
X194310000Y-139400000D03*
X193040000Y-140000000D03*
%TD*%
D10*
%TO.C,D7*%
X197188700Y-67645000D03*
D11*
X195918700Y-68245000D03*
X194648700Y-67645000D03*
X193378700Y-68245000D03*
%TD*%
D10*
%TO.C,D33*%
X185758700Y-139400000D03*
D11*
X184488700Y-140000000D03*
X183218700Y-139400000D03*
X181948700Y-140000000D03*
%TD*%
D10*
%TO.C,D4*%
X161628700Y-67645000D03*
D11*
X160358700Y-68245000D03*
X159088700Y-67645000D03*
X157818700Y-68245000D03*
%TD*%
D10*
%TO.C,D17*%
X221996000Y-91850000D03*
D11*
X220726000Y-92450000D03*
X219456000Y-91850000D03*
X218186000Y-92450000D03*
%TD*%
D10*
%TO.C,D26*%
X205740000Y-115905000D03*
D11*
X204470000Y-116505000D03*
X203200000Y-115905000D03*
X201930000Y-116505000D03*
%TD*%
D10*
%TO.C,D1*%
X179401000Y-41610000D03*
D11*
X178131000Y-42210000D03*
X176861000Y-41610000D03*
X175591000Y-42210000D03*
%TD*%
D10*
%TO.C,D11*%
X147701000Y-91850000D03*
D11*
X146431000Y-92450000D03*
X145161000Y-91850000D03*
X143891000Y-92450000D03*
%TD*%
D10*
%TO.C,D2*%
X136990700Y-67645000D03*
D11*
X135720700Y-68245000D03*
X134450700Y-67645000D03*
X133180700Y-68245000D03*
%TD*%
D10*
%TO.C,D29*%
X137541000Y-139400000D03*
D11*
X136271000Y-140000000D03*
X135001000Y-139400000D03*
X133731000Y-140000000D03*
%TD*%
D10*
%TO.C,D8*%
X209888700Y-67645000D03*
D11*
X208618700Y-68245000D03*
X207348700Y-67645000D03*
X206078700Y-68245000D03*
%TD*%
D10*
%TO.C,D22*%
X170349300Y-115905000D03*
D11*
X169079300Y-116505000D03*
X167809300Y-115905000D03*
X166539300Y-116505000D03*
%TD*%
D10*
%TO.C,D5*%
X173058700Y-67645000D03*
D11*
X171788700Y-68245000D03*
X170518700Y-67645000D03*
X169248700Y-68245000D03*
%TD*%
D10*
%TO.C,D30*%
X148293700Y-139400000D03*
D11*
X147023700Y-140000000D03*
X145753700Y-139400000D03*
X144483700Y-140000000D03*
%TD*%
D12*
%TO.C,U1*%
X168910000Y-100330000D03*
D13*
X171450000Y-100330000D03*
X173990000Y-100330000D03*
X176530000Y-100330000D03*
X179070000Y-100330000D03*
X181610000Y-100330000D03*
D12*
X171418000Y-131318000D03*
D13*
X173958000Y-131318000D03*
X176498000Y-131318000D03*
X179038000Y-131318000D03*
X181578000Y-131318000D03*
%TD*%
M02*
