M48
; DRILL file {KiCad 7.0.7} date Mon Dec 30 17:22:30 2024
; FORMAT={-:-/ absolute / inch / decimal}
; #@! TF.CreationDate,2024-12-30T17:22:30+01:00
; #@! TF.GenerationSoftware,Kicad,Pcbnew,7.0.7
; #@! TF.FileFunction,Plated,1,2,PTH
FMAT,2
INCH
; #@! TA.AperFunction,Plated,PTH,ViaDrill
T1C0.0157
; #@! TA.AperFunction,Plated,PTH,ComponentDrill
T2C0.0197
; #@! TA.AperFunction,Plated,PTH,ComponentDrill
T3C0.0315
; #@! TA.AperFunction,Plated,PTH,ComponentDrill
T4C0.0394
; #@! TA.AperFunction,Plated,PTH,ComponentDrill
T5C0.0591
%
G90
G05
T1
X2.675Y-2.5
X2.7Y-3.525
X2.8334Y-2.6104
X2.9023Y-3.6707
X2.928Y-3.4071
X3.125Y-2.575
X3.125Y-2.8
X3.25Y-2.8
X3.275Y-3.625
X3.3Y-3.8
X3.475Y-3.225
X3.5Y-2.9
X3.525Y-3.45
X3.5906Y-2.6914
X3.65Y-3.65
X3.7604Y-3.5674
X3.8127Y-3.4669
X3.8259Y-3.1068
X3.85Y-2.675
X3.875Y-3.325
X3.875Y-3.5
X3.8877Y-2.9513
X3.925Y-2.75
X3.925Y-3.4
X3.9251Y-2.8929
X3.95Y-3.7
X3.9704Y-3.098
X3.9788Y-3.1849
X4.0Y-2.575
X4.0Y-3.525
X4.0251Y-3.2542
X4.0429Y-2.9144
X4.0755Y-2.8583
X4.1122Y-3.2273
X4.1154Y-2.9192
X4.1622Y-3.1846
X4.2Y-3.425
X4.2329Y-3.313
X4.3Y-3.0
X4.3Y-3.125
X4.325Y-3.275
X4.325Y-3.4
X4.375Y-3.325
X4.4Y-3.225
X4.45Y-2.825
X4.475Y-3.15
X4.475Y-3.85
X4.525Y-3.35
T2
X3.5075Y-2.7326
X3.5075Y-2.8074
T3
X3.3262Y-3.3
X3.5184Y-3.3
T4
X2.72Y-2.93
X2.72Y-3.03
X2.72Y-3.13
X2.72Y-3.23
X2.72Y-3.33
X2.72Y-3.43
X2.92Y-2.81
X2.92Y-2.91
X2.92Y-3.01
X3.02Y-2.81
X3.02Y-2.91
X3.02Y-3.01
X3.34Y-2.575
X3.44Y-2.575
X3.44Y-3.7935
X3.54Y-2.575
X3.54Y-3.7935
X3.64Y-2.575
X3.64Y-3.7935
X3.74Y-2.575
X3.74Y-3.7935
X3.84Y-2.575
X3.84Y-3.7935
T5
X4.105Y-2.7177
X4.105Y-3.5244
T0
M30
