%TF.GenerationSoftware,KiCad,Pcbnew,7.0.7*%
%TF.CreationDate,2024-12-30T17:22:27+01:00*%
%TF.ProjectId,Movement5037,4d6f7665-6d65-46e7-9435-3033372e6b69,rev?*%
%TF.SameCoordinates,Original*%
%TF.FileFunction,Legend,Top*%
%TF.FilePolarity,Positive*%
%FSLAX46Y46*%
G04 Gerber Fmt 4.6, Leading zero omitted, Abs format (unit mm)*
G04 Created by KiCad (PCBNEW 7.0.7) date 2024-12-30 17:22:27*
%MOMM*%
%LPD*%
G01*
G04 APERTURE LIST*
%ADD10C,0.150000*%
%ADD11C,0.120000*%
G04 APERTURE END LIST*
D10*
X105235905Y-92804819D02*
X105807333Y-92804819D01*
X105521619Y-93804819D02*
X105521619Y-92804819D01*
X106283524Y-93804819D02*
X106188286Y-93757200D01*
X106188286Y-93757200D02*
X106140667Y-93709580D01*
X106140667Y-93709580D02*
X106093048Y-93614342D01*
X106093048Y-93614342D02*
X106093048Y-93328628D01*
X106093048Y-93328628D02*
X106140667Y-93233390D01*
X106140667Y-93233390D02*
X106188286Y-93185771D01*
X106188286Y-93185771D02*
X106283524Y-93138152D01*
X106283524Y-93138152D02*
X106426381Y-93138152D01*
X106426381Y-93138152D02*
X106521619Y-93185771D01*
X106521619Y-93185771D02*
X106569238Y-93233390D01*
X106569238Y-93233390D02*
X106616857Y-93328628D01*
X106616857Y-93328628D02*
X106616857Y-93614342D01*
X106616857Y-93614342D02*
X106569238Y-93709580D01*
X106569238Y-93709580D02*
X106521619Y-93757200D01*
X106521619Y-93757200D02*
X106426381Y-93804819D01*
X106426381Y-93804819D02*
X106283524Y-93804819D01*
X107045429Y-93804819D02*
X107045429Y-92804819D01*
X107140667Y-93423866D02*
X107426381Y-93804819D01*
X107426381Y-93138152D02*
X107045429Y-93519104D01*
X108235905Y-93757200D02*
X108140667Y-93804819D01*
X108140667Y-93804819D02*
X107950191Y-93804819D01*
X107950191Y-93804819D02*
X107854953Y-93757200D01*
X107854953Y-93757200D02*
X107807334Y-93661961D01*
X107807334Y-93661961D02*
X107807334Y-93281009D01*
X107807334Y-93281009D02*
X107854953Y-93185771D01*
X107854953Y-93185771D02*
X107950191Y-93138152D01*
X107950191Y-93138152D02*
X108140667Y-93138152D01*
X108140667Y-93138152D02*
X108235905Y-93185771D01*
X108235905Y-93185771D02*
X108283524Y-93281009D01*
X108283524Y-93281009D02*
X108283524Y-93376247D01*
X108283524Y-93376247D02*
X107807334Y-93471485D01*
X108712096Y-93804819D02*
X108712096Y-93138152D01*
X108712096Y-92804819D02*
X108664477Y-92852438D01*
X108664477Y-92852438D02*
X108712096Y-92900057D01*
X108712096Y-92900057D02*
X108759715Y-92852438D01*
X108759715Y-92852438D02*
X108712096Y-92804819D01*
X108712096Y-92804819D02*
X108712096Y-92900057D01*
X109188286Y-93804819D02*
X109188286Y-92804819D01*
X109188286Y-92804819D02*
X109426381Y-92804819D01*
X109426381Y-92804819D02*
X109569238Y-92852438D01*
X109569238Y-92852438D02*
X109664476Y-92947676D01*
X109664476Y-92947676D02*
X109712095Y-93042914D01*
X109712095Y-93042914D02*
X109759714Y-93233390D01*
X109759714Y-93233390D02*
X109759714Y-93376247D01*
X109759714Y-93376247D02*
X109712095Y-93566723D01*
X109712095Y-93566723D02*
X109664476Y-93661961D01*
X109664476Y-93661961D02*
X109569238Y-93757200D01*
X109569238Y-93757200D02*
X109426381Y-93804819D01*
X109426381Y-93804819D02*
X109188286Y-93804819D01*
X110188286Y-93804819D02*
X110188286Y-93138152D01*
X110188286Y-92804819D02*
X110140667Y-92852438D01*
X110140667Y-92852438D02*
X110188286Y-92900057D01*
X110188286Y-92900057D02*
X110235905Y-92852438D01*
X110235905Y-92852438D02*
X110188286Y-92804819D01*
X110188286Y-92804819D02*
X110188286Y-92900057D01*
X111093047Y-93138152D02*
X111093047Y-93947676D01*
X111093047Y-93947676D02*
X111045428Y-94042914D01*
X111045428Y-94042914D02*
X110997809Y-94090533D01*
X110997809Y-94090533D02*
X110902571Y-94138152D01*
X110902571Y-94138152D02*
X110759714Y-94138152D01*
X110759714Y-94138152D02*
X110664476Y-94090533D01*
X111093047Y-93757200D02*
X110997809Y-93804819D01*
X110997809Y-93804819D02*
X110807333Y-93804819D01*
X110807333Y-93804819D02*
X110712095Y-93757200D01*
X110712095Y-93757200D02*
X110664476Y-93709580D01*
X110664476Y-93709580D02*
X110616857Y-93614342D01*
X110616857Y-93614342D02*
X110616857Y-93328628D01*
X110616857Y-93328628D02*
X110664476Y-93233390D01*
X110664476Y-93233390D02*
X110712095Y-93185771D01*
X110712095Y-93185771D02*
X110807333Y-93138152D01*
X110807333Y-93138152D02*
X110997809Y-93138152D01*
X110997809Y-93138152D02*
X111093047Y-93185771D01*
X111569238Y-93804819D02*
X111569238Y-93138152D01*
X111569238Y-92804819D02*
X111521619Y-92852438D01*
X111521619Y-92852438D02*
X111569238Y-92900057D01*
X111569238Y-92900057D02*
X111616857Y-92852438D01*
X111616857Y-92852438D02*
X111569238Y-92804819D01*
X111569238Y-92804819D02*
X111569238Y-92900057D01*
X111902571Y-93138152D02*
X112283523Y-93138152D01*
X112045428Y-92804819D02*
X112045428Y-93661961D01*
X112045428Y-93661961D02*
X112093047Y-93757200D01*
X112093047Y-93757200D02*
X112188285Y-93804819D01*
X112188285Y-93804819D02*
X112283523Y-93804819D01*
X113045428Y-93804819D02*
X113045428Y-93281009D01*
X113045428Y-93281009D02*
X112997809Y-93185771D01*
X112997809Y-93185771D02*
X112902571Y-93138152D01*
X112902571Y-93138152D02*
X112712095Y-93138152D01*
X112712095Y-93138152D02*
X112616857Y-93185771D01*
X113045428Y-93757200D02*
X112950190Y-93804819D01*
X112950190Y-93804819D02*
X112712095Y-93804819D01*
X112712095Y-93804819D02*
X112616857Y-93757200D01*
X112616857Y-93757200D02*
X112569238Y-93661961D01*
X112569238Y-93661961D02*
X112569238Y-93566723D01*
X112569238Y-93566723D02*
X112616857Y-93471485D01*
X112616857Y-93471485D02*
X112712095Y-93423866D01*
X112712095Y-93423866D02*
X112950190Y-93423866D01*
X112950190Y-93423866D02*
X113045428Y-93376247D01*
X113664476Y-93804819D02*
X113569238Y-93757200D01*
X113569238Y-93757200D02*
X113521619Y-93661961D01*
X113521619Y-93661961D02*
X113521619Y-92804819D01*
X103759714Y-95414819D02*
X103759714Y-94414819D01*
X103759714Y-94414819D02*
X104093047Y-95129104D01*
X104093047Y-95129104D02*
X104426380Y-94414819D01*
X104426380Y-94414819D02*
X104426380Y-95414819D01*
X105045428Y-95414819D02*
X104950190Y-95367200D01*
X104950190Y-95367200D02*
X104902571Y-95319580D01*
X104902571Y-95319580D02*
X104854952Y-95224342D01*
X104854952Y-95224342D02*
X104854952Y-94938628D01*
X104854952Y-94938628D02*
X104902571Y-94843390D01*
X104902571Y-94843390D02*
X104950190Y-94795771D01*
X104950190Y-94795771D02*
X105045428Y-94748152D01*
X105045428Y-94748152D02*
X105188285Y-94748152D01*
X105188285Y-94748152D02*
X105283523Y-94795771D01*
X105283523Y-94795771D02*
X105331142Y-94843390D01*
X105331142Y-94843390D02*
X105378761Y-94938628D01*
X105378761Y-94938628D02*
X105378761Y-95224342D01*
X105378761Y-95224342D02*
X105331142Y-95319580D01*
X105331142Y-95319580D02*
X105283523Y-95367200D01*
X105283523Y-95367200D02*
X105188285Y-95414819D01*
X105188285Y-95414819D02*
X105045428Y-95414819D01*
X105712095Y-94748152D02*
X105950190Y-95414819D01*
X105950190Y-95414819D02*
X106188285Y-94748152D01*
X106950190Y-95367200D02*
X106854952Y-95414819D01*
X106854952Y-95414819D02*
X106664476Y-95414819D01*
X106664476Y-95414819D02*
X106569238Y-95367200D01*
X106569238Y-95367200D02*
X106521619Y-95271961D01*
X106521619Y-95271961D02*
X106521619Y-94891009D01*
X106521619Y-94891009D02*
X106569238Y-94795771D01*
X106569238Y-94795771D02*
X106664476Y-94748152D01*
X106664476Y-94748152D02*
X106854952Y-94748152D01*
X106854952Y-94748152D02*
X106950190Y-94795771D01*
X106950190Y-94795771D02*
X106997809Y-94891009D01*
X106997809Y-94891009D02*
X106997809Y-94986247D01*
X106997809Y-94986247D02*
X106521619Y-95081485D01*
X107426381Y-95414819D02*
X107426381Y-94748152D01*
X107426381Y-94843390D02*
X107474000Y-94795771D01*
X107474000Y-94795771D02*
X107569238Y-94748152D01*
X107569238Y-94748152D02*
X107712095Y-94748152D01*
X107712095Y-94748152D02*
X107807333Y-94795771D01*
X107807333Y-94795771D02*
X107854952Y-94891009D01*
X107854952Y-94891009D02*
X107854952Y-95414819D01*
X107854952Y-94891009D02*
X107902571Y-94795771D01*
X107902571Y-94795771D02*
X107997809Y-94748152D01*
X107997809Y-94748152D02*
X108140666Y-94748152D01*
X108140666Y-94748152D02*
X108235905Y-94795771D01*
X108235905Y-94795771D02*
X108283524Y-94891009D01*
X108283524Y-94891009D02*
X108283524Y-95414819D01*
X109140666Y-95367200D02*
X109045428Y-95414819D01*
X109045428Y-95414819D02*
X108854952Y-95414819D01*
X108854952Y-95414819D02*
X108759714Y-95367200D01*
X108759714Y-95367200D02*
X108712095Y-95271961D01*
X108712095Y-95271961D02*
X108712095Y-94891009D01*
X108712095Y-94891009D02*
X108759714Y-94795771D01*
X108759714Y-94795771D02*
X108854952Y-94748152D01*
X108854952Y-94748152D02*
X109045428Y-94748152D01*
X109045428Y-94748152D02*
X109140666Y-94795771D01*
X109140666Y-94795771D02*
X109188285Y-94891009D01*
X109188285Y-94891009D02*
X109188285Y-94986247D01*
X109188285Y-94986247D02*
X108712095Y-95081485D01*
X109616857Y-94748152D02*
X109616857Y-95414819D01*
X109616857Y-94843390D02*
X109664476Y-94795771D01*
X109664476Y-94795771D02*
X109759714Y-94748152D01*
X109759714Y-94748152D02*
X109902571Y-94748152D01*
X109902571Y-94748152D02*
X109997809Y-94795771D01*
X109997809Y-94795771D02*
X110045428Y-94891009D01*
X110045428Y-94891009D02*
X110045428Y-95414819D01*
X110378762Y-94748152D02*
X110759714Y-94748152D01*
X110521619Y-94414819D02*
X110521619Y-95271961D01*
X110521619Y-95271961D02*
X110569238Y-95367200D01*
X110569238Y-95367200D02*
X110664476Y-95414819D01*
X110664476Y-95414819D02*
X110759714Y-95414819D01*
X112331143Y-94414819D02*
X111854953Y-94414819D01*
X111854953Y-94414819D02*
X111807334Y-94891009D01*
X111807334Y-94891009D02*
X111854953Y-94843390D01*
X111854953Y-94843390D02*
X111950191Y-94795771D01*
X111950191Y-94795771D02*
X112188286Y-94795771D01*
X112188286Y-94795771D02*
X112283524Y-94843390D01*
X112283524Y-94843390D02*
X112331143Y-94891009D01*
X112331143Y-94891009D02*
X112378762Y-94986247D01*
X112378762Y-94986247D02*
X112378762Y-95224342D01*
X112378762Y-95224342D02*
X112331143Y-95319580D01*
X112331143Y-95319580D02*
X112283524Y-95367200D01*
X112283524Y-95367200D02*
X112188286Y-95414819D01*
X112188286Y-95414819D02*
X111950191Y-95414819D01*
X111950191Y-95414819D02*
X111854953Y-95367200D01*
X111854953Y-95367200D02*
X111807334Y-95319580D01*
X112997810Y-94414819D02*
X113093048Y-94414819D01*
X113093048Y-94414819D02*
X113188286Y-94462438D01*
X113188286Y-94462438D02*
X113235905Y-94510057D01*
X113235905Y-94510057D02*
X113283524Y-94605295D01*
X113283524Y-94605295D02*
X113331143Y-94795771D01*
X113331143Y-94795771D02*
X113331143Y-95033866D01*
X113331143Y-95033866D02*
X113283524Y-95224342D01*
X113283524Y-95224342D02*
X113235905Y-95319580D01*
X113235905Y-95319580D02*
X113188286Y-95367200D01*
X113188286Y-95367200D02*
X113093048Y-95414819D01*
X113093048Y-95414819D02*
X112997810Y-95414819D01*
X112997810Y-95414819D02*
X112902572Y-95367200D01*
X112902572Y-95367200D02*
X112854953Y-95319580D01*
X112854953Y-95319580D02*
X112807334Y-95224342D01*
X112807334Y-95224342D02*
X112759715Y-95033866D01*
X112759715Y-95033866D02*
X112759715Y-94795771D01*
X112759715Y-94795771D02*
X112807334Y-94605295D01*
X112807334Y-94605295D02*
X112854953Y-94510057D01*
X112854953Y-94510057D02*
X112902572Y-94462438D01*
X112902572Y-94462438D02*
X112997810Y-94414819D01*
X113664477Y-94414819D02*
X114283524Y-94414819D01*
X114283524Y-94414819D02*
X113950191Y-94795771D01*
X113950191Y-94795771D02*
X114093048Y-94795771D01*
X114093048Y-94795771D02*
X114188286Y-94843390D01*
X114188286Y-94843390D02*
X114235905Y-94891009D01*
X114235905Y-94891009D02*
X114283524Y-94986247D01*
X114283524Y-94986247D02*
X114283524Y-95224342D01*
X114283524Y-95224342D02*
X114235905Y-95319580D01*
X114235905Y-95319580D02*
X114188286Y-95367200D01*
X114188286Y-95367200D02*
X114093048Y-95414819D01*
X114093048Y-95414819D02*
X113807334Y-95414819D01*
X113807334Y-95414819D02*
X113712096Y-95367200D01*
X113712096Y-95367200D02*
X113664477Y-95319580D01*
X114616858Y-94414819D02*
X115283524Y-94414819D01*
X115283524Y-94414819D02*
X114854953Y-95414819D01*
X108235904Y-97024819D02*
X107902571Y-96548628D01*
X107664476Y-97024819D02*
X107664476Y-96024819D01*
X107664476Y-96024819D02*
X108045428Y-96024819D01*
X108045428Y-96024819D02*
X108140666Y-96072438D01*
X108140666Y-96072438D02*
X108188285Y-96120057D01*
X108188285Y-96120057D02*
X108235904Y-96215295D01*
X108235904Y-96215295D02*
X108235904Y-96358152D01*
X108235904Y-96358152D02*
X108188285Y-96453390D01*
X108188285Y-96453390D02*
X108140666Y-96501009D01*
X108140666Y-96501009D02*
X108045428Y-96548628D01*
X108045428Y-96548628D02*
X107664476Y-96548628D01*
X108664476Y-96501009D02*
X108997809Y-96501009D01*
X109140666Y-97024819D02*
X108664476Y-97024819D01*
X108664476Y-97024819D02*
X108664476Y-96024819D01*
X108664476Y-96024819D02*
X109140666Y-96024819D01*
X109426381Y-96024819D02*
X109759714Y-97024819D01*
X109759714Y-97024819D02*
X110093047Y-96024819D01*
X110426381Y-96929580D02*
X110474000Y-96977200D01*
X110474000Y-96977200D02*
X110426381Y-97024819D01*
X110426381Y-97024819D02*
X110378762Y-96977200D01*
X110378762Y-96977200D02*
X110426381Y-96929580D01*
X110426381Y-96929580D02*
X110426381Y-97024819D01*
X110854952Y-96739104D02*
X111331142Y-96739104D01*
X110759714Y-97024819D02*
X111093047Y-96024819D01*
X111093047Y-96024819D02*
X111426380Y-97024819D01*
X83208905Y-75384819D02*
X83208905Y-74384819D01*
X83208905Y-74384819D02*
X83447000Y-74384819D01*
X83447000Y-74384819D02*
X83589857Y-74432438D01*
X83589857Y-74432438D02*
X83685095Y-74527676D01*
X83685095Y-74527676D02*
X83732714Y-74622914D01*
X83732714Y-74622914D02*
X83780333Y-74813390D01*
X83780333Y-74813390D02*
X83780333Y-74956247D01*
X83780333Y-74956247D02*
X83732714Y-75146723D01*
X83732714Y-75146723D02*
X83685095Y-75241961D01*
X83685095Y-75241961D02*
X83589857Y-75337200D01*
X83589857Y-75337200D02*
X83447000Y-75384819D01*
X83447000Y-75384819D02*
X83208905Y-75384819D01*
X84113667Y-74384819D02*
X84732714Y-74384819D01*
X84732714Y-74384819D02*
X84399381Y-74765771D01*
X84399381Y-74765771D02*
X84542238Y-74765771D01*
X84542238Y-74765771D02*
X84637476Y-74813390D01*
X84637476Y-74813390D02*
X84685095Y-74861009D01*
X84685095Y-74861009D02*
X84732714Y-74956247D01*
X84732714Y-74956247D02*
X84732714Y-75194342D01*
X84732714Y-75194342D02*
X84685095Y-75289580D01*
X84685095Y-75289580D02*
X84637476Y-75337200D01*
X84637476Y-75337200D02*
X84542238Y-75384819D01*
X84542238Y-75384819D02*
X84256524Y-75384819D01*
X84256524Y-75384819D02*
X84161286Y-75337200D01*
X84161286Y-75337200D02*
X84113667Y-75289580D01*
X86661666Y-93434819D02*
X86661666Y-94149104D01*
X86661666Y-94149104D02*
X86614047Y-94291961D01*
X86614047Y-94291961D02*
X86518809Y-94387200D01*
X86518809Y-94387200D02*
X86375952Y-94434819D01*
X86375952Y-94434819D02*
X86280714Y-94434819D01*
X87661666Y-94434819D02*
X87090238Y-94434819D01*
X87375952Y-94434819D02*
X87375952Y-93434819D01*
X87375952Y-93434819D02*
X87280714Y-93577676D01*
X87280714Y-93577676D02*
X87185476Y-93672914D01*
X87185476Y-93672914D02*
X87090238Y-93720533D01*
X75055833Y-64549580D02*
X75008214Y-64597200D01*
X75008214Y-64597200D02*
X74865357Y-64644819D01*
X74865357Y-64644819D02*
X74770119Y-64644819D01*
X74770119Y-64644819D02*
X74627262Y-64597200D01*
X74627262Y-64597200D02*
X74532024Y-64501961D01*
X74532024Y-64501961D02*
X74484405Y-64406723D01*
X74484405Y-64406723D02*
X74436786Y-64216247D01*
X74436786Y-64216247D02*
X74436786Y-64073390D01*
X74436786Y-64073390D02*
X74484405Y-63882914D01*
X74484405Y-63882914D02*
X74532024Y-63787676D01*
X74532024Y-63787676D02*
X74627262Y-63692438D01*
X74627262Y-63692438D02*
X74770119Y-63644819D01*
X74770119Y-63644819D02*
X74865357Y-63644819D01*
X74865357Y-63644819D02*
X75008214Y-63692438D01*
X75008214Y-63692438D02*
X75055833Y-63740057D01*
X75627262Y-64073390D02*
X75532024Y-64025771D01*
X75532024Y-64025771D02*
X75484405Y-63978152D01*
X75484405Y-63978152D02*
X75436786Y-63882914D01*
X75436786Y-63882914D02*
X75436786Y-63835295D01*
X75436786Y-63835295D02*
X75484405Y-63740057D01*
X75484405Y-63740057D02*
X75532024Y-63692438D01*
X75532024Y-63692438D02*
X75627262Y-63644819D01*
X75627262Y-63644819D02*
X75817738Y-63644819D01*
X75817738Y-63644819D02*
X75912976Y-63692438D01*
X75912976Y-63692438D02*
X75960595Y-63740057D01*
X75960595Y-63740057D02*
X76008214Y-63835295D01*
X76008214Y-63835295D02*
X76008214Y-63882914D01*
X76008214Y-63882914D02*
X75960595Y-63978152D01*
X75960595Y-63978152D02*
X75912976Y-64025771D01*
X75912976Y-64025771D02*
X75817738Y-64073390D01*
X75817738Y-64073390D02*
X75627262Y-64073390D01*
X75627262Y-64073390D02*
X75532024Y-64121009D01*
X75532024Y-64121009D02*
X75484405Y-64168628D01*
X75484405Y-64168628D02*
X75436786Y-64263866D01*
X75436786Y-64263866D02*
X75436786Y-64454342D01*
X75436786Y-64454342D02*
X75484405Y-64549580D01*
X75484405Y-64549580D02*
X75532024Y-64597200D01*
X75532024Y-64597200D02*
X75627262Y-64644819D01*
X75627262Y-64644819D02*
X75817738Y-64644819D01*
X75817738Y-64644819D02*
X75912976Y-64597200D01*
X75912976Y-64597200D02*
X75960595Y-64549580D01*
X75960595Y-64549580D02*
X76008214Y-64454342D01*
X76008214Y-64454342D02*
X76008214Y-64263866D01*
X76008214Y-64263866D02*
X75960595Y-64168628D01*
X75960595Y-64168628D02*
X75912976Y-64121009D01*
X75912976Y-64121009D02*
X75817738Y-64073390D01*
X79025809Y-69066628D02*
X79025809Y-69542819D01*
X78692476Y-68542819D02*
X79025809Y-69066628D01*
X79025809Y-69066628D02*
X79359142Y-68542819D01*
X79644857Y-68638057D02*
X79692476Y-68590438D01*
X79692476Y-68590438D02*
X79787714Y-68542819D01*
X79787714Y-68542819D02*
X80025809Y-68542819D01*
X80025809Y-68542819D02*
X80121047Y-68590438D01*
X80121047Y-68590438D02*
X80168666Y-68638057D01*
X80168666Y-68638057D02*
X80216285Y-68733295D01*
X80216285Y-68733295D02*
X80216285Y-68828533D01*
X80216285Y-68828533D02*
X80168666Y-68971390D01*
X80168666Y-68971390D02*
X79597238Y-69542819D01*
X79597238Y-69542819D02*
X80216285Y-69542819D01*
X90616833Y-89923580D02*
X90569214Y-89971200D01*
X90569214Y-89971200D02*
X90426357Y-90018819D01*
X90426357Y-90018819D02*
X90331119Y-90018819D01*
X90331119Y-90018819D02*
X90188262Y-89971200D01*
X90188262Y-89971200D02*
X90093024Y-89875961D01*
X90093024Y-89875961D02*
X90045405Y-89780723D01*
X90045405Y-89780723D02*
X89997786Y-89590247D01*
X89997786Y-89590247D02*
X89997786Y-89447390D01*
X89997786Y-89447390D02*
X90045405Y-89256914D01*
X90045405Y-89256914D02*
X90093024Y-89161676D01*
X90093024Y-89161676D02*
X90188262Y-89066438D01*
X90188262Y-89066438D02*
X90331119Y-89018819D01*
X90331119Y-89018819D02*
X90426357Y-89018819D01*
X90426357Y-89018819D02*
X90569214Y-89066438D01*
X90569214Y-89066438D02*
X90616833Y-89114057D01*
X90997786Y-89114057D02*
X91045405Y-89066438D01*
X91045405Y-89066438D02*
X91140643Y-89018819D01*
X91140643Y-89018819D02*
X91378738Y-89018819D01*
X91378738Y-89018819D02*
X91473976Y-89066438D01*
X91473976Y-89066438D02*
X91521595Y-89114057D01*
X91521595Y-89114057D02*
X91569214Y-89209295D01*
X91569214Y-89209295D02*
X91569214Y-89304533D01*
X91569214Y-89304533D02*
X91521595Y-89447390D01*
X91521595Y-89447390D02*
X90950167Y-90018819D01*
X90950167Y-90018819D02*
X91569214Y-90018819D01*
X77451833Y-86563580D02*
X77404214Y-86611200D01*
X77404214Y-86611200D02*
X77261357Y-86658819D01*
X77261357Y-86658819D02*
X77166119Y-86658819D01*
X77166119Y-86658819D02*
X77023262Y-86611200D01*
X77023262Y-86611200D02*
X76928024Y-86515961D01*
X76928024Y-86515961D02*
X76880405Y-86420723D01*
X76880405Y-86420723D02*
X76832786Y-86230247D01*
X76832786Y-86230247D02*
X76832786Y-86087390D01*
X76832786Y-86087390D02*
X76880405Y-85896914D01*
X76880405Y-85896914D02*
X76928024Y-85801676D01*
X76928024Y-85801676D02*
X77023262Y-85706438D01*
X77023262Y-85706438D02*
X77166119Y-85658819D01*
X77166119Y-85658819D02*
X77261357Y-85658819D01*
X77261357Y-85658819D02*
X77404214Y-85706438D01*
X77404214Y-85706438D02*
X77451833Y-85754057D01*
X78404214Y-86658819D02*
X77832786Y-86658819D01*
X78118500Y-86658819D02*
X78118500Y-85658819D01*
X78118500Y-85658819D02*
X78023262Y-85801676D01*
X78023262Y-85801676D02*
X77928024Y-85896914D01*
X77928024Y-85896914D02*
X77832786Y-85944533D01*
X72223333Y-64494580D02*
X72175714Y-64542200D01*
X72175714Y-64542200D02*
X72032857Y-64589819D01*
X72032857Y-64589819D02*
X71937619Y-64589819D01*
X71937619Y-64589819D02*
X71794762Y-64542200D01*
X71794762Y-64542200D02*
X71699524Y-64446961D01*
X71699524Y-64446961D02*
X71651905Y-64351723D01*
X71651905Y-64351723D02*
X71604286Y-64161247D01*
X71604286Y-64161247D02*
X71604286Y-64018390D01*
X71604286Y-64018390D02*
X71651905Y-63827914D01*
X71651905Y-63827914D02*
X71699524Y-63732676D01*
X71699524Y-63732676D02*
X71794762Y-63637438D01*
X71794762Y-63637438D02*
X71937619Y-63589819D01*
X71937619Y-63589819D02*
X72032857Y-63589819D01*
X72032857Y-63589819D02*
X72175714Y-63637438D01*
X72175714Y-63637438D02*
X72223333Y-63685057D01*
X72556667Y-63589819D02*
X73175714Y-63589819D01*
X73175714Y-63589819D02*
X72842381Y-63970771D01*
X72842381Y-63970771D02*
X72985238Y-63970771D01*
X72985238Y-63970771D02*
X73080476Y-64018390D01*
X73080476Y-64018390D02*
X73128095Y-64066009D01*
X73128095Y-64066009D02*
X73175714Y-64161247D01*
X73175714Y-64161247D02*
X73175714Y-64399342D01*
X73175714Y-64399342D02*
X73128095Y-64494580D01*
X73128095Y-64494580D02*
X73080476Y-64542200D01*
X73080476Y-64542200D02*
X72985238Y-64589819D01*
X72985238Y-64589819D02*
X72699524Y-64589819D01*
X72699524Y-64589819D02*
X72604286Y-64542200D01*
X72604286Y-64542200D02*
X72556667Y-64494580D01*
X115403333Y-79988580D02*
X115355714Y-80036200D01*
X115355714Y-80036200D02*
X115212857Y-80083819D01*
X115212857Y-80083819D02*
X115117619Y-80083819D01*
X115117619Y-80083819D02*
X114974762Y-80036200D01*
X114974762Y-80036200D02*
X114879524Y-79940961D01*
X114879524Y-79940961D02*
X114831905Y-79845723D01*
X114831905Y-79845723D02*
X114784286Y-79655247D01*
X114784286Y-79655247D02*
X114784286Y-79512390D01*
X114784286Y-79512390D02*
X114831905Y-79321914D01*
X114831905Y-79321914D02*
X114879524Y-79226676D01*
X114879524Y-79226676D02*
X114974762Y-79131438D01*
X114974762Y-79131438D02*
X115117619Y-79083819D01*
X115117619Y-79083819D02*
X115212857Y-79083819D01*
X115212857Y-79083819D02*
X115355714Y-79131438D01*
X115355714Y-79131438D02*
X115403333Y-79179057D01*
X116308095Y-79083819D02*
X115831905Y-79083819D01*
X115831905Y-79083819D02*
X115784286Y-79560009D01*
X115784286Y-79560009D02*
X115831905Y-79512390D01*
X115831905Y-79512390D02*
X115927143Y-79464771D01*
X115927143Y-79464771D02*
X116165238Y-79464771D01*
X116165238Y-79464771D02*
X116260476Y-79512390D01*
X116260476Y-79512390D02*
X116308095Y-79560009D01*
X116308095Y-79560009D02*
X116355714Y-79655247D01*
X116355714Y-79655247D02*
X116355714Y-79893342D01*
X116355714Y-79893342D02*
X116308095Y-79988580D01*
X116308095Y-79988580D02*
X116260476Y-80036200D01*
X116260476Y-80036200D02*
X116165238Y-80083819D01*
X116165238Y-80083819D02*
X115927143Y-80083819D01*
X115927143Y-80083819D02*
X115831905Y-80036200D01*
X115831905Y-80036200D02*
X115784286Y-79988580D01*
X86450309Y-83544628D02*
X86450309Y-84020819D01*
X86116976Y-83020819D02*
X86450309Y-83544628D01*
X86450309Y-83544628D02*
X86783642Y-83020819D01*
X87640785Y-84020819D02*
X87069357Y-84020819D01*
X87355071Y-84020819D02*
X87355071Y-83020819D01*
X87355071Y-83020819D02*
X87259833Y-83163676D01*
X87259833Y-83163676D02*
X87164595Y-83258914D01*
X87164595Y-83258914D02*
X87069357Y-83306533D01*
X83208905Y-79194819D02*
X83208905Y-78194819D01*
X83208905Y-78194819D02*
X83447000Y-78194819D01*
X83447000Y-78194819D02*
X83589857Y-78242438D01*
X83589857Y-78242438D02*
X83685095Y-78337676D01*
X83685095Y-78337676D02*
X83732714Y-78432914D01*
X83732714Y-78432914D02*
X83780333Y-78623390D01*
X83780333Y-78623390D02*
X83780333Y-78766247D01*
X83780333Y-78766247D02*
X83732714Y-78956723D01*
X83732714Y-78956723D02*
X83685095Y-79051961D01*
X83685095Y-79051961D02*
X83589857Y-79147200D01*
X83589857Y-79147200D02*
X83447000Y-79194819D01*
X83447000Y-79194819D02*
X83208905Y-79194819D01*
X84732714Y-79194819D02*
X84161286Y-79194819D01*
X84447000Y-79194819D02*
X84447000Y-78194819D01*
X84447000Y-78194819D02*
X84351762Y-78337676D01*
X84351762Y-78337676D02*
X84256524Y-78432914D01*
X84256524Y-78432914D02*
X84161286Y-78480533D01*
X92543333Y-75514580D02*
X92495714Y-75562200D01*
X92495714Y-75562200D02*
X92352857Y-75609819D01*
X92352857Y-75609819D02*
X92257619Y-75609819D01*
X92257619Y-75609819D02*
X92114762Y-75562200D01*
X92114762Y-75562200D02*
X92019524Y-75466961D01*
X92019524Y-75466961D02*
X91971905Y-75371723D01*
X91971905Y-75371723D02*
X91924286Y-75181247D01*
X91924286Y-75181247D02*
X91924286Y-75038390D01*
X91924286Y-75038390D02*
X91971905Y-74847914D01*
X91971905Y-74847914D02*
X92019524Y-74752676D01*
X92019524Y-74752676D02*
X92114762Y-74657438D01*
X92114762Y-74657438D02*
X92257619Y-74609819D01*
X92257619Y-74609819D02*
X92352857Y-74609819D01*
X92352857Y-74609819D02*
X92495714Y-74657438D01*
X92495714Y-74657438D02*
X92543333Y-74705057D01*
X92876667Y-74609819D02*
X93543333Y-74609819D01*
X93543333Y-74609819D02*
X93114762Y-75609819D01*
X93091095Y-67555819D02*
X93091095Y-68365342D01*
X93091095Y-68365342D02*
X93138714Y-68460580D01*
X93138714Y-68460580D02*
X93186333Y-68508200D01*
X93186333Y-68508200D02*
X93281571Y-68555819D01*
X93281571Y-68555819D02*
X93472047Y-68555819D01*
X93472047Y-68555819D02*
X93567285Y-68508200D01*
X93567285Y-68508200D02*
X93614904Y-68460580D01*
X93614904Y-68460580D02*
X93662523Y-68365342D01*
X93662523Y-68365342D02*
X93662523Y-67555819D01*
X94091095Y-67651057D02*
X94138714Y-67603438D01*
X94138714Y-67603438D02*
X94233952Y-67555819D01*
X94233952Y-67555819D02*
X94472047Y-67555819D01*
X94472047Y-67555819D02*
X94567285Y-67603438D01*
X94567285Y-67603438D02*
X94614904Y-67651057D01*
X94614904Y-67651057D02*
X94662523Y-67746295D01*
X94662523Y-67746295D02*
X94662523Y-67841533D01*
X94662523Y-67841533D02*
X94614904Y-67984390D01*
X94614904Y-67984390D02*
X94043476Y-68555819D01*
X94043476Y-68555819D02*
X94662523Y-68555819D01*
X72223333Y-68399819D02*
X71890000Y-67923628D01*
X71651905Y-68399819D02*
X71651905Y-67399819D01*
X71651905Y-67399819D02*
X72032857Y-67399819D01*
X72032857Y-67399819D02*
X72128095Y-67447438D01*
X72128095Y-67447438D02*
X72175714Y-67495057D01*
X72175714Y-67495057D02*
X72223333Y-67590295D01*
X72223333Y-67590295D02*
X72223333Y-67733152D01*
X72223333Y-67733152D02*
X72175714Y-67828390D01*
X72175714Y-67828390D02*
X72128095Y-67876009D01*
X72128095Y-67876009D02*
X72032857Y-67923628D01*
X72032857Y-67923628D02*
X71651905Y-67923628D01*
X72604286Y-67495057D02*
X72651905Y-67447438D01*
X72651905Y-67447438D02*
X72747143Y-67399819D01*
X72747143Y-67399819D02*
X72985238Y-67399819D01*
X72985238Y-67399819D02*
X73080476Y-67447438D01*
X73080476Y-67447438D02*
X73128095Y-67495057D01*
X73128095Y-67495057D02*
X73175714Y-67590295D01*
X73175714Y-67590295D02*
X73175714Y-67685533D01*
X73175714Y-67685533D02*
X73128095Y-67828390D01*
X73128095Y-67828390D02*
X72556667Y-68399819D01*
X72556667Y-68399819D02*
X73175714Y-68399819D01*
X102489095Y-73414819D02*
X102489095Y-74224342D01*
X102489095Y-74224342D02*
X102536714Y-74319580D01*
X102536714Y-74319580D02*
X102584333Y-74367200D01*
X102584333Y-74367200D02*
X102679571Y-74414819D01*
X102679571Y-74414819D02*
X102870047Y-74414819D01*
X102870047Y-74414819D02*
X102965285Y-74367200D01*
X102965285Y-74367200D02*
X103012904Y-74319580D01*
X103012904Y-74319580D02*
X103060523Y-74224342D01*
X103060523Y-74224342D02*
X103060523Y-73414819D01*
X103441476Y-73414819D02*
X104060523Y-73414819D01*
X104060523Y-73414819D02*
X103727190Y-73795771D01*
X103727190Y-73795771D02*
X103870047Y-73795771D01*
X103870047Y-73795771D02*
X103965285Y-73843390D01*
X103965285Y-73843390D02*
X104012904Y-73891009D01*
X104012904Y-73891009D02*
X104060523Y-73986247D01*
X104060523Y-73986247D02*
X104060523Y-74224342D01*
X104060523Y-74224342D02*
X104012904Y-74319580D01*
X104012904Y-74319580D02*
X103965285Y-74367200D01*
X103965285Y-74367200D02*
X103870047Y-74414819D01*
X103870047Y-74414819D02*
X103584333Y-74414819D01*
X103584333Y-74414819D02*
X103489095Y-74367200D01*
X103489095Y-74367200D02*
X103441476Y-74319580D01*
X72413905Y-90376819D02*
X72413905Y-89376819D01*
X72413905Y-89376819D02*
X72652000Y-89376819D01*
X72652000Y-89376819D02*
X72794857Y-89424438D01*
X72794857Y-89424438D02*
X72890095Y-89519676D01*
X72890095Y-89519676D02*
X72937714Y-89614914D01*
X72937714Y-89614914D02*
X72985333Y-89805390D01*
X72985333Y-89805390D02*
X72985333Y-89948247D01*
X72985333Y-89948247D02*
X72937714Y-90138723D01*
X72937714Y-90138723D02*
X72890095Y-90233961D01*
X72890095Y-90233961D02*
X72794857Y-90329200D01*
X72794857Y-90329200D02*
X72652000Y-90376819D01*
X72652000Y-90376819D02*
X72413905Y-90376819D01*
X73366286Y-89472057D02*
X73413905Y-89424438D01*
X73413905Y-89424438D02*
X73509143Y-89376819D01*
X73509143Y-89376819D02*
X73747238Y-89376819D01*
X73747238Y-89376819D02*
X73842476Y-89424438D01*
X73842476Y-89424438D02*
X73890095Y-89472057D01*
X73890095Y-89472057D02*
X73937714Y-89567295D01*
X73937714Y-89567295D02*
X73937714Y-89662533D01*
X73937714Y-89662533D02*
X73890095Y-89805390D01*
X73890095Y-89805390D02*
X73318667Y-90376819D01*
X73318667Y-90376819D02*
X73937714Y-90376819D01*
X73239333Y-86688819D02*
X72906000Y-86212628D01*
X72667905Y-86688819D02*
X72667905Y-85688819D01*
X72667905Y-85688819D02*
X73048857Y-85688819D01*
X73048857Y-85688819D02*
X73144095Y-85736438D01*
X73144095Y-85736438D02*
X73191714Y-85784057D01*
X73191714Y-85784057D02*
X73239333Y-85879295D01*
X73239333Y-85879295D02*
X73239333Y-86022152D01*
X73239333Y-86022152D02*
X73191714Y-86117390D01*
X73191714Y-86117390D02*
X73144095Y-86165009D01*
X73144095Y-86165009D02*
X73048857Y-86212628D01*
X73048857Y-86212628D02*
X72667905Y-86212628D01*
X74191714Y-86688819D02*
X73620286Y-86688819D01*
X73906000Y-86688819D02*
X73906000Y-85688819D01*
X73906000Y-85688819D02*
X73810762Y-85831676D01*
X73810762Y-85831676D02*
X73715524Y-85926914D01*
X73715524Y-85926914D02*
X73620286Y-85974533D01*
X72223333Y-70304819D02*
X71890000Y-69828628D01*
X71651905Y-70304819D02*
X71651905Y-69304819D01*
X71651905Y-69304819D02*
X72032857Y-69304819D01*
X72032857Y-69304819D02*
X72128095Y-69352438D01*
X72128095Y-69352438D02*
X72175714Y-69400057D01*
X72175714Y-69400057D02*
X72223333Y-69495295D01*
X72223333Y-69495295D02*
X72223333Y-69638152D01*
X72223333Y-69638152D02*
X72175714Y-69733390D01*
X72175714Y-69733390D02*
X72128095Y-69781009D01*
X72128095Y-69781009D02*
X72032857Y-69828628D01*
X72032857Y-69828628D02*
X71651905Y-69828628D01*
X72556667Y-69304819D02*
X73175714Y-69304819D01*
X73175714Y-69304819D02*
X72842381Y-69685771D01*
X72842381Y-69685771D02*
X72985238Y-69685771D01*
X72985238Y-69685771D02*
X73080476Y-69733390D01*
X73080476Y-69733390D02*
X73128095Y-69781009D01*
X73128095Y-69781009D02*
X73175714Y-69876247D01*
X73175714Y-69876247D02*
X73175714Y-70114342D01*
X73175714Y-70114342D02*
X73128095Y-70209580D01*
X73128095Y-70209580D02*
X73080476Y-70257200D01*
X73080476Y-70257200D02*
X72985238Y-70304819D01*
X72985238Y-70304819D02*
X72699524Y-70304819D01*
X72699524Y-70304819D02*
X72604286Y-70257200D01*
X72604286Y-70257200D02*
X72556667Y-70209580D01*
X115446333Y-82274580D02*
X115398714Y-82322200D01*
X115398714Y-82322200D02*
X115255857Y-82369819D01*
X115255857Y-82369819D02*
X115160619Y-82369819D01*
X115160619Y-82369819D02*
X115017762Y-82322200D01*
X115017762Y-82322200D02*
X114922524Y-82226961D01*
X114922524Y-82226961D02*
X114874905Y-82131723D01*
X114874905Y-82131723D02*
X114827286Y-81941247D01*
X114827286Y-81941247D02*
X114827286Y-81798390D01*
X114827286Y-81798390D02*
X114874905Y-81607914D01*
X114874905Y-81607914D02*
X114922524Y-81512676D01*
X114922524Y-81512676D02*
X115017762Y-81417438D01*
X115017762Y-81417438D02*
X115160619Y-81369819D01*
X115160619Y-81369819D02*
X115255857Y-81369819D01*
X115255857Y-81369819D02*
X115398714Y-81417438D01*
X115398714Y-81417438D02*
X115446333Y-81465057D01*
X116303476Y-81369819D02*
X116113000Y-81369819D01*
X116113000Y-81369819D02*
X116017762Y-81417438D01*
X116017762Y-81417438D02*
X115970143Y-81465057D01*
X115970143Y-81465057D02*
X115874905Y-81607914D01*
X115874905Y-81607914D02*
X115827286Y-81798390D01*
X115827286Y-81798390D02*
X115827286Y-82179342D01*
X115827286Y-82179342D02*
X115874905Y-82274580D01*
X115874905Y-82274580D02*
X115922524Y-82322200D01*
X115922524Y-82322200D02*
X116017762Y-82369819D01*
X116017762Y-82369819D02*
X116208238Y-82369819D01*
X116208238Y-82369819D02*
X116303476Y-82322200D01*
X116303476Y-82322200D02*
X116351095Y-82274580D01*
X116351095Y-82274580D02*
X116398714Y-82179342D01*
X116398714Y-82179342D02*
X116398714Y-81941247D01*
X116398714Y-81941247D02*
X116351095Y-81846009D01*
X116351095Y-81846009D02*
X116303476Y-81798390D01*
X116303476Y-81798390D02*
X116208238Y-81750771D01*
X116208238Y-81750771D02*
X116017762Y-81750771D01*
X116017762Y-81750771D02*
X115922524Y-81798390D01*
X115922524Y-81798390D02*
X115874905Y-81846009D01*
X115874905Y-81846009D02*
X115827286Y-81941247D01*
X81520819Y-67008333D02*
X82235104Y-67008333D01*
X82235104Y-67008333D02*
X82377961Y-67055952D01*
X82377961Y-67055952D02*
X82473200Y-67151190D01*
X82473200Y-67151190D02*
X82520819Y-67294047D01*
X82520819Y-67294047D02*
X82520819Y-67389285D01*
X81854152Y-66103571D02*
X82520819Y-66103571D01*
X81473200Y-66341666D02*
X82187485Y-66579761D01*
X82187485Y-66579761D02*
X82187485Y-65960714D01*
X115403333Y-77829580D02*
X115355714Y-77877200D01*
X115355714Y-77877200D02*
X115212857Y-77924819D01*
X115212857Y-77924819D02*
X115117619Y-77924819D01*
X115117619Y-77924819D02*
X114974762Y-77877200D01*
X114974762Y-77877200D02*
X114879524Y-77781961D01*
X114879524Y-77781961D02*
X114831905Y-77686723D01*
X114831905Y-77686723D02*
X114784286Y-77496247D01*
X114784286Y-77496247D02*
X114784286Y-77353390D01*
X114784286Y-77353390D02*
X114831905Y-77162914D01*
X114831905Y-77162914D02*
X114879524Y-77067676D01*
X114879524Y-77067676D02*
X114974762Y-76972438D01*
X114974762Y-76972438D02*
X115117619Y-76924819D01*
X115117619Y-76924819D02*
X115212857Y-76924819D01*
X115212857Y-76924819D02*
X115355714Y-76972438D01*
X115355714Y-76972438D02*
X115403333Y-77020057D01*
X116260476Y-77258152D02*
X116260476Y-77924819D01*
X116022381Y-76877200D02*
X115784286Y-77591485D01*
X115784286Y-77591485D02*
X116403333Y-77591485D01*
D11*
%TO.C,D3*%
X80587000Y-73345000D02*
X80587000Y-76515000D01*
X80587000Y-76515000D02*
X86447000Y-76515000D01*
X86447000Y-73345000D02*
X80587000Y-73345000D01*
%TO.C,J1*%
X86046000Y-96354000D02*
X86046000Y-95244000D01*
X86046000Y-95244000D02*
X87376000Y-95244000D01*
%TO.C,C8*%
X74511248Y-65130000D02*
X75933752Y-65130000D01*
X74511248Y-66950000D02*
X75933752Y-66950000D01*
%TO.C,Y2*%
X87290000Y-69158000D02*
X80890000Y-69158000D01*
X80890000Y-69158000D02*
X80890000Y-71558000D01*
X88190000Y-69408000D02*
X88390000Y-69408000D01*
X87290000Y-70008000D02*
X88190000Y-69408000D01*
X87290000Y-70708000D02*
X88190000Y-71308000D01*
X88190000Y-71308000D02*
X88390000Y-71308000D01*
X87290000Y-71558000D02*
X87290000Y-69158000D01*
X80890000Y-71558000D02*
X87290000Y-71558000D01*
%TO.C,C2*%
X91044752Y-88619000D02*
X90522248Y-88619000D01*
X91044752Y-87149000D02*
X90522248Y-87149000D01*
%TO.C,C1*%
X77357248Y-87149000D02*
X77879752Y-87149000D01*
X77357248Y-88619000D02*
X77879752Y-88619000D01*
%TO.C,C3*%
X69186248Y-64543000D02*
X69708752Y-64543000D01*
X69186248Y-66013000D02*
X69708752Y-66013000D01*
%TO.C,C5*%
X112493248Y-79021000D02*
X113015752Y-79021000D01*
X112493248Y-80491000D02*
X113015752Y-80491000D01*
%TO.C,Y1*%
X83801500Y-81295000D02*
X90051500Y-81295000D01*
X83801500Y-86345000D02*
X90051500Y-86345000D01*
X83801500Y-81295000D02*
G75*
G03*
X83801500Y-86345000I0J-2525000D01*
G01*
X90051500Y-86345000D02*
G75*
G03*
X90051500Y-81295000I0J2525000D01*
G01*
%TO.C,D1*%
X80587000Y-76901000D02*
X80587000Y-80071000D01*
X80587000Y-80071000D02*
X86447000Y-80071000D01*
X86447000Y-76901000D02*
X80587000Y-76901000D01*
%TO.C,C7*%
X92448748Y-76100000D02*
X92971252Y-76100000D01*
X92448748Y-77570000D02*
X92971252Y-77570000D01*
%TO.C,U2*%
X93853000Y-68941000D02*
X90403000Y-68941000D01*
X93853000Y-68941000D02*
X95803000Y-68941000D01*
X93853000Y-74061000D02*
X91903000Y-74061000D01*
X93853000Y-74061000D02*
X95803000Y-74061000D01*
%TO.C,R2*%
X69257936Y-66829000D02*
X69712064Y-66829000D01*
X69257936Y-68299000D02*
X69712064Y-68299000D01*
D10*
%TO.C,U3*%
X99626000Y-76385000D02*
X99626000Y-76610000D01*
X99626000Y-76385000D02*
X99951000Y-76385000D01*
X99626000Y-76610000D02*
X98201000Y-76610000D01*
X99626000Y-83635000D02*
X99626000Y-83310000D01*
X99626000Y-83635000D02*
X99951000Y-83635000D01*
X106876000Y-76385000D02*
X106551000Y-76385000D01*
X106876000Y-76385000D02*
X106876000Y-76710000D01*
X106876000Y-83635000D02*
X106551000Y-83635000D01*
X106876000Y-83635000D02*
X106876000Y-83310000D01*
D11*
%TO.C,D2*%
X69792000Y-90617000D02*
X69792000Y-93787000D01*
X69792000Y-93787000D02*
X75652000Y-93787000D01*
X75652000Y-90617000D02*
X69792000Y-90617000D01*
%TO.C,R1*%
X73178936Y-87149000D02*
X73633064Y-87149000D01*
X73178936Y-88619000D02*
X73633064Y-88619000D01*
%TO.C,R3*%
X69241936Y-69115000D02*
X69696064Y-69115000D01*
X69241936Y-70585000D02*
X69696064Y-70585000D01*
%TO.C,C6*%
X112536248Y-81307000D02*
X113058752Y-81307000D01*
X112536248Y-82777000D02*
X113058752Y-82777000D01*
%TO.C,J4*%
X83506000Y-65405000D02*
X83506000Y-64295000D01*
X83506000Y-64295000D02*
X84836000Y-64295000D01*
%TO.C,C4*%
X112493248Y-76862000D02*
X113015752Y-76862000D01*
X112493248Y-78332000D02*
X113015752Y-78332000D01*
%TD*%
M02*
