M48
; DRILL file {KiCad 9.0.6} date 2026-02-27T14:51:30+0100
; FORMAT={-:-/ absolute / metric / decimal}
; #@! TF.CreationDate,2026-02-27T14:51:30+01:00
; #@! TF.GenerationSoftware,Kicad,Pcbnew,9.0.6
; #@! TF.FileFunction,Plated,1,2,PTH
FMAT,2
METRIC
; #@! TA.AperFunction,Plated,PTH,ViaDrill
T1C0.400
; #@! TA.AperFunction,Plated,PTH,ComponentDrill
T2C0.500
; #@! TA.AperFunction,Plated,PTH,ComponentDrill
T3C0.800
; #@! TA.AperFunction,Plated,PTH,ComponentDrill
T4C1.000
; #@! TA.AperFunction,Plated,PTH,ComponentDrill
T5C1.500
%
G90
G05
T1
X67.945Y-63.5
X68.58Y-89.535
X71.969Y-66.304
X73.719Y-93.235
X74.372Y-86.539
X79.375Y-65.405
X79.375Y-71.12
X82.55Y-71.12
X83.185Y-92.075
X83.82Y-96.52
X88.265Y-81.915
X88.9Y-73.66
X89.535Y-87.63
X91.2Y-68.362
X92.71Y-92.71
X95.515Y-90.613
X96.843Y-88.058
X97.178Y-78.914
X97.79Y-67.945
X98.425Y-84.455
X98.425Y-88.9
X98.747Y-74.962
X99.695Y-69.85
X99.695Y-86.36
X99.696Y-73.479
X100.33Y-93.98
X100.848Y-78.688
X101.061Y-80.895
X101.6Y-65.405
X101.6Y-89.535
X102.238Y-82.656
X102.69Y-74.025
X103.517Y-72.602
X104.451Y-81.974
X104.53Y-74.149
X105.719Y-80.888
X106.68Y-86.995
X107.514Y-84.151
X109.22Y-76.2
X109.22Y-79.375
X109.855Y-83.185
X109.855Y-86.36
X111.125Y-84.455
X111.76Y-81.915
X113.03Y-71.755
X113.665Y-80.01
X113.665Y-97.79
X114.935Y-85.09
T2
X89.09Y-69.408
X89.09Y-71.308
T3
X84.486Y-83.82
X89.367Y-83.82
T4
X69.088Y-74.422
X69.088Y-76.962
X69.088Y-79.502
X69.088Y-82.042
X69.088Y-84.582
X69.088Y-87.122
X74.168Y-71.374
X74.168Y-73.914
X74.168Y-76.454
X76.708Y-71.374
X76.708Y-73.914
X76.708Y-76.454
X84.836Y-65.405
X87.376Y-65.405
X87.376Y-96.354
X89.916Y-65.405
X89.916Y-96.354
X92.456Y-65.405
X92.456Y-96.354
X94.996Y-65.405
X94.996Y-96.354
X97.536Y-65.405
X97.536Y-96.354
T5
X104.267Y-69.03
X104.267Y-89.52
M30
