%TF.GenerationSoftware,KiCad,Pcbnew,7.0.7*%
%TF.CreationDate,2024-12-30T17:22:27+01:00*%
%TF.ProjectId,Movement5037,4d6f7665-6d65-46e7-9435-3033372e6b69,rev?*%
%TF.SameCoordinates,Original*%
%TF.FileFunction,Copper,L1,Top*%
%TF.FilePolarity,Positive*%
%FSLAX46Y46*%
G04 Gerber Fmt 4.6, Leading zero omitted, Abs format (unit mm)*
G04 Created by KiCad (PCBNEW 7.0.7) date 2024-12-30 17:22:27*
%MOMM*%
%LPD*%
G01*
G04 APERTURE LIST*
G04 Aperture macros list*
%AMRoundRect*
0 Rectangle with rounded corners*
0 $1 Rounding radius*
0 $2 $3 $4 $5 $6 $7 $8 $9 X,Y pos of 4 corners*
0 Add a 4 corners polygon primitive as box body*
4,1,4,$2,$3,$4,$5,$6,$7,$8,$9,$2,$3,0*
0 Add four circle primitives for the rounded corners*
1,1,$1+$1,$2,$3*
1,1,$1+$1,$4,$5*
1,1,$1+$1,$6,$7*
1,1,$1+$1,$8,$9*
0 Add four rect primitives between the rounded corners*
20,1,$1+$1,$2,$3,$4,$5,0*
20,1,$1+$1,$4,$5,$6,$7,0*
20,1,$1+$1,$6,$7,$8,$9,0*
20,1,$1+$1,$8,$9,$2,$3,0*%
G04 Aperture macros list end*
%TA.AperFunction,SMDPad,CuDef*%
%ADD10RoundRect,0.249999X-0.512501X-1.075001X0.512501X-1.075001X0.512501X1.075001X-0.512501X1.075001X0*%
%TD*%
%TA.AperFunction,ComponentPad*%
%ADD11R,1.700000X1.700000*%
%TD*%
%TA.AperFunction,ComponentPad*%
%ADD12O,1.700000X1.700000*%
%TD*%
%TA.AperFunction,SMDPad,CuDef*%
%ADD13RoundRect,0.250000X-0.412500X-0.650000X0.412500X-0.650000X0.412500X0.650000X-0.412500X0.650000X0*%
%TD*%
%TA.AperFunction,ComponentPad*%
%ADD14C,1.000000*%
%TD*%
%TA.AperFunction,SMDPad,CuDef*%
%ADD15RoundRect,0.250000X0.337500X0.475000X-0.337500X0.475000X-0.337500X-0.475000X0.337500X-0.475000X0*%
%TD*%
%TA.AperFunction,SMDPad,CuDef*%
%ADD16RoundRect,0.250000X-0.337500X-0.475000X0.337500X-0.475000X0.337500X0.475000X-0.337500X0.475000X0*%
%TD*%
%TA.AperFunction,ComponentPad*%
%ADD17C,1.500000*%
%TD*%
%TA.AperFunction,SMDPad,CuDef*%
%ADD18RoundRect,0.150000X-1.100000X-0.150000X1.100000X-0.150000X1.100000X0.150000X-1.100000X0.150000X0*%
%TD*%
%TA.AperFunction,SMDPad,CuDef*%
%ADD19RoundRect,0.250000X-0.350000X-0.450000X0.350000X-0.450000X0.350000X0.450000X-0.350000X0.450000X0*%
%TD*%
%TA.AperFunction,SMDPad,CuDef*%
%ADD20R,2.000000X0.550000*%
%TD*%
%TA.AperFunction,SMDPad,CuDef*%
%ADD21R,0.550000X2.000000*%
%TD*%
%TA.AperFunction,ComponentPad*%
%ADD22R,3.000000X3.000000*%
%TD*%
%TA.AperFunction,ComponentPad*%
%ADD23C,3.000000*%
%TD*%
%TA.AperFunction,ViaPad*%
%ADD24C,0.800000*%
%TD*%
%TA.AperFunction,Conductor*%
%ADD25C,0.250000*%
%TD*%
G04 APERTURE END LIST*
D10*
%TO.P,D3,1,K*%
%TO.N,+5V*%
X81609500Y-74930000D03*
%TO.P,D3,2,A*%
%TO.N,Net-(D3-A)*%
X86284500Y-74930000D03*
%TD*%
D11*
%TO.P,J1,1,Pin_1*%
%TO.N,/WS2812_D*%
X87376000Y-96354000D03*
D12*
%TO.P,J1,2,Pin_2*%
%TO.N,/TM1637_CLK*%
X89916000Y-96354000D03*
%TO.P,J1,3,Pin_3*%
%TO.N,/TM1637_DIO*%
X92456000Y-96354000D03*
%TO.P,J1,4,Pin_4*%
%TO.N,/TIMEC*%
X94996000Y-96354000D03*
%TO.P,J1,5,Pin_5*%
%TO.N,/TIMED*%
X97536000Y-96354000D03*
%TD*%
D13*
%TO.P,C8,1*%
%TO.N,+5V*%
X73660000Y-66040000D03*
%TO.P,C8,2*%
%TO.N,GND*%
X76785000Y-66040000D03*
%TD*%
D14*
%TO.P,Y2,1,1*%
%TO.N,Net-(U2-X1)*%
X89090000Y-69408000D03*
%TO.P,Y2,2,2*%
%TO.N,Net-(U2-X2)*%
X89090000Y-71308000D03*
%TD*%
D15*
%TO.P,C2,1*%
%TO.N,Net-(U3-XTAL1{slash}PB6)*%
X91821000Y-87884000D03*
%TO.P,C2,2*%
%TO.N,GND*%
X89746000Y-87884000D03*
%TD*%
D16*
%TO.P,C1,1*%
%TO.N,Net-(U3-XTAL2{slash}PB7)*%
X76581000Y-87884000D03*
%TO.P,C1,2*%
%TO.N,GND*%
X78656000Y-87884000D03*
%TD*%
%TO.P,C3,1*%
%TO.N,/RST*%
X68410000Y-65278000D03*
%TO.P,C3,2*%
%TO.N,Net-(J6-Pin_6)*%
X70485000Y-65278000D03*
%TD*%
%TO.P,C5,1*%
%TO.N,Net-(U3-AREF)*%
X111717000Y-79756000D03*
%TO.P,C5,2*%
%TO.N,GND*%
X113792000Y-79756000D03*
%TD*%
D17*
%TO.P,Y1,1,1*%
%TO.N,Net-(U3-XTAL2{slash}PB7)*%
X84486500Y-83820000D03*
%TO.P,Y1,2,2*%
%TO.N,Net-(U3-XTAL1{slash}PB6)*%
X89366500Y-83820000D03*
%TD*%
D10*
%TO.P,D1,1,K*%
%TO.N,+5V*%
X81609500Y-78486000D03*
%TO.P,D1,2,A*%
%TO.N,Net-(D1-A)*%
X86284500Y-78486000D03*
%TD*%
D16*
%TO.P,C7,1*%
%TO.N,GND*%
X91672500Y-76835000D03*
%TO.P,C7,2*%
%TO.N,+5V*%
X93747500Y-76835000D03*
%TD*%
D18*
%TO.P,U2,1,X1*%
%TO.N,Net-(U2-X1)*%
X91378000Y-69596000D03*
%TO.P,U2,2,X2*%
%TO.N,Net-(U2-X2)*%
X91378000Y-70866000D03*
%TO.P,U2,3,VBATT*%
%TO.N,Net-(BT1-+)*%
X91378000Y-72136000D03*
%TO.P,U2,4,GND*%
%TO.N,GND*%
X91378000Y-73406000D03*
%TO.P,U2,5,SDA*%
%TO.N,/SDA*%
X96328000Y-73406000D03*
%TO.P,U2,6,SLC*%
%TO.N,/SCL*%
X96328000Y-72136000D03*
%TO.P,U2,7,SQW*%
%TO.N,/1HZ*%
X96328000Y-70866000D03*
%TO.P,U2,8,VCC*%
%TO.N,+5V*%
X96328000Y-69596000D03*
%TD*%
D19*
%TO.P,R2,1*%
%TO.N,Net-(J6-Pin_4)*%
X68485000Y-67564000D03*
%TO.P,R2,2*%
%TO.N,Net-(U3-PD0)*%
X70485000Y-67564000D03*
%TD*%
D20*
%TO.P,U3,1,PD3*%
%TO.N,/TM1637_CLK*%
X99001000Y-77210000D03*
%TO.P,U3,2,PD4*%
X99001000Y-78010000D03*
%TO.P,U3,3,PE0*%
%TO.N,unconnected-(U3-PE0-Pad3)*%
X99001000Y-78810000D03*
%TO.P,U3,4,VCC*%
%TO.N,+5V*%
X99001000Y-79610000D03*
%TO.P,U3,5,GND*%
%TO.N,GND*%
X99001000Y-80410000D03*
%TO.P,U3,6,PE1*%
%TO.N,unconnected-(U3-PE1-Pad6)*%
X99001000Y-81210000D03*
%TO.P,U3,7,XTAL1/PB6*%
%TO.N,Net-(U3-XTAL1{slash}PB6)*%
X99001000Y-82010000D03*
%TO.P,U3,8,XTAL2/PB7*%
%TO.N,Net-(U3-XTAL2{slash}PB7)*%
X99001000Y-82810000D03*
D21*
%TO.P,U3,9,PD5*%
%TO.N,/WS2812_D*%
X100451000Y-84260000D03*
%TO.P,U3,10,PD6*%
%TO.N,unconnected-(U3-PD6-Pad10)*%
X101251000Y-84260000D03*
%TO.P,U3,11,PD7*%
%TO.N,unconnected-(U3-PD7-Pad11)*%
X102051000Y-84260000D03*
%TO.P,U3,12,PB0*%
%TO.N,/BTNA*%
X102851000Y-84260000D03*
%TO.P,U3,13,PB1*%
%TO.N,/BTNB*%
X103651000Y-84260000D03*
%TO.P,U3,14,PB2*%
%TO.N,/BTNC*%
X104451000Y-84260000D03*
%TO.P,U3,15,PB3*%
%TO.N,Net-(J7-MOSI)*%
X105251000Y-84260000D03*
%TO.P,U3,16,PB4*%
%TO.N,Net-(J7-MISO)*%
X106051000Y-84260000D03*
D20*
%TO.P,U3,17,PB5*%
%TO.N,Net-(J7-SCK)*%
X107501000Y-82810000D03*
%TO.P,U3,18,AVCC*%
%TO.N,+5V*%
X107501000Y-82010000D03*
%TO.P,U3,19,PE2*%
%TO.N,unconnected-(U3-PE2-Pad19)*%
X107501000Y-81210000D03*
%TO.P,U3,20,AREF*%
%TO.N,Net-(U3-AREF)*%
X107501000Y-80410000D03*
%TO.P,U3,21,GND*%
%TO.N,GND*%
X107501000Y-79610000D03*
%TO.P,U3,22,PE3*%
%TO.N,unconnected-(U3-PE3-Pad22)*%
X107501000Y-78810000D03*
%TO.P,U3,23,PC0*%
%TO.N,/TIMED*%
X107501000Y-78010000D03*
%TO.P,U3,24,PC1*%
%TO.N,/TIMEC*%
X107501000Y-77210000D03*
D21*
%TO.P,U3,25,PC2*%
%TO.N,unconnected-(U3-PC2-Pad25)*%
X106051000Y-75760000D03*
%TO.P,U3,26,PC3*%
%TO.N,unconnected-(U3-PC3-Pad26)*%
X105251000Y-75760000D03*
%TO.P,U3,27,PC4*%
%TO.N,/SDA*%
X104451000Y-75760000D03*
%TO.P,U3,28,PC5*%
%TO.N,/SCL*%
X103651000Y-75760000D03*
%TO.P,U3,29,~{RESET}/PC6*%
%TO.N,/RST*%
X102851000Y-75760000D03*
%TO.P,U3,30,PD0*%
%TO.N,Net-(U3-PD0)*%
X102051000Y-75760000D03*
%TO.P,U3,31,PD1*%
%TO.N,Net-(U3-PD1)*%
X101251000Y-75760000D03*
%TO.P,U3,32,PD2*%
%TO.N,/TM1637_DIO*%
X100451000Y-75760000D03*
%TD*%
D10*
%TO.P,D2,1,K*%
%TO.N,+5V*%
X70814500Y-92202000D03*
%TO.P,D2,2,A*%
%TO.N,Net-(D2-A)*%
X75489500Y-92202000D03*
%TD*%
D19*
%TO.P,R1,1*%
%TO.N,+5V*%
X72406000Y-87884000D03*
%TO.P,R1,2*%
%TO.N,/RST*%
X74406000Y-87884000D03*
%TD*%
%TO.P,R3,1*%
%TO.N,Net-(J6-Pin_5)*%
X68469000Y-69850000D03*
%TO.P,R3,2*%
%TO.N,Net-(U3-PD1)*%
X70469000Y-69850000D03*
%TD*%
D16*
%TO.P,C6,1*%
%TO.N,GND*%
X111760000Y-82042000D03*
%TO.P,C6,2*%
%TO.N,+5V*%
X113835000Y-82042000D03*
%TD*%
D11*
%TO.P,J4,1,Pin_1*%
%TO.N,GND*%
X84836000Y-65405000D03*
D12*
%TO.P,J4,2,Pin_2*%
%TO.N,/1HZ*%
X87376000Y-65405000D03*
%TO.P,J4,3,Pin_3*%
%TO.N,/BTNC*%
X89916000Y-65405000D03*
%TO.P,J4,4,Pin_4*%
%TO.N,/BTNB*%
X92456000Y-65405000D03*
%TO.P,J4,5,Pin_5*%
%TO.N,/BTNA*%
X94996000Y-65405000D03*
%TO.P,J4,6,Pin_6*%
%TO.N,+5V*%
X97536000Y-65405000D03*
%TD*%
D16*
%TO.P,C4,1*%
%TO.N,/RST*%
X111717000Y-77597000D03*
%TO.P,C4,2*%
%TO.N,GND*%
X113792000Y-77597000D03*
%TD*%
D11*
%TO.P,J6,1,Pin_1*%
%TO.N,GND*%
X69088000Y-74422000D03*
D12*
%TO.P,J6,2,Pin_2*%
X69088000Y-76962000D03*
%TO.P,J6,3,Pin_3*%
%TO.N,Net-(D1-A)*%
X69088000Y-79502000D03*
%TO.P,J6,4,Pin_4*%
%TO.N,Net-(J6-Pin_4)*%
X69088000Y-82042000D03*
%TO.P,J6,5,Pin_5*%
%TO.N,Net-(J6-Pin_5)*%
X69088000Y-84582000D03*
%TO.P,J6,6,Pin_6*%
%TO.N,Net-(J6-Pin_6)*%
X69088000Y-87122000D03*
%TD*%
D22*
%TO.P,BT1,1,+*%
%TO.N,Net-(BT1-+)*%
X104267000Y-69030000D03*
D23*
%TO.P,BT1,2,-*%
%TO.N,GND*%
X104267000Y-89520000D03*
%TD*%
D11*
%TO.P,J7,1,MISO*%
%TO.N,Net-(J7-MISO)*%
X76708000Y-71374000D03*
D12*
%TO.P,J7,2,VCC*%
%TO.N,Net-(D3-A)*%
X74168000Y-71374000D03*
%TO.P,J7,3,SCK*%
%TO.N,Net-(J7-SCK)*%
X76708000Y-73914000D03*
%TO.P,J7,4,MOSI*%
%TO.N,Net-(J7-MOSI)*%
X74168000Y-73914000D03*
%TO.P,J7,5,~{RST}*%
%TO.N,/RST*%
X76708000Y-76454000D03*
%TO.P,J7,6,GND*%
%TO.N,GND*%
X74168000Y-76454000D03*
%TD*%
D24*
%TO.N,GND*%
X113665000Y-80010000D03*
X98425000Y-84455000D03*
X67945000Y-63500000D03*
X88900000Y-73660000D03*
X109855000Y-86360000D03*
X109855000Y-83185000D03*
X111760000Y-81915000D03*
X89535000Y-87630000D03*
X109220000Y-79375000D03*
X113665000Y-97790000D03*
X68580000Y-89535000D03*
X83820000Y-96520000D03*
X83185000Y-92075000D03*
X79375000Y-65405000D03*
X82550000Y-71120000D03*
X79375000Y-71120000D03*
X106680000Y-86995000D03*
X111125000Y-84455000D03*
X114935000Y-85090000D03*
X113030000Y-71755000D03*
X97790000Y-67945000D03*
X92710000Y-92710000D03*
X100330000Y-93980000D03*
X99695000Y-86360000D03*
X109220000Y-76200000D03*
X98425000Y-88900000D03*
X101600000Y-89535000D03*
X99695000Y-69850000D03*
X101600000Y-65405000D03*
X88265000Y-81915000D03*
%TO.N,Net-(J6-Pin_6)*%
X71969300Y-66304100D03*
%TO.N,/TM1637_DIO*%
X97178200Y-78913600D03*
%TO.N,/TM1637_CLK*%
X100848000Y-78688400D03*
%TO.N,/1HZ*%
X91200300Y-68362300D03*
%TO.N,/SDA*%
X104530100Y-74148700D03*
X99696300Y-73478700D03*
%TO.N,Net-(J7-MOSI)*%
X96843300Y-88058200D03*
%TO.N,Net-(J7-SCK)*%
X95515000Y-90612800D03*
%TO.N,Net-(J7-MISO)*%
X107514500Y-84150900D03*
%TO.N,/TIMEC*%
X105719100Y-80888500D03*
%TO.N,/BTNA*%
X102237600Y-82656000D03*
%TO.N,/BTNB*%
X101060700Y-80895500D03*
%TO.N,/BTNC*%
X104451000Y-81974400D03*
%TO.N,Net-(D2-A)*%
X73718600Y-93235000D03*
%TO.N,+5V*%
X98747200Y-74961900D03*
%TO.N,/RST*%
X74371600Y-86539300D03*
X103517200Y-72601500D03*
X102690400Y-74025000D03*
%TD*%
D25*
%TO.N,GND*%
X91124000Y-73660000D02*
X91378000Y-73406000D01*
X88900000Y-73660000D02*
X91124000Y-73660000D01*
%TO.N,Net-(U3-PD1)*%
X83605173Y-69850000D02*
X70469000Y-69850000D01*
X87372000Y-73616827D02*
X83605173Y-69850000D01*
X87372000Y-74037000D02*
X87372000Y-73616827D01*
X88265000Y-74930000D02*
X87372000Y-74037000D01*
X95952704Y-74930000D02*
X88265000Y-74930000D01*
X101054800Y-74236900D02*
X96645804Y-74236900D01*
X101251000Y-74433100D02*
X101054800Y-74236900D01*
X96645804Y-74236900D02*
X95952704Y-74930000D01*
X101251000Y-75760000D02*
X101251000Y-74433100D01*
%TO.N,GND*%
X97790000Y-80645000D02*
X95885000Y-80645000D01*
X98025000Y-80410000D02*
X97790000Y-80645000D01*
X99001000Y-80410000D02*
X98025000Y-80410000D01*
X108985000Y-79610000D02*
X109220000Y-79375000D01*
X107501000Y-79610000D02*
X108985000Y-79610000D01*
%TO.N,Net-(J6-Pin_6)*%
X71511100Y-66304100D02*
X70485000Y-65278000D01*
X71969300Y-66304100D02*
X71511100Y-66304100D01*
%TO.N,Net-(J6-Pin_4)*%
X70295200Y-83249200D02*
X69088000Y-82042000D01*
X70295200Y-85049000D02*
X70295200Y-83249200D01*
X69573200Y-85771000D02*
X70295200Y-85049000D01*
X68612000Y-85771000D02*
X69573200Y-85771000D01*
X67392200Y-84551200D02*
X68612000Y-85771000D01*
X67392200Y-68656800D02*
X67392200Y-84551200D01*
X68485000Y-67564000D02*
X67392200Y-68656800D01*
%TO.N,Net-(J6-Pin_5)*%
X67911100Y-70407900D02*
X68469000Y-69850000D01*
X67911100Y-82596100D02*
X67911100Y-70407900D01*
X68720100Y-83405100D02*
X67911100Y-82596100D01*
X69088000Y-83405100D02*
X68720100Y-83405100D01*
X69088000Y-84582000D02*
X69088000Y-83405100D01*
%TO.N,Net-(U3-PD0)*%
X102051000Y-75760000D02*
X102051000Y-74433100D01*
X71699300Y-68778300D02*
X70485000Y-67564000D01*
X84739500Y-68778300D02*
X71699300Y-68778300D01*
X88733600Y-72772400D02*
X84739500Y-68778300D01*
X99179000Y-72772400D02*
X88733600Y-72772400D01*
X99199600Y-72751800D02*
X99179000Y-72772400D01*
X100369700Y-72751800D02*
X99199600Y-72751800D01*
X102051000Y-74433100D02*
X100369700Y-72751800D01*
%TO.N,/TM1637_DIO*%
X97178200Y-77268000D02*
X97178200Y-78913600D01*
X98686200Y-75760000D02*
X97178200Y-77268000D01*
X100451000Y-75760000D02*
X98686200Y-75760000D01*
%TO.N,/TM1637_CLK*%
X100327900Y-78010000D02*
X100327900Y-77210000D01*
X99538500Y-77210000D02*
X100327900Y-77210000D01*
X99538500Y-77210000D02*
X99001000Y-77210000D01*
X99001000Y-78010000D02*
X100214500Y-78010000D01*
X100214500Y-78010000D02*
X100326400Y-78010000D01*
X100326400Y-78010000D02*
X100327200Y-78010000D01*
X100327200Y-78010000D02*
X100327900Y-78010000D01*
X100848000Y-78530800D02*
X100848000Y-78688400D01*
X100327200Y-78010000D02*
X100848000Y-78530800D01*
%TO.N,/WS2812_D*%
X100451000Y-84260000D02*
X100451000Y-85586900D01*
X87376000Y-96354000D02*
X88552900Y-96354000D01*
X88552900Y-95320700D02*
X88552900Y-96354000D01*
X98286700Y-85586900D02*
X88552900Y-95320700D01*
X100451000Y-85586900D02*
X98286700Y-85586900D01*
%TO.N,Net-(U3-AREF)*%
X111063000Y-80410000D02*
X111717000Y-79756000D01*
X107501000Y-80410000D02*
X111063000Y-80410000D01*
%TO.N,Net-(U3-XTAL1{slash}PB6)*%
X96085500Y-82010000D02*
X91821000Y-86274500D01*
X99001000Y-82010000D02*
X96085500Y-82010000D01*
X89366500Y-83820000D02*
X91821000Y-86274500D01*
X91821000Y-86274500D02*
X91821000Y-87884000D01*
%TO.N,Net-(U3-XTAL2{slash}PB7)*%
X80645000Y-83820000D02*
X84486500Y-83820000D01*
X76581000Y-87884000D02*
X80645000Y-83820000D01*
X84486500Y-84271300D02*
X84486500Y-83820000D01*
X89197600Y-88982400D02*
X84486500Y-84271300D01*
X92413900Y-88982400D02*
X89197600Y-88982400D01*
X97674100Y-83722200D02*
X92413900Y-88982400D01*
X97674100Y-82810000D02*
X97674100Y-83722200D01*
X99001000Y-82810000D02*
X97674100Y-82810000D01*
%TO.N,/1HZ*%
X94644200Y-70866000D02*
X96328000Y-70866000D01*
X92140500Y-68362300D02*
X94644200Y-70866000D01*
X91200300Y-68362300D02*
X92140500Y-68362300D01*
%TO.N,Net-(U2-X2)*%
X89532000Y-70866000D02*
X89090000Y-71308000D01*
X91378000Y-70866000D02*
X89532000Y-70866000D01*
%TO.N,Net-(U2-X1)*%
X89278000Y-69596000D02*
X89090000Y-69408000D01*
X91378000Y-69596000D02*
X89278000Y-69596000D01*
%TO.N,/SCL*%
X103651000Y-75760000D02*
X103651000Y-74433100D01*
X103651000Y-73891800D02*
X103651000Y-74433100D01*
X101895200Y-72136000D02*
X103651000Y-73891800D01*
X96328000Y-72136000D02*
X101895200Y-72136000D01*
%TO.N,/SDA*%
X104451000Y-74227800D02*
X104530100Y-74148700D01*
X104451000Y-75760000D02*
X104451000Y-74227800D01*
X96400700Y-73478700D02*
X96328000Y-73406000D01*
X99696300Y-73478700D02*
X96400700Y-73478700D01*
%TO.N,Net-(J7-MOSI)*%
X102779700Y-88058200D02*
X96843300Y-88058200D01*
X105251000Y-85586900D02*
X102779700Y-88058200D01*
X105251000Y-84260000D02*
X105251000Y-85586900D01*
%TO.N,Net-(J7-SCK)*%
X108827900Y-87606500D02*
X108827900Y-82810000D01*
X105041700Y-91392700D02*
X108827900Y-87606500D01*
X96294900Y-91392700D02*
X105041700Y-91392700D01*
X95515000Y-90612800D02*
X96294900Y-91392700D01*
X107501000Y-82810000D02*
X108827900Y-82810000D01*
%TO.N,Net-(J7-MISO)*%
X106160100Y-84150900D02*
X107514500Y-84150900D01*
X106051000Y-84260000D02*
X106160100Y-84150900D01*
%TO.N,/TIMED*%
X101157400Y-96354000D02*
X97536000Y-96354000D01*
X114759400Y-82752000D02*
X101157400Y-96354000D01*
X114759400Y-79089000D02*
X114759400Y-82752000D01*
X114346900Y-78676500D02*
X114759400Y-79089000D01*
X109944200Y-78676500D02*
X114346900Y-78676500D01*
X109277700Y-78010000D02*
X109944200Y-78676500D01*
X107501000Y-78010000D02*
X109277700Y-78010000D01*
%TO.N,/TIMEC*%
X106174100Y-80433500D02*
X105719100Y-80888500D01*
X106174100Y-77210000D02*
X106174100Y-80433500D01*
X107501000Y-77210000D02*
X106174100Y-77210000D01*
%TO.N,/BTNA*%
X102514700Y-82933100D02*
X102851000Y-82933100D01*
X102237600Y-82656000D02*
X102514700Y-82933100D01*
X102851000Y-84260000D02*
X102851000Y-82933100D01*
%TO.N,/BTNB*%
X101613400Y-80895500D02*
X101060700Y-80895500D01*
X103651000Y-82933100D02*
X101613400Y-80895500D01*
X103651000Y-84260000D02*
X103651000Y-82933100D01*
%TO.N,/BTNC*%
X104451000Y-81974400D02*
X104451000Y-84260000D01*
%TO.N,Net-(D3-A)*%
X83905400Y-72550900D02*
X86284500Y-74930000D01*
X75712600Y-72550900D02*
X83905400Y-72550900D01*
X75344900Y-72183200D02*
X75712600Y-72550900D01*
X75344900Y-71374000D02*
X75344900Y-72183200D01*
X74168000Y-71374000D02*
X75344900Y-71374000D01*
%TO.N,Net-(D2-A)*%
X74456500Y-93235000D02*
X75489500Y-92202000D01*
X73718600Y-93235000D02*
X74456500Y-93235000D01*
%TO.N,Net-(D1-A)*%
X70903000Y-80140100D02*
X70264900Y-79502000D01*
X84630400Y-80140100D02*
X70903000Y-80140100D01*
X86284500Y-78486000D02*
X84630400Y-80140100D01*
X69088000Y-79502000D02*
X70264900Y-79502000D01*
%TO.N,+5V*%
X110099900Y-82010000D02*
X107501000Y-82010000D01*
X111161600Y-80948300D02*
X110099900Y-82010000D01*
X112741300Y-80948300D02*
X111161600Y-80948300D01*
X113835000Y-82042000D02*
X112741300Y-80948300D01*
X96557200Y-74961900D02*
X94684100Y-76835000D01*
X98747200Y-74961900D02*
X96557200Y-74961900D01*
X99001000Y-79610000D02*
X97674100Y-79610000D01*
X97575100Y-79709000D02*
X97674100Y-79610000D01*
X96901100Y-79709000D02*
X97575100Y-79709000D01*
X94684100Y-77492000D02*
X96901100Y-79709000D01*
X94684100Y-76835000D02*
X94684100Y-77492000D01*
X107501000Y-82010000D02*
X106174100Y-82010000D01*
X94684100Y-76835000D02*
X93747500Y-76835000D01*
X72406000Y-90610500D02*
X72406000Y-87884000D01*
X70814500Y-92202000D02*
X72406000Y-90610500D01*
X88186800Y-75781700D02*
X87374900Y-76593600D01*
X92694200Y-75781700D02*
X88186800Y-75781700D01*
X93747500Y-76835000D02*
X92694200Y-75781700D01*
X87374900Y-79843100D02*
X87374900Y-76593600D01*
X85550500Y-81667500D02*
X87374900Y-79843100D01*
X78193100Y-81667500D02*
X85550500Y-81667500D01*
X72406000Y-87454600D02*
X78193100Y-81667500D01*
X72406000Y-87884000D02*
X72406000Y-87454600D01*
X87374900Y-76593600D02*
X83035500Y-76593600D01*
X83035500Y-77060000D02*
X83035500Y-76593600D01*
X81609500Y-78486000D02*
X83035500Y-77060000D01*
X83035500Y-76356000D02*
X81609500Y-74930000D01*
X83035500Y-76593600D02*
X83035500Y-76356000D01*
X105812700Y-82010000D02*
X106174100Y-82010000D01*
X103412700Y-79610000D02*
X105812700Y-82010000D01*
X99001000Y-79610000D02*
X103412700Y-79610000D01*
X96328000Y-67332800D02*
X96328000Y-69596000D01*
X97078900Y-66581900D02*
X96328000Y-67332800D01*
X97536000Y-66581900D02*
X97078900Y-66581900D01*
X74952800Y-67332800D02*
X73660000Y-66040000D01*
X96328000Y-67332800D02*
X74952800Y-67332800D01*
X97536000Y-65405000D02*
X97536000Y-66581900D01*
%TO.N,/RST*%
X69485000Y-66154800D02*
X68692100Y-65361900D01*
X69485000Y-70899700D02*
X69485000Y-66154800D01*
X73862400Y-75277100D02*
X69485000Y-70899700D01*
X74722100Y-75277100D02*
X73862400Y-75277100D01*
X75531100Y-76086100D02*
X74722100Y-75277100D01*
X75531100Y-76454000D02*
X75531100Y-76086100D01*
X68608200Y-65278000D02*
X68410000Y-65278000D01*
X68692100Y-65361900D02*
X68608200Y-65278000D01*
X76708000Y-76454000D02*
X75531100Y-76454000D01*
X102851000Y-74185600D02*
X102851000Y-75760000D01*
X102690400Y-74025000D02*
X102851000Y-74185600D01*
X69841300Y-64212700D02*
X68692100Y-65361900D01*
X102980300Y-64212700D02*
X69841300Y-64212700D01*
X106101500Y-67333900D02*
X102980300Y-64212700D01*
X106101500Y-72601500D02*
X106101500Y-67333900D01*
X106721500Y-72601500D02*
X106101500Y-72601500D01*
X111717000Y-77597000D02*
X106721500Y-72601500D01*
X106101500Y-72601500D02*
X103517200Y-72601500D01*
X74406000Y-86573700D02*
X74371600Y-86539300D01*
X74406000Y-87884000D02*
X74406000Y-86573700D01*
%TO.N,Net-(BT1-+)*%
X92013000Y-71501000D02*
X91378000Y-72136000D01*
X99969100Y-71501000D02*
X92013000Y-71501000D01*
X102440100Y-69030000D02*
X99969100Y-71501000D01*
X104267000Y-69030000D02*
X102440100Y-69030000D01*
%TD*%
%TA.AperFunction,Conductor*%
%TO.N,GND*%
G36*
X116910039Y-63020185D02*
G01*
X116955794Y-63072989D01*
X116967000Y-63124500D01*
X116967000Y-99825000D01*
X116947315Y-99892039D01*
X116894511Y-99937794D01*
X116843000Y-99949000D01*
X67180000Y-99949000D01*
X67112961Y-99929315D01*
X67067206Y-99876511D01*
X67056000Y-99825000D01*
X67056000Y-85398952D01*
X67075685Y-85331913D01*
X67128489Y-85286158D01*
X67197647Y-85276214D01*
X67261203Y-85305239D01*
X67267681Y-85311271D01*
X68041021Y-86084611D01*
X68074506Y-86145934D01*
X68069522Y-86215626D01*
X68051988Y-86245729D01*
X68052610Y-86246164D01*
X67913965Y-86444169D01*
X67913964Y-86444171D01*
X67814098Y-86658335D01*
X67814096Y-86658341D01*
X67752938Y-86886586D01*
X67752936Y-86886596D01*
X67732341Y-87121999D01*
X67732341Y-87122000D01*
X67752936Y-87357403D01*
X67752938Y-87357413D01*
X67814094Y-87585655D01*
X67814096Y-87585659D01*
X67814097Y-87585663D01*
X67865591Y-87696091D01*
X67913965Y-87799830D01*
X67913967Y-87799834D01*
X68012031Y-87939883D01*
X68049505Y-87993401D01*
X68216599Y-88160495D01*
X68313384Y-88228264D01*
X68410165Y-88296032D01*
X68410167Y-88296033D01*
X68410170Y-88296035D01*
X68624337Y-88395903D01*
X68852592Y-88457063D01*
X69040918Y-88473539D01*
X69087999Y-88477659D01*
X69088000Y-88477659D01*
X69088001Y-88477659D01*
X69127234Y-88474226D01*
X69323408Y-88457063D01*
X69551663Y-88395903D01*
X69765830Y-88296035D01*
X69959401Y-88160495D01*
X70126495Y-87993401D01*
X70262035Y-87799830D01*
X70361903Y-87585663D01*
X70423063Y-87357408D01*
X70443659Y-87122000D01*
X70423063Y-86886592D01*
X70361903Y-86658337D01*
X70262035Y-86444171D01*
X70196824Y-86351040D01*
X70125097Y-86248602D01*
X70102770Y-86182396D01*
X70119780Y-86114629D01*
X70138987Y-86089802D01*
X70678988Y-85549801D01*
X70691242Y-85539986D01*
X70691059Y-85539764D01*
X70697066Y-85534792D01*
X70697077Y-85534786D01*
X70727975Y-85501882D01*
X70744427Y-85484364D01*
X70754871Y-85473918D01*
X70765320Y-85463471D01*
X70769579Y-85457978D01*
X70773352Y-85453561D01*
X70805262Y-85419582D01*
X70814913Y-85402024D01*
X70825596Y-85385761D01*
X70837873Y-85369936D01*
X70856385Y-85327153D01*
X70858938Y-85321941D01*
X70881397Y-85281092D01*
X70886380Y-85261680D01*
X70892681Y-85243280D01*
X70900637Y-85224896D01*
X70907929Y-85178852D01*
X70909106Y-85173171D01*
X70920700Y-85128019D01*
X70920700Y-85107982D01*
X70922227Y-85088582D01*
X70923810Y-85078588D01*
X70925360Y-85068804D01*
X70920975Y-85022415D01*
X70920700Y-85016577D01*
X70920700Y-83331942D01*
X70922424Y-83316322D01*
X70922139Y-83316295D01*
X70922873Y-83308533D01*
X70920700Y-83239372D01*
X70920700Y-83209856D01*
X70920700Y-83209850D01*
X70919831Y-83202979D01*
X70919373Y-83197152D01*
X70919331Y-83195826D01*
X70917910Y-83150573D01*
X70912319Y-83131330D01*
X70908373Y-83112278D01*
X70905864Y-83092408D01*
X70888704Y-83049067D01*
X70886824Y-83043579D01*
X70873818Y-82998810D01*
X70866039Y-82985657D01*
X70863623Y-82981571D01*
X70855061Y-82964094D01*
X70847687Y-82945470D01*
X70847686Y-82945468D01*
X70820279Y-82907745D01*
X70817088Y-82902886D01*
X70793372Y-82862783D01*
X70793365Y-82862774D01*
X70779206Y-82848615D01*
X70766568Y-82833819D01*
X70764533Y-82831018D01*
X70754794Y-82817613D01*
X70734985Y-82801226D01*
X70718888Y-82787909D01*
X70714576Y-82783986D01*
X70428237Y-82497647D01*
X70394752Y-82436324D01*
X70396143Y-82377872D01*
X70402619Y-82353705D01*
X70423063Y-82277408D01*
X70443659Y-82042000D01*
X70423063Y-81806592D01*
X70369346Y-81606115D01*
X70361905Y-81578344D01*
X70361904Y-81578343D01*
X70361903Y-81578337D01*
X70262035Y-81364171D01*
X70236386Y-81327539D01*
X70126494Y-81170597D01*
X69959402Y-81003506D01*
X69959396Y-81003501D01*
X69773842Y-80873575D01*
X69730217Y-80818998D01*
X69723023Y-80749500D01*
X69754546Y-80687145D01*
X69773842Y-80670425D01*
X69839982Y-80624113D01*
X69959401Y-80540495D01*
X70101422Y-80398473D01*
X70162745Y-80364989D01*
X70232437Y-80369973D01*
X70276784Y-80398474D01*
X70402194Y-80523884D01*
X70412019Y-80536148D01*
X70412240Y-80535966D01*
X70417210Y-80541973D01*
X70417213Y-80541976D01*
X70417214Y-80541977D01*
X70467651Y-80589341D01*
X70488530Y-80610220D01*
X70494004Y-80614466D01*
X70498442Y-80618256D01*
X70532418Y-80650162D01*
X70549973Y-80659813D01*
X70566231Y-80670492D01*
X70582064Y-80682774D01*
X70604015Y-80692272D01*
X70624837Y-80701283D01*
X70630081Y-80703852D01*
X70670908Y-80726297D01*
X70690312Y-80731279D01*
X70708710Y-80737578D01*
X70727105Y-80745538D01*
X70773129Y-80752826D01*
X70778832Y-80754007D01*
X70823981Y-80765600D01*
X70844016Y-80765600D01*
X70863413Y-80767126D01*
X70883196Y-80770260D01*
X70929583Y-80765875D01*
X70935422Y-80765600D01*
X84547657Y-80765600D01*
X84563277Y-80767324D01*
X84563304Y-80767039D01*
X84571060Y-80767771D01*
X84571067Y-80767773D01*
X84640214Y-80765600D01*
X84669750Y-80765600D01*
X84676628Y-80764730D01*
X84682441Y-80764272D01*
X84729027Y-80762809D01*
X84748269Y-80757217D01*
X84767312Y-80753274D01*
X84787192Y-80750764D01*
X84830522Y-80733607D01*
X84836046Y-80731717D01*
X84839796Y-80730627D01*
X84880790Y-80718718D01*
X84898029Y-80708522D01*
X84915503Y-80699962D01*
X84934127Y-80692588D01*
X84934127Y-80692587D01*
X84934132Y-80692586D01*
X84971849Y-80665182D01*
X84976705Y-80661992D01*
X85016820Y-80638270D01*
X85030989Y-80624099D01*
X85045779Y-80611468D01*
X85061987Y-80599694D01*
X85091699Y-80563776D01*
X85095612Y-80559476D01*
X85365993Y-80289095D01*
X85427314Y-80255612D01*
X85492674Y-80259071D01*
X85619202Y-80300999D01*
X85721990Y-80311500D01*
X85722547Y-80311500D01*
X85722662Y-80311533D01*
X85725138Y-80311660D01*
X85725129Y-80311820D01*
X85725131Y-80311821D01*
X85725128Y-80311844D01*
X85725107Y-80312251D01*
X85789586Y-80331185D01*
X85835341Y-80383989D01*
X85845285Y-80453147D01*
X85816260Y-80516703D01*
X85810228Y-80523181D01*
X85327728Y-81005681D01*
X85266405Y-81039166D01*
X85240047Y-81042000D01*
X78275837Y-81042000D01*
X78260220Y-81040276D01*
X78260193Y-81040562D01*
X78252431Y-81039827D01*
X78183303Y-81042000D01*
X78153750Y-81042000D01*
X78153029Y-81042090D01*
X78146857Y-81042869D01*
X78141045Y-81043326D01*
X78094478Y-81044790D01*
X78094467Y-81044792D01*
X78075234Y-81050379D01*
X78056194Y-81054322D01*
X78036317Y-81056834D01*
X78036310Y-81056835D01*
X78036308Y-81056836D01*
X78036306Y-81056836D01*
X78036305Y-81056837D01*
X77992968Y-81073994D01*
X77987442Y-81075886D01*
X77942711Y-81088882D01*
X77942708Y-81088883D01*
X77925463Y-81099081D01*
X77908001Y-81107635D01*
X77889372Y-81115011D01*
X77889367Y-81115013D01*
X77851664Y-81142406D01*
X77846782Y-81145612D01*
X77806680Y-81169328D01*
X77792508Y-81183500D01*
X77777723Y-81196128D01*
X77761512Y-81207907D01*
X77731809Y-81243810D01*
X77727877Y-81248131D01*
X72328826Y-86647181D01*
X72267503Y-86680666D01*
X72241146Y-86683500D01*
X72005999Y-86683500D01*
X72005980Y-86683501D01*
X71903203Y-86694000D01*
X71903200Y-86694001D01*
X71736668Y-86749185D01*
X71736663Y-86749187D01*
X71587342Y-86841289D01*
X71463289Y-86965342D01*
X71371187Y-87114663D01*
X71371185Y-87114668D01*
X71351720Y-87173409D01*
X71316001Y-87281203D01*
X71316001Y-87281204D01*
X71316000Y-87281204D01*
X71305500Y-87383983D01*
X71305500Y-88384001D01*
X71305501Y-88384019D01*
X71316000Y-88486796D01*
X71316001Y-88486799D01*
X71371185Y-88653331D01*
X71371187Y-88653336D01*
X71405999Y-88709776D01*
X71463288Y-88802656D01*
X71587344Y-88926712D01*
X71721597Y-89009519D01*
X71768321Y-89061465D01*
X71780500Y-89115057D01*
X71780500Y-90300047D01*
X71760815Y-90367086D01*
X71744177Y-90387732D01*
X71733002Y-90398906D01*
X71671678Y-90432388D01*
X71606322Y-90428927D01*
X71479798Y-90387001D01*
X71479796Y-90387000D01*
X71377017Y-90376500D01*
X71377010Y-90376500D01*
X70251990Y-90376500D01*
X70251982Y-90376500D01*
X70149203Y-90387000D01*
X70149202Y-90387001D01*
X70066669Y-90414349D01*
X69982667Y-90442185D01*
X69982662Y-90442187D01*
X69833342Y-90534289D01*
X69709289Y-90658342D01*
X69617187Y-90807662D01*
X69617185Y-90807667D01*
X69605612Y-90842592D01*
X69562001Y-90974202D01*
X69562001Y-90974203D01*
X69562000Y-90974203D01*
X69551500Y-91076982D01*
X69551500Y-93327017D01*
X69562000Y-93429796D01*
X69562001Y-93429798D01*
X69617186Y-93596335D01*
X69709288Y-93745656D01*
X69833344Y-93869712D01*
X69982665Y-93961814D01*
X70149202Y-94016999D01*
X70251990Y-94027500D01*
X70251995Y-94027500D01*
X71377005Y-94027500D01*
X71377010Y-94027500D01*
X71479798Y-94016999D01*
X71646335Y-93961814D01*
X71795656Y-93869712D01*
X71919712Y-93745656D01*
X72011814Y-93596335D01*
X72066999Y-93429798D01*
X72077500Y-93327010D01*
X72077500Y-93235000D01*
X72813140Y-93235000D01*
X72832926Y-93423256D01*
X72832927Y-93423259D01*
X72891418Y-93603277D01*
X72891421Y-93603284D01*
X72986067Y-93767216D01*
X73078353Y-93869710D01*
X73112729Y-93907888D01*
X73265865Y-94019148D01*
X73265870Y-94019151D01*
X73438792Y-94096142D01*
X73438797Y-94096144D01*
X73623954Y-94135500D01*
X73623955Y-94135500D01*
X73813244Y-94135500D01*
X73813246Y-94135500D01*
X73998403Y-94096144D01*
X74171330Y-94019151D01*
X74324471Y-93907888D01*
X74328857Y-93903016D01*
X74388337Y-93866366D01*
X74417106Y-93862046D01*
X74454836Y-93860860D01*
X74522459Y-93878430D01*
X74523741Y-93879209D01*
X74657665Y-93961814D01*
X74824202Y-94016999D01*
X74926990Y-94027500D01*
X74926995Y-94027500D01*
X76052005Y-94027500D01*
X76052010Y-94027500D01*
X76154798Y-94016999D01*
X76321335Y-93961814D01*
X76470656Y-93869712D01*
X76594712Y-93745656D01*
X76686814Y-93596335D01*
X76741999Y-93429798D01*
X76752500Y-93327010D01*
X76752500Y-91076990D01*
X76741999Y-90974202D01*
X76686814Y-90807665D01*
X76594712Y-90658344D01*
X76470656Y-90534288D01*
X76348170Y-90458738D01*
X76321337Y-90442187D01*
X76321332Y-90442185D01*
X76319863Y-90441698D01*
X76154798Y-90387001D01*
X76154796Y-90387000D01*
X76052017Y-90376500D01*
X76052010Y-90376500D01*
X74926990Y-90376500D01*
X74926982Y-90376500D01*
X74824203Y-90387000D01*
X74824202Y-90387001D01*
X74741669Y-90414349D01*
X74657667Y-90442185D01*
X74657662Y-90442187D01*
X74508342Y-90534289D01*
X74384289Y-90658342D01*
X74292187Y-90807662D01*
X74292185Y-90807667D01*
X74280612Y-90842592D01*
X74237001Y-90974202D01*
X74237001Y-90974203D01*
X74237000Y-90974203D01*
X74226500Y-91076982D01*
X74226500Y-92284468D01*
X74206815Y-92351507D01*
X74154011Y-92397262D01*
X74084853Y-92407206D01*
X74052064Y-92397747D01*
X73998407Y-92373857D01*
X73998402Y-92373855D01*
X73852601Y-92342865D01*
X73813246Y-92334500D01*
X73623954Y-92334500D01*
X73591497Y-92341398D01*
X73438797Y-92373855D01*
X73438792Y-92373857D01*
X73265870Y-92450848D01*
X73265865Y-92450851D01*
X73112729Y-92562111D01*
X72986066Y-92702785D01*
X72891421Y-92866715D01*
X72891418Y-92866722D01*
X72832927Y-93046740D01*
X72832926Y-93046744D01*
X72813140Y-93235000D01*
X72077500Y-93235000D01*
X72077500Y-91874951D01*
X72097185Y-91807913D01*
X72113819Y-91787271D01*
X72427148Y-91473942D01*
X72789788Y-91111301D01*
X72802042Y-91101486D01*
X72801859Y-91101264D01*
X72807866Y-91096292D01*
X72807877Y-91096286D01*
X72838775Y-91063382D01*
X72855227Y-91045864D01*
X72865671Y-91035418D01*
X72876120Y-91024971D01*
X72880379Y-91019478D01*
X72884152Y-91015061D01*
X72916062Y-90981082D01*
X72925715Y-90963520D01*
X72936389Y-90947270D01*
X72948673Y-90931436D01*
X72967180Y-90888667D01*
X72969749Y-90883424D01*
X72992196Y-90842593D01*
X72992197Y-90842592D01*
X72997177Y-90823191D01*
X73003478Y-90804788D01*
X73011438Y-90786396D01*
X73018730Y-90740349D01*
X73019911Y-90734652D01*
X73031500Y-90689519D01*
X73031500Y-90669482D01*
X73033027Y-90650082D01*
X73036160Y-90630304D01*
X73031775Y-90583915D01*
X73031500Y-90578077D01*
X73031500Y-89115057D01*
X73051185Y-89048018D01*
X73090401Y-89009520D01*
X73224656Y-88926712D01*
X73318318Y-88833048D01*
X73379642Y-88799564D01*
X73449334Y-88804548D01*
X73493680Y-88833048D01*
X73587344Y-88926712D01*
X73736666Y-89018814D01*
X73903203Y-89073999D01*
X74005991Y-89084500D01*
X74806008Y-89084499D01*
X74806016Y-89084498D01*
X74806019Y-89084498D01*
X74862302Y-89078748D01*
X74908797Y-89073999D01*
X75075334Y-89018814D01*
X75224656Y-88926712D01*
X75348712Y-88802656D01*
X75386501Y-88741388D01*
X75438447Y-88694665D01*
X75507409Y-88683442D01*
X75571492Y-88711285D01*
X75597577Y-88741389D01*
X75650785Y-88827652D01*
X75650788Y-88827656D01*
X75774844Y-88951712D01*
X75924166Y-89043814D01*
X76090703Y-89098999D01*
X76193491Y-89109500D01*
X76968508Y-89109499D01*
X76968516Y-89109498D01*
X76968519Y-89109498D01*
X77024802Y-89103748D01*
X77071297Y-89098999D01*
X77237834Y-89043814D01*
X77387156Y-88951712D01*
X77511212Y-88827656D01*
X77513252Y-88824347D01*
X77515245Y-88822555D01*
X77515693Y-88821989D01*
X77515789Y-88822065D01*
X77565194Y-88777623D01*
X77634156Y-88766395D01*
X77698240Y-88794234D01*
X77724329Y-88824339D01*
X77726181Y-88827341D01*
X77726183Y-88827344D01*
X77850154Y-88951315D01*
X77999375Y-89043356D01*
X77999380Y-89043358D01*
X78165802Y-89098505D01*
X78165809Y-89098506D01*
X78268519Y-89108999D01*
X78405999Y-89108999D01*
X78406000Y-89108998D01*
X78406000Y-88134000D01*
X78906000Y-88134000D01*
X78906000Y-89108999D01*
X79043472Y-89108999D01*
X79043486Y-89108998D01*
X79146197Y-89098505D01*
X79312619Y-89043358D01*
X79312624Y-89043356D01*
X79461845Y-88951315D01*
X79585815Y-88827345D01*
X79677856Y-88678124D01*
X79677858Y-88678119D01*
X79733005Y-88511697D01*
X79733006Y-88511690D01*
X79743499Y-88408986D01*
X79743500Y-88408973D01*
X79743500Y-88134000D01*
X78906000Y-88134000D01*
X78406000Y-88134000D01*
X78406000Y-87758000D01*
X78425685Y-87690961D01*
X78478489Y-87645206D01*
X78530000Y-87634000D01*
X79743499Y-87634000D01*
X79743499Y-87359028D01*
X79743498Y-87359013D01*
X79733005Y-87256302D01*
X79677858Y-87089880D01*
X79677856Y-87089875D01*
X79585815Y-86940654D01*
X79461845Y-86816684D01*
X79312624Y-86724643D01*
X79312619Y-86724641D01*
X79146197Y-86669494D01*
X79146190Y-86669493D01*
X79043486Y-86659000D01*
X78989951Y-86659000D01*
X78922912Y-86639315D01*
X78877157Y-86586511D01*
X78867213Y-86517353D01*
X78896238Y-86453797D01*
X78902259Y-86447330D01*
X80867771Y-84481819D01*
X80929095Y-84448334D01*
X80955453Y-84445500D01*
X83333351Y-84445500D01*
X83400390Y-84465185D01*
X83434923Y-84498374D01*
X83524902Y-84626877D01*
X83679623Y-84781598D01*
X83858861Y-84907102D01*
X84057170Y-84999575D01*
X84057176Y-84999576D01*
X84057177Y-84999577D01*
X84131557Y-85019507D01*
X84268523Y-85056207D01*
X84353197Y-85063614D01*
X84418265Y-85089066D01*
X84430071Y-85099461D01*
X88696794Y-89366184D01*
X88706619Y-89378448D01*
X88706840Y-89378266D01*
X88711810Y-89384273D01*
X88711813Y-89384276D01*
X88711814Y-89384277D01*
X88762251Y-89431641D01*
X88783130Y-89452520D01*
X88788604Y-89456766D01*
X88793042Y-89460556D01*
X88827018Y-89492462D01*
X88827022Y-89492464D01*
X88844573Y-89502113D01*
X88860831Y-89512792D01*
X88876664Y-89525074D01*
X88898615Y-89534572D01*
X88919437Y-89543583D01*
X88924681Y-89546152D01*
X88965508Y-89568597D01*
X88984912Y-89573579D01*
X89003310Y-89579878D01*
X89021705Y-89587838D01*
X89067729Y-89595126D01*
X89073432Y-89596307D01*
X89118581Y-89607900D01*
X89138616Y-89607900D01*
X89158013Y-89609426D01*
X89177796Y-89612560D01*
X89224183Y-89608175D01*
X89230022Y-89607900D01*
X92331157Y-89607900D01*
X92346777Y-89609624D01*
X92346804Y-89609339D01*
X92354560Y-89610071D01*
X92354567Y-89610073D01*
X92423714Y-89607900D01*
X92453250Y-89607900D01*
X92460128Y-89607030D01*
X92465941Y-89606572D01*
X92512527Y-89605109D01*
X92531769Y-89599517D01*
X92550812Y-89595574D01*
X92570692Y-89593064D01*
X92614022Y-89575907D01*
X92619546Y-89574017D01*
X92623296Y-89572927D01*
X92664290Y-89561018D01*
X92681529Y-89550822D01*
X92699003Y-89542262D01*
X92717627Y-89534888D01*
X92717627Y-89534887D01*
X92717632Y-89534886D01*
X92755349Y-89507482D01*
X92760205Y-89504292D01*
X92800320Y-89480570D01*
X92814489Y-89466399D01*
X92829279Y-89453768D01*
X92845487Y-89441994D01*
X92875199Y-89406076D01*
X92879112Y-89401776D01*
X98057888Y-84223001D01*
X98070142Y-84213186D01*
X98069959Y-84212964D01*
X98075966Y-84207992D01*
X98075977Y-84207986D01*
X98106875Y-84175082D01*
X98123327Y-84157564D01*
X98133771Y-84147118D01*
X98144220Y-84136671D01*
X98148479Y-84131178D01*
X98152252Y-84126761D01*
X98184162Y-84092782D01*
X98193813Y-84075224D01*
X98204496Y-84058961D01*
X98216773Y-84043136D01*
X98235285Y-84000353D01*
X98237838Y-83995141D01*
X98260297Y-83954292D01*
X98265280Y-83934880D01*
X98271581Y-83916480D01*
X98279537Y-83898096D01*
X98286825Y-83852077D01*
X98288006Y-83846371D01*
X98299600Y-83801219D01*
X98299599Y-83781186D01*
X98301127Y-83761783D01*
X98304259Y-83742008D01*
X98304260Y-83742007D01*
X98302290Y-83721169D01*
X98315578Y-83652575D01*
X98363841Y-83602053D01*
X98425740Y-83585499D01*
X99551500Y-83585499D01*
X99618539Y-83605184D01*
X99664294Y-83657988D01*
X99675500Y-83709499D01*
X99675501Y-84837400D01*
X99655816Y-84904439D01*
X99603013Y-84950194D01*
X99551501Y-84961400D01*
X98369443Y-84961400D01*
X98353822Y-84959675D01*
X98353796Y-84959961D01*
X98346034Y-84959227D01*
X98346033Y-84959227D01*
X98276886Y-84961400D01*
X98247349Y-84961400D01*
X98240466Y-84962269D01*
X98234649Y-84962726D01*
X98188073Y-84964190D01*
X98168829Y-84969781D01*
X98149779Y-84973725D01*
X98129911Y-84976234D01*
X98086584Y-84993388D01*
X98081058Y-84995279D01*
X98036314Y-85008279D01*
X98036310Y-85008281D01*
X98019066Y-85018479D01*
X98001605Y-85027033D01*
X97982974Y-85034410D01*
X97982962Y-85034417D01*
X97945270Y-85061802D01*
X97940387Y-85065009D01*
X97900280Y-85088729D01*
X97886114Y-85102895D01*
X97871324Y-85115527D01*
X97855114Y-85127304D01*
X97855111Y-85127307D01*
X97825410Y-85163209D01*
X97821477Y-85167531D01*
X88169108Y-94819899D01*
X88156851Y-94829720D01*
X88157034Y-94829941D01*
X88151023Y-94834913D01*
X88103672Y-94885336D01*
X88082789Y-94906219D01*
X88082777Y-94906232D01*
X88078521Y-94911717D01*
X88074737Y-94916147D01*
X88042835Y-94950121D01*
X88041186Y-94952391D01*
X88039439Y-94953737D01*
X88037501Y-94955802D01*
X88037167Y-94955489D01*
X87985854Y-94995054D01*
X87940872Y-95003500D01*
X86478129Y-95003500D01*
X86478123Y-95003501D01*
X86418516Y-95009908D01*
X86283671Y-95060202D01*
X86283664Y-95060206D01*
X86168455Y-95146452D01*
X86168452Y-95146455D01*
X86082206Y-95261664D01*
X86082202Y-95261671D01*
X86031908Y-95396517D01*
X86025501Y-95456116D01*
X86025500Y-95456135D01*
X86025500Y-97251870D01*
X86025501Y-97251876D01*
X86031908Y-97311483D01*
X86082202Y-97446328D01*
X86082206Y-97446335D01*
X86168452Y-97561544D01*
X86168455Y-97561547D01*
X86283664Y-97647793D01*
X86283671Y-97647797D01*
X86418517Y-97698091D01*
X86418516Y-97698091D01*
X86425444Y-97698835D01*
X86478127Y-97704500D01*
X88273872Y-97704499D01*
X88333483Y-97698091D01*
X88468331Y-97647796D01*
X88583546Y-97561546D01*
X88669796Y-97446331D01*
X88718810Y-97314916D01*
X88760681Y-97258984D01*
X88826145Y-97234566D01*
X88894418Y-97249417D01*
X88922673Y-97270569D01*
X89044599Y-97392495D01*
X89141384Y-97460264D01*
X89238165Y-97528032D01*
X89238167Y-97528033D01*
X89238170Y-97528035D01*
X89452337Y-97627903D01*
X89680592Y-97689063D01*
X89857034Y-97704500D01*
X89915999Y-97709659D01*
X89916000Y-97709659D01*
X89916001Y-97709659D01*
X89974966Y-97704500D01*
X90151408Y-97689063D01*
X90379663Y-97627903D01*
X90593830Y-97528035D01*
X90787401Y-97392495D01*
X90954495Y-97225401D01*
X91084426Y-97039841D01*
X91139002Y-96996217D01*
X91208500Y-96989023D01*
X91270855Y-97020546D01*
X91287574Y-97039841D01*
X91417505Y-97225401D01*
X91584599Y-97392495D01*
X91681384Y-97460264D01*
X91778165Y-97528032D01*
X91778167Y-97528033D01*
X91778170Y-97528035D01*
X91992337Y-97627903D01*
X92220592Y-97689063D01*
X92397034Y-97704500D01*
X92455999Y-97709659D01*
X92456000Y-97709659D01*
X92456001Y-97709659D01*
X92514966Y-97704500D01*
X92691408Y-97689063D01*
X92919663Y-97627903D01*
X93133830Y-97528035D01*
X93327401Y-97392495D01*
X93494495Y-97225401D01*
X93624426Y-97039840D01*
X93679001Y-96996217D01*
X93748499Y-96989023D01*
X93810854Y-97020546D01*
X93827574Y-97039841D01*
X93957505Y-97225401D01*
X94124599Y-97392495D01*
X94221384Y-97460264D01*
X94318165Y-97528032D01*
X94318167Y-97528033D01*
X94318170Y-97528035D01*
X94532337Y-97627903D01*
X94760592Y-97689063D01*
X94937034Y-97704500D01*
X94995999Y-97709659D01*
X94996000Y-97709659D01*
X94996001Y-97709659D01*
X95054966Y-97704500D01*
X95231408Y-97689063D01*
X95459663Y-97627903D01*
X95673830Y-97528035D01*
X95867401Y-97392495D01*
X96034495Y-97225401D01*
X96164426Y-97039841D01*
X96219002Y-96996217D01*
X96288500Y-96989023D01*
X96350855Y-97020546D01*
X96367574Y-97039841D01*
X96497505Y-97225401D01*
X96664599Y-97392495D01*
X96761384Y-97460264D01*
X96858165Y-97528032D01*
X96858167Y-97528033D01*
X96858170Y-97528035D01*
X97072337Y-97627903D01*
X97300592Y-97689063D01*
X97477034Y-97704500D01*
X97535999Y-97709659D01*
X97536000Y-97709659D01*
X97536001Y-97709659D01*
X97594966Y-97704500D01*
X97771408Y-97689063D01*
X97999663Y-97627903D01*
X98213830Y-97528035D01*
X98407401Y-97392495D01*
X98574495Y-97225401D01*
X98709651Y-97032377D01*
X98764229Y-96988752D01*
X98811227Y-96979500D01*
X101074657Y-96979500D01*
X101090277Y-96981224D01*
X101090304Y-96980939D01*
X101098060Y-96981671D01*
X101098067Y-96981673D01*
X101167214Y-96979500D01*
X101196750Y-96979500D01*
X101203628Y-96978630D01*
X101209441Y-96978172D01*
X101256027Y-96976709D01*
X101275269Y-96971117D01*
X101294312Y-96967174D01*
X101314192Y-96964664D01*
X101357522Y-96947507D01*
X101363046Y-96945617D01*
X101366796Y-96944527D01*
X101407790Y-96932618D01*
X101425029Y-96922422D01*
X101442503Y-96913862D01*
X101461127Y-96906488D01*
X101461127Y-96906487D01*
X101461132Y-96906486D01*
X101498849Y-96879082D01*
X101503705Y-96875892D01*
X101543820Y-96852170D01*
X101557989Y-96837999D01*
X101572779Y-96825368D01*
X101588987Y-96813594D01*
X101618699Y-96777676D01*
X101622612Y-96773376D01*
X115143188Y-83252801D01*
X115155442Y-83242986D01*
X115155259Y-83242764D01*
X115161266Y-83237792D01*
X115161277Y-83237786D01*
X115200680Y-83195826D01*
X115208627Y-83187364D01*
X115219071Y-83176918D01*
X115229520Y-83166471D01*
X115233779Y-83160978D01*
X115237552Y-83156561D01*
X115269462Y-83122582D01*
X115279115Y-83105020D01*
X115289789Y-83088770D01*
X115302073Y-83072936D01*
X115320580Y-83030167D01*
X115323149Y-83024924D01*
X115329638Y-83013121D01*
X115345597Y-82984092D01*
X115350577Y-82964691D01*
X115356878Y-82946288D01*
X115364838Y-82927896D01*
X115372130Y-82881849D01*
X115373311Y-82876152D01*
X115384900Y-82831019D01*
X115384900Y-82810983D01*
X115386427Y-82791582D01*
X115386623Y-82790347D01*
X115389560Y-82771804D01*
X115385175Y-82725415D01*
X115384900Y-82719577D01*
X115384900Y-79171738D01*
X115386624Y-79156124D01*
X115386338Y-79156097D01*
X115387072Y-79148334D01*
X115386807Y-79139883D01*
X115384900Y-79079198D01*
X115384900Y-79049650D01*
X115384029Y-79042759D01*
X115383572Y-79036945D01*
X115382926Y-79016395D01*
X115382109Y-78990373D01*
X115378393Y-78977585D01*
X115376522Y-78971144D01*
X115372574Y-78952084D01*
X115371151Y-78940818D01*
X115370064Y-78932208D01*
X115370063Y-78932206D01*
X115370063Y-78932204D01*
X115352912Y-78888887D01*
X115351019Y-78883358D01*
X115338018Y-78838609D01*
X115338016Y-78838606D01*
X115327823Y-78821371D01*
X115319261Y-78803894D01*
X115311887Y-78785270D01*
X115311886Y-78785268D01*
X115284479Y-78747545D01*
X115281288Y-78742686D01*
X115257572Y-78702583D01*
X115257565Y-78702574D01*
X115243406Y-78688415D01*
X115230768Y-78673619D01*
X115218994Y-78657413D01*
X115183088Y-78627709D01*
X115178776Y-78623786D01*
X114900856Y-78345867D01*
X114867372Y-78284544D01*
X114870189Y-78231870D01*
X114867589Y-78231314D01*
X114869006Y-78224694D01*
X114879499Y-78121986D01*
X114879500Y-78121973D01*
X114879500Y-77847000D01*
X114042000Y-77847000D01*
X114042000Y-77927000D01*
X114022315Y-77994039D01*
X113969511Y-78039794D01*
X113918000Y-78051000D01*
X113666000Y-78051000D01*
X113598961Y-78031315D01*
X113553206Y-77978511D01*
X113542000Y-77927000D01*
X113542000Y-76372000D01*
X114042000Y-76372000D01*
X114042000Y-77347000D01*
X114879499Y-77347000D01*
X114879499Y-77072028D01*
X114879498Y-77072013D01*
X114869005Y-76969302D01*
X114813858Y-76802880D01*
X114813856Y-76802875D01*
X114721815Y-76653654D01*
X114597845Y-76529684D01*
X114448624Y-76437643D01*
X114448619Y-76437641D01*
X114282197Y-76382494D01*
X114282190Y-76382493D01*
X114179486Y-76372000D01*
X114042000Y-76372000D01*
X113542000Y-76372000D01*
X113404527Y-76372000D01*
X113404512Y-76372001D01*
X113301802Y-76382494D01*
X113135380Y-76437641D01*
X113135375Y-76437643D01*
X112986154Y-76529684D01*
X112862183Y-76653655D01*
X112862179Y-76653660D01*
X112860326Y-76656665D01*
X112858518Y-76658290D01*
X112857702Y-76659323D01*
X112857525Y-76659183D01*
X112808374Y-76703385D01*
X112739411Y-76714601D01*
X112675331Y-76686752D01*
X112649253Y-76656653D01*
X112649237Y-76656628D01*
X112647212Y-76653344D01*
X112523156Y-76529288D01*
X112401094Y-76454000D01*
X112373836Y-76437187D01*
X112373831Y-76437185D01*
X112365728Y-76434500D01*
X112207297Y-76382001D01*
X112207295Y-76382000D01*
X112104516Y-76371500D01*
X112104509Y-76371500D01*
X111427453Y-76371500D01*
X111360414Y-76351815D01*
X111339772Y-76335181D01*
X107222303Y-72217712D01*
X107212480Y-72205450D01*
X107212259Y-72205634D01*
X107207286Y-72199623D01*
X107207285Y-72199623D01*
X107156864Y-72152273D01*
X107146419Y-72141828D01*
X107135975Y-72131383D01*
X107130486Y-72127125D01*
X107126061Y-72123347D01*
X107092082Y-72091438D01*
X107092080Y-72091436D01*
X107092077Y-72091435D01*
X107074529Y-72081788D01*
X107058263Y-72071104D01*
X107042433Y-72058825D01*
X106999668Y-72040318D01*
X106994422Y-72037748D01*
X106953593Y-72015303D01*
X106953592Y-72015302D01*
X106934193Y-72010322D01*
X106915781Y-72004018D01*
X106897398Y-71996062D01*
X106897392Y-71996060D01*
X106851373Y-71988772D01*
X106845650Y-71987587D01*
X106820161Y-71981042D01*
X106760123Y-71945304D01*
X106728938Y-71882780D01*
X106726999Y-71860938D01*
X106726999Y-69703028D01*
X106726999Y-67416627D01*
X106728725Y-67401023D01*
X106728438Y-67400996D01*
X106729172Y-67393233D01*
X106727000Y-67324102D01*
X106727000Y-67294551D01*
X106727000Y-67294550D01*
X106726129Y-67287659D01*
X106725672Y-67281845D01*
X106724209Y-67235274D01*
X106724209Y-67235272D01*
X106718620Y-67216037D01*
X106714674Y-67196984D01*
X106714116Y-67192564D01*
X106712164Y-67177108D01*
X106695001Y-67133759D01*
X106693114Y-67128246D01*
X106690410Y-67118940D01*
X106680117Y-67083510D01*
X106669921Y-67066269D01*
X106661360Y-67048793D01*
X106656259Y-67035909D01*
X106653986Y-67030168D01*
X106653986Y-67030167D01*
X106635531Y-67004767D01*
X106626583Y-66992450D01*
X106623400Y-66987605D01*
X106599670Y-66947479D01*
X106599665Y-66947473D01*
X106585505Y-66933313D01*
X106572870Y-66918520D01*
X106561093Y-66902312D01*
X106525193Y-66872613D01*
X106520881Y-66868690D01*
X103481103Y-63828912D01*
X103471280Y-63816650D01*
X103471059Y-63816834D01*
X103466086Y-63810823D01*
X103447459Y-63793331D01*
X103415664Y-63763473D01*
X103405219Y-63753028D01*
X103394775Y-63742583D01*
X103389286Y-63738325D01*
X103384861Y-63734547D01*
X103350882Y-63702638D01*
X103350880Y-63702636D01*
X103350877Y-63702635D01*
X103333329Y-63692988D01*
X103317063Y-63682304D01*
X103301233Y-63670025D01*
X103258468Y-63651518D01*
X103253222Y-63648948D01*
X103212393Y-63626503D01*
X103212392Y-63626502D01*
X103192993Y-63621522D01*
X103174581Y-63615218D01*
X103156198Y-63607262D01*
X103156192Y-63607260D01*
X103110174Y-63599972D01*
X103104452Y-63598787D01*
X103059321Y-63587200D01*
X103059319Y-63587200D01*
X103039284Y-63587200D01*
X103019886Y-63585673D01*
X103012462Y-63584497D01*
X103000105Y-63582540D01*
X103000104Y-63582540D01*
X102953716Y-63586925D01*
X102947878Y-63587200D01*
X69924037Y-63587200D01*
X69908420Y-63585476D01*
X69908393Y-63585762D01*
X69900631Y-63585027D01*
X69831503Y-63587200D01*
X69801950Y-63587200D01*
X69801229Y-63587290D01*
X69795057Y-63588069D01*
X69789245Y-63588526D01*
X69742673Y-63589990D01*
X69742672Y-63589990D01*
X69723429Y-63595581D01*
X69704379Y-63599525D01*
X69684511Y-63602034D01*
X69684509Y-63602035D01*
X69641184Y-63619188D01*
X69635657Y-63621080D01*
X69590910Y-63634081D01*
X69590909Y-63634082D01*
X69573667Y-63644279D01*
X69556199Y-63652837D01*
X69537569Y-63660213D01*
X69537567Y-63660214D01*
X69499876Y-63687598D01*
X69494994Y-63690805D01*
X69454879Y-63714530D01*
X69440708Y-63728700D01*
X69425923Y-63741328D01*
X69409712Y-63753107D01*
X69380009Y-63789010D01*
X69376077Y-63793331D01*
X69109190Y-64060217D01*
X69047867Y-64093702D01*
X68982505Y-64090242D01*
X68900298Y-64063001D01*
X68797510Y-64052500D01*
X68022498Y-64052500D01*
X68022480Y-64052501D01*
X67919703Y-64063000D01*
X67919700Y-64063001D01*
X67753168Y-64118185D01*
X67753163Y-64118187D01*
X67603842Y-64210289D01*
X67479789Y-64334342D01*
X67387687Y-64483663D01*
X67387685Y-64483666D01*
X67387686Y-64483666D01*
X67332501Y-64650203D01*
X67332501Y-64650204D01*
X67332500Y-64650204D01*
X67322000Y-64752983D01*
X67322000Y-65803001D01*
X67322001Y-65803019D01*
X67332500Y-65905796D01*
X67332501Y-65905799D01*
X67376979Y-66040023D01*
X67387686Y-66072334D01*
X67479788Y-66221656D01*
X67603844Y-66345712D01*
X67617619Y-66354208D01*
X67664343Y-66406156D01*
X67675566Y-66475119D01*
X67647722Y-66539201D01*
X67640204Y-66547428D01*
X67542287Y-66645345D01*
X67450187Y-66794663D01*
X67450185Y-66794666D01*
X67450186Y-66794666D01*
X67395001Y-66961203D01*
X67395001Y-66961204D01*
X67395000Y-66961204D01*
X67384500Y-67063983D01*
X67384500Y-67728546D01*
X67364815Y-67795585D01*
X67348181Y-67816227D01*
X67267681Y-67896727D01*
X67206358Y-67930212D01*
X67136666Y-67925228D01*
X67080733Y-67883356D01*
X67056316Y-67817892D01*
X67056000Y-67809046D01*
X67056000Y-63124500D01*
X67075685Y-63057461D01*
X67128489Y-63011706D01*
X67180000Y-63000500D01*
X116843000Y-63000500D01*
X116910039Y-63020185D01*
G37*
%TD.AperFunction*%
%TA.AperFunction,Conductor*%
G36*
X94547464Y-90313238D02*
G01*
X94603397Y-90355110D01*
X94627814Y-90420574D01*
X94627451Y-90442381D01*
X94613189Y-90578077D01*
X94609540Y-90612800D01*
X94629326Y-90801056D01*
X94629327Y-90801059D01*
X94687818Y-90981077D01*
X94687820Y-90981082D01*
X94687821Y-90981084D01*
X94782467Y-91145016D01*
X94909129Y-91285688D01*
X95062265Y-91396948D01*
X95062270Y-91396951D01*
X95235192Y-91473942D01*
X95235197Y-91473944D01*
X95420354Y-91513300D01*
X95479547Y-91513300D01*
X95546586Y-91532985D01*
X95567228Y-91549619D01*
X95794097Y-91776488D01*
X95803922Y-91788751D01*
X95804143Y-91788569D01*
X95809114Y-91794578D01*
X95823315Y-91807913D01*
X95859535Y-91841926D01*
X95880429Y-91862820D01*
X95885911Y-91867073D01*
X95890343Y-91870857D01*
X95924318Y-91902762D01*
X95941876Y-91912414D01*
X95958135Y-91923095D01*
X95973964Y-91935373D01*
X96016738Y-91953882D01*
X96021956Y-91956438D01*
X96062808Y-91978897D01*
X96082216Y-91983880D01*
X96100617Y-91990180D01*
X96119004Y-91998137D01*
X96162388Y-92005008D01*
X96165019Y-92005425D01*
X96170739Y-92006609D01*
X96215881Y-92018200D01*
X96235916Y-92018200D01*
X96255314Y-92019726D01*
X96275094Y-92022859D01*
X96275095Y-92022860D01*
X96275095Y-92022859D01*
X96275096Y-92022860D01*
X96321483Y-92018475D01*
X96327322Y-92018200D01*
X104309247Y-92018200D01*
X104376286Y-92037885D01*
X104422041Y-92090689D01*
X104431985Y-92159847D01*
X104402960Y-92223403D01*
X104396928Y-92229881D01*
X100934628Y-95692181D01*
X100873305Y-95725666D01*
X100846947Y-95728500D01*
X98811227Y-95728500D01*
X98744188Y-95708815D01*
X98709652Y-95675623D01*
X98574494Y-95482597D01*
X98407402Y-95315506D01*
X98407395Y-95315501D01*
X98213834Y-95179967D01*
X98213830Y-95179965D01*
X98213829Y-95179964D01*
X97999663Y-95080097D01*
X97999659Y-95080096D01*
X97999655Y-95080094D01*
X97771413Y-95018938D01*
X97771403Y-95018936D01*
X97536001Y-94998341D01*
X97535999Y-94998341D01*
X97300596Y-95018936D01*
X97300586Y-95018938D01*
X97072344Y-95080094D01*
X97072335Y-95080098D01*
X96858171Y-95179964D01*
X96858169Y-95179965D01*
X96664597Y-95315505D01*
X96497505Y-95482597D01*
X96367575Y-95668158D01*
X96312998Y-95711783D01*
X96243500Y-95718977D01*
X96181145Y-95687454D01*
X96164425Y-95668158D01*
X96034494Y-95482597D01*
X95867402Y-95315506D01*
X95867395Y-95315501D01*
X95673834Y-95179967D01*
X95673830Y-95179965D01*
X95673830Y-95179964D01*
X95459663Y-95080097D01*
X95459659Y-95080096D01*
X95459655Y-95080094D01*
X95231413Y-95018938D01*
X95231403Y-95018936D01*
X94996001Y-94998341D01*
X94995999Y-94998341D01*
X94760596Y-95018936D01*
X94760586Y-95018938D01*
X94532344Y-95080094D01*
X94532335Y-95080098D01*
X94318171Y-95179964D01*
X94318169Y-95179965D01*
X94124597Y-95315505D01*
X93957508Y-95482594D01*
X93827574Y-95668159D01*
X93772997Y-95711784D01*
X93703498Y-95718976D01*
X93641144Y-95687454D01*
X93624424Y-95668158D01*
X93494494Y-95482597D01*
X93327402Y-95315506D01*
X93327395Y-95315501D01*
X93133834Y-95179967D01*
X93133830Y-95179965D01*
X93133829Y-95179964D01*
X92919663Y-95080097D01*
X92919659Y-95080096D01*
X92919655Y-95080094D01*
X92691413Y-95018938D01*
X92691403Y-95018936D01*
X92456001Y-94998341D01*
X92455999Y-94998341D01*
X92220596Y-95018936D01*
X92220586Y-95018938D01*
X91992344Y-95080094D01*
X91992335Y-95080098D01*
X91778171Y-95179964D01*
X91778169Y-95179965D01*
X91584597Y-95315505D01*
X91417505Y-95482597D01*
X91287575Y-95668158D01*
X91232998Y-95711783D01*
X91163500Y-95718977D01*
X91101145Y-95687454D01*
X91084425Y-95668158D01*
X90954494Y-95482597D01*
X90787402Y-95315506D01*
X90787395Y-95315501D01*
X90593834Y-95179967D01*
X90593830Y-95179965D01*
X90593829Y-95179964D01*
X90379663Y-95080097D01*
X90379659Y-95080096D01*
X90379655Y-95080094D01*
X90151413Y-95018938D01*
X90151403Y-95018936D01*
X90048208Y-95009908D01*
X90037314Y-95008954D01*
X89972247Y-94983502D01*
X89931268Y-94926911D01*
X89927390Y-94857149D01*
X89960440Y-94797748D01*
X94416452Y-90341736D01*
X94477772Y-90308254D01*
X94547464Y-90313238D01*
G37*
%TD.AperFunction*%
%TA.AperFunction,Conductor*%
G36*
X96176394Y-88684309D02*
G01*
X96225209Y-88717518D01*
X96237422Y-88731082D01*
X96237430Y-88731089D01*
X96390565Y-88842348D01*
X96390570Y-88842351D01*
X96563492Y-88919342D01*
X96563497Y-88919344D01*
X96748654Y-88958700D01*
X96748655Y-88958700D01*
X96937944Y-88958700D01*
X96937946Y-88958700D01*
X97123103Y-88919344D01*
X97296030Y-88842351D01*
X97449171Y-88731088D01*
X97452088Y-88727847D01*
X97454900Y-88724726D01*
X97514387Y-88688079D01*
X97547048Y-88683700D01*
X102265744Y-88683700D01*
X102332783Y-88703385D01*
X102378538Y-88756189D01*
X102388482Y-88825347D01*
X102381926Y-88851034D01*
X102343109Y-88955104D01*
X102282300Y-89234637D01*
X102261891Y-89519998D01*
X102261891Y-89520001D01*
X102282300Y-89805362D01*
X102343109Y-90084895D01*
X102443091Y-90352958D01*
X102569126Y-90583773D01*
X102583978Y-90652046D01*
X102559561Y-90717511D01*
X102503627Y-90759382D01*
X102460294Y-90767200D01*
X96605353Y-90767200D01*
X96538314Y-90747515D01*
X96517672Y-90730881D01*
X96453960Y-90667169D01*
X96420475Y-90605846D01*
X96418323Y-90592468D01*
X96400674Y-90424544D01*
X96342179Y-90244516D01*
X96247533Y-90080584D01*
X96120871Y-89939912D01*
X96062569Y-89897553D01*
X95967734Y-89828651D01*
X95967729Y-89828648D01*
X95794807Y-89751657D01*
X95794802Y-89751655D01*
X95649001Y-89720665D01*
X95609646Y-89712300D01*
X95420354Y-89712300D01*
X95379292Y-89721028D01*
X95354276Y-89726345D01*
X95284609Y-89721028D01*
X95228876Y-89678890D01*
X95204772Y-89613309D01*
X95219950Y-89545108D01*
X95240813Y-89517376D01*
X96045381Y-88712808D01*
X96106702Y-88679325D01*
X96176394Y-88684309D01*
G37*
%TD.AperFunction*%
%TA.AperFunction,Conductor*%
G36*
X108139373Y-84899580D02*
G01*
X108188069Y-84949685D01*
X108202400Y-85007553D01*
X108202400Y-87296046D01*
X108182715Y-87363085D01*
X108166081Y-87383727D01*
X106423615Y-89126192D01*
X106362292Y-89159677D01*
X106292600Y-89154693D01*
X106236667Y-89112821D01*
X106214768Y-89064869D01*
X106190890Y-88955104D01*
X106090908Y-88687041D01*
X105953808Y-88435961D01*
X105953807Y-88435960D01*
X105847115Y-88293436D01*
X105847114Y-88293436D01*
X105055331Y-89085220D01*
X104994008Y-89118705D01*
X104924316Y-89113721D01*
X104868383Y-89071849D01*
X104868291Y-89071726D01*
X104816244Y-89001815D01*
X104710773Y-88913313D01*
X104672072Y-88855144D01*
X104670964Y-88785283D01*
X104702799Y-88730645D01*
X105493562Y-87939883D01*
X105493561Y-87939882D01*
X105351046Y-87833196D01*
X105351038Y-87833191D01*
X105099957Y-87696091D01*
X105099958Y-87696091D01*
X104831895Y-87596109D01*
X104552362Y-87535300D01*
X104482392Y-87530296D01*
X104416927Y-87505879D01*
X104375056Y-87449945D01*
X104370072Y-87380254D01*
X104403555Y-87318934D01*
X105634788Y-86087701D01*
X105647042Y-86077886D01*
X105646859Y-86077664D01*
X105652866Y-86072692D01*
X105652877Y-86072686D01*
X105683775Y-86039782D01*
X105700227Y-86022264D01*
X105710671Y-86011818D01*
X105721120Y-86001371D01*
X105725379Y-85995878D01*
X105729152Y-85991461D01*
X105761062Y-85957482D01*
X105770715Y-85939920D01*
X105781389Y-85923670D01*
X105793673Y-85907836D01*
X105812180Y-85865067D01*
X105814744Y-85859831D01*
X105826234Y-85838934D01*
X105834028Y-85824758D01*
X105883576Y-85775496D01*
X105942688Y-85760499D01*
X106373871Y-85760499D01*
X106373872Y-85760499D01*
X106433483Y-85754091D01*
X106568331Y-85703796D01*
X106683546Y-85617546D01*
X106769796Y-85502331D01*
X106820091Y-85367483D01*
X106826500Y-85307873D01*
X106826500Y-85007481D01*
X106846185Y-84940442D01*
X106898989Y-84894687D01*
X106968147Y-84884743D01*
X107023384Y-84907162D01*
X107023486Y-84907236D01*
X107061770Y-84935051D01*
X107234692Y-85012042D01*
X107234697Y-85012044D01*
X107419854Y-85051400D01*
X107419855Y-85051400D01*
X107609144Y-85051400D01*
X107609146Y-85051400D01*
X107794303Y-85012044D01*
X107967230Y-84935051D01*
X108005515Y-84907235D01*
X108071319Y-84883755D01*
X108139373Y-84899580D01*
G37*
%TD.AperFunction*%
%TA.AperFunction,Conductor*%
G36*
X90528039Y-76426885D02*
G01*
X90573794Y-76479689D01*
X90585000Y-76531200D01*
X90585000Y-76585000D01*
X91798500Y-76585000D01*
X91865539Y-76604685D01*
X91911294Y-76657489D01*
X91922500Y-76709000D01*
X91922500Y-78059999D01*
X92059972Y-78059999D01*
X92059986Y-78059998D01*
X92162697Y-78049505D01*
X92329119Y-77994358D01*
X92329124Y-77994356D01*
X92478345Y-77902315D01*
X92602318Y-77778342D01*
X92604165Y-77775348D01*
X92605969Y-77773724D01*
X92606798Y-77772677D01*
X92606976Y-77772818D01*
X92656110Y-77728621D01*
X92725073Y-77717396D01*
X92789156Y-77745236D01*
X92815243Y-77775341D01*
X92817288Y-77778656D01*
X92941344Y-77902712D01*
X93090666Y-77994814D01*
X93257203Y-78049999D01*
X93359991Y-78060500D01*
X94135008Y-78060499D01*
X94135016Y-78060498D01*
X94135019Y-78060498D01*
X94158896Y-78058058D01*
X94237797Y-78049999D01*
X94255109Y-78044262D01*
X94324938Y-78041859D01*
X94381795Y-78074285D01*
X95393094Y-79085585D01*
X96400297Y-80092788D01*
X96410122Y-80105051D01*
X96410343Y-80104869D01*
X96415314Y-80110878D01*
X96420787Y-80116017D01*
X96465735Y-80158226D01*
X96486629Y-80179120D01*
X96492111Y-80183373D01*
X96496543Y-80187157D01*
X96530518Y-80219062D01*
X96548076Y-80228714D01*
X96564335Y-80239395D01*
X96580164Y-80251673D01*
X96622938Y-80270182D01*
X96628156Y-80272738D01*
X96669008Y-80295197D01*
X96688416Y-80300180D01*
X96706817Y-80306480D01*
X96725204Y-80314437D01*
X96768588Y-80321308D01*
X96771219Y-80321725D01*
X96776939Y-80322909D01*
X96822081Y-80334500D01*
X96842116Y-80334500D01*
X96861514Y-80336026D01*
X96881294Y-80339159D01*
X96881295Y-80339160D01*
X96881295Y-80339159D01*
X96881296Y-80339160D01*
X96927683Y-80334775D01*
X96933522Y-80334500D01*
X97492357Y-80334500D01*
X97507977Y-80336224D01*
X97508004Y-80335939D01*
X97515760Y-80336671D01*
X97515767Y-80336673D01*
X97584914Y-80334500D01*
X97595442Y-80334500D01*
X97662481Y-80354185D01*
X97708236Y-80406989D01*
X97718180Y-80476147D01*
X97689155Y-80539703D01*
X97669754Y-80557766D01*
X97643454Y-80577453D01*
X97634556Y-80589340D01*
X97618856Y-80610312D01*
X97562924Y-80652182D01*
X97519591Y-80660000D01*
X97501000Y-80660000D01*
X97501000Y-80732844D01*
X97507619Y-80794398D01*
X97507620Y-80820909D01*
X97506909Y-80827514D01*
X97506909Y-80827517D01*
X97500500Y-80887127D01*
X97500500Y-81115014D01*
X97500501Y-81260500D01*
X97480817Y-81327539D01*
X97428013Y-81373294D01*
X97376501Y-81384500D01*
X96168243Y-81384500D01*
X96152622Y-81382775D01*
X96152595Y-81383061D01*
X96144833Y-81382326D01*
X96075672Y-81384500D01*
X96046149Y-81384500D01*
X96039278Y-81385367D01*
X96033459Y-81385825D01*
X95986874Y-81387289D01*
X95986868Y-81387290D01*
X95967626Y-81392880D01*
X95948587Y-81396823D01*
X95928717Y-81399334D01*
X95928703Y-81399337D01*
X95885383Y-81416488D01*
X95879858Y-81418380D01*
X95835113Y-81431380D01*
X95835110Y-81431381D01*
X95817866Y-81441579D01*
X95800405Y-81450133D01*
X95781774Y-81457510D01*
X95781762Y-81457517D01*
X95744070Y-81484902D01*
X95739187Y-81488109D01*
X95699080Y-81511829D01*
X95684914Y-81525995D01*
X95670124Y-81538627D01*
X95653914Y-81550404D01*
X95653911Y-81550407D01*
X95624210Y-81586309D01*
X95620277Y-81590631D01*
X91908681Y-85302227D01*
X91847358Y-85335712D01*
X91777666Y-85330728D01*
X91733319Y-85302227D01*
X90625088Y-84193997D01*
X90591603Y-84132674D01*
X90592995Y-84074220D01*
X90597086Y-84058955D01*
X90602707Y-84037977D01*
X90621777Y-83820000D01*
X90602707Y-83602023D01*
X90546075Y-83390670D01*
X90453602Y-83192362D01*
X90453600Y-83192359D01*
X90453599Y-83192357D01*
X90328099Y-83013124D01*
X90260443Y-82945468D01*
X90173377Y-82858402D01*
X90022935Y-82753061D01*
X89994138Y-82732897D01*
X89865567Y-82672944D01*
X89795830Y-82640425D01*
X89795826Y-82640424D01*
X89795822Y-82640422D01*
X89584477Y-82583793D01*
X89366502Y-82564723D01*
X89366498Y-82564723D01*
X89233176Y-82576387D01*
X89148523Y-82583793D01*
X89148520Y-82583793D01*
X88937177Y-82640422D01*
X88937168Y-82640426D01*
X88738861Y-82732898D01*
X88738857Y-82732900D01*
X88559621Y-82858402D01*
X88404902Y-83013121D01*
X88279400Y-83192357D01*
X88279398Y-83192361D01*
X88186926Y-83390668D01*
X88186922Y-83390677D01*
X88130293Y-83602020D01*
X88130293Y-83602023D01*
X88125870Y-83652575D01*
X88111223Y-83819997D01*
X88111223Y-83820002D01*
X88130293Y-84037975D01*
X88130293Y-84037979D01*
X88186922Y-84249322D01*
X88186924Y-84249326D01*
X88186925Y-84249330D01*
X88233161Y-84348484D01*
X88279397Y-84447638D01*
X88290176Y-84463032D01*
X88404902Y-84626877D01*
X88559623Y-84781598D01*
X88738861Y-84907102D01*
X88937170Y-84999575D01*
X89148523Y-85056207D01*
X89331426Y-85072208D01*
X89366498Y-85075277D01*
X89366500Y-85075277D01*
X89366502Y-85075277D01*
X89396712Y-85072633D01*
X89584477Y-85056207D01*
X89620721Y-85046495D01*
X89690571Y-85048156D01*
X89740498Y-85078588D01*
X91159181Y-86497271D01*
X91192666Y-86558594D01*
X91195500Y-86584952D01*
X91195500Y-86635652D01*
X91175815Y-86702691D01*
X91136598Y-86741189D01*
X91123633Y-86749187D01*
X91014842Y-86816289D01*
X90890788Y-86940343D01*
X90890783Y-86940349D01*
X90888741Y-86943661D01*
X90886747Y-86945453D01*
X90886307Y-86946011D01*
X90886211Y-86945935D01*
X90836791Y-86990383D01*
X90767828Y-87001602D01*
X90703747Y-86973755D01*
X90677668Y-86943656D01*
X90675819Y-86940659D01*
X90675816Y-86940655D01*
X90551845Y-86816684D01*
X90402624Y-86724643D01*
X90402619Y-86724641D01*
X90236197Y-86669494D01*
X90236190Y-86669493D01*
X90133486Y-86659000D01*
X89996000Y-86659000D01*
X89996000Y-88010000D01*
X89976315Y-88077039D01*
X89923511Y-88122794D01*
X89872000Y-88134000D01*
X89620000Y-88134000D01*
X89552961Y-88114315D01*
X89507206Y-88061511D01*
X89496000Y-88010000D01*
X89496000Y-86659000D01*
X89358527Y-86659000D01*
X89358512Y-86659001D01*
X89255802Y-86669494D01*
X89089380Y-86724641D01*
X89089375Y-86724643D01*
X88940154Y-86816684D01*
X88816184Y-86940654D01*
X88724143Y-87089875D01*
X88724141Y-87089880D01*
X88668994Y-87256302D01*
X88668993Y-87256309D01*
X88666511Y-87280604D01*
X88640114Y-87345296D01*
X88582932Y-87385446D01*
X88513121Y-87388308D01*
X88455472Y-87355681D01*
X85626674Y-84526883D01*
X85593189Y-84465560D01*
X85598173Y-84395868D01*
X85601973Y-84386797D01*
X85666075Y-84249330D01*
X85722707Y-84037977D01*
X85741777Y-83820000D01*
X85722707Y-83602023D01*
X85666075Y-83390670D01*
X85573602Y-83192362D01*
X85573600Y-83192359D01*
X85573599Y-83192357D01*
X85448099Y-83013124D01*
X85380443Y-82945468D01*
X85293377Y-82858402D01*
X85142935Y-82753061D01*
X85114138Y-82732897D01*
X84985567Y-82672944D01*
X84915830Y-82640425D01*
X84915826Y-82640424D01*
X84915822Y-82640422D01*
X84704477Y-82583793D01*
X84486502Y-82564723D01*
X84486498Y-82564723D01*
X84353176Y-82576387D01*
X84268523Y-82583793D01*
X84268520Y-82583793D01*
X84057177Y-82640422D01*
X84057168Y-82640426D01*
X83858861Y-82732898D01*
X83858857Y-82732900D01*
X83679621Y-82858402D01*
X83524902Y-83013121D01*
X83434925Y-83141623D01*
X83380348Y-83185248D01*
X83333350Y-83194500D01*
X80727743Y-83194500D01*
X80712122Y-83192775D01*
X80712096Y-83193061D01*
X80704334Y-83192327D01*
X80704333Y-83192327D01*
X80635186Y-83194500D01*
X80605649Y-83194500D01*
X80598766Y-83195369D01*
X80592949Y-83195826D01*
X80546373Y-83197290D01*
X80527129Y-83202881D01*
X80508079Y-83206825D01*
X80488211Y-83209334D01*
X80444884Y-83226488D01*
X80439358Y-83228379D01*
X80394614Y-83241379D01*
X80394610Y-83241381D01*
X80377366Y-83251579D01*
X80359905Y-83260133D01*
X80341274Y-83267510D01*
X80341262Y-83267517D01*
X80303570Y-83294902D01*
X80298687Y-83298109D01*
X80258580Y-83321829D01*
X80244414Y-83335995D01*
X80229624Y-83348627D01*
X80213414Y-83360404D01*
X80213411Y-83360407D01*
X80183710Y-83396309D01*
X80179777Y-83400631D01*
X76958227Y-86622181D01*
X76896904Y-86655666D01*
X76870546Y-86658500D01*
X76193498Y-86658500D01*
X76193480Y-86658501D01*
X76090703Y-86669000D01*
X76090700Y-86669001D01*
X75924168Y-86724185D01*
X75924163Y-86724187D01*
X75774842Y-86816289D01*
X75650787Y-86940344D01*
X75597577Y-87026611D01*
X75545629Y-87073335D01*
X75476666Y-87084556D01*
X75412584Y-87056712D01*
X75386500Y-87026609D01*
X75348712Y-86965344D01*
X75275114Y-86891746D01*
X75241629Y-86830423D01*
X75244865Y-86765745D01*
X75252844Y-86741191D01*
X75257274Y-86727556D01*
X75277060Y-86539300D01*
X75257274Y-86351044D01*
X75198779Y-86171016D01*
X75104133Y-86007084D01*
X75009446Y-85901924D01*
X74979217Y-85838934D01*
X74987842Y-85769599D01*
X75013913Y-85731275D01*
X78415871Y-82329319D01*
X78477195Y-82295834D01*
X78503553Y-82293000D01*
X85467757Y-82293000D01*
X85483377Y-82294724D01*
X85483404Y-82294439D01*
X85491160Y-82295171D01*
X85491167Y-82295173D01*
X85560314Y-82293000D01*
X85589850Y-82293000D01*
X85596728Y-82292130D01*
X85602541Y-82291672D01*
X85649127Y-82290209D01*
X85668369Y-82284617D01*
X85687412Y-82280674D01*
X85707292Y-82278164D01*
X85750622Y-82261007D01*
X85756146Y-82259117D01*
X85759896Y-82258027D01*
X85800890Y-82246118D01*
X85818129Y-82235922D01*
X85835603Y-82227362D01*
X85854227Y-82219988D01*
X85854227Y-82219987D01*
X85854232Y-82219986D01*
X85891949Y-82192582D01*
X85896805Y-82189392D01*
X85936920Y-82165670D01*
X85951089Y-82151499D01*
X85965879Y-82138868D01*
X85982087Y-82127094D01*
X86011799Y-82091176D01*
X86015712Y-82086876D01*
X87758687Y-80343901D01*
X87770942Y-80334086D01*
X87770759Y-80333864D01*
X87776766Y-80328892D01*
X87776777Y-80328886D01*
X87820511Y-80282314D01*
X87824127Y-80278464D01*
X87834571Y-80268018D01*
X87845020Y-80257571D01*
X87849279Y-80252078D01*
X87853052Y-80247661D01*
X87884962Y-80213682D01*
X87894613Y-80196124D01*
X87905296Y-80179861D01*
X87917573Y-80164036D01*
X87936085Y-80121253D01*
X87938638Y-80116041D01*
X87961097Y-80075192D01*
X87966080Y-80055780D01*
X87972381Y-80037380D01*
X87980337Y-80018996D01*
X87987629Y-79972952D01*
X87988806Y-79967271D01*
X88000400Y-79922119D01*
X88000400Y-79902082D01*
X88001927Y-79882682D01*
X88002035Y-79882000D01*
X88005060Y-79862904D01*
X88000675Y-79816515D01*
X88000400Y-79810677D01*
X88000400Y-77085000D01*
X90585001Y-77085000D01*
X90585001Y-77359986D01*
X90595494Y-77462697D01*
X90650641Y-77629119D01*
X90650643Y-77629124D01*
X90742684Y-77778345D01*
X90866654Y-77902315D01*
X91015875Y-77994356D01*
X91015880Y-77994358D01*
X91182302Y-78049505D01*
X91182309Y-78049506D01*
X91285019Y-78059999D01*
X91422499Y-78059999D01*
X91422500Y-78059998D01*
X91422500Y-77085000D01*
X90585001Y-77085000D01*
X88000400Y-77085000D01*
X88000400Y-76904052D01*
X88020085Y-76837013D01*
X88036719Y-76816371D01*
X88409572Y-76443519D01*
X88470895Y-76410034D01*
X88497253Y-76407200D01*
X90461000Y-76407200D01*
X90528039Y-76426885D01*
G37*
%TD.AperFunction*%
%TA.AperFunction,Conductor*%
G36*
X101668514Y-85754089D02*
G01*
X101668517Y-85754091D01*
X101728127Y-85760500D01*
X102373872Y-85760499D01*
X102433483Y-85754091D01*
X102433486Y-85754089D01*
X102437744Y-85753632D01*
X102464254Y-85753632D01*
X102468514Y-85754089D01*
X102468517Y-85754091D01*
X102528127Y-85760500D01*
X103173872Y-85760499D01*
X103233483Y-85754091D01*
X103233486Y-85754089D01*
X103237744Y-85753632D01*
X103264254Y-85753632D01*
X103268514Y-85754089D01*
X103268517Y-85754091D01*
X103328127Y-85760500D01*
X103893446Y-85760499D01*
X103960485Y-85780183D01*
X104006240Y-85832987D01*
X104016184Y-85902146D01*
X103987159Y-85965702D01*
X103981127Y-85972180D01*
X102556928Y-87396381D01*
X102495605Y-87429866D01*
X102469247Y-87432700D01*
X97624852Y-87432700D01*
X97557813Y-87413015D01*
X97512058Y-87360211D01*
X97502114Y-87291053D01*
X97531139Y-87227497D01*
X97537171Y-87221019D01*
X97992446Y-86765745D01*
X98509471Y-86248719D01*
X98570795Y-86215234D01*
X98597153Y-86212400D01*
X100380153Y-86212400D01*
X100403385Y-86214596D01*
X100404989Y-86214901D01*
X100411412Y-86216127D01*
X100468724Y-86212521D01*
X100472597Y-86212400D01*
X100490342Y-86212400D01*
X100490350Y-86212400D01*
X100507990Y-86210171D01*
X100511807Y-86209810D01*
X100569138Y-86206204D01*
X100576905Y-86203680D01*
X100599680Y-86198588D01*
X100607792Y-86197564D01*
X100661195Y-86176419D01*
X100664835Y-86175109D01*
X100719441Y-86157367D01*
X100726337Y-86152990D01*
X100747133Y-86142394D01*
X100754732Y-86139386D01*
X100801191Y-86105630D01*
X100804390Y-86103455D01*
X100852877Y-86072686D01*
X100858466Y-86066733D01*
X100875979Y-86051294D01*
X100882587Y-86046494D01*
X100919190Y-86002247D01*
X100921736Y-85999357D01*
X100961062Y-85957482D01*
X100964998Y-85950321D01*
X100978119Y-85931014D01*
X100983324Y-85924723D01*
X101007772Y-85872765D01*
X101009538Y-85869302D01*
X101011863Y-85865074D01*
X101034025Y-85824760D01*
X101083573Y-85775497D01*
X101142687Y-85760499D01*
X101573871Y-85760499D01*
X101573872Y-85760499D01*
X101633483Y-85754091D01*
X101633486Y-85754089D01*
X101637744Y-85753632D01*
X101664254Y-85753632D01*
X101668514Y-85754089D01*
G37*
%TD.AperFunction*%
%TA.AperFunction,Conductor*%
G36*
X111953039Y-81811685D02*
G01*
X111998794Y-81864489D01*
X112010000Y-81916000D01*
X112010000Y-83266999D01*
X112147472Y-83266999D01*
X112147486Y-83266998D01*
X112250197Y-83256505D01*
X112416619Y-83201358D01*
X112416624Y-83201356D01*
X112565845Y-83109315D01*
X112689818Y-82985342D01*
X112691665Y-82982348D01*
X112693469Y-82980724D01*
X112694298Y-82979677D01*
X112694476Y-82979818D01*
X112743610Y-82935621D01*
X112812573Y-82924396D01*
X112876656Y-82952236D01*
X112902743Y-82982341D01*
X112904788Y-82985656D01*
X113028844Y-83109712D01*
X113178166Y-83201814D01*
X113178170Y-83201815D01*
X113184709Y-83204864D01*
X113183491Y-83207475D01*
X113230134Y-83239731D01*
X113256992Y-83304232D01*
X113244716Y-83373015D01*
X113221409Y-83405399D01*
X109665081Y-86961728D01*
X109603758Y-86995213D01*
X109534066Y-86990229D01*
X109478133Y-86948357D01*
X109453716Y-86882893D01*
X109453400Y-86874047D01*
X109453400Y-82880844D01*
X109455597Y-82857606D01*
X109457127Y-82849588D01*
X109453521Y-82792275D01*
X109453400Y-82788403D01*
X109453400Y-82770653D01*
X109453188Y-82767281D01*
X109468628Y-82699138D01*
X109518457Y-82650160D01*
X109576944Y-82635500D01*
X110017157Y-82635500D01*
X110032777Y-82637224D01*
X110032804Y-82636939D01*
X110040560Y-82637671D01*
X110040567Y-82637673D01*
X110109714Y-82635500D01*
X110139250Y-82635500D01*
X110146128Y-82634630D01*
X110151941Y-82634172D01*
X110198527Y-82632709D01*
X110217769Y-82627117D01*
X110236812Y-82623174D01*
X110256692Y-82620664D01*
X110300022Y-82603507D01*
X110305546Y-82601617D01*
X110309552Y-82600453D01*
X110350290Y-82588618D01*
X110367529Y-82578422D01*
X110385003Y-82569862D01*
X110403628Y-82562488D01*
X110403629Y-82562487D01*
X110403632Y-82562486D01*
X110441334Y-82535092D01*
X110446195Y-82531898D01*
X110486320Y-82508170D01*
X110486320Y-82508169D01*
X110489443Y-82506323D01*
X110557167Y-82489142D01*
X110623430Y-82511302D01*
X110667192Y-82565769D01*
X110675920Y-82600453D01*
X110682994Y-82669697D01*
X110738141Y-82836119D01*
X110738143Y-82836124D01*
X110830184Y-82985345D01*
X110954154Y-83109315D01*
X111103375Y-83201356D01*
X111103380Y-83201358D01*
X111269802Y-83256505D01*
X111269809Y-83256506D01*
X111372519Y-83266999D01*
X111509999Y-83266999D01*
X111510000Y-83266998D01*
X111510000Y-81916000D01*
X111529685Y-81848961D01*
X111582489Y-81803206D01*
X111634000Y-81792000D01*
X111886000Y-81792000D01*
X111953039Y-81811685D01*
G37*
%TD.AperFunction*%
%TA.AperFunction,Conductor*%
G36*
X113985039Y-79321685D02*
G01*
X114030794Y-79374489D01*
X114042000Y-79426000D01*
X114042000Y-79882000D01*
X114022315Y-79949039D01*
X113969511Y-79994794D01*
X113918000Y-80006000D01*
X113666000Y-80006000D01*
X113598961Y-79986315D01*
X113553206Y-79933511D01*
X113542000Y-79882000D01*
X113542000Y-79426000D01*
X113561685Y-79358961D01*
X113614489Y-79313206D01*
X113666000Y-79302000D01*
X113918000Y-79302000D01*
X113985039Y-79321685D01*
G37*
%TD.AperFunction*%
%TA.AperFunction,Conductor*%
G36*
X109206701Y-78824039D02*
G01*
X109213180Y-78830071D01*
X109443397Y-79060288D01*
X109453222Y-79072551D01*
X109453443Y-79072369D01*
X109458414Y-79078378D01*
X109481371Y-79099935D01*
X109508835Y-79125726D01*
X109529729Y-79146620D01*
X109535211Y-79150873D01*
X109539643Y-79154657D01*
X109573618Y-79186562D01*
X109591176Y-79196214D01*
X109607435Y-79206895D01*
X109623264Y-79219173D01*
X109666038Y-79237682D01*
X109671256Y-79240238D01*
X109712108Y-79262697D01*
X109731516Y-79267680D01*
X109749917Y-79273980D01*
X109768304Y-79281937D01*
X109811688Y-79288808D01*
X109814319Y-79289225D01*
X109820039Y-79290409D01*
X109865181Y-79302000D01*
X109885216Y-79302000D01*
X109904614Y-79303526D01*
X109924394Y-79306659D01*
X109924395Y-79306660D01*
X109924395Y-79306659D01*
X109924396Y-79306660D01*
X109970783Y-79302275D01*
X109976622Y-79302000D01*
X110505000Y-79302000D01*
X110572039Y-79321685D01*
X110617794Y-79374489D01*
X110629000Y-79425999D01*
X110629001Y-79660499D01*
X110609317Y-79727539D01*
X110556513Y-79773294D01*
X110505001Y-79784500D01*
X108909231Y-79784500D01*
X108842192Y-79764815D01*
X108834920Y-79759767D01*
X108767459Y-79709266D01*
X108725588Y-79653332D01*
X108720604Y-79583641D01*
X108754089Y-79522317D01*
X108767451Y-79510739D01*
X108858546Y-79442546D01*
X108883143Y-79409687D01*
X108939076Y-79367818D01*
X108982409Y-79360000D01*
X109001000Y-79360000D01*
X109001000Y-79287172D01*
X109000999Y-79287160D01*
X108994380Y-79225604D01*
X108994380Y-79199090D01*
X108995090Y-79192485D01*
X108995091Y-79192483D01*
X109001500Y-79132873D01*
X109001499Y-78917751D01*
X109021183Y-78850713D01*
X109073987Y-78804958D01*
X109143145Y-78795014D01*
X109206701Y-78824039D01*
G37*
%TD.AperFunction*%
%TA.AperFunction,Conductor*%
G36*
X68851385Y-71070184D02*
G01*
X68897140Y-71122988D01*
X68903422Y-71139904D01*
X68906380Y-71150087D01*
X68916580Y-71167334D01*
X68925138Y-71184803D01*
X68932514Y-71203432D01*
X68959898Y-71241123D01*
X68963106Y-71246007D01*
X68986827Y-71286116D01*
X68986833Y-71286124D01*
X69000990Y-71300280D01*
X69013628Y-71315076D01*
X69025405Y-71331286D01*
X69025406Y-71331287D01*
X69061309Y-71360988D01*
X69065620Y-71364910D01*
X73119691Y-75418982D01*
X73153175Y-75480303D01*
X73148191Y-75549995D01*
X73132006Y-75577795D01*
X73132995Y-75578487D01*
X72994400Y-75776420D01*
X72994399Y-75776422D01*
X72894570Y-75990507D01*
X72894567Y-75990513D01*
X72837364Y-76203999D01*
X72837364Y-76204000D01*
X73554653Y-76204000D01*
X73621692Y-76223685D01*
X73667447Y-76276489D01*
X73677391Y-76345647D01*
X73673631Y-76362933D01*
X73668033Y-76382000D01*
X73668000Y-76382111D01*
X73668000Y-76525889D01*
X73671277Y-76537048D01*
X73673631Y-76545067D01*
X73673630Y-76614936D01*
X73635855Y-76673714D01*
X73572299Y-76702738D01*
X73554653Y-76704000D01*
X72837364Y-76704000D01*
X72894567Y-76917486D01*
X72894570Y-76917492D01*
X72994399Y-77131578D01*
X73129894Y-77325082D01*
X73296917Y-77492105D01*
X73490421Y-77627600D01*
X73704507Y-77727429D01*
X73704516Y-77727433D01*
X73918000Y-77784634D01*
X73918000Y-77066301D01*
X73937685Y-76999262D01*
X73990489Y-76953507D01*
X74059647Y-76943563D01*
X74132237Y-76954000D01*
X74132238Y-76954000D01*
X74203762Y-76954000D01*
X74203763Y-76954000D01*
X74276353Y-76943563D01*
X74345512Y-76953507D01*
X74398315Y-76999262D01*
X74418000Y-77066301D01*
X74418000Y-77784633D01*
X74631483Y-77727433D01*
X74631492Y-77727429D01*
X74845578Y-77627600D01*
X75039082Y-77492105D01*
X75206108Y-77325079D01*
X75336119Y-77139405D01*
X75390696Y-77095780D01*
X75460194Y-77088586D01*
X75522549Y-77120109D01*
X75539269Y-77139405D01*
X75669500Y-77325395D01*
X75669505Y-77325401D01*
X75836599Y-77492495D01*
X75919809Y-77550759D01*
X76030165Y-77628032D01*
X76030167Y-77628033D01*
X76030170Y-77628035D01*
X76244337Y-77727903D01*
X76244343Y-77727904D01*
X76244344Y-77727905D01*
X76299285Y-77742626D01*
X76472592Y-77789063D01*
X76660918Y-77805539D01*
X76707999Y-77809659D01*
X76708000Y-77809659D01*
X76708001Y-77809659D01*
X76747234Y-77806226D01*
X76943408Y-77789063D01*
X77171663Y-77727903D01*
X77385830Y-77628035D01*
X77579401Y-77492495D01*
X77746495Y-77325401D01*
X77882035Y-77131830D01*
X77981903Y-76917663D01*
X78043063Y-76689408D01*
X78063659Y-76454000D01*
X78043063Y-76218592D01*
X77981903Y-75990337D01*
X77882035Y-75776171D01*
X77871205Y-75760703D01*
X77746494Y-75582597D01*
X77579402Y-75415506D01*
X77579396Y-75415501D01*
X77393842Y-75285575D01*
X77350217Y-75230998D01*
X77343023Y-75161500D01*
X77374546Y-75099145D01*
X77393842Y-75082425D01*
X77462570Y-75034301D01*
X77579401Y-74952495D01*
X77746495Y-74785401D01*
X77882035Y-74591830D01*
X77981903Y-74377663D01*
X78043063Y-74149408D01*
X78063659Y-73914000D01*
X78043063Y-73678592D01*
X77994934Y-73498971D01*
X77981905Y-73450344D01*
X77981904Y-73450343D01*
X77981903Y-73450337D01*
X77944385Y-73369881D01*
X77936423Y-73352805D01*
X77925931Y-73283727D01*
X77954451Y-73219943D01*
X78012927Y-73181704D01*
X78048805Y-73176400D01*
X80414870Y-73176400D01*
X80481909Y-73196085D01*
X80527664Y-73248889D01*
X80537608Y-73318047D01*
X80508583Y-73381603D01*
X80504961Y-73385491D01*
X80504289Y-73386341D01*
X80412187Y-73535662D01*
X80412185Y-73535667D01*
X80388544Y-73607012D01*
X80357001Y-73702202D01*
X80357001Y-73702203D01*
X80357000Y-73702203D01*
X80346500Y-73804982D01*
X80346500Y-76055017D01*
X80357000Y-76157796D01*
X80412185Y-76324332D01*
X80412186Y-76324335D01*
X80503535Y-76472436D01*
X80504289Y-76473657D01*
X80628343Y-76597711D01*
X80628347Y-76597714D01*
X80636044Y-76602462D01*
X80682769Y-76654410D01*
X80693990Y-76723372D01*
X80666147Y-76787454D01*
X80636044Y-76813538D01*
X80628347Y-76818285D01*
X80628343Y-76818288D01*
X80504289Y-76942342D01*
X80412187Y-77091662D01*
X80412185Y-77091667D01*
X80396331Y-77139511D01*
X80357001Y-77258202D01*
X80357001Y-77258203D01*
X80357000Y-77258203D01*
X80346500Y-77360982D01*
X80346500Y-79390600D01*
X80326815Y-79457639D01*
X80274011Y-79503394D01*
X80222500Y-79514600D01*
X71213452Y-79514600D01*
X71146413Y-79494915D01*
X71125771Y-79478281D01*
X70954150Y-79306660D01*
X70765703Y-79118212D01*
X70755880Y-79105950D01*
X70755659Y-79106134D01*
X70750686Y-79100123D01*
X70740213Y-79090288D01*
X70700264Y-79052773D01*
X70687357Y-79039866D01*
X70679375Y-79031883D01*
X70673886Y-79027625D01*
X70669461Y-79023847D01*
X70635482Y-78991938D01*
X70635480Y-78991936D01*
X70635477Y-78991935D01*
X70617929Y-78982288D01*
X70601663Y-78971604D01*
X70585833Y-78959325D01*
X70543068Y-78940818D01*
X70537822Y-78938248D01*
X70496993Y-78915803D01*
X70496992Y-78915802D01*
X70477593Y-78910822D01*
X70459181Y-78904518D01*
X70440798Y-78896562D01*
X70440792Y-78896560D01*
X70394774Y-78889272D01*
X70389052Y-78888087D01*
X70336363Y-78874560D01*
X70337025Y-78871981D01*
X70284754Y-78849182D01*
X70262767Y-78825217D01*
X70261942Y-78824039D01*
X70176899Y-78702583D01*
X70126494Y-78630597D01*
X69959402Y-78463506D01*
X69959401Y-78463505D01*
X69773405Y-78333269D01*
X69729781Y-78278692D01*
X69722588Y-78209193D01*
X69754110Y-78146839D01*
X69773405Y-78130119D01*
X69959082Y-78000105D01*
X70126105Y-77833082D01*
X70261600Y-77639578D01*
X70361429Y-77425492D01*
X70361432Y-77425486D01*
X70418636Y-77212000D01*
X69701347Y-77212000D01*
X69634308Y-77192315D01*
X69588553Y-77139511D01*
X69578609Y-77070353D01*
X69582369Y-77053067D01*
X69588000Y-77033888D01*
X69588000Y-76890111D01*
X69582369Y-76870933D01*
X69582370Y-76801064D01*
X69620145Y-76742286D01*
X69683701Y-76713262D01*
X69701347Y-76712000D01*
X70418636Y-76712000D01*
X70418635Y-76711999D01*
X70361432Y-76498513D01*
X70361429Y-76498507D01*
X70261600Y-76284422D01*
X70261599Y-76284420D01*
X70126113Y-76090926D01*
X70126108Y-76090920D01*
X70003665Y-75968477D01*
X69970180Y-75907154D01*
X69975164Y-75837462D01*
X70017036Y-75781529D01*
X70048013Y-75764614D01*
X70180086Y-75715354D01*
X70180093Y-75715350D01*
X70295187Y-75629190D01*
X70295190Y-75629187D01*
X70381350Y-75514093D01*
X70381354Y-75514086D01*
X70431596Y-75379379D01*
X70431598Y-75379372D01*
X70437999Y-75319844D01*
X70438000Y-75319827D01*
X70438000Y-74672000D01*
X69701347Y-74672000D01*
X69634308Y-74652315D01*
X69588553Y-74599511D01*
X69578609Y-74530353D01*
X69582369Y-74513067D01*
X69588000Y-74493888D01*
X69588000Y-74350111D01*
X69582369Y-74330933D01*
X69582370Y-74261064D01*
X69620145Y-74202286D01*
X69683701Y-74173262D01*
X69701347Y-74172000D01*
X70438000Y-74172000D01*
X70438000Y-73524172D01*
X70437999Y-73524155D01*
X70431598Y-73464627D01*
X70431596Y-73464620D01*
X70381354Y-73329913D01*
X70381350Y-73329906D01*
X70295190Y-73214812D01*
X70295187Y-73214809D01*
X70180093Y-73128649D01*
X70180086Y-73128645D01*
X70045379Y-73078403D01*
X70045372Y-73078401D01*
X69985844Y-73072000D01*
X69338000Y-73072000D01*
X69338000Y-73809698D01*
X69318315Y-73876737D01*
X69265511Y-73922492D01*
X69196355Y-73932436D01*
X69123766Y-73922000D01*
X69123763Y-73922000D01*
X69052237Y-73922000D01*
X69052233Y-73922000D01*
X68979645Y-73932436D01*
X68910487Y-73922492D01*
X68857684Y-73876736D01*
X68838000Y-73809698D01*
X68838000Y-73072000D01*
X68660600Y-73072000D01*
X68593561Y-73052315D01*
X68547806Y-72999511D01*
X68536600Y-72948000D01*
X68536600Y-71174499D01*
X68556285Y-71107460D01*
X68609089Y-71061705D01*
X68660600Y-71050499D01*
X68784346Y-71050499D01*
X68851385Y-71070184D01*
G37*
%TD.AperFunction*%
%TA.AperFunction,Conductor*%
G36*
X106053885Y-73229196D02*
G01*
X106055489Y-73229501D01*
X106061912Y-73230727D01*
X106119224Y-73227121D01*
X106123097Y-73227000D01*
X106411048Y-73227000D01*
X106478087Y-73246685D01*
X106498729Y-73263319D01*
X110592681Y-77357272D01*
X110626166Y-77418595D01*
X110629000Y-77444953D01*
X110629000Y-77717396D01*
X110629001Y-77927000D01*
X110609317Y-77994039D01*
X110556513Y-78039794D01*
X110505001Y-78051000D01*
X110254653Y-78051000D01*
X110187614Y-78031315D01*
X110166972Y-78014681D01*
X109778503Y-77626212D01*
X109768680Y-77613950D01*
X109768459Y-77614134D01*
X109763486Y-77608123D01*
X109713064Y-77560773D01*
X109698071Y-77545780D01*
X109692175Y-77539883D01*
X109686686Y-77535625D01*
X109682261Y-77531847D01*
X109648282Y-77499938D01*
X109648280Y-77499936D01*
X109648277Y-77499935D01*
X109630729Y-77490288D01*
X109614463Y-77479604D01*
X109598636Y-77467327D01*
X109598635Y-77467326D01*
X109598633Y-77467325D01*
X109555868Y-77448818D01*
X109550622Y-77446248D01*
X109509793Y-77423803D01*
X109509792Y-77423802D01*
X109490393Y-77418822D01*
X109471981Y-77412518D01*
X109453598Y-77404562D01*
X109453592Y-77404560D01*
X109407574Y-77397272D01*
X109401852Y-77396087D01*
X109356721Y-77384500D01*
X109356719Y-77384500D01*
X109336684Y-77384500D01*
X109317286Y-77382973D01*
X109309862Y-77381797D01*
X109297505Y-77379840D01*
X109297504Y-77379840D01*
X109251116Y-77384225D01*
X109245278Y-77384500D01*
X109125500Y-77384500D01*
X109058461Y-77364815D01*
X109012706Y-77312011D01*
X109001500Y-77260500D01*
X109001499Y-76887130D01*
X109001498Y-76887123D01*
X108998724Y-76861319D01*
X108995091Y-76827517D01*
X108989877Y-76813538D01*
X108944797Y-76692671D01*
X108944793Y-76692664D01*
X108858547Y-76577455D01*
X108858544Y-76577452D01*
X108743335Y-76491206D01*
X108743328Y-76491202D01*
X108608482Y-76440908D01*
X108608483Y-76440908D01*
X108548883Y-76434501D01*
X108548881Y-76434500D01*
X108548873Y-76434500D01*
X108548865Y-76434500D01*
X106950499Y-76434500D01*
X106883460Y-76414815D01*
X106837705Y-76362011D01*
X106826499Y-76310500D01*
X106826499Y-74712129D01*
X106826498Y-74712123D01*
X106820091Y-74652516D01*
X106769797Y-74517671D01*
X106769793Y-74517664D01*
X106683547Y-74402455D01*
X106683544Y-74402452D01*
X106568335Y-74316206D01*
X106568328Y-74316202D01*
X106433486Y-74265910D01*
X106433485Y-74265909D01*
X106433483Y-74265909D01*
X106373873Y-74259500D01*
X106373863Y-74259500D01*
X105728129Y-74259500D01*
X105728120Y-74259501D01*
X105664248Y-74266367D01*
X105637742Y-74266367D01*
X105633483Y-74265909D01*
X105573873Y-74259500D01*
X105573867Y-74259500D01*
X105558856Y-74259500D01*
X105491817Y-74239815D01*
X105446062Y-74187011D01*
X105435535Y-74148462D01*
X105433052Y-74124839D01*
X105415774Y-73960444D01*
X105357279Y-73780416D01*
X105262633Y-73616484D01*
X105135971Y-73475812D01*
X105120566Y-73464620D01*
X105102258Y-73451318D01*
X105059592Y-73395988D01*
X105053613Y-73326375D01*
X105086219Y-73264580D01*
X105147057Y-73230223D01*
X105175143Y-73227000D01*
X106022481Y-73227000D01*
X106030653Y-73227000D01*
X106053885Y-73229196D01*
G37*
%TD.AperFunction*%
%TA.AperFunction,Conductor*%
G36*
X69265512Y-74921507D02*
G01*
X69318315Y-74967262D01*
X69338000Y-75034301D01*
X69338000Y-76349698D01*
X69318315Y-76416737D01*
X69265511Y-76462492D01*
X69196355Y-76472436D01*
X69123766Y-76462000D01*
X69123763Y-76462000D01*
X69052237Y-76462000D01*
X69052233Y-76462000D01*
X68979645Y-76472436D01*
X68910487Y-76462492D01*
X68857684Y-76416736D01*
X68838000Y-76349698D01*
X68838000Y-75034301D01*
X68857685Y-74967262D01*
X68910489Y-74921507D01*
X68979647Y-74911563D01*
X69052237Y-74922000D01*
X69052238Y-74922000D01*
X69123762Y-74922000D01*
X69123763Y-74922000D01*
X69196353Y-74911563D01*
X69265512Y-74921507D01*
G37*
%TD.AperFunction*%
%TA.AperFunction,Conductor*%
G36*
X84496087Y-69423485D02*
G01*
X84516728Y-69440118D01*
X86375428Y-71298819D01*
X88232797Y-73156188D01*
X88242622Y-73168451D01*
X88242843Y-73168269D01*
X88247814Y-73174278D01*
X88259486Y-73185238D01*
X88298235Y-73221626D01*
X88319129Y-73242520D01*
X88324611Y-73246773D01*
X88329043Y-73250557D01*
X88363018Y-73282462D01*
X88380576Y-73292114D01*
X88396835Y-73302795D01*
X88412664Y-73315073D01*
X88455438Y-73333582D01*
X88460656Y-73336138D01*
X88501508Y-73358597D01*
X88520916Y-73363580D01*
X88539317Y-73369880D01*
X88557704Y-73377837D01*
X88601088Y-73384708D01*
X88603719Y-73385125D01*
X88609439Y-73386309D01*
X88654581Y-73397900D01*
X88674616Y-73397900D01*
X88694014Y-73399426D01*
X88713794Y-73402559D01*
X88713795Y-73402560D01*
X88713795Y-73402559D01*
X88713796Y-73402560D01*
X88760183Y-73398175D01*
X88766022Y-73397900D01*
X89504000Y-73397900D01*
X89571039Y-73417585D01*
X89616794Y-73470389D01*
X89628000Y-73521900D01*
X89628000Y-73621644D01*
X89630899Y-73658489D01*
X89630900Y-73658495D01*
X89676716Y-73816193D01*
X89676717Y-73816196D01*
X89760314Y-73957552D01*
X89760321Y-73957561D01*
X89876438Y-74073678D01*
X89876447Y-74073685D01*
X89876589Y-74073769D01*
X89876677Y-74073863D01*
X89882607Y-74078463D01*
X89881864Y-74079419D01*
X89924272Y-74124839D01*
X89936774Y-74193581D01*
X89910127Y-74258170D01*
X89852791Y-74298099D01*
X89813466Y-74304500D01*
X88575452Y-74304500D01*
X88508413Y-74284815D01*
X88487771Y-74268181D01*
X88033819Y-73814228D01*
X88000334Y-73752905D01*
X87997500Y-73726547D01*
X87997500Y-73699569D01*
X87999224Y-73683949D01*
X87998939Y-73683923D01*
X87999671Y-73676167D01*
X87999673Y-73676160D01*
X87997500Y-73607012D01*
X87997500Y-73577477D01*
X87996631Y-73570599D01*
X87996172Y-73564770D01*
X87994709Y-73518199D01*
X87989122Y-73498971D01*
X87985174Y-73479911D01*
X87982664Y-73460035D01*
X87982663Y-73460033D01*
X87982663Y-73460031D01*
X87965512Y-73416714D01*
X87963619Y-73411185D01*
X87950618Y-73366436D01*
X87950616Y-73366433D01*
X87940423Y-73349198D01*
X87931861Y-73331721D01*
X87924487Y-73313097D01*
X87920271Y-73307294D01*
X87897079Y-73275372D01*
X87893888Y-73270513D01*
X87890379Y-73264580D01*
X87870170Y-73230407D01*
X87870168Y-73230405D01*
X87870165Y-73230401D01*
X87856006Y-73216242D01*
X87843368Y-73201446D01*
X87839473Y-73196085D01*
X87831594Y-73185240D01*
X87821290Y-73176716D01*
X87795688Y-73155536D01*
X87791376Y-73151613D01*
X84255245Y-69615481D01*
X84221760Y-69554158D01*
X84226744Y-69484466D01*
X84268616Y-69428533D01*
X84334080Y-69404116D01*
X84342926Y-69403800D01*
X84429048Y-69403800D01*
X84496087Y-69423485D01*
G37*
%TD.AperFunction*%
%TA.AperFunction,Conductor*%
G36*
X83361760Y-70495185D02*
G01*
X83382402Y-70511819D01*
X85767104Y-72896522D01*
X85800589Y-72957845D01*
X85795605Y-73027537D01*
X85753733Y-73083470D01*
X85692026Y-73107561D01*
X85619204Y-73115000D01*
X85619202Y-73115001D01*
X85492678Y-73156927D01*
X85422849Y-73159329D01*
X85365993Y-73126902D01*
X84406203Y-72167112D01*
X84396380Y-72154850D01*
X84396159Y-72155034D01*
X84391186Y-72149023D01*
X84388925Y-72146900D01*
X84340764Y-72101673D01*
X84330319Y-72091228D01*
X84319875Y-72080783D01*
X84314386Y-72076525D01*
X84309961Y-72072747D01*
X84275982Y-72040838D01*
X84275980Y-72040836D01*
X84275977Y-72040835D01*
X84258429Y-72031188D01*
X84242163Y-72020504D01*
X84234499Y-72014559D01*
X84226336Y-72008227D01*
X84226335Y-72008226D01*
X84226333Y-72008225D01*
X84183568Y-71989718D01*
X84178322Y-71987148D01*
X84137493Y-71964703D01*
X84137492Y-71964702D01*
X84118093Y-71959722D01*
X84099681Y-71953418D01*
X84081298Y-71945462D01*
X84081292Y-71945460D01*
X84035274Y-71938172D01*
X84029552Y-71936987D01*
X83984421Y-71925400D01*
X83984419Y-71925400D01*
X83964384Y-71925400D01*
X83944986Y-71923873D01*
X83937562Y-71922697D01*
X83925205Y-71920740D01*
X83925204Y-71920740D01*
X83878816Y-71925125D01*
X83872978Y-71925400D01*
X78182500Y-71925400D01*
X78115461Y-71905715D01*
X78069706Y-71852911D01*
X78058500Y-71801400D01*
X78058499Y-70599500D01*
X78078184Y-70532461D01*
X78130987Y-70486706D01*
X78182499Y-70475500D01*
X83294721Y-70475500D01*
X83361760Y-70495185D01*
G37*
%TD.AperFunction*%
%TA.AperFunction,Conductor*%
G36*
X102736887Y-64857885D02*
G01*
X102757529Y-64874519D01*
X104700828Y-66817819D01*
X104734313Y-66879142D01*
X104729329Y-66948834D01*
X104687457Y-67004767D01*
X104621993Y-67029184D01*
X104613147Y-67029500D01*
X102719129Y-67029500D01*
X102719123Y-67029501D01*
X102659516Y-67035908D01*
X102524671Y-67086202D01*
X102524664Y-67086206D01*
X102409455Y-67172452D01*
X102409452Y-67172455D01*
X102323206Y-67287664D01*
X102323202Y-67287671D01*
X102272908Y-67422517D01*
X102266501Y-67482116D01*
X102266500Y-67482135D01*
X102266500Y-68336699D01*
X102246815Y-68403738D01*
X102196418Y-68447406D01*
X102196422Y-68447413D01*
X102196388Y-68447432D01*
X102194011Y-68449493D01*
X102191751Y-68450499D01*
X102189708Y-68451383D01*
X102172466Y-68461579D01*
X102155005Y-68470133D01*
X102136374Y-68477510D01*
X102136362Y-68477517D01*
X102098670Y-68504902D01*
X102093787Y-68508109D01*
X102053680Y-68531829D01*
X102039514Y-68545995D01*
X102024724Y-68558627D01*
X102008514Y-68570404D01*
X102008511Y-68570407D01*
X101978810Y-68606309D01*
X101974877Y-68610631D01*
X99746328Y-70839181D01*
X99685005Y-70872666D01*
X99658647Y-70875500D01*
X98202500Y-70875500D01*
X98135461Y-70855815D01*
X98089706Y-70803011D01*
X98078500Y-70751500D01*
X98078500Y-70650304D01*
X98075598Y-70613432D01*
X98075597Y-70613426D01*
X98034534Y-70472088D01*
X98029744Y-70455602D01*
X97972023Y-70358000D01*
X97946084Y-70314139D01*
X97941301Y-70307974D01*
X97943745Y-70306077D01*
X97917142Y-70257358D01*
X97922126Y-70187666D01*
X97942932Y-70155291D01*
X97941301Y-70154026D01*
X97946077Y-70147868D01*
X97946081Y-70147865D01*
X98029744Y-70006398D01*
X98075598Y-69848569D01*
X98078500Y-69811694D01*
X98078500Y-69380306D01*
X98075598Y-69343431D01*
X98029744Y-69185602D01*
X97946081Y-69044135D01*
X97946079Y-69044133D01*
X97946076Y-69044129D01*
X97829870Y-68927923D01*
X97829862Y-68927917D01*
X97697201Y-68849462D01*
X97688398Y-68844256D01*
X97688397Y-68844255D01*
X97688396Y-68844255D01*
X97688393Y-68844254D01*
X97530573Y-68798402D01*
X97530567Y-68798401D01*
X97493696Y-68795500D01*
X97493694Y-68795500D01*
X97077500Y-68795500D01*
X97010461Y-68775815D01*
X96964706Y-68723011D01*
X96953500Y-68671500D01*
X96953500Y-67643252D01*
X96973185Y-67576213D01*
X96989819Y-67555571D01*
X97301672Y-67243719D01*
X97362995Y-67210234D01*
X97389353Y-67207400D01*
X97465153Y-67207400D01*
X97488385Y-67209596D01*
X97489989Y-67209901D01*
X97496412Y-67211127D01*
X97553724Y-67207521D01*
X97557597Y-67207400D01*
X97575342Y-67207400D01*
X97575350Y-67207400D01*
X97592990Y-67205171D01*
X97596807Y-67204810D01*
X97654138Y-67201204D01*
X97661905Y-67198680D01*
X97684680Y-67193588D01*
X97692792Y-67192564D01*
X97746195Y-67171419D01*
X97749835Y-67170109D01*
X97804441Y-67152367D01*
X97811337Y-67147990D01*
X97832133Y-67137394D01*
X97839732Y-67134386D01*
X97886191Y-67100630D01*
X97889390Y-67098455D01*
X97937877Y-67067686D01*
X97943466Y-67061733D01*
X97960979Y-67046294D01*
X97967587Y-67041494D01*
X98004190Y-66997247D01*
X98006736Y-66994357D01*
X98046062Y-66952482D01*
X98049998Y-66945321D01*
X98063119Y-66926014D01*
X98068324Y-66919723D01*
X98092769Y-66867774D01*
X98094528Y-66864319D01*
X98122197Y-66813992D01*
X98124227Y-66806081D01*
X98132135Y-66784118D01*
X98135614Y-66776726D01*
X98146377Y-66720301D01*
X98147210Y-66716570D01*
X98161500Y-66660919D01*
X98161500Y-66660916D01*
X98163440Y-66653361D01*
X98166026Y-66654025D01*
X98188788Y-66601789D01*
X98212781Y-66579769D01*
X98213827Y-66579036D01*
X98213830Y-66579035D01*
X98407401Y-66443495D01*
X98574495Y-66276401D01*
X98710035Y-66082830D01*
X98809903Y-65868663D01*
X98871063Y-65640408D01*
X98891659Y-65405000D01*
X98887930Y-65362384D01*
X98882179Y-65296647D01*
X98871063Y-65169592D01*
X98832936Y-65027297D01*
X98824093Y-64994293D01*
X98825756Y-64924443D01*
X98864919Y-64866581D01*
X98929148Y-64839077D01*
X98943868Y-64838200D01*
X102669848Y-64838200D01*
X102736887Y-64857885D01*
G37*
%TD.AperFunction*%
%TA.AperFunction,Conductor*%
G36*
X75676524Y-64857885D02*
G01*
X75722279Y-64910689D01*
X75732223Y-64979847D01*
X75715023Y-65027298D01*
X75688144Y-65070873D01*
X75688141Y-65070880D01*
X75632994Y-65237302D01*
X75632993Y-65237309D01*
X75622500Y-65340013D01*
X75622500Y-65790000D01*
X77947499Y-65790000D01*
X77947499Y-65340028D01*
X77947498Y-65340013D01*
X77937005Y-65237302D01*
X77881858Y-65070880D01*
X77881855Y-65070873D01*
X77854977Y-65027298D01*
X77836536Y-64959905D01*
X77857458Y-64893242D01*
X77911100Y-64848472D01*
X77960515Y-64838200D01*
X83362000Y-64838200D01*
X83429039Y-64857885D01*
X83474794Y-64910689D01*
X83486000Y-64962200D01*
X83486000Y-65155000D01*
X84222653Y-65155000D01*
X84289692Y-65174685D01*
X84335447Y-65227489D01*
X84345391Y-65296647D01*
X84341631Y-65313933D01*
X84336000Y-65333111D01*
X84336000Y-65476889D01*
X84339856Y-65490022D01*
X84341631Y-65496067D01*
X84341630Y-65565936D01*
X84303855Y-65624714D01*
X84240299Y-65653738D01*
X84222653Y-65655000D01*
X83486000Y-65655000D01*
X83486000Y-66302844D01*
X83492401Y-66362372D01*
X83492403Y-66362379D01*
X83542645Y-66497086D01*
X83542647Y-66497090D01*
X83551554Y-66508987D01*
X83575973Y-66574451D01*
X83561123Y-66642724D01*
X83511719Y-66692131D01*
X83452289Y-66707300D01*
X78071500Y-66707300D01*
X78004461Y-66687615D01*
X77958706Y-66634811D01*
X77947500Y-66583300D01*
X77947500Y-66290000D01*
X75622501Y-66290000D01*
X75622501Y-66583300D01*
X75602816Y-66650339D01*
X75550012Y-66696094D01*
X75498501Y-66707300D01*
X75263253Y-66707300D01*
X75196214Y-66687615D01*
X75175572Y-66670981D01*
X74859318Y-66354727D01*
X74825833Y-66293404D01*
X74822999Y-66267046D01*
X74822999Y-65339998D01*
X74822998Y-65339981D01*
X74812499Y-65237203D01*
X74812498Y-65237200D01*
X74798566Y-65195156D01*
X74757314Y-65070666D01*
X74757310Y-65070660D01*
X74757309Y-65070657D01*
X74730564Y-65027297D01*
X74712123Y-64959905D01*
X74733045Y-64893241D01*
X74786687Y-64848472D01*
X74836102Y-64838200D01*
X75609485Y-64838200D01*
X75676524Y-64857885D01*
G37*
%TD.AperFunction*%
%TD*%
M02*
