%TF.GenerationSoftware,KiCad,Pcbnew,7.0.7*%
%TF.CreationDate,2024-12-30T17:22:27+01:00*%
%TF.ProjectId,Movement5037,4d6f7665-6d65-46e7-9435-3033372e6b69,rev?*%
%TF.SameCoordinates,Original*%
%TF.FileFunction,Legend,Bot*%
%TF.FilePolarity,Positive*%
%FSLAX46Y46*%
G04 Gerber Fmt 4.6, Leading zero omitted, Abs format (unit mm)*
G04 Created by KiCad (PCBNEW 7.0.7) date 2024-12-30 17:22:27*
%MOMM*%
%LPD*%
G01*
G04 APERTURE LIST*
%ADD10C,0.150000*%
%ADD11C,0.120000*%
%ADD12C,0.100000*%
G04 APERTURE END LIST*
D10*
X72434220Y-91690866D02*
X71672316Y-91690866D01*
X72053268Y-92071819D02*
X72053268Y-91309914D01*
X70719935Y-91071819D02*
X71196125Y-91071819D01*
X71196125Y-91071819D02*
X71243744Y-91548009D01*
X71243744Y-91548009D02*
X71196125Y-91500390D01*
X71196125Y-91500390D02*
X71100887Y-91452771D01*
X71100887Y-91452771D02*
X70862792Y-91452771D01*
X70862792Y-91452771D02*
X70767554Y-91500390D01*
X70767554Y-91500390D02*
X70719935Y-91548009D01*
X70719935Y-91548009D02*
X70672316Y-91643247D01*
X70672316Y-91643247D02*
X70672316Y-91881342D01*
X70672316Y-91881342D02*
X70719935Y-91976580D01*
X70719935Y-91976580D02*
X70767554Y-92024200D01*
X70767554Y-92024200D02*
X70862792Y-92071819D01*
X70862792Y-92071819D02*
X71100887Y-92071819D01*
X71100887Y-92071819D02*
X71196125Y-92024200D01*
X71196125Y-92024200D02*
X71243744Y-91976580D01*
X70386601Y-91071819D02*
X70053268Y-92071819D01*
X70053268Y-92071819D02*
X69719935Y-91071819D01*
X78387411Y-91119438D02*
X78482649Y-91071819D01*
X78482649Y-91071819D02*
X78625506Y-91071819D01*
X78625506Y-91071819D02*
X78768363Y-91119438D01*
X78768363Y-91119438D02*
X78863601Y-91214676D01*
X78863601Y-91214676D02*
X78911220Y-91309914D01*
X78911220Y-91309914D02*
X78958839Y-91500390D01*
X78958839Y-91500390D02*
X78958839Y-91643247D01*
X78958839Y-91643247D02*
X78911220Y-91833723D01*
X78911220Y-91833723D02*
X78863601Y-91928961D01*
X78863601Y-91928961D02*
X78768363Y-92024200D01*
X78768363Y-92024200D02*
X78625506Y-92071819D01*
X78625506Y-92071819D02*
X78530268Y-92071819D01*
X78530268Y-92071819D02*
X78387411Y-92024200D01*
X78387411Y-92024200D02*
X78339792Y-91976580D01*
X78339792Y-91976580D02*
X78339792Y-91643247D01*
X78339792Y-91643247D02*
X78530268Y-91643247D01*
X77911220Y-92071819D02*
X77911220Y-91071819D01*
X77911220Y-91071819D02*
X77339792Y-92071819D01*
X77339792Y-92071819D02*
X77339792Y-91071819D01*
X76863601Y-92071819D02*
X76863601Y-91071819D01*
X76863601Y-91071819D02*
X76625506Y-91071819D01*
X76625506Y-91071819D02*
X76482649Y-91119438D01*
X76482649Y-91119438D02*
X76387411Y-91214676D01*
X76387411Y-91214676D02*
X76339792Y-91309914D01*
X76339792Y-91309914D02*
X76292173Y-91500390D01*
X76292173Y-91500390D02*
X76292173Y-91643247D01*
X76292173Y-91643247D02*
X76339792Y-91833723D01*
X76339792Y-91833723D02*
X76387411Y-91928961D01*
X76387411Y-91928961D02*
X76482649Y-92024200D01*
X76482649Y-92024200D02*
X76625506Y-92071819D01*
X76625506Y-92071819D02*
X76863601Y-92071819D01*
X91360094Y-74262819D02*
X90788666Y-74262819D01*
X91074380Y-75262819D02*
X91074380Y-74262819D01*
X90312475Y-75262819D02*
X90407713Y-75215200D01*
X90407713Y-75215200D02*
X90455332Y-75167580D01*
X90455332Y-75167580D02*
X90502951Y-75072342D01*
X90502951Y-75072342D02*
X90502951Y-74786628D01*
X90502951Y-74786628D02*
X90455332Y-74691390D01*
X90455332Y-74691390D02*
X90407713Y-74643771D01*
X90407713Y-74643771D02*
X90312475Y-74596152D01*
X90312475Y-74596152D02*
X90169618Y-74596152D01*
X90169618Y-74596152D02*
X90074380Y-74643771D01*
X90074380Y-74643771D02*
X90026761Y-74691390D01*
X90026761Y-74691390D02*
X89979142Y-74786628D01*
X89979142Y-74786628D02*
X89979142Y-75072342D01*
X89979142Y-75072342D02*
X90026761Y-75167580D01*
X90026761Y-75167580D02*
X90074380Y-75215200D01*
X90074380Y-75215200D02*
X90169618Y-75262819D01*
X90169618Y-75262819D02*
X90312475Y-75262819D01*
X89550570Y-75262819D02*
X89550570Y-74262819D01*
X89455332Y-74881866D02*
X89169618Y-75262819D01*
X89169618Y-74596152D02*
X89550570Y-74977104D01*
X88360094Y-75215200D02*
X88455332Y-75262819D01*
X88455332Y-75262819D02*
X88645808Y-75262819D01*
X88645808Y-75262819D02*
X88741046Y-75215200D01*
X88741046Y-75215200D02*
X88788665Y-75119961D01*
X88788665Y-75119961D02*
X88788665Y-74739009D01*
X88788665Y-74739009D02*
X88741046Y-74643771D01*
X88741046Y-74643771D02*
X88645808Y-74596152D01*
X88645808Y-74596152D02*
X88455332Y-74596152D01*
X88455332Y-74596152D02*
X88360094Y-74643771D01*
X88360094Y-74643771D02*
X88312475Y-74739009D01*
X88312475Y-74739009D02*
X88312475Y-74834247D01*
X88312475Y-74834247D02*
X88788665Y-74929485D01*
X87883903Y-75262819D02*
X87883903Y-74596152D01*
X87883903Y-74262819D02*
X87931522Y-74310438D01*
X87931522Y-74310438D02*
X87883903Y-74358057D01*
X87883903Y-74358057D02*
X87836284Y-74310438D01*
X87836284Y-74310438D02*
X87883903Y-74262819D01*
X87883903Y-74262819D02*
X87883903Y-74358057D01*
X87407713Y-75262819D02*
X87407713Y-74262819D01*
X87407713Y-74262819D02*
X87169618Y-74262819D01*
X87169618Y-74262819D02*
X87026761Y-74310438D01*
X87026761Y-74310438D02*
X86931523Y-74405676D01*
X86931523Y-74405676D02*
X86883904Y-74500914D01*
X86883904Y-74500914D02*
X86836285Y-74691390D01*
X86836285Y-74691390D02*
X86836285Y-74834247D01*
X86836285Y-74834247D02*
X86883904Y-75024723D01*
X86883904Y-75024723D02*
X86931523Y-75119961D01*
X86931523Y-75119961D02*
X87026761Y-75215200D01*
X87026761Y-75215200D02*
X87169618Y-75262819D01*
X87169618Y-75262819D02*
X87407713Y-75262819D01*
X86407713Y-75262819D02*
X86407713Y-74596152D01*
X86407713Y-74262819D02*
X86455332Y-74310438D01*
X86455332Y-74310438D02*
X86407713Y-74358057D01*
X86407713Y-74358057D02*
X86360094Y-74310438D01*
X86360094Y-74310438D02*
X86407713Y-74262819D01*
X86407713Y-74262819D02*
X86407713Y-74358057D01*
X85502952Y-74596152D02*
X85502952Y-75405676D01*
X85502952Y-75405676D02*
X85550571Y-75500914D01*
X85550571Y-75500914D02*
X85598190Y-75548533D01*
X85598190Y-75548533D02*
X85693428Y-75596152D01*
X85693428Y-75596152D02*
X85836285Y-75596152D01*
X85836285Y-75596152D02*
X85931523Y-75548533D01*
X85502952Y-75215200D02*
X85598190Y-75262819D01*
X85598190Y-75262819D02*
X85788666Y-75262819D01*
X85788666Y-75262819D02*
X85883904Y-75215200D01*
X85883904Y-75215200D02*
X85931523Y-75167580D01*
X85931523Y-75167580D02*
X85979142Y-75072342D01*
X85979142Y-75072342D02*
X85979142Y-74786628D01*
X85979142Y-74786628D02*
X85931523Y-74691390D01*
X85931523Y-74691390D02*
X85883904Y-74643771D01*
X85883904Y-74643771D02*
X85788666Y-74596152D01*
X85788666Y-74596152D02*
X85598190Y-74596152D01*
X85598190Y-74596152D02*
X85502952Y-74643771D01*
X85026761Y-75262819D02*
X85026761Y-74596152D01*
X85026761Y-74262819D02*
X85074380Y-74310438D01*
X85074380Y-74310438D02*
X85026761Y-74358057D01*
X85026761Y-74358057D02*
X84979142Y-74310438D01*
X84979142Y-74310438D02*
X85026761Y-74262819D01*
X85026761Y-74262819D02*
X85026761Y-74358057D01*
X84693428Y-74596152D02*
X84312476Y-74596152D01*
X84550571Y-74262819D02*
X84550571Y-75119961D01*
X84550571Y-75119961D02*
X84502952Y-75215200D01*
X84502952Y-75215200D02*
X84407714Y-75262819D01*
X84407714Y-75262819D02*
X84312476Y-75262819D01*
X83550571Y-75262819D02*
X83550571Y-74739009D01*
X83550571Y-74739009D02*
X83598190Y-74643771D01*
X83598190Y-74643771D02*
X83693428Y-74596152D01*
X83693428Y-74596152D02*
X83883904Y-74596152D01*
X83883904Y-74596152D02*
X83979142Y-74643771D01*
X83550571Y-75215200D02*
X83645809Y-75262819D01*
X83645809Y-75262819D02*
X83883904Y-75262819D01*
X83883904Y-75262819D02*
X83979142Y-75215200D01*
X83979142Y-75215200D02*
X84026761Y-75119961D01*
X84026761Y-75119961D02*
X84026761Y-75024723D01*
X84026761Y-75024723D02*
X83979142Y-74929485D01*
X83979142Y-74929485D02*
X83883904Y-74881866D01*
X83883904Y-74881866D02*
X83645809Y-74881866D01*
X83645809Y-74881866D02*
X83550571Y-74834247D01*
X82931523Y-75262819D02*
X83026761Y-75215200D01*
X83026761Y-75215200D02*
X83074380Y-75119961D01*
X83074380Y-75119961D02*
X83074380Y-74262819D01*
X92836285Y-76872819D02*
X92836285Y-75872819D01*
X92836285Y-75872819D02*
X92502952Y-76587104D01*
X92502952Y-76587104D02*
X92169619Y-75872819D01*
X92169619Y-75872819D02*
X92169619Y-76872819D01*
X91550571Y-76872819D02*
X91645809Y-76825200D01*
X91645809Y-76825200D02*
X91693428Y-76777580D01*
X91693428Y-76777580D02*
X91741047Y-76682342D01*
X91741047Y-76682342D02*
X91741047Y-76396628D01*
X91741047Y-76396628D02*
X91693428Y-76301390D01*
X91693428Y-76301390D02*
X91645809Y-76253771D01*
X91645809Y-76253771D02*
X91550571Y-76206152D01*
X91550571Y-76206152D02*
X91407714Y-76206152D01*
X91407714Y-76206152D02*
X91312476Y-76253771D01*
X91312476Y-76253771D02*
X91264857Y-76301390D01*
X91264857Y-76301390D02*
X91217238Y-76396628D01*
X91217238Y-76396628D02*
X91217238Y-76682342D01*
X91217238Y-76682342D02*
X91264857Y-76777580D01*
X91264857Y-76777580D02*
X91312476Y-76825200D01*
X91312476Y-76825200D02*
X91407714Y-76872819D01*
X91407714Y-76872819D02*
X91550571Y-76872819D01*
X90883904Y-76206152D02*
X90645809Y-76872819D01*
X90645809Y-76872819D02*
X90407714Y-76206152D01*
X89645809Y-76825200D02*
X89741047Y-76872819D01*
X89741047Y-76872819D02*
X89931523Y-76872819D01*
X89931523Y-76872819D02*
X90026761Y-76825200D01*
X90026761Y-76825200D02*
X90074380Y-76729961D01*
X90074380Y-76729961D02*
X90074380Y-76349009D01*
X90074380Y-76349009D02*
X90026761Y-76253771D01*
X90026761Y-76253771D02*
X89931523Y-76206152D01*
X89931523Y-76206152D02*
X89741047Y-76206152D01*
X89741047Y-76206152D02*
X89645809Y-76253771D01*
X89645809Y-76253771D02*
X89598190Y-76349009D01*
X89598190Y-76349009D02*
X89598190Y-76444247D01*
X89598190Y-76444247D02*
X90074380Y-76539485D01*
X89169618Y-76872819D02*
X89169618Y-76206152D01*
X89169618Y-76301390D02*
X89121999Y-76253771D01*
X89121999Y-76253771D02*
X89026761Y-76206152D01*
X89026761Y-76206152D02*
X88883904Y-76206152D01*
X88883904Y-76206152D02*
X88788666Y-76253771D01*
X88788666Y-76253771D02*
X88741047Y-76349009D01*
X88741047Y-76349009D02*
X88741047Y-76872819D01*
X88741047Y-76349009D02*
X88693428Y-76253771D01*
X88693428Y-76253771D02*
X88598190Y-76206152D01*
X88598190Y-76206152D02*
X88455333Y-76206152D01*
X88455333Y-76206152D02*
X88360094Y-76253771D01*
X88360094Y-76253771D02*
X88312475Y-76349009D01*
X88312475Y-76349009D02*
X88312475Y-76872819D01*
X87455333Y-76825200D02*
X87550571Y-76872819D01*
X87550571Y-76872819D02*
X87741047Y-76872819D01*
X87741047Y-76872819D02*
X87836285Y-76825200D01*
X87836285Y-76825200D02*
X87883904Y-76729961D01*
X87883904Y-76729961D02*
X87883904Y-76349009D01*
X87883904Y-76349009D02*
X87836285Y-76253771D01*
X87836285Y-76253771D02*
X87741047Y-76206152D01*
X87741047Y-76206152D02*
X87550571Y-76206152D01*
X87550571Y-76206152D02*
X87455333Y-76253771D01*
X87455333Y-76253771D02*
X87407714Y-76349009D01*
X87407714Y-76349009D02*
X87407714Y-76444247D01*
X87407714Y-76444247D02*
X87883904Y-76539485D01*
X86979142Y-76206152D02*
X86979142Y-76872819D01*
X86979142Y-76301390D02*
X86931523Y-76253771D01*
X86931523Y-76253771D02*
X86836285Y-76206152D01*
X86836285Y-76206152D02*
X86693428Y-76206152D01*
X86693428Y-76206152D02*
X86598190Y-76253771D01*
X86598190Y-76253771D02*
X86550571Y-76349009D01*
X86550571Y-76349009D02*
X86550571Y-76872819D01*
X86217237Y-76206152D02*
X85836285Y-76206152D01*
X86074380Y-75872819D02*
X86074380Y-76729961D01*
X86074380Y-76729961D02*
X86026761Y-76825200D01*
X86026761Y-76825200D02*
X85931523Y-76872819D01*
X85931523Y-76872819D02*
X85836285Y-76872819D01*
X84264856Y-75872819D02*
X84741046Y-75872819D01*
X84741046Y-75872819D02*
X84788665Y-76349009D01*
X84788665Y-76349009D02*
X84741046Y-76301390D01*
X84741046Y-76301390D02*
X84645808Y-76253771D01*
X84645808Y-76253771D02*
X84407713Y-76253771D01*
X84407713Y-76253771D02*
X84312475Y-76301390D01*
X84312475Y-76301390D02*
X84264856Y-76349009D01*
X84264856Y-76349009D02*
X84217237Y-76444247D01*
X84217237Y-76444247D02*
X84217237Y-76682342D01*
X84217237Y-76682342D02*
X84264856Y-76777580D01*
X84264856Y-76777580D02*
X84312475Y-76825200D01*
X84312475Y-76825200D02*
X84407713Y-76872819D01*
X84407713Y-76872819D02*
X84645808Y-76872819D01*
X84645808Y-76872819D02*
X84741046Y-76825200D01*
X84741046Y-76825200D02*
X84788665Y-76777580D01*
X83598189Y-75872819D02*
X83502951Y-75872819D01*
X83502951Y-75872819D02*
X83407713Y-75920438D01*
X83407713Y-75920438D02*
X83360094Y-75968057D01*
X83360094Y-75968057D02*
X83312475Y-76063295D01*
X83312475Y-76063295D02*
X83264856Y-76253771D01*
X83264856Y-76253771D02*
X83264856Y-76491866D01*
X83264856Y-76491866D02*
X83312475Y-76682342D01*
X83312475Y-76682342D02*
X83360094Y-76777580D01*
X83360094Y-76777580D02*
X83407713Y-76825200D01*
X83407713Y-76825200D02*
X83502951Y-76872819D01*
X83502951Y-76872819D02*
X83598189Y-76872819D01*
X83598189Y-76872819D02*
X83693427Y-76825200D01*
X83693427Y-76825200D02*
X83741046Y-76777580D01*
X83741046Y-76777580D02*
X83788665Y-76682342D01*
X83788665Y-76682342D02*
X83836284Y-76491866D01*
X83836284Y-76491866D02*
X83836284Y-76253771D01*
X83836284Y-76253771D02*
X83788665Y-76063295D01*
X83788665Y-76063295D02*
X83741046Y-75968057D01*
X83741046Y-75968057D02*
X83693427Y-75920438D01*
X83693427Y-75920438D02*
X83598189Y-75872819D01*
X82931522Y-75872819D02*
X82312475Y-75872819D01*
X82312475Y-75872819D02*
X82645808Y-76253771D01*
X82645808Y-76253771D02*
X82502951Y-76253771D01*
X82502951Y-76253771D02*
X82407713Y-76301390D01*
X82407713Y-76301390D02*
X82360094Y-76349009D01*
X82360094Y-76349009D02*
X82312475Y-76444247D01*
X82312475Y-76444247D02*
X82312475Y-76682342D01*
X82312475Y-76682342D02*
X82360094Y-76777580D01*
X82360094Y-76777580D02*
X82407713Y-76825200D01*
X82407713Y-76825200D02*
X82502951Y-76872819D01*
X82502951Y-76872819D02*
X82788665Y-76872819D01*
X82788665Y-76872819D02*
X82883903Y-76825200D01*
X82883903Y-76825200D02*
X82931522Y-76777580D01*
X81979141Y-75872819D02*
X81312475Y-75872819D01*
X81312475Y-75872819D02*
X81741046Y-76872819D01*
X88360095Y-78482819D02*
X88693428Y-78006628D01*
X88931523Y-78482819D02*
X88931523Y-77482819D01*
X88931523Y-77482819D02*
X88550571Y-77482819D01*
X88550571Y-77482819D02*
X88455333Y-77530438D01*
X88455333Y-77530438D02*
X88407714Y-77578057D01*
X88407714Y-77578057D02*
X88360095Y-77673295D01*
X88360095Y-77673295D02*
X88360095Y-77816152D01*
X88360095Y-77816152D02*
X88407714Y-77911390D01*
X88407714Y-77911390D02*
X88455333Y-77959009D01*
X88455333Y-77959009D02*
X88550571Y-78006628D01*
X88550571Y-78006628D02*
X88931523Y-78006628D01*
X87931523Y-77959009D02*
X87598190Y-77959009D01*
X87455333Y-78482819D02*
X87931523Y-78482819D01*
X87931523Y-78482819D02*
X87931523Y-77482819D01*
X87931523Y-77482819D02*
X87455333Y-77482819D01*
X87169618Y-77482819D02*
X86836285Y-78482819D01*
X86836285Y-78482819D02*
X86502952Y-77482819D01*
X86169618Y-78387580D02*
X86121999Y-78435200D01*
X86121999Y-78435200D02*
X86169618Y-78482819D01*
X86169618Y-78482819D02*
X86217237Y-78435200D01*
X86217237Y-78435200D02*
X86169618Y-78387580D01*
X86169618Y-78387580D02*
X86169618Y-78482819D01*
X85741047Y-78197104D02*
X85264857Y-78197104D01*
X85836285Y-78482819D02*
X85502952Y-77482819D01*
X85502952Y-77482819D02*
X85169619Y-78482819D01*
X70783220Y-71132819D02*
X70783220Y-71942342D01*
X70783220Y-71942342D02*
X70735601Y-72037580D01*
X70735601Y-72037580D02*
X70687982Y-72085200D01*
X70687982Y-72085200D02*
X70592744Y-72132819D01*
X70592744Y-72132819D02*
X70402268Y-72132819D01*
X70402268Y-72132819D02*
X70307030Y-72085200D01*
X70307030Y-72085200D02*
X70259411Y-72037580D01*
X70259411Y-72037580D02*
X70211792Y-71942342D01*
X70211792Y-71942342D02*
X70211792Y-71132819D01*
X69783220Y-71847104D02*
X69307030Y-71847104D01*
X69878458Y-72132819D02*
X69545125Y-71132819D01*
X69545125Y-71132819D02*
X69211792Y-72132819D01*
X68307030Y-72132819D02*
X68640363Y-71656628D01*
X68878458Y-72132819D02*
X68878458Y-71132819D01*
X68878458Y-71132819D02*
X68497506Y-71132819D01*
X68497506Y-71132819D02*
X68402268Y-71180438D01*
X68402268Y-71180438D02*
X68354649Y-71228057D01*
X68354649Y-71228057D02*
X68307030Y-71323295D01*
X68307030Y-71323295D02*
X68307030Y-71466152D01*
X68307030Y-71466152D02*
X68354649Y-71561390D01*
X68354649Y-71561390D02*
X68402268Y-71609009D01*
X68402268Y-71609009D02*
X68497506Y-71656628D01*
X68497506Y-71656628D02*
X68878458Y-71656628D01*
X68021315Y-71132819D02*
X67449887Y-71132819D01*
X67735601Y-72132819D02*
X67735601Y-71132819D01*
X76879220Y-79244819D02*
X76879220Y-78244819D01*
X75831602Y-79149580D02*
X75879221Y-79197200D01*
X75879221Y-79197200D02*
X76022078Y-79244819D01*
X76022078Y-79244819D02*
X76117316Y-79244819D01*
X76117316Y-79244819D02*
X76260173Y-79197200D01*
X76260173Y-79197200D02*
X76355411Y-79101961D01*
X76355411Y-79101961D02*
X76403030Y-79006723D01*
X76403030Y-79006723D02*
X76450649Y-78816247D01*
X76450649Y-78816247D02*
X76450649Y-78673390D01*
X76450649Y-78673390D02*
X76403030Y-78482914D01*
X76403030Y-78482914D02*
X76355411Y-78387676D01*
X76355411Y-78387676D02*
X76260173Y-78292438D01*
X76260173Y-78292438D02*
X76117316Y-78244819D01*
X76117316Y-78244819D02*
X76022078Y-78244819D01*
X76022078Y-78244819D02*
X75879221Y-78292438D01*
X75879221Y-78292438D02*
X75831602Y-78340057D01*
X75450649Y-79197200D02*
X75307792Y-79244819D01*
X75307792Y-79244819D02*
X75069697Y-79244819D01*
X75069697Y-79244819D02*
X74974459Y-79197200D01*
X74974459Y-79197200D02*
X74926840Y-79149580D01*
X74926840Y-79149580D02*
X74879221Y-79054342D01*
X74879221Y-79054342D02*
X74879221Y-78959104D01*
X74879221Y-78959104D02*
X74926840Y-78863866D01*
X74926840Y-78863866D02*
X74974459Y-78816247D01*
X74974459Y-78816247D02*
X75069697Y-78768628D01*
X75069697Y-78768628D02*
X75260173Y-78721009D01*
X75260173Y-78721009D02*
X75355411Y-78673390D01*
X75355411Y-78673390D02*
X75403030Y-78625771D01*
X75403030Y-78625771D02*
X75450649Y-78530533D01*
X75450649Y-78530533D02*
X75450649Y-78435295D01*
X75450649Y-78435295D02*
X75403030Y-78340057D01*
X75403030Y-78340057D02*
X75355411Y-78292438D01*
X75355411Y-78292438D02*
X75260173Y-78244819D01*
X75260173Y-78244819D02*
X75022078Y-78244819D01*
X75022078Y-78244819D02*
X74879221Y-78292438D01*
X74450649Y-79244819D02*
X74450649Y-78244819D01*
X74450649Y-78244819D02*
X74069697Y-78244819D01*
X74069697Y-78244819D02*
X73974459Y-78292438D01*
X73974459Y-78292438D02*
X73926840Y-78340057D01*
X73926840Y-78340057D02*
X73879221Y-78435295D01*
X73879221Y-78435295D02*
X73879221Y-78578152D01*
X73879221Y-78578152D02*
X73926840Y-78673390D01*
X73926840Y-78673390D02*
X73974459Y-78721009D01*
X73974459Y-78721009D02*
X74069697Y-78768628D01*
X74069697Y-78768628D02*
X74450649Y-78768628D01*
X72850333Y-87338819D02*
X72850333Y-88053104D01*
X72850333Y-88053104D02*
X72897952Y-88195961D01*
X72897952Y-88195961D02*
X72993190Y-88291200D01*
X72993190Y-88291200D02*
X73136047Y-88338819D01*
X73136047Y-88338819D02*
X73231285Y-88338819D01*
X71945571Y-87338819D02*
X72136047Y-87338819D01*
X72136047Y-87338819D02*
X72231285Y-87386438D01*
X72231285Y-87386438D02*
X72278904Y-87434057D01*
X72278904Y-87434057D02*
X72374142Y-87576914D01*
X72374142Y-87576914D02*
X72421761Y-87767390D01*
X72421761Y-87767390D02*
X72421761Y-88148342D01*
X72421761Y-88148342D02*
X72374142Y-88243580D01*
X72374142Y-88243580D02*
X72326523Y-88291200D01*
X72326523Y-88291200D02*
X72231285Y-88338819D01*
X72231285Y-88338819D02*
X72040809Y-88338819D01*
X72040809Y-88338819D02*
X71945571Y-88291200D01*
X71945571Y-88291200D02*
X71897952Y-88243580D01*
X71897952Y-88243580D02*
X71850333Y-88148342D01*
X71850333Y-88148342D02*
X71850333Y-87910247D01*
X71850333Y-87910247D02*
X71897952Y-87815009D01*
X71897952Y-87815009D02*
X71945571Y-87767390D01*
X71945571Y-87767390D02*
X72040809Y-87719771D01*
X72040809Y-87719771D02*
X72231285Y-87719771D01*
X72231285Y-87719771D02*
X72326523Y-87767390D01*
X72326523Y-87767390D02*
X72374142Y-87815009D01*
X72374142Y-87815009D02*
X72421761Y-87910247D01*
X104198020Y-83444241D02*
X104245639Y-83587098D01*
X104245639Y-83587098D02*
X104293258Y-83634717D01*
X104293258Y-83634717D02*
X104388496Y-83682336D01*
X104388496Y-83682336D02*
X104531353Y-83682336D01*
X104531353Y-83682336D02*
X104626591Y-83634717D01*
X104626591Y-83634717D02*
X104674211Y-83587098D01*
X104674211Y-83587098D02*
X104721830Y-83491860D01*
X104721830Y-83491860D02*
X104721830Y-83110908D01*
X104721830Y-83110908D02*
X103721830Y-83110908D01*
X103721830Y-83110908D02*
X103721830Y-83444241D01*
X103721830Y-83444241D02*
X103769449Y-83539479D01*
X103769449Y-83539479D02*
X103817068Y-83587098D01*
X103817068Y-83587098D02*
X103912306Y-83634717D01*
X103912306Y-83634717D02*
X104007544Y-83634717D01*
X104007544Y-83634717D02*
X104102782Y-83587098D01*
X104102782Y-83587098D02*
X104150401Y-83539479D01*
X104150401Y-83539479D02*
X104198020Y-83444241D01*
X104198020Y-83444241D02*
X104198020Y-83110908D01*
X103721830Y-83968051D02*
X103721830Y-84539479D01*
X104721830Y-84253765D02*
X103721830Y-84253765D01*
X104721830Y-85396622D02*
X104721830Y-84825194D01*
X104721830Y-85110908D02*
X103721830Y-85110908D01*
X103721830Y-85110908D02*
X103864687Y-85015670D01*
X103864687Y-85015670D02*
X103959925Y-84920432D01*
X103959925Y-84920432D02*
X104007544Y-84825194D01*
X104381700Y-71208571D02*
X104381700Y-72351429D01*
X104953128Y-71780000D02*
X103810271Y-71780000D01*
X75644333Y-67145819D02*
X75644333Y-67860104D01*
X75644333Y-67860104D02*
X75691952Y-68002961D01*
X75691952Y-68002961D02*
X75787190Y-68098200D01*
X75787190Y-68098200D02*
X75930047Y-68145819D01*
X75930047Y-68145819D02*
X76025285Y-68145819D01*
X75263380Y-67145819D02*
X74596714Y-67145819D01*
X74596714Y-67145819D02*
X75025285Y-68145819D01*
D11*
%TO.C,J6*%
X69088000Y-73092000D02*
X67978000Y-73092000D01*
X67978000Y-73092000D02*
X67978000Y-74422000D01*
%TO.C,BT1*%
X107267000Y-66830000D02*
X101267000Y-66830000D01*
X107267000Y-66830000D02*
X107267000Y-72530000D01*
X101267000Y-66830000D02*
X101267000Y-72530000D01*
X100767000Y-73280000D02*
G75*
G03*
X101267000Y-72530000I-312500J750000D01*
G01*
X107267000Y-72530000D02*
G75*
G03*
X107767000Y-73280000I812500J0D01*
G01*
X104267000Y-95725670D02*
G75*
G03*
X107767000Y-73280001I11J11495714D01*
G01*
X100767000Y-73280000D02*
G75*
G03*
X104267000Y-95725671I3499989J-10949956D01*
G01*
%TO.C,J7*%
X78038000Y-77784000D02*
X72838000Y-77784000D01*
X78038000Y-72644000D02*
X78038000Y-77784000D01*
X78038000Y-72644000D02*
X75438000Y-72644000D01*
X78038000Y-71374000D02*
X78038000Y-70044000D01*
X78038000Y-70044000D02*
X76708000Y-70044000D01*
X75438000Y-72644000D02*
X75438000Y-70044000D01*
X75438000Y-70044000D02*
X72838000Y-70044000D01*
X72838000Y-70044000D02*
X72838000Y-77784000D01*
D12*
X78613000Y-69469000D02*
X72263000Y-69469000D01*
X72263000Y-69469000D02*
X72263000Y-72009000D01*
X72263000Y-72009000D02*
X78613000Y-72009000D01*
X78613000Y-72009000D02*
X78613000Y-69469000D01*
G36*
X78613000Y-69469000D02*
G01*
X72263000Y-69469000D01*
X72263000Y-72009000D01*
X78613000Y-72009000D01*
X78613000Y-69469000D01*
G37*
%TD*%
M02*
