M48
; DRILL file {KiCad 7.0.7} date Tue Oct 22 18:38:40 2024
; FORMAT={-:-/ absolute / inch / decimal}
; #@! TF.CreationDate,2024-10-22T18:38:40+02:00
; #@! TF.GenerationSoftware,Kicad,Pcbnew,7.0.7
; #@! TF.FileFunction,Plated,1,2,PTH
FMAT,2
INCH
; #@! TA.AperFunction,Plated,PTH,ViaDrill
T1C0.0157
; #@! TA.AperFunction,Plated,PTH,ComponentDrill
T2C0.0276
; #@! TA.AperFunction,Plated,PTH,ComponentDrill
T3C0.0394
%
G90
G05
T1
X5.4Y-4.55
X6.7426Y-2.5319
X6.85Y-2.875
X6.975Y-5.5
X7.475Y-4.575
X7.925Y-3.9
X8.025Y-3.65
X8.425Y-3.625
X8.425Y-5.475
T2
X5.1633Y-4.575
X5.2133Y-4.575
X5.2433Y-2.675
X5.245Y-3.628
X5.2633Y-4.575
X5.265Y-5.5
X5.2933Y-2.675
X5.295Y-3.628
X5.3133Y-4.575
X5.315Y-5.5
X5.3433Y-2.675
X5.345Y-3.628
X5.365Y-5.5
X5.3933Y-2.675
X5.395Y-3.628
X5.415Y-5.5
X5.52Y-4.575
X5.57Y-4.575
X5.62Y-4.575
X5.6633Y-2.675
X5.665Y-3.628
X5.67Y-4.575
X5.6883Y-5.5
X5.7133Y-2.675
X5.715Y-3.628
X5.7383Y-5.5
X5.7633Y-2.675
X5.765Y-3.628
X5.7883Y-5.5
X5.8133Y-2.675
X5.815Y-3.628
X5.8383Y-5.5
X5.865Y-4.575
X5.915Y-4.575
X5.965Y-4.575
X6.015Y-4.575
X6.19Y-5.5
X6.2133Y-2.675
X6.2133Y-4.575
X6.215Y-3.628
X6.24Y-5.5
X6.2633Y-2.675
X6.2633Y-4.575
X6.265Y-3.628
X6.29Y-5.5
X6.3133Y-2.675
X6.3133Y-4.575
X6.315Y-3.628
X6.34Y-5.5
X6.3633Y-2.675
X6.3633Y-4.575
X6.365Y-3.628
X6.5567Y-4.575
X6.6067Y-4.575
X6.6383Y-5.5
X6.6567Y-4.575
X6.6633Y-2.675
X6.665Y-3.628
X6.6883Y-5.5
X6.7067Y-4.575
X6.7133Y-2.675
X6.715Y-3.628
X6.7383Y-5.5
X6.7633Y-2.675
X6.765Y-3.628
X6.7883Y-5.5
X6.8133Y-2.675
X6.815Y-3.628
X6.913Y-1.65
X6.9133Y-4.575
X6.963Y-1.65
X6.9633Y-4.575
X7.013Y-1.65
X7.0133Y-4.575
X7.063Y-1.65
X7.0633Y-4.575
X7.1633Y-5.5
X7.1867Y-2.675
X7.1883Y-3.628
X7.2133Y-5.5
X7.2367Y-2.675
X7.2383Y-3.628
X7.2633Y-4.575
X7.2633Y-5.5
X7.2867Y-2.675
X7.2883Y-3.628
X7.3133Y-4.575
X7.3133Y-5.5
X7.3367Y-2.675
X7.3383Y-3.628
X7.3633Y-4.575
X7.4133Y-4.575
X7.6Y-4.575
X7.6Y-5.5
X7.6133Y-2.675
X7.615Y-3.628
X7.65Y-4.575
X7.65Y-5.5
X7.6633Y-2.675
X7.665Y-3.628
X7.7Y-4.575
X7.7Y-5.5
X7.7133Y-2.675
X7.715Y-3.628
X7.75Y-4.575
X7.75Y-5.5
X7.7633Y-2.675
X7.765Y-3.628
X7.95Y-4.575
X8.0Y-4.575
X8.05Y-4.575
X8.1Y-4.575
X8.1133Y-2.675
X8.115Y-3.628
X8.12Y-5.5
X8.1633Y-2.675
X8.165Y-3.628
X8.17Y-5.5
X8.2133Y-2.675
X8.215Y-3.628
X8.22Y-5.5
X8.2633Y-2.675
X8.265Y-3.628
X8.27Y-5.5
X8.3067Y-4.575
X8.3567Y-4.575
X8.4067Y-4.575
X8.4567Y-4.575
X8.57Y-5.5
X8.5883Y-2.675
X8.59Y-3.628
X8.62Y-5.5
X8.6383Y-2.675
X8.64Y-3.628
X8.64Y-4.575
X8.67Y-5.5
X8.6883Y-2.675
X8.69Y-3.628
X8.69Y-4.575
X8.72Y-5.5
X8.7383Y-2.675
X8.74Y-3.628
X8.74Y-4.575
X8.79Y-4.575
T3
X6.65Y-3.95
X6.7487Y-5.17
X6.75Y-3.95
X6.8487Y-5.17
X6.85Y-3.95
X6.9487Y-5.17
X6.95Y-3.95
X7.0487Y-5.17
X7.05Y-3.95
X7.1487Y-5.17
X7.15Y-3.95
T0
M30
