<?xml version="1.0" standalone="no"?>
 <!DOCTYPE svg PUBLIC "-//W3C//DTD SVG 1.1//EN" 
 "http://www.w3.org/Graphics/SVG/1.1/DTD/svg11.dtd"> 
<svg
  xmlns:svg="http://www.w3.org/2000/svg"
  xmlns="http://www.w3.org/2000/svg"
  xmlns:xlink="http://www.w3.org/1999/xlink"
  version="1.1"
  width="50.2412mm" height="37.1348mm" viewBox="0.0000 0.0000 50.2412 37.1348">
<title>SVG Image created as TD-M5037-F_Silkscreen.svg date 2025/01/21 15:50:10 </title>
  <desc>Image generated by PCBNEW </desc>
<g style="fill:#000000; fill-opacity:1.0000;stroke:#000000; stroke-opacity:1.0000;
stroke-linecap:round; stroke-linejoin:round;"
 transform="translate(0 0) scale(1 1)">
</g>
<g style="fill:#000000; fill-opacity:0.0; 
stroke:#000000; stroke-width:0.0000; stroke-opacity:1; 
stroke-linecap:round; stroke-linejoin:round;">
</g>
<g style="fill:#000000; fill-opacity:0.0; 
stroke:#000000; stroke-width:0.1500; stroke-opacity:1; 
stroke-linecap:round; stroke-linejoin:round;">
<text x="42.6840" y="31.0292"
textLength="8.9167" font-size="1.3333" lengthAdjust="spacingAndGlyphs"
text-anchor="middle" opacity="0">TokeiDigital</text>
<g class="stroked-text"><desc>TokeiDigital</desc>
<path d="M38.4459 29.8991
L39.0173 29.8991
" />
<path d="M38.7316 30.8991
L38.7316 29.8991
" />
<path d="M39.4935 30.8991
L39.3983 30.8514
" />
<path d="M39.3983 30.8514
L39.3507 30.8038
" />
<path d="M39.3507 30.8038
L39.3030 30.7086
" />
<path d="M39.3030 30.7086
L39.3030 30.4229
" />
<path d="M39.3030 30.4229
L39.3507 30.3276
" />
<path d="M39.3507 30.3276
L39.3983 30.2800
" />
<path d="M39.3983 30.2800
L39.4935 30.2324
" />
<path d="M39.4935 30.2324
L39.6364 30.2324
" />
<path d="M39.6364 30.2324
L39.7316 30.2800
" />
<path d="M39.7316 30.2800
L39.7792 30.3276
" />
<path d="M39.7792 30.3276
L39.8269 30.4229
" />
<path d="M39.8269 30.4229
L39.8269 30.7086
" />
<path d="M39.8269 30.7086
L39.7792 30.8038
" />
<path d="M39.7792 30.8038
L39.7316 30.8514
" />
<path d="M39.7316 30.8514
L39.6364 30.8991
" />
<path d="M39.6364 30.8991
L39.4935 30.8991
" />
<path d="M40.2554 30.8991
L40.2554 29.8991
" />
<path d="M40.3507 30.5181
L40.6364 30.8991
" />
<path d="M40.6364 30.2324
L40.2554 30.6134
" />
<path d="M41.4459 30.8514
L41.3507 30.8991
" />
<path d="M41.3507 30.8991
L41.1602 30.8991
" />
<path d="M41.1602 30.8991
L41.0650 30.8514
" />
<path d="M41.0650 30.8514
L41.0173 30.7562
" />
<path d="M41.0173 30.7562
L41.0173 30.3753
" />
<path d="M41.0173 30.3753
L41.0650 30.2800
" />
<path d="M41.0650 30.2800
L41.1602 30.2324
" />
<path d="M41.1602 30.2324
L41.3507 30.2324
" />
<path d="M41.3507 30.2324
L41.4459 30.2800
" />
<path d="M41.4459 30.2800
L41.4935 30.3753
" />
<path d="M41.4935 30.3753
L41.4935 30.4705
" />
<path d="M41.4935 30.4705
L41.0173 30.5657
" />
<path d="M41.9221 30.8991
L41.9221 30.2324
" />
<path d="M41.9221 29.8991
L41.8745 29.9467
" />
<path d="M41.8745 29.9467
L41.9221 29.9943
" />
<path d="M41.9221 29.9943
L41.9697 29.9467
" />
<path d="M41.9697 29.9467
L41.9221 29.8991
" />
<path d="M41.9221 29.8991
L41.9221 29.9943
" />
<path d="M42.3983 30.8991
L42.3983 29.8991
" />
<path d="M42.3983 29.8991
L42.6364 29.8991
" />
<path d="M42.6364 29.8991
L42.7792 29.9467
" />
<path d="M42.7792 29.9467
L42.8745 30.0419
" />
<path d="M42.8745 30.0419
L42.9221 30.1372
" />
<path d="M42.9221 30.1372
L42.9697 30.3276
" />
<path d="M42.9697 30.3276
L42.9697 30.4705
" />
<path d="M42.9697 30.4705
L42.9221 30.6610
" />
<path d="M42.9221 30.6610
L42.8745 30.7562
" />
<path d="M42.8745 30.7562
L42.7792 30.8514
" />
<path d="M42.7792 30.8514
L42.6364 30.8991
" />
<path d="M42.6364 30.8991
L42.3983 30.8991
" />
<path d="M43.3983 30.8991
L43.3983 30.2324
" />
<path d="M43.3983 29.8991
L43.3507 29.9467
" />
<path d="M43.3507 29.9467
L43.3983 29.9943
" />
<path d="M43.3983 29.9943
L43.4459 29.9467
" />
<path d="M43.4459 29.9467
L43.3983 29.8991
" />
<path d="M43.3983 29.8991
L43.3983 29.9943
" />
<path d="M44.3030 30.2324
L44.3030 31.0419
" />
<path d="M44.3030 31.0419
L44.2554 31.1372
" />
<path d="M44.2554 31.1372
L44.2078 31.1848
" />
<path d="M44.2078 31.1848
L44.1126 31.2324
" />
<path d="M44.1126 31.2324
L43.9697 31.2324
" />
<path d="M43.9697 31.2324
L43.8745 31.1848
" />
<path d="M44.3030 30.8514
L44.2078 30.8991
" />
<path d="M44.2078 30.8991
L44.0173 30.8991
" />
<path d="M44.0173 30.8991
L43.9221 30.8514
" />
<path d="M43.9221 30.8514
L43.8745 30.8038
" />
<path d="M43.8745 30.8038
L43.8269 30.7086
" />
<path d="M43.8269 30.7086
L43.8269 30.4229
" />
<path d="M43.8269 30.4229
L43.8745 30.3276
" />
<path d="M43.8745 30.3276
L43.9221 30.2800
" />
<path d="M43.9221 30.2800
L44.0173 30.2324
" />
<path d="M44.0173 30.2324
L44.2078 30.2324
" />
<path d="M44.2078 30.2324
L44.3030 30.2800
" />
<path d="M44.7792 30.8991
L44.7792 30.2324
" />
<path d="M44.7792 29.8991
L44.7316 29.9467
" />
<path d="M44.7316 29.9467
L44.7792 29.9943
" />
<path d="M44.7792 29.9943
L44.8269 29.9467
" />
<path d="M44.8269 29.9467
L44.7792 29.8991
" />
<path d="M44.7792 29.8991
L44.7792 29.9943
" />
<path d="M45.1126 30.2324
L45.4935 30.2324
" />
<path d="M45.2554 29.8991
L45.2554 30.7562
" />
<path d="M45.2554 30.7562
L45.3030 30.8514
" />
<path d="M45.3030 30.8514
L45.3983 30.8991
" />
<path d="M45.3983 30.8991
L45.4935 30.8991
" />
<path d="M46.2554 30.8991
L46.2554 30.3753
" />
<path d="M46.2554 30.3753
L46.2078 30.2800
" />
<path d="M46.2078 30.2800
L46.1126 30.2324
" />
<path d="M46.1126 30.2324
L45.9221 30.2324
" />
<path d="M45.9221 30.2324
L45.8269 30.2800
" />
<path d="M46.2554 30.8514
L46.1602 30.8991
" />
<path d="M46.1602 30.8991
L45.9221 30.8991
" />
<path d="M45.9221 30.8991
L45.8269 30.8514
" />
<path d="M45.8269 30.8514
L45.7792 30.7562
" />
<path d="M45.7792 30.7562
L45.7792 30.6610
" />
<path d="M45.7792 30.6610
L45.8269 30.5657
" />
<path d="M45.8269 30.5657
L45.9221 30.5181
" />
<path d="M45.9221 30.5181
L46.1602 30.5181
" />
<path d="M46.1602 30.5181
L46.2554 30.4705
" />
<path d="M46.8745 30.8991
L46.7792 30.8514
" />
<path d="M46.7792 30.8514
L46.7316 30.7562
" />
<path d="M46.7316 30.7562
L46.7316 29.8991
" />
</g><text x="42.6840" y="32.6392"
textLength="12.1548" font-size="1.3333" lengthAdjust="spacingAndGlyphs"
text-anchor="middle" opacity="0">Movement 5037</text>
<g class="stroked-text"><desc>Movement 5037</desc>
<path d="M36.9697 32.5091
L36.9697 31.5091
" />
<path d="M36.9697 31.5091
L37.3030 32.2234
" />
<path d="M37.3030 32.2234
L37.6364 31.5091
" />
<path d="M37.6364 31.5091
L37.6364 32.5091
" />
<path d="M38.2554 32.5091
L38.1602 32.4614
" />
<path d="M38.1602 32.4614
L38.1126 32.4138
" />
<path d="M38.1126 32.4138
L38.0650 32.3186
" />
<path d="M38.0650 32.3186
L38.0650 32.0329
" />
<path d="M38.0650 32.0329
L38.1126 31.9376
" />
<path d="M38.1126 31.9376
L38.1602 31.8900
" />
<path d="M38.1602 31.8900
L38.2554 31.8424
" />
<path d="M38.2554 31.8424
L38.3983 31.8424
" />
<path d="M38.3983 31.8424
L38.4935 31.8900
" />
<path d="M38.4935 31.8900
L38.5411 31.9376
" />
<path d="M38.5411 31.9376
L38.5888 32.0329
" />
<path d="M38.5888 32.0329
L38.5888 32.3186
" />
<path d="M38.5888 32.3186
L38.5411 32.4138
" />
<path d="M38.5411 32.4138
L38.4935 32.4614
" />
<path d="M38.4935 32.4614
L38.3983 32.5091
" />
<path d="M38.3983 32.5091
L38.2554 32.5091
" />
<path d="M38.9221 31.8424
L39.1602 32.5091
" />
<path d="M39.1602 32.5091
L39.3983 31.8424
" />
<path d="M40.1602 32.4614
L40.0650 32.5091
" />
<path d="M40.0650 32.5091
L39.8745 32.5091
" />
<path d="M39.8745 32.5091
L39.7792 32.4614
" />
<path d="M39.7792 32.4614
L39.7316 32.3662
" />
<path d="M39.7316 32.3662
L39.7316 31.9853
" />
<path d="M39.7316 31.9853
L39.7792 31.8900
" />
<path d="M39.7792 31.8900
L39.8745 31.8424
" />
<path d="M39.8745 31.8424
L40.0650 31.8424
" />
<path d="M40.0650 31.8424
L40.1602 31.8900
" />
<path d="M40.1602 31.8900
L40.2078 31.9853
" />
<path d="M40.2078 31.9853
L40.2078 32.0805
" />
<path d="M40.2078 32.0805
L39.7316 32.1757
" />
<path d="M40.6364 32.5091
L40.6364 31.8424
" />
<path d="M40.6364 31.9376
L40.6840 31.8900
" />
<path d="M40.6840 31.8900
L40.7792 31.8424
" />
<path d="M40.7792 31.8424
L40.9221 31.8424
" />
<path d="M40.9221 31.8424
L41.0173 31.8900
" />
<path d="M41.0173 31.8900
L41.0650 31.9853
" />
<path d="M41.0650 31.9853
L41.0650 32.5091
" />
<path d="M41.0650 31.9853
L41.1126 31.8900
" />
<path d="M41.1126 31.8900
L41.2078 31.8424
" />
<path d="M41.2078 31.8424
L41.3507 31.8424
" />
<path d="M41.3507 31.8424
L41.4459 31.8900
" />
<path d="M41.4459 31.8900
L41.4935 31.9853
" />
<path d="M41.4935 31.9853
L41.4935 32.5091
" />
<path d="M42.3507 32.4614
L42.2554 32.5091
" />
<path d="M42.2554 32.5091
L42.0650 32.5091
" />
<path d="M42.0650 32.5091
L41.9697 32.4614
" />
<path d="M41.9697 32.4614
L41.9221 32.3662
" />
<path d="M41.9221 32.3662
L41.9221 31.9853
" />
<path d="M41.9221 31.9853
L41.9697 31.8900
" />
<path d="M41.9697 31.8900
L42.0650 31.8424
" />
<path d="M42.0650 31.8424
L42.2554 31.8424
" />
<path d="M42.2554 31.8424
L42.3507 31.8900
" />
<path d="M42.3507 31.8900
L42.3983 31.9853
" />
<path d="M42.3983 31.9853
L42.3983 32.0805
" />
<path d="M42.3983 32.0805
L41.9221 32.1757
" />
<path d="M42.8269 31.8424
L42.8269 32.5091
" />
<path d="M42.8269 31.9376
L42.8745 31.8900
" />
<path d="M42.8745 31.8900
L42.9697 31.8424
" />
<path d="M42.9697 31.8424
L43.1126 31.8424
" />
<path d="M43.1126 31.8424
L43.2078 31.8900
" />
<path d="M43.2078 31.8900
L43.2554 31.9853
" />
<path d="M43.2554 31.9853
L43.2554 32.5091
" />
<path d="M43.5888 31.8424
L43.9697 31.8424
" />
<path d="M43.7316 31.5091
L43.7316 32.3662
" />
<path d="M43.7316 32.3662
L43.7792 32.4614
" />
<path d="M43.7792 32.4614
L43.8745 32.5091
" />
<path d="M43.8745 32.5091
L43.9697 32.5091
" />
<path d="M45.5411 31.5091
L45.0650 31.5091
" />
<path d="M45.0650 31.5091
L45.0173 31.9853
" />
<path d="M45.0173 31.9853
L45.0650 31.9376
" />
<path d="M45.0650 31.9376
L45.1602 31.8900
" />
<path d="M45.1602 31.8900
L45.3983 31.8900
" />
<path d="M45.3983 31.8900
L45.4935 31.9376
" />
<path d="M45.4935 31.9376
L45.5411 31.9853
" />
<path d="M45.5411 31.9853
L45.5888 32.0805
" />
<path d="M45.5888 32.0805
L45.5888 32.3186
" />
<path d="M45.5888 32.3186
L45.5411 32.4138
" />
<path d="M45.5411 32.4138
L45.4935 32.4614
" />
<path d="M45.4935 32.4614
L45.3983 32.5091
" />
<path d="M45.3983 32.5091
L45.1602 32.5091
" />
<path d="M45.1602 32.5091
L45.0650 32.4614
" />
<path d="M45.0650 32.4614
L45.0173 32.4138
" />
<path d="M46.2078 31.5091
L46.3030 31.5091
" />
<path d="M46.3030 31.5091
L46.3983 31.5567
" />
<path d="M46.3983 31.5567
L46.4459 31.6043
" />
<path d="M46.4459 31.6043
L46.4935 31.6995
" />
<path d="M46.4935 31.6995
L46.5411 31.8900
" />
<path d="M46.5411 31.8900
L46.5411 32.1281
" />
<path d="M46.5411 32.1281
L46.4935 32.3186
" />
<path d="M46.4935 32.3186
L46.4459 32.4138
" />
<path d="M46.4459 32.4138
L46.3983 32.4614
" />
<path d="M46.3983 32.4614
L46.3030 32.5091
" />
<path d="M46.3030 32.5091
L46.2078 32.5091
" />
<path d="M46.2078 32.5091
L46.1126 32.4614
" />
<path d="M46.1126 32.4614
L46.0650 32.4138
" />
<path d="M46.0650 32.4138
L46.0173 32.3186
" />
<path d="M46.0173 32.3186
L45.9697 32.1281
" />
<path d="M45.9697 32.1281
L45.9697 31.8900
" />
<path d="M45.9697 31.8900
L46.0173 31.6995
" />
<path d="M46.0173 31.6995
L46.0650 31.6043
" />
<path d="M46.0650 31.6043
L46.1126 31.5567
" />
<path d="M46.1126 31.5567
L46.2078 31.5091
" />
<path d="M46.8745 31.5091
L47.4935 31.5091
" />
<path d="M47.4935 31.5091
L47.1602 31.8900
" />
<path d="M47.1602 31.8900
L47.3030 31.8900
" />
<path d="M47.3030 31.8900
L47.3983 31.9376
" />
<path d="M47.3983 31.9376
L47.4459 31.9853
" />
<path d="M47.4459 31.9853
L47.4935 32.0805
" />
<path d="M47.4935 32.0805
L47.4935 32.3186
" />
<path d="M47.4935 32.3186
L47.4459 32.4138
" />
<path d="M47.4459 32.4138
L47.3983 32.4614
" />
<path d="M47.3983 32.4614
L47.3030 32.5091
" />
<path d="M47.3030 32.5091
L47.0173 32.5091
" />
<path d="M47.0173 32.5091
L46.9221 32.4614
" />
<path d="M46.9221 32.4614
L46.8745 32.4138
" />
<path d="M47.8269 31.5091
L48.4935 31.5091
" />
<path d="M48.4935 31.5091
L48.0650 32.5091
" />
</g><text x="42.6840" y="34.2492"
textLength="4.3452" font-size="1.3333" lengthAdjust="spacingAndGlyphs"
text-anchor="middle" opacity="0">REV.A</text>
<g class="stroked-text"><desc>REV.A</desc>
<path d="M41.4459 34.1191
L41.1126 33.6429
" />
<path d="M40.8745 34.1191
L40.8745 33.1191
" />
<path d="M40.8745 33.1191
L41.2554 33.1191
" />
<path d="M41.2554 33.1191
L41.3507 33.1667
" />
<path d="M41.3507 33.1667
L41.3983 33.2143
" />
<path d="M41.3983 33.2143
L41.4459 33.3095
" />
<path d="M41.4459 33.3095
L41.4459 33.4524
" />
<path d="M41.4459 33.4524
L41.3983 33.5476
" />
<path d="M41.3983 33.5476
L41.3507 33.5953
" />
<path d="M41.3507 33.5953
L41.2554 33.6429
" />
<path d="M41.2554 33.6429
L40.8745 33.6429
" />
<path d="M41.8745 33.5953
L42.2078 33.5953
" />
<path d="M42.3507 34.1191
L41.8745 34.1191
" />
<path d="M41.8745 34.1191
L41.8745 33.1191
" />
<path d="M41.8745 33.1191
L42.3507 33.1191
" />
<path d="M42.6364 33.1191
L42.9697 34.1191
" />
<path d="M42.9697 34.1191
L43.3030 33.1191
" />
<path d="M43.6364 34.0238
L43.6840 34.0714
" />
<path d="M43.6840 34.0714
L43.6364 34.1191
" />
<path d="M43.6364 34.1191
L43.5888 34.0714
" />
<path d="M43.5888 34.0714
L43.6364 34.0238
" />
<path d="M43.6364 34.0238
L43.6364 34.1191
" />
<path d="M44.0650 33.8334
L44.5411 33.8334
" />
<path d="M43.9697 34.1191
L44.3030 33.1191
" />
<path d="M44.3030 33.1191
L44.6364 34.1191
" />
</g><text x="17.1570" y="12.5242"
textLength="2.2024" font-size="1.3333" lengthAdjust="spacingAndGlyphs"
text-anchor="middle" opacity="0">D3</text>
<g class="stroked-text"><desc>D3</desc>
<path d="M16.4189 12.4791
L16.4189 11.4791
" />
<path d="M16.4189 11.4791
L16.6570 11.4791
" />
<path d="M16.6570 11.4791
L16.7999 11.5267
" />
<path d="M16.7999 11.5267
L16.8951 11.6219
" />
<path d="M16.8951 11.6219
L16.9427 11.7172
" />
<path d="M16.9427 11.7172
L16.9903 11.9076
" />
<path d="M16.9903 11.9076
L16.9903 12.0505
" />
<path d="M16.9903 12.0505
L16.9427 12.2410
" />
<path d="M16.9427 12.2410
L16.8951 12.3362
" />
<path d="M16.8951 12.3362
L16.7999 12.4314
" />
<path d="M16.7999 12.4314
L16.6570 12.4791
" />
<path d="M16.6570 12.4791
L16.4189 12.4791
" />
<path d="M17.3237 11.4791
L17.9427 11.4791
" />
<path d="M17.9427 11.4791
L17.6094 11.8600
" />
<path d="M17.6094 11.8600
L17.7522 11.8600
" />
<path d="M17.7522 11.8600
L17.8475 11.9076
" />
<path d="M17.8475 11.9076
L17.8951 11.9553
" />
<path d="M17.8951 11.9553
L17.9427 12.0505
" />
<path d="M17.9427 12.0505
L17.9427 12.2886
" />
<path d="M17.9427 12.2886
L17.8951 12.3838
" />
<path d="M17.8951 12.3838
L17.8475 12.4314
" />
<path d="M17.8475 12.4314
L17.7522 12.4791
" />
<path d="M17.7522 12.4791
L17.4665 12.4791
" />
<path d="M17.4665 12.4791
L17.3713 12.4314
" />
<path d="M17.3713 12.4314
L17.3237 12.3838
" />
</g><text x="20.2050" y="31.5742"
textLength="1.9643" font-size="1.3333" lengthAdjust="spacingAndGlyphs"
text-anchor="middle" opacity="0">J1</text>
<g class="stroked-text"><desc>J1</desc>
<path d="M19.8717 30.5291
L19.8717 31.2434
" />
<path d="M19.8717 31.2434
L19.8240 31.3862
" />
<path d="M19.8240 31.3862
L19.7288 31.4814
" />
<path d="M19.7288 31.4814
L19.5860 31.5291
" />
<path d="M19.5860 31.5291
L19.4907 31.5291
" />
<path d="M20.8717 31.5291
L20.3002 31.5291
" />
<path d="M20.5860 31.5291
L20.5860 30.5291
" />
<path d="M20.5860 30.5291
L20.4907 30.6719
" />
<path d="M20.4907 30.6719
L20.3955 30.7672
" />
<path d="M20.3955 30.7672
L20.3002 30.8148
" />
</g><text x="8.4325" y="1.7842"
textLength="2.2024" font-size="1.3333" lengthAdjust="spacingAndGlyphs"
text-anchor="middle" opacity="0">C8</text>
<g class="stroked-text"><desc>C8</desc>
<path d="M8.2658 1.6438
L8.2182 1.6914
" />
<path d="M8.2182 1.6914
L8.0754 1.7391
" />
<path d="M8.0754 1.7391
L7.9801 1.7391
" />
<path d="M7.9801 1.7391
L7.8373 1.6914
" />
<path d="M7.8373 1.6914
L7.7420 1.5962
" />
<path d="M7.7420 1.5962
L7.6944 1.5010
" />
<path d="M7.6944 1.5010
L7.6468 1.3105
" />
<path d="M7.6468 1.3105
L7.6468 1.1676
" />
<path d="M7.6468 1.1676
L7.6944 0.9772
" />
<path d="M7.6944 0.9772
L7.7420 0.8819
" />
<path d="M7.7420 0.8819
L7.8373 0.7867
" />
<path d="M7.8373 0.7867
L7.9801 0.7391
" />
<path d="M7.9801 0.7391
L8.0754 0.7391
" />
<path d="M8.0754 0.7391
L8.2182 0.7867
" />
<path d="M8.2182 0.7867
L8.2658 0.8343
" />
<path d="M8.8373 1.1676
L8.7420 1.1200
" />
<path d="M8.7420 1.1200
L8.6944 1.0724
" />
<path d="M8.6944 1.0724
L8.6468 0.9772
" />
<path d="M8.6468 0.9772
L8.6468 0.9295
" />
<path d="M8.6468 0.9295
L8.6944 0.8343
" />
<path d="M8.6944 0.8343
L8.7420 0.7867
" />
<path d="M8.7420 0.7867
L8.8373 0.7391
" />
<path d="M8.8373 0.7391
L9.0277 0.7391
" />
<path d="M9.0277 0.7391
L9.1230 0.7867
" />
<path d="M9.1230 0.7867
L9.1706 0.8343
" />
<path d="M9.1706 0.8343
L9.2182 0.9295
" />
<path d="M9.2182 0.9295
L9.2182 0.9772
" />
<path d="M9.2182 0.9772
L9.1706 1.0724
" />
<path d="M9.1706 1.0724
L9.1230 1.1200
" />
<path d="M9.1230 1.1200
L9.0277 1.1676
" />
<path d="M9.0277 1.1676
L8.8373 1.1676
" />
<path d="M8.8373 1.1676
L8.7420 1.2153
" />
<path d="M8.7420 1.2153
L8.6944 1.2629
" />
<path d="M8.6944 1.2629
L8.6468 1.3581
" />
<path d="M8.6468 1.3581
L8.6468 1.5486
" />
<path d="M8.6468 1.5486
L8.6944 1.6438
" />
<path d="M8.6944 1.6438
L8.7420 1.6914
" />
<path d="M8.7420 1.6914
L8.8373 1.7391
" />
<path d="M8.8373 1.7391
L9.0277 1.7391
" />
<path d="M9.0277 1.7391
L9.1230 1.6914
" />
<path d="M9.1230 1.6914
L9.1706 1.6438
" />
<path d="M9.1706 1.6438
L9.2182 1.5486
" />
<path d="M9.2182 1.5486
L9.2182 1.3581
" />
<path d="M9.2182 1.3581
L9.1706 1.2629
" />
<path d="M9.1706 1.2629
L9.1230 1.2153
" />
<path d="M9.1230 1.2153
L9.0277 1.1676
" />
</g><text x="12.7120" y="6.6822"
textLength="2.0595" font-size="1.3333" lengthAdjust="spacingAndGlyphs"
text-anchor="middle" opacity="0">Y2</text>
<g class="stroked-text"><desc>Y2</desc>
<path d="M12.2358 6.1609
L12.2358 6.6371
" />
<path d="M11.9025 5.6371
L12.2358 6.1609
" />
<path d="M12.2358 6.1609
L12.5691 5.6371
" />
<path d="M12.8549 5.7323
L12.9025 5.6847
" />
<path d="M12.9025 5.6847
L12.9977 5.6371
" />
<path d="M12.9977 5.6371
L13.2358 5.6371
" />
<path d="M13.2358 5.6371
L13.3310 5.6847
" />
<path d="M13.3310 5.6847
L13.3787 5.7323
" />
<path d="M13.3787 5.7323
L13.4263 5.8275
" />
<path d="M13.4263 5.8275
L13.4263 5.9228
" />
<path d="M13.4263 5.9228
L13.3787 6.0656
" />
<path d="M13.3787 6.0656
L12.8072 6.6371
" />
<path d="M12.8072 6.6371
L13.4263 6.6371
" />
</g><text x="23.9935" y="27.1582"
textLength="2.2024" font-size="1.3333" lengthAdjust="spacingAndGlyphs"
text-anchor="middle" opacity="0">C2</text>
<g class="stroked-text"><desc>C2</desc>
<path d="M23.8268 27.0178
L23.7792 27.0654
" />
<path d="M23.7792 27.0654
L23.6364 27.1131
" />
<path d="M23.6364 27.1131
L23.5411 27.1131
" />
<path d="M23.5411 27.1131
L23.3983 27.0654
" />
<path d="M23.3983 27.0654
L23.3030 26.9702
" />
<path d="M23.3030 26.9702
L23.2554 26.8750
" />
<path d="M23.2554 26.8750
L23.2078 26.6845
" />
<path d="M23.2078 26.6845
L23.2078 26.5416
" />
<path d="M23.2078 26.5416
L23.2554 26.3512
" />
<path d="M23.2554 26.3512
L23.3030 26.2559
" />
<path d="M23.3030 26.2559
L23.3983 26.1607
" />
<path d="M23.3983 26.1607
L23.5411 26.1131
" />
<path d="M23.5411 26.1131
L23.6364 26.1131
" />
<path d="M23.6364 26.1131
L23.7792 26.1607
" />
<path d="M23.7792 26.1607
L23.8268 26.2083
" />
<path d="M24.2078 26.2083
L24.2554 26.1607
" />
<path d="M24.2554 26.1607
L24.3506 26.1131
" />
<path d="M24.3506 26.1131
L24.5887 26.1131
" />
<path d="M24.5887 26.1131
L24.6840 26.1607
" />
<path d="M24.6840 26.1607
L24.7316 26.2083
" />
<path d="M24.7316 26.2083
L24.7792 26.3035
" />
<path d="M24.7792 26.3035
L24.7792 26.3988
" />
<path d="M24.7792 26.3988
L24.7316 26.5416
" />
<path d="M24.7316 26.5416
L24.1602 27.1131
" />
<path d="M24.1602 27.1131
L24.7792 27.1131
" />
</g><text x="10.8285" y="23.7982"
textLength="2.2024" font-size="1.3333" lengthAdjust="spacingAndGlyphs"
text-anchor="middle" opacity="0">C1</text>
<g class="stroked-text"><desc>C1</desc>
<path d="M10.6618 23.6578
L10.6142 23.7054
" />
<path d="M10.6142 23.7054
L10.4714 23.7531
" />
<path d="M10.4714 23.7531
L10.3761 23.7531
" />
<path d="M10.3761 23.7531
L10.2333 23.7054
" />
<path d="M10.2333 23.7054
L10.1380 23.6102
" />
<path d="M10.1380 23.6102
L10.0904 23.5150
" />
<path d="M10.0904 23.5150
L10.0428 23.3245
" />
<path d="M10.0428 23.3245
L10.0428 23.1816
" />
<path d="M10.0428 23.1816
L10.0904 22.9912
" />
<path d="M10.0904 22.9912
L10.1380 22.8959
" />
<path d="M10.1380 22.8959
L10.2333 22.8007
" />
<path d="M10.2333 22.8007
L10.3761 22.7531
" />
<path d="M10.3761 22.7531
L10.4714 22.7531
" />
<path d="M10.4714 22.7531
L10.6142 22.8007
" />
<path d="M10.6142 22.8007
L10.6618 22.8483
" />
<path d="M11.6142 23.7531
L11.0428 23.7531
" />
<path d="M11.3285 23.7531
L11.3285 22.7531
" />
<path d="M11.3285 22.7531
L11.2333 22.8959
" />
<path d="M11.2333 22.8959
L11.1380 22.9912
" />
<path d="M11.1380 22.9912
L11.0428 23.0388
" />
</g><text x="5.6000" y="1.7292"
textLength="2.2024" font-size="1.3333" lengthAdjust="spacingAndGlyphs"
text-anchor="middle" opacity="0">C3</text>
<g class="stroked-text"><desc>C3</desc>
<path d="M5.4333 1.5888
L5.3857 1.6364
" />
<path d="M5.3857 1.6364
L5.2429 1.6841
" />
<path d="M5.2429 1.6841
L5.1476 1.6841
" />
<path d="M5.1476 1.6841
L5.0048 1.6364
" />
<path d="M5.0048 1.6364
L4.9095 1.5412
" />
<path d="M4.9095 1.5412
L4.8619 1.4460
" />
<path d="M4.8619 1.4460
L4.8143 1.2555
" />
<path d="M4.8143 1.2555
L4.8143 1.1126
" />
<path d="M4.8143 1.1126
L4.8619 0.9222
" />
<path d="M4.8619 0.9222
L4.9095 0.8269
" />
<path d="M4.9095 0.8269
L5.0048 0.7317
" />
<path d="M5.0048 0.7317
L5.1476 0.6841
" />
<path d="M5.1476 0.6841
L5.2429 0.6841
" />
<path d="M5.2429 0.6841
L5.3857 0.7317
" />
<path d="M5.3857 0.7317
L5.4333 0.7793
" />
<path d="M5.7667 0.6841
L6.3857 0.6841
" />
<path d="M6.3857 0.6841
L6.0524 1.0650
" />
<path d="M6.0524 1.0650
L6.1952 1.0650
" />
<path d="M6.1952 1.0650
L6.2905 1.1126
" />
<path d="M6.2905 1.1126
L6.3381 1.1603
" />
<path d="M6.3381 1.1603
L6.3857 1.2555
" />
<path d="M6.3857 1.2555
L6.3857 1.4936
" />
<path d="M6.3857 1.4936
L6.3381 1.5888
" />
<path d="M6.3381 1.5888
L6.2905 1.6364
" />
<path d="M6.2905 1.6364
L6.1952 1.6841
" />
<path d="M6.1952 1.6841
L5.9095 1.6841
" />
<path d="M5.9095 1.6841
L5.8143 1.6364
" />
<path d="M5.8143 1.6364
L5.7667 1.5888
" />
</g><text x="48.7800" y="17.2233"
textLength="2.2024" font-size="1.3333" lengthAdjust="spacingAndGlyphs"
text-anchor="middle" opacity="0">C5</text>
<g class="stroked-text"><desc>C5</desc>
<path d="M48.6133 17.0828
L48.5657 17.1304
" />
<path d="M48.5657 17.1304
L48.4229 17.1781
" />
<path d="M48.4229 17.1781
L48.3276 17.1781
" />
<path d="M48.3276 17.1781
L48.1848 17.1304
" />
<path d="M48.1848 17.1304
L48.0895 17.0352
" />
<path d="M48.0895 17.0352
L48.0419 16.9400
" />
<path d="M48.0419 16.9400
L47.9943 16.7495
" />
<path d="M47.9943 16.7495
L47.9943 16.6066
" />
<path d="M47.9943 16.6066
L48.0419 16.4162
" />
<path d="M48.0419 16.4162
L48.0895 16.3209
" />
<path d="M48.0895 16.3209
L48.1848 16.2257
" />
<path d="M48.1848 16.2257
L48.3276 16.1781
" />
<path d="M48.3276 16.1781
L48.4229 16.1781
" />
<path d="M48.4229 16.1781
L48.5657 16.2257
" />
<path d="M48.5657 16.2257
L48.6133 16.2733
" />
<path d="M49.5181 16.1781
L49.0419 16.1781
" />
<path d="M49.0419 16.1781
L48.9943 16.6543
" />
<path d="M48.9943 16.6543
L49.0419 16.6066
" />
<path d="M49.0419 16.6066
L49.1371 16.5590
" />
<path d="M49.1371 16.5590
L49.3752 16.5590
" />
<path d="M49.3752 16.5590
L49.4705 16.6066
" />
<path d="M49.4705 16.6066
L49.5181 16.6543
" />
<path d="M49.5181 16.6543
L49.5657 16.7495
" />
<path d="M49.5657 16.7495
L49.5657 16.9876
" />
<path d="M49.5657 16.9876
L49.5181 17.0828
" />
<path d="M49.5181 17.0828
L49.4705 17.1304
" />
<path d="M49.4705 17.1304
L49.3752 17.1781
" />
<path d="M49.3752 17.1781
L49.1371 17.1781
" />
<path d="M49.1371 17.1781
L49.0419 17.1304
" />
<path d="M49.0419 17.1304
L48.9943 17.0828
" />
</g><text x="20.1365" y="21.1602"
textLength="2.0595" font-size="1.3333" lengthAdjust="spacingAndGlyphs"
text-anchor="middle" opacity="0">Y1</text>
<g class="stroked-text"><desc>Y1</desc>
<path d="M19.6603 20.6389
L19.6603 21.1151
" />
<path d="M19.3270 20.1151
L19.6603 20.6389
" />
<path d="M19.6603 20.6389
L19.9936 20.1151
" />
<path d="M20.8508 21.1151
L20.2794 21.1151
" />
<path d="M20.5651 21.1151
L20.5651 20.1151
" />
<path d="M20.5651 20.1151
L20.4698 20.2579
" />
<path d="M20.4698 20.2579
L20.3746 20.3532
" />
<path d="M20.3746 20.3532
L20.2794 20.4008
" />
</g><text x="17.1570" y="16.3343"
textLength="2.2024" font-size="1.3333" lengthAdjust="spacingAndGlyphs"
text-anchor="middle" opacity="0">D1</text>
<g class="stroked-text"><desc>D1</desc>
<path d="M16.4189 16.2891
L16.4189 15.2891
" />
<path d="M16.4189 15.2891
L16.6570 15.2891
" />
<path d="M16.6570 15.2891
L16.7999 15.3367
" />
<path d="M16.7999 15.3367
L16.8951 15.4319
" />
<path d="M16.8951 15.4319
L16.9427 15.5272
" />
<path d="M16.9427 15.5272
L16.9903 15.7176
" />
<path d="M16.9903 15.7176
L16.9903 15.8605
" />
<path d="M16.9903 15.8605
L16.9427 16.0510
" />
<path d="M16.9427 16.0510
L16.8951 16.1462
" />
<path d="M16.8951 16.1462
L16.7999 16.2415
" />
<path d="M16.7999 16.2415
L16.6570 16.2891
" />
<path d="M16.6570 16.2891
L16.4189 16.2891
" />
<path d="M17.9427 16.2891
L17.3713 16.2891
" />
<path d="M17.6570 16.2891
L17.6570 15.2891
" />
<path d="M17.6570 15.2891
L17.5618 15.4319
" />
<path d="M17.5618 15.4319
L17.4665 15.5272
" />
<path d="M17.4665 15.5272
L17.3713 15.5748
" />
</g><text x="25.9200" y="12.7492"
textLength="2.2024" font-size="1.3333" lengthAdjust="spacingAndGlyphs"
text-anchor="middle" opacity="0">C7</text>
<g class="stroked-text"><desc>C7</desc>
<path d="M25.7533 12.6088
L25.7057 12.6564
" />
<path d="M25.7057 12.6564
L25.5629 12.7041
" />
<path d="M25.5629 12.7041
L25.4676 12.7041
" />
<path d="M25.4676 12.7041
L25.3248 12.6564
" />
<path d="M25.3248 12.6564
L25.2295 12.5612
" />
<path d="M25.2295 12.5612
L25.1819 12.4660
" />
<path d="M25.1819 12.4660
L25.1343 12.2755
" />
<path d="M25.1343 12.2755
L25.1343 12.1326
" />
<path d="M25.1343 12.1326
L25.1819 11.9422
" />
<path d="M25.1819 11.9422
L25.2295 11.8469
" />
<path d="M25.2295 11.8469
L25.3248 11.7517
" />
<path d="M25.3248 11.7517
L25.4676 11.7041
" />
<path d="M25.4676 11.7041
L25.5629 11.7041
" />
<path d="M25.5629 11.7041
L25.7057 11.7517
" />
<path d="M25.7057 11.7517
L25.7533 11.7993
" />
<path d="M26.0867 11.7041
L26.7533 11.7041
" />
<path d="M26.7533 11.7041
L26.3248 12.7041
" />
</g><text x="27.0630" y="5.6952"
textLength="2.2500" font-size="1.3333" lengthAdjust="spacingAndGlyphs"
text-anchor="middle" opacity="0">U2</text>
<g class="stroked-text"><desc>U2</desc>
<path d="M26.3011 4.6501
L26.3011 5.4596
" />
<path d="M26.3011 5.4596
L26.3487 5.5548
" />
<path d="M26.3487 5.5548
L26.3963 5.6025
" />
<path d="M26.3963 5.6025
L26.4916 5.6501
" />
<path d="M26.4916 5.6501
L26.6820 5.6501
" />
<path d="M26.6820 5.6501
L26.7773 5.6025
" />
<path d="M26.7773 5.6025
L26.8249 5.5548
" />
<path d="M26.8249 5.5548
L26.8725 5.4596
" />
<path d="M26.8725 5.4596
L26.8725 4.6501
" />
<path d="M27.3011 4.7453
L27.3487 4.6977
" />
<path d="M27.3487 4.6977
L27.4440 4.6501
" />
<path d="M27.4440 4.6501
L27.6820 4.6501
" />
<path d="M27.6820 4.6501
L27.7773 4.6977
" />
<path d="M27.7773 4.6977
L27.8249 4.7453
" />
<path d="M27.8249 4.7453
L27.8725 4.8405
" />
<path d="M27.8725 4.8405
L27.8725 4.9358
" />
<path d="M27.8725 4.9358
L27.8249 5.0786
" />
<path d="M27.8249 5.0786
L27.2535 5.6501
" />
<path d="M27.2535 5.6501
L27.8725 5.6501
" />
</g><text x="5.6000" y="5.5393"
textLength="2.2024" font-size="1.3333" lengthAdjust="spacingAndGlyphs"
text-anchor="middle" opacity="0">R2</text>
<g class="stroked-text"><desc>R2</desc>
<path d="M5.4333 5.4941
L5.1000 5.0179
" />
<path d="M4.8619 5.4941
L4.8619 4.4941
" />
<path d="M4.8619 4.4941
L5.2429 4.4941
" />
<path d="M5.2429 4.4941
L5.3381 4.5417
" />
<path d="M5.3381 4.5417
L5.3857 4.5893
" />
<path d="M5.3857 4.5893
L5.4333 4.6845
" />
<path d="M5.4333 4.6845
L5.4333 4.8274
" />
<path d="M5.4333 4.8274
L5.3857 4.9226
" />
<path d="M5.3857 4.9226
L5.3381 4.9703
" />
<path d="M5.3381 4.9703
L5.2429 5.0179
" />
<path d="M5.2429 5.0179
L4.8619 5.0179
" />
<path d="M5.8143 4.5893
L5.8619 4.5417
" />
<path d="M5.8619 4.5417
L5.9571 4.4941
" />
<path d="M5.9571 4.4941
L6.1952 4.4941
" />
<path d="M6.1952 4.4941
L6.2905 4.5417
" />
<path d="M6.2905 4.5417
L6.3381 4.5893
" />
<path d="M6.3381 4.5893
L6.3857 4.6845
" />
<path d="M6.3857 4.6845
L6.3857 4.7798
" />
<path d="M6.3857 4.7798
L6.3381 4.9226
" />
<path d="M6.3381 4.9226
L5.7667 5.4941
" />
<path d="M5.7667 5.4941
L6.3857 5.4941
" />
</g><text x="36.4610" y="11.5542"
textLength="2.2500" font-size="1.3333" lengthAdjust="spacingAndGlyphs"
text-anchor="middle" opacity="0">U3</text>
<g class="stroked-text"><desc>U3</desc>
<path d="M35.6991 10.5091
L35.6991 11.3186
" />
<path d="M35.6991 11.3186
L35.7467 11.4138
" />
<path d="M35.7467 11.4138
L35.7943 11.4614
" />
<path d="M35.7943 11.4614
L35.8896 11.5091
" />
<path d="M35.8896 11.5091
L36.0800 11.5091
" />
<path d="M36.0800 11.5091
L36.1753 11.4614
" />
<path d="M36.1753 11.4614
L36.2229 11.4138
" />
<path d="M36.2229 11.4138
L36.2705 11.3186
" />
<path d="M36.2705 11.3186
L36.2705 10.5091
" />
<path d="M36.6515 10.5091
L37.2705 10.5091
" />
<path d="M37.2705 10.5091
L36.9372 10.8900
" />
<path d="M36.9372 10.8900
L37.0800 10.8900
" />
<path d="M37.0800 10.8900
L37.1753 10.9376
" />
<path d="M37.1753 10.9376
L37.2229 10.9853
" />
<path d="M37.2229 10.9853
L37.2705 11.0805
" />
<path d="M37.2705 11.0805
L37.2705 11.3186
" />
<path d="M37.2705 11.3186
L37.2229 11.4138
" />
<path d="M37.2229 11.4138
L37.1753 11.4614
" />
<path d="M37.1753 11.4614
L37.0800 11.5091
" />
<path d="M37.0800 11.5091
L36.7943 11.5091
" />
<path d="M36.7943 11.5091
L36.6991 11.4614
" />
<path d="M36.6991 11.4614
L36.6515 11.4138
" />
</g><text x="6.3620" y="27.5162"
textLength="2.2024" font-size="1.3333" lengthAdjust="spacingAndGlyphs"
text-anchor="middle" opacity="0">D2</text>
<g class="stroked-text"><desc>D2</desc>
<path d="M5.6239 27.4711
L5.6239 26.4711
" />
<path d="M5.6239 26.4711
L5.8620 26.4711
" />
<path d="M5.8620 26.4711
L6.0049 26.5187
" />
<path d="M6.0049 26.5187
L6.1001 26.6139
" />
<path d="M6.1001 26.6139
L6.1477 26.7092
" />
<path d="M6.1477 26.7092
L6.1953 26.8996
" />
<path d="M6.1953 26.8996
L6.1953 27.0425
" />
<path d="M6.1953 27.0425
L6.1477 27.2330
" />
<path d="M6.1477 27.2330
L6.1001 27.3282
" />
<path d="M6.1001 27.3282
L6.0049 27.4234
" />
<path d="M6.0049 27.4234
L5.8620 27.4711
" />
<path d="M5.8620 27.4711
L5.6239 27.4711
" />
<path d="M6.5763 26.5663
L6.6239 26.5187
" />
<path d="M6.6239 26.5187
L6.7191 26.4711
" />
<path d="M6.7191 26.4711
L6.9572 26.4711
" />
<path d="M6.9572 26.4711
L7.0525 26.5187
" />
<path d="M7.0525 26.5187
L7.1001 26.5663
" />
<path d="M7.1001 26.5663
L7.1477 26.6615
" />
<path d="M7.1477 26.6615
L7.1477 26.7568
" />
<path d="M7.1477 26.7568
L7.1001 26.8996
" />
<path d="M7.1001 26.8996
L6.5287 27.4711
" />
<path d="M6.5287 27.4711
L7.1477 27.4711
" />
</g><text x="6.6160" y="23.8283"
textLength="2.2024" font-size="1.3333" lengthAdjust="spacingAndGlyphs"
text-anchor="middle" opacity="0">R1</text>
<g class="stroked-text"><desc>R1</desc>
<path d="M6.4493 23.7831
L6.1160 23.3069
" />
<path d="M5.8779 23.7831
L5.8779 22.7831
" />
<path d="M5.8779 22.7831
L6.2589 22.7831
" />
<path d="M6.2589 22.7831
L6.3541 22.8307
" />
<path d="M6.3541 22.8307
L6.4017 22.8783
" />
<path d="M6.4017 22.8783
L6.4493 22.9735
" />
<path d="M6.4493 22.9735
L6.4493 23.1164
" />
<path d="M6.4493 23.1164
L6.4017 23.2116
" />
<path d="M6.4017 23.2116
L6.3541 23.2593
" />
<path d="M6.3541 23.2593
L6.2589 23.3069
" />
<path d="M6.2589 23.3069
L5.8779 23.3069
" />
<path d="M7.4017 23.7831
L6.8303 23.7831
" />
<path d="M7.1160 23.7831
L7.1160 22.7831
" />
<path d="M7.1160 22.7831
L7.0208 22.9259
" />
<path d="M7.0208 22.9259
L6.9255 23.0212
" />
<path d="M6.9255 23.0212
L6.8303 23.0688
" />
</g><text x="5.6000" y="7.4442"
textLength="2.2024" font-size="1.3333" lengthAdjust="spacingAndGlyphs"
text-anchor="middle" opacity="0">R3</text>
<g class="stroked-text"><desc>R3</desc>
<path d="M5.4333 7.3991
L5.1000 6.9229
" />
<path d="M4.8619 7.3991
L4.8619 6.3991
" />
<path d="M4.8619 6.3991
L5.2429 6.3991
" />
<path d="M5.2429 6.3991
L5.3381 6.4467
" />
<path d="M5.3381 6.4467
L5.3857 6.4943
" />
<path d="M5.3857 6.4943
L5.4333 6.5895
" />
<path d="M5.4333 6.5895
L5.4333 6.7324
" />
<path d="M5.4333 6.7324
L5.3857 6.8276
" />
<path d="M5.3857 6.8276
L5.3381 6.8753
" />
<path d="M5.3381 6.8753
L5.2429 6.9229
" />
<path d="M5.2429 6.9229
L4.8619 6.9229
" />
<path d="M5.7667 6.3991
L6.3857 6.3991
" />
<path d="M6.3857 6.3991
L6.0524 6.7800
" />
<path d="M6.0524 6.7800
L6.1952 6.7800
" />
<path d="M6.1952 6.7800
L6.2905 6.8276
" />
<path d="M6.2905 6.8276
L6.3381 6.8753
" />
<path d="M6.3381 6.8753
L6.3857 6.9705
" />
<path d="M6.3857 6.9705
L6.3857 7.2086
" />
<path d="M6.3857 7.2086
L6.3381 7.3038
" />
<path d="M6.3381 7.3038
L6.2905 7.3514
" />
<path d="M6.2905 7.3514
L6.1952 7.3991
" />
<path d="M6.1952 7.3991
L5.9095 7.3991
" />
<path d="M5.9095 7.3991
L5.8143 7.3514
" />
<path d="M5.8143 7.3514
L5.7667 7.3038
" />
</g><text x="48.8230" y="19.5092"
textLength="2.2024" font-size="1.3333" lengthAdjust="spacingAndGlyphs"
text-anchor="middle" opacity="0">C6</text>
<g class="stroked-text"><desc>C6</desc>
<path d="M48.6563 19.3688
L48.6087 19.4164
" />
<path d="M48.6087 19.4164
L48.4659 19.4641
" />
<path d="M48.4659 19.4641
L48.3706 19.4641
" />
<path d="M48.3706 19.4641
L48.2278 19.4164
" />
<path d="M48.2278 19.4164
L48.1325 19.3212
" />
<path d="M48.1325 19.3212
L48.0849 19.2260
" />
<path d="M48.0849 19.2260
L48.0373 19.0355
" />
<path d="M48.0373 19.0355
L48.0373 18.8926
" />
<path d="M48.0373 18.8926
L48.0849 18.7022
" />
<path d="M48.0849 18.7022
L48.1325 18.6069
" />
<path d="M48.1325 18.6069
L48.2278 18.5117
" />
<path d="M48.2278 18.5117
L48.3706 18.4641
" />
<path d="M48.3706 18.4641
L48.4659 18.4641
" />
<path d="M48.4659 18.4641
L48.6087 18.5117
" />
<path d="M48.6087 18.5117
L48.6563 18.5593
" />
<path d="M49.5135 18.4641
L49.3230 18.4641
" />
<path d="M49.3230 18.4641
L49.2278 18.5117
" />
<path d="M49.2278 18.5117
L49.1801 18.5593
" />
<path d="M49.1801 18.5593
L49.0849 18.7022
" />
<path d="M49.0849 18.7022
L49.0373 18.8926
" />
<path d="M49.0373 18.8926
L49.0373 19.2736
" />
<path d="M49.0373 19.2736
L49.0849 19.3688
" />
<path d="M49.0849 19.3688
L49.1325 19.4164
" />
<path d="M49.1325 19.4164
L49.2278 19.4641
" />
<path d="M49.2278 19.4641
L49.4182 19.4641
" />
<path d="M49.4182 19.4641
L49.5135 19.4164
" />
<path d="M49.5135 19.4164
L49.5611 19.3688
" />
<path d="M49.5611 19.3688
L49.6087 19.2736
" />
<path d="M49.6087 19.2736
L49.6087 19.0355
" />
<path d="M49.6087 19.0355
L49.5611 18.9403
" />
<path d="M49.5611 18.9403
L49.5135 18.8926
" />
<path d="M49.5135 18.8926
L49.4182 18.8450
" />
<path d="M49.4182 18.8450
L49.2278 18.8450
" />
<path d="M49.2278 18.8450
L49.1325 18.8926
" />
<path d="M49.1325 18.8926
L49.0849 18.9403
" />
<path d="M49.0849 18.9403
L49.0373 19.0355
" />
</g><g transform="rotate(-90.000000 15.2760 3.7692)">
<text x="15.2760" y="4.2692"
textLength="1.9643" font-size="1.3333" lengthAdjust="spacingAndGlyphs"
text-anchor="middle" opacity="0">J4</text>
</g>
<g class="stroked-text"><desc>J4</desc>
<path d="M14.7308 4.1026
L15.4451 4.1026
" />
<path d="M15.4451 4.1026
L15.5880 4.1502
" />
<path d="M15.5880 4.1502
L15.6832 4.2454
" />
<path d="M15.6832 4.2454
L15.7308 4.3883
" />
<path d="M15.7308 4.3883
L15.7308 4.4835
" />
<path d="M15.0642 3.1978
L15.7308 3.1978
" />
<path d="M14.6832 3.4359
L15.3975 3.6740
" />
<path d="M15.3975 3.6740
L15.3975 3.0550
" />
</g><text x="48.7800" y="15.0642"
textLength="2.2024" font-size="1.3333" lengthAdjust="spacingAndGlyphs"
text-anchor="middle" opacity="0">C4</text>
<g class="stroked-text"><desc>C4</desc>
<path d="M48.6133 14.9238
L48.5657 14.9714
" />
<path d="M48.5657 14.9714
L48.4229 15.0191
" />
<path d="M48.4229 15.0191
L48.3276 15.0191
" />
<path d="M48.3276 15.0191
L48.1848 14.9714
" />
<path d="M48.1848 14.9714
L48.0895 14.8762
" />
<path d="M48.0895 14.8762
L48.0419 14.7810
" />
<path d="M48.0419 14.7810
L47.9943 14.5905
" />
<path d="M47.9943 14.5905
L47.9943 14.4476
" />
<path d="M47.9943 14.4476
L48.0419 14.2572
" />
<path d="M48.0419 14.2572
L48.0895 14.1619
" />
<path d="M48.0895 14.1619
L48.1848 14.0667
" />
<path d="M48.1848 14.0667
L48.3276 14.0191
" />
<path d="M48.3276 14.0191
L48.4229 14.0191
" />
<path d="M48.4229 14.0191
L48.5657 14.0667
" />
<path d="M48.5657 14.0667
L48.6133 14.1143
" />
<path d="M49.4705 14.3524
L49.4705 15.0191
" />
<path d="M49.2324 13.9714
L48.9943 14.6857
" />
<path d="M48.9943 14.6857
L49.6133 14.6857
" />
</g></g>
<g style="fill:#000000; fill-opacity:0.0; 
stroke:#000000; stroke-width:0.1200; stroke-opacity:1; 
stroke-linecap:round; stroke-linejoin:round;">
<path d="M13.7970 10.4392
L13.7970 13.6092
" />
<path d="M13.7970 13.6092
L19.6570 13.6092
" />
<path d="M19.6570 10.4392
L13.7970 10.4392
" />
<path d="M19.2560 33.4483
L19.2560 32.3382
" />
<path d="M19.2560 32.3382
L20.5860 32.3382
" />
<path d="M7.7212 2.2243
L9.1438 2.2243
" />
<path d="M7.7212 4.0442
L9.1438 4.0442
" />
<path d="M20.5000 6.2523
L14.1000 6.2523
" />
<path d="M14.1000 6.2523
L14.1000 8.6523
" />
<path d="M21.4000 6.5023
L21.6000 6.5023
" />
<path d="M20.5000 7.1022
L21.4000 6.5023
" />
<path d="M20.5000 7.8022
L21.4000 8.4023
" />
<path d="M21.4000 8.4023
L21.6000 8.4023
" />
<path d="M20.5000 8.6523
L20.5000 6.2523
" />
<path d="M14.1000 8.6523
L20.5000 8.6523
" />
<path d="M24.2548 25.7132
L23.7322 25.7132
" />
<path d="M24.2548 24.2432
L23.7322 24.2432
" />
<path d="M10.5672 24.2432
L11.0898 24.2432
" />
<path d="M10.5672 25.7132
L11.0898 25.7132
" />
<path d="M2.3962 1.6372
L2.9188 1.6372
" />
<path d="M2.3962 3.1073
L2.9188 3.1073
" />
<path d="M45.7032 16.1152
L46.2258 16.1152
" />
<path d="M45.7032 17.5852
L46.2258 17.5852
" />
<path d="M17.0115 18.3893
L23.2615 18.3893
" />
<path d="M17.0115 23.4392
L23.2615 23.4392
" />
<path d="M17.0115 18.3893 A2.5250 2.5250 0.0 0 0 17.0115 23.4392" />
<path d="M23.2615 23.4392 A2.5250 2.5250 0.0 0 0 23.2615 18.3893" />
<path d="M13.7970 13.9952
L13.7970 17.1653
" />
<path d="M13.7970 17.1653
L19.6570 17.1653
" />
<path d="M19.6570 13.9952
L13.7970 13.9952
" />
<path d="M25.6587 13.1943
L26.1813 13.1943
" />
<path d="M25.6587 14.6642
L26.1813 14.6642
" />
<path d="M27.0630 6.0352
L23.6130 6.0352
" />
<path d="M27.0630 6.0352
L29.0130 6.0352
" />
<path d="M27.0630 11.1552
L25.1130 11.1552
" />
<path d="M27.0630 11.1552
L29.0130 11.1552
" />
<path d="M2.4679 3.9232
L2.9221 3.9232
" />
<path d="M2.4679 5.3933
L2.9221 5.3933
" />
</g>
<g style="fill:#000000; fill-opacity:0.0; 
stroke:#000000; stroke-width:0.1500; stroke-opacity:1; 
stroke-linecap:round; stroke-linejoin:round;">
<path d="M32.8360 13.4792
L32.8360 13.7043
" />
<path d="M32.8360 13.4792
L33.1610 13.4792
" />
<path d="M32.8360 13.7043
L31.4110 13.7043
" />
<path d="M32.8360 20.7293
L32.8360 20.4042
" />
<path d="M32.8360 20.7293
L33.1610 20.7293
" />
<path d="M40.0860 13.4792
L39.7610 13.4792
" />
<path d="M40.0860 13.4792
L40.0860 13.8042
" />
<path d="M40.0860 20.7293
L39.7610 20.7293
" />
<path d="M40.0860 20.7293
L40.0860 20.4042
" />
</g>
<g style="fill:#000000; fill-opacity:0.0; 
stroke:#000000; stroke-width:0.1200; stroke-opacity:1; 
stroke-linecap:round; stroke-linejoin:round;">
<path d="M3.0020 27.7112
L3.0020 30.8812
" />
<path d="M3.0020 30.8812
L8.8620 30.8812
" />
<path d="M8.8620 27.7112
L3.0020 27.7112
" />
<path d="M6.3889 24.2432
L6.8431 24.2432
" />
<path d="M6.3889 25.7132
L6.8431 25.7132
" />
<path d="M2.4519 6.2092
L2.9061 6.2092
" />
<path d="M2.4519 7.6792
L2.9061 7.6792
" />
<path d="M45.7462 18.4012
L46.2688 18.4012
" />
<path d="M45.7462 19.8712
L46.2688 19.8712
" />
<path d="M16.7160 2.4992
L16.7160 1.3892
" />
<path d="M16.7160 1.3892
L18.0460 1.3892
" />
<path d="M45.7032 13.9562
L46.2258 13.9562
" />
<path d="M45.7032 15.4262
L46.2258 15.4262
" />
<g >
</g>
<g >
</g>
<g >
</g>
<g >
</g>
<g >
</g>
<g >
</g>
<g >
</g>
<g >
</g>
<g >
</g>
<g >
</g>
<g >
</g>
<g >
</g>
<g >
</g>
<g >
</g>
<g >
</g>
<g >
</g>
<g >
</g>
<g >
</g>
<g >
</g>
<g >
</g>
<g >
</g>
<g >
</g>
<g >
</g>
<g >
</g>
<g >
</g>
<g >
</g>
<g >
</g>
<g >
</g>
</g>
<g style="fill:#000000; fill-opacity:0.0; 
stroke:#000000; stroke-width:0.1200; stroke-opacity:1; 
stroke-linecap:round; stroke-linejoin:round;">
</g>
<g style="fill:#000000; fill-opacity:0.0; 
stroke:#000000; stroke-width:0.1000; stroke-opacity:1; 
stroke-linecap:round; stroke-linejoin:round;">
<path style="fill:#000000; fill-opacity:0.0; 
stroke:#000000; stroke-width:0.1000; stroke-opacity:1; 
stroke-linecap:round; stroke-linejoin:round;fill:none"
d="M 0.2100,0.0943
50.2100,0.0943
50.2100,37.0942
0.2100,37.0942
Z" /> 
<g >
</g>
<g >
</g>
<g >
</g>
<g >
</g>
<g >
</g>
<g >
</g>
<g >
</g>
<g >
</g>
<g >
</g>
<g >
</g>
<g >
</g>
<g >
</g>
<g >
</g>
<g >
</g>
<g >
</g>
<g >
</g>
<g >
</g>
<g >
</g>
<g >
</g>
<g >
</g>
<g >
</g>
<g >
</g>
<g >
</g>
<g >
</g>
<g >
</g>
<g >
</g>
<g >
</g>
<g >
</g>
</g> 
</svg>
