M48
; DRILL file {KiCad 9.0.6} date 2026-02-27T14:53:59+0100
; FORMAT={-:-/ absolute / metric / decimal}
; #@! TF.CreationDate,2026-02-27T14:53:59+01:00
; #@! TF.GenerationSoftware,Kicad,Pcbnew,9.0.6
; #@! TF.FileFunction,Plated,1,2,PTH
FMAT,2
METRIC
; #@! TA.AperFunction,Plated,PTH,ViaDrill
T1C0.400
; #@! TA.AperFunction,Plated,PTH,ComponentDrill
T2C0.700
; #@! TA.AperFunction,Plated,PTH,ComponentDrill
T3C1.000
%
G90
G05
T1
X67.056Y-75.184
X71.628Y-122.682
X75.184Y-55.118
X80.264Y-57.912
X83.566Y-53.34
X123.138Y-58.75
X125.658Y-53.478
X126.855Y-50.503
X130.934Y-58.75
X133.588Y-53.478
X134.938Y-50.503
X135.536Y-56.802
X142.624Y-53.478
X143.395Y-50.503
X154.432Y-150.114
X158.75Y-155.194
X163.068Y-148.082
X170.688Y-148.59
T2
X66.258Y-90.878
X66.258Y-92.148
X66.258Y-93.418
X66.258Y-94.688
X66.375Y-97.677
X66.454Y-87.893
X66.507Y-98.94
X66.587Y-86.63
X66.64Y-100.203
X66.72Y-85.367
X66.773Y-101.466
X66.853Y-84.104
X67.201Y-104.427
X67.36Y-81.156
X67.465Y-105.669
X67.624Y-79.914
X67.729Y-106.911
X67.888Y-78.671
X67.994Y-108.153
X68.152Y-77.429
X68.729Y-111.053
X68.965Y-74.55
X69.122Y-112.261
X69.357Y-73.343
X69.514Y-113.468
X69.749Y-72.135
X69.906Y-114.676
X70.142Y-70.927
X70.941Y-117.483
X71.251Y-68.149
X71.458Y-118.643
X71.768Y-66.989
X71.974Y-119.803
X72.284Y-65.828
X72.491Y-120.964
X72.801Y-64.668
X73.813Y-123.647
X74.194Y-62.021
X74.448Y-124.747
X74.829Y-60.921
X75.083Y-125.846
X75.464Y-59.822
X75.718Y-126.946
X76.099Y-58.722
X77.314Y-129.477
X77.762Y-56.235
X78.06Y-130.504
X78.508Y-55.207
X78.807Y-131.531
X79.255Y-54.18
X79.553Y-132.559
X80.001Y-53.153
X81.405Y-134.908
X81.914Y-50.853
X82.254Y-135.852
X82.764Y-49.909
X83.104Y-136.796
X83.614Y-48.966
X83.954Y-137.74
X84.464Y-48.022
X86.041Y-139.883
X86.607Y-45.935
X86.985Y-140.733
X87.551Y-45.085
X87.928Y-141.583
X88.495Y-44.235
X88.872Y-142.432
X89.438Y-43.386
X91.172Y-144.346
X91.788Y-41.534
X92.199Y-145.092
X92.815Y-40.788
X93.226Y-145.839
X93.843Y-40.041
X94.254Y-146.585
X94.87Y-39.295
X96.741Y-148.248
X97.401Y-37.699
X97.841Y-148.883
X98.5Y-37.064
X98.94Y-149.518
X99.6Y-36.429
X100.04Y-150.153
X100.7Y-35.794
X102.687Y-151.546
X103.383Y-34.472
X103.847Y-152.063
X104.543Y-33.955
X105.008Y-152.579
X105.704Y-33.439
X106.168Y-153.096
X106.864Y-32.922
X108.946Y-154.205
X109.671Y-31.888
X110.154Y-154.597
X110.878Y-31.495
X111.362Y-154.99
X112.086Y-31.103
X112.569Y-155.382
X113.294Y-30.71
X115.448Y-156.195
X116.193Y-29.975
X116.69Y-156.459
X117.436Y-29.711
X117.933Y-156.723
X118.678Y-29.447
X119.175Y-156.987
X119.92Y-29.182
X122.123Y-157.494
X122.881Y-28.754
X123.386Y-157.627
X124.144Y-28.621
X124.649Y-157.76
X125.407Y-28.488
X125.912Y-157.893
X126.67Y-28.356
X128.897Y-158.089
X129.659Y-28.239
X130.167Y-158.089
X130.929Y-28.239
X131.437Y-158.089
X132.199Y-28.239
X132.707Y-158.089
X133.469Y-28.239
X135.696Y-157.972
X136.454Y-28.435
X136.959Y-157.84
X137.717Y-28.568
X138.222Y-157.707
X138.98Y-28.701
X139.485Y-157.574
X140.243Y-28.834
X142.446Y-157.146
X143.191Y-29.341
X143.688Y-156.881
X144.433Y-29.605
X144.93Y-156.617
X145.675Y-29.869
X146.172Y-156.353
X146.918Y-30.133
X149.072Y-155.618
X149.796Y-30.946
X150.28Y-155.225
X151.004Y-31.338
X151.487Y-154.833
X152.212Y-31.731
X152.695Y-154.44
X153.42Y-32.123
X155.502Y-153.406
X156.198Y-33.232
X156.662Y-152.889
X157.358Y-33.749
X157.822Y-152.373
X158.518Y-34.265
X158.983Y-151.856
X159.679Y-34.782
X161.666Y-150.534
X162.326Y-36.175
X162.766Y-149.899
X163.425Y-36.81
X163.865Y-149.264
X164.525Y-37.445
X164.965Y-148.629
X165.625Y-38.08
X167.495Y-147.033
X168.112Y-39.743
X168.523Y-146.287
X169.139Y-40.489
X169.55Y-145.54
X170.167Y-41.236
X170.578Y-144.794
X171.194Y-41.982
X172.927Y-142.942
X173.494Y-43.895
X173.871Y-142.093
X174.437Y-44.745
X174.815Y-141.243
X175.381Y-45.595
X175.759Y-140.393
X176.325Y-46.445
X177.902Y-138.306
X178.412Y-48.588
X178.752Y-137.362
X179.262Y-49.532
X179.602Y-136.418
X180.111Y-50.476
X180.451Y-135.475
X180.961Y-51.42
X182.365Y-133.175
X182.813Y-53.769
X183.111Y-132.148
X183.559Y-54.796
X183.858Y-131.12
X184.306Y-55.824
X184.604Y-130.093
X185.052Y-56.851
X186.267Y-127.606
X186.648Y-59.382
X186.902Y-126.506
X187.283Y-60.482
X187.537Y-125.407
X187.918Y-61.581
X188.172Y-124.307
X188.553Y-62.681
X189.565Y-121.66
X189.875Y-65.364
X190.082Y-120.499
X190.392Y-66.525
X190.598Y-119.339
X190.908Y-67.685
X191.115Y-118.179
X191.425Y-68.845
X192.224Y-115.401
X192.459Y-71.652
X192.616Y-114.193
X192.852Y-72.86
X193.009Y-112.985
X193.244Y-74.067
X193.401Y-111.778
X193.637Y-75.275
X194.214Y-108.899
X194.372Y-78.175
X194.478Y-107.656
X194.636Y-79.417
X194.742Y-106.414
X194.9Y-80.659
X195.006Y-105.172
X195.164Y-81.901
X195.513Y-102.224
X195.593Y-84.862
X195.646Y-100.961
X195.726Y-86.125
X195.779Y-99.698
X195.858Y-87.388
X195.912Y-98.435
X195.991Y-88.651
X196.108Y-91.64
X196.108Y-92.91
X196.108Y-94.18
X196.108Y-95.45
T3
X124.46Y-77.47
X126.968Y-108.458
X127.0Y-77.47
X129.508Y-108.458
X129.54Y-77.47
X132.048Y-108.458
X132.08Y-77.47
X134.588Y-108.458
X134.62Y-77.47
X137.128Y-108.458
X137.16Y-77.47
M30
