%TF.GenerationSoftware,KiCad,Pcbnew,9.0.6*%
%TF.CreationDate,2026-02-27T14:54:01+01:00*%
%TF.ProjectId,TD-FDCF01,54442d46-4443-4463-9031-2e6b69636164,rev?*%
%TF.SameCoordinates,Original*%
%TF.FileFunction,Soldermask,Top*%
%TF.FilePolarity,Negative*%
%FSLAX46Y46*%
G04 Gerber Fmt 4.6, Leading zero omitted, Abs format (unit mm)*
G04 Created by KiCad (PCBNEW 9.0.6) date 2026-02-27 14:54:01*
%MOMM*%
%LPD*%
G01*
G04 APERTURE LIST*
G04 Aperture macros list*
%AMHorizOval*
0 Thick line with rounded ends*
0 $1 width*
0 $2 $3 position (X,Y) of the first rounded end (center of the circle)*
0 $4 $5 position (X,Y) of the second rounded end (center of the circle)*
0 Add line between two ends*
20,1,$1,$2,$3,$4,$5,0*
0 Add two circle primitives to create the rounded ends*
1,1,$1,$2,$3*
1,1,$1,$4,$5*%
%AMRotRect*
0 Rectangle, with rotation*
0 The origin of the aperture is its center*
0 $1 length*
0 $2 width*
0 $3 Rotation angle, in degrees counterclockwise*
0 Add horizontal line*
21,1,$1,$2,0,0,$3*%
G04 Aperture macros list end*
%ADD10RotRect,0.900000X1.800000X66.000000*%
%ADD11HorizOval,0.900000X-0.411095X0.183031X0.411095X-0.183031X0*%
%ADD12RotRect,0.900000X1.800000X162.000000*%
%ADD13HorizOval,0.900000X0.139058X0.427975X-0.139058X-0.427975X0*%
%ADD14RotRect,0.900000X1.800000X150.000000*%
%ADD15HorizOval,0.900000X0.225000X0.389711X-0.225000X-0.389711X0*%
%ADD16RotRect,0.900000X1.800000X312.000000*%
%ADD17HorizOval,0.900000X-0.334415X-0.301109X0.334415X0.301109X0*%
%ADD18RotRect,0.900000X1.800000X42.000000*%
%ADD19HorizOval,0.900000X-0.301109X0.334415X0.301109X-0.334415X0*%
%ADD20RotRect,0.900000X1.800000X120.000000*%
%ADD21HorizOval,0.900000X0.389711X0.225000X-0.389711X-0.225000X0*%
%ADD22RotRect,0.900000X1.800000X192.000000*%
%ADD23HorizOval,0.900000X-0.093560X0.440166X0.093560X-0.440166X0*%
%ADD24RotRect,0.900000X1.800000X294.000000*%
%ADD25HorizOval,0.900000X-0.411095X-0.183031X0.411095X0.183031X0*%
%ADD26RotRect,0.900000X1.800000X48.000000*%
%ADD27HorizOval,0.900000X-0.334415X0.301109X0.334415X-0.301109X0*%
%ADD28RotRect,0.900000X1.800000X60.000000*%
%ADD29HorizOval,0.900000X-0.389711X0.225000X0.389711X-0.225000X0*%
%ADD30RotRect,0.900000X1.800000X24.000000*%
%ADD31HorizOval,0.900000X-0.183031X0.411095X0.183031X-0.411095X0*%
%ADD32RotRect,0.900000X1.800000X18.000000*%
%ADD33HorizOval,0.900000X-0.139058X0.427975X0.139058X-0.427975X0*%
%ADD34RotRect,0.900000X1.800000X210.000000*%
%ADD35HorizOval,0.900000X-0.225000X0.389711X0.225000X-0.389711X0*%
%ADD36RotRect,0.900000X1.800000X198.000000*%
%ADD37RotRect,0.900000X1.800000X78.000000*%
%ADD38HorizOval,0.900000X-0.440166X0.093560X0.440166X-0.093560X0*%
%ADD39RotRect,0.900000X1.800000X246.000000*%
%ADD40RotRect,0.900000X1.800000X288.000000*%
%ADD41HorizOval,0.900000X-0.427975X-0.139058X0.427975X0.139058X0*%
%ADD42RotRect,0.900000X1.800000X6.000000*%
%ADD43HorizOval,0.900000X-0.047038X0.447535X0.047038X-0.447535X0*%
%ADD44RotRect,0.900000X1.800000X126.000000*%
%ADD45HorizOval,0.900000X0.364058X0.264503X-0.364058X-0.264503X0*%
%ADD46RotRect,0.900000X1.800000X132.000000*%
%ADD47HorizOval,0.900000X0.334415X0.301109X-0.334415X-0.301109X0*%
%ADD48RotRect,0.900000X1.800000X306.000000*%
%ADD49HorizOval,0.900000X-0.364058X-0.264503X0.364058X0.264503X0*%
%ADD50RotRect,0.900000X1.800000X114.000000*%
%ADD51HorizOval,0.900000X0.411095X0.183031X-0.411095X-0.183031X0*%
%ADD52RotRect,0.900000X1.800000X234.000000*%
%ADD53HorizOval,0.900000X-0.364058X0.264503X0.364058X-0.264503X0*%
%ADD54RotRect,0.900000X1.800000X54.000000*%
%ADD55RotRect,0.900000X1.800000X144.000000*%
%ADD56HorizOval,0.900000X0.264503X0.364058X-0.264503X-0.364058X0*%
%ADD57RotRect,0.900000X1.800000X342.000000*%
%ADD58HorizOval,0.900000X-0.139058X-0.427975X0.139058X0.427975X0*%
%ADD59RotRect,0.900000X1.800000X84.000000*%
%ADD60HorizOval,0.900000X-0.447535X0.047038X0.447535X-0.047038X0*%
%ADD61RotRect,0.900000X1.800000X240.000000*%
%ADD62RotRect,0.900000X1.800000X12.000000*%
%ADD63RotRect,0.900000X1.800000X228.000000*%
%ADD64RotRect,0.900000X1.800000X36.000000*%
%ADD65HorizOval,0.900000X-0.264503X0.364058X0.264503X-0.364058X0*%
%ADD66RotRect,0.900000X1.800000X282.000000*%
%ADD67HorizOval,0.900000X-0.440166X-0.093560X0.440166X0.093560X0*%
%ADD68RotRect,0.900000X1.800000X174.000000*%
%ADD69HorizOval,0.900000X0.047038X0.447535X-0.047038X-0.447535X0*%
%ADD70RotRect,0.900000X1.800000X102.000000*%
%ADD71HorizOval,0.900000X0.440166X0.093560X-0.440166X-0.093560X0*%
%ADD72RotRect,0.900000X1.800000X216.000000*%
%ADD73RotRect,0.900000X1.800000X204.000000*%
%ADD74RotRect,0.900000X1.800000X186.000000*%
%ADD75RotRect,0.900000X1.800000X318.000000*%
%ADD76HorizOval,0.900000X-0.301109X-0.334415X0.301109X0.334415X0*%
%ADD77RotRect,0.900000X1.800000X336.000000*%
%ADD78HorizOval,0.900000X-0.183031X-0.411095X0.183031X0.411095X0*%
%ADD79RotRect,0.900000X1.800000X156.000000*%
%ADD80HorizOval,0.900000X0.183031X0.411095X-0.183031X-0.411095X0*%
%ADD81RotRect,0.900000X1.800000X348.000000*%
%ADD82HorizOval,0.900000X-0.093560X-0.440166X0.093560X0.440166X0*%
%ADD83RotRect,0.900000X1.800000X222.000000*%
%ADD84RotRect,0.900000X1.800000X354.000000*%
%ADD85HorizOval,0.900000X-0.047038X-0.447535X0.047038X0.447535X0*%
%ADD86R,0.900000X1.800000*%
%ADD87O,0.900000X1.800000*%
%ADD88R,1.800000X0.900000*%
%ADD89O,1.800000X0.900000*%
%ADD90RotRect,0.900000X1.800000X258.000000*%
%ADD91RotRect,0.900000X1.800000X264.000000*%
%ADD92RotRect,0.900000X1.800000X138.000000*%
%ADD93HorizOval,0.900000X0.301109X0.334415X-0.301109X-0.334415X0*%
%ADD94RotRect,0.900000X1.800000X30.000000*%
%ADD95RotRect,0.900000X1.800000X276.000000*%
%ADD96HorizOval,0.900000X-0.447535X-0.047038X0.447535X0.047038X0*%
%ADD97RotRect,0.900000X1.800000X168.000000*%
%ADD98HorizOval,0.900000X0.093560X0.440166X-0.093560X-0.440166X0*%
%ADD99RotRect,0.900000X1.800000X330.000000*%
%ADD100HorizOval,0.900000X-0.225000X-0.389711X0.225000X0.389711X0*%
%ADD101RotRect,0.900000X1.800000X96.000000*%
%ADD102HorizOval,0.900000X0.447535X0.047038X-0.447535X-0.047038X0*%
%ADD103RotRect,0.900000X1.800000X324.000000*%
%ADD104HorizOval,0.900000X-0.264503X-0.364058X0.264503X0.364058X0*%
%ADD105RotRect,0.900000X1.800000X300.000000*%
%ADD106HorizOval,0.900000X-0.389711X-0.225000X0.389711X0.225000X0*%
%ADD107RotRect,0.900000X1.800000X108.000000*%
%ADD108HorizOval,0.900000X0.427975X0.139058X-0.427975X-0.139058X0*%
%ADD109RotRect,0.900000X1.800000X72.000000*%
%ADD110HorizOval,0.900000X-0.427975X0.139058X0.427975X-0.139058X0*%
%ADD111RotRect,0.900000X1.800000X252.000000*%
%ADD112R,1.524000X3.000000*%
%ADD113O,1.524000X3.000000*%
G04 APERTURE END LIST*
D10*
%TO.C,D50*%
X72526652Y-64546219D03*
D11*
X72558224Y-65950464D03*
X71493541Y-66866625D03*
X71525113Y-68270870D03*
%TD*%
D12*
%TO.C,D34*%
X108853156Y-154490175D03*
D13*
X110246408Y-154311992D03*
X111268840Y-155275078D03*
X112662091Y-155096896D03*
%TD*%
D14*
%TO.C,D36*%
X96590666Y-148507456D03*
D15*
X97990518Y-148622840D03*
X98790370Y-149777456D03*
X100190223Y-149892840D03*
%TD*%
D16*
%TO.C,D9*%
X181184140Y-51218775D03*
D17*
X179888458Y-50676459D03*
X179484548Y-49331187D03*
X178188866Y-48788871D03*
%TD*%
D18*
%TO.C,D54*%
X89237675Y-43162660D03*
D19*
X88695359Y-44458342D03*
X87350087Y-44862252D03*
X86807771Y-46157934D03*
%TD*%
D20*
%TO.C,D41*%
X73553344Y-123796766D03*
D21*
X74707960Y-124596618D03*
X74823344Y-125996470D03*
X75977960Y-126796323D03*
%TD*%
D22*
%TO.C,D29*%
X142507935Y-157438969D03*
D23*
X143625435Y-156588033D03*
X144992430Y-156910873D03*
X146109930Y-156059938D03*
%TD*%
D24*
%TO.C,D12*%
X191698748Y-68722949D03*
D25*
X190634065Y-67806788D03*
X190665637Y-66402544D03*
X189600953Y-65486383D03*
%TD*%
D26*
%TO.C,D53*%
X84240925Y-47821117D03*
D27*
X83837016Y-49166389D03*
X82541334Y-49708705D03*
X82137424Y-51053977D03*
%TD*%
D28*
%TO.C,D51*%
X75839344Y-58571766D03*
D29*
X75723960Y-59971618D03*
X74569344Y-60771470D03*
X74453960Y-62171323D03*
%TD*%
D30*
%TO.C,D57*%
X106741849Y-32648152D03*
D31*
X105825688Y-33712835D03*
X104421444Y-33681263D03*
X103505283Y-34745947D03*
%TD*%
D32*
%TO.C,D58*%
X113201386Y-30424898D03*
D33*
X112178955Y-31387985D03*
X110785703Y-31209803D03*
X109763271Y-32172888D03*
%TD*%
D34*
%TO.C,D26*%
X161815666Y-150793456D03*
D35*
X162615518Y-149638840D03*
X164015370Y-149523456D03*
X164815223Y-148368840D03*
%TD*%
D36*
%TO.C,D28*%
X149164414Y-155903002D03*
D33*
X150186845Y-154939915D03*
X151580097Y-155118097D03*
X152602529Y-154155012D03*
%TD*%
D37*
%TO.C,D48*%
X67858503Y-77366874D03*
D38*
X68181343Y-78733869D03*
X67330408Y-79851369D03*
X67653248Y-81218364D03*
%TD*%
D39*
%TO.C,D20*%
X189839148Y-121781681D03*
D11*
X189807576Y-120377436D03*
X190872259Y-119461275D03*
X190840687Y-118057030D03*
%TD*%
D40*
%TO.C,D13*%
X193922002Y-75182486D03*
D41*
X192958915Y-74160055D03*
X193137097Y-72766803D03*
X192174012Y-71744371D03*
%TD*%
D42*
%TO.C,D60*%
X126638458Y-28057280D03*
D43*
X125438133Y-28786745D03*
X124112372Y-28322782D03*
X122912047Y-29052248D03*
%TD*%
D44*
%TO.C,D40*%
X77071094Y-129652839D03*
D45*
X78302991Y-130327619D03*
X78564069Y-131707742D03*
X79795966Y-132382522D03*
%TD*%
D46*
%TO.C,D39*%
X81181660Y-135109125D03*
D47*
X82477342Y-135651441D03*
X82881252Y-136996713D03*
X84176934Y-137539029D03*
%TD*%
D48*
%TO.C,D10*%
X185294706Y-56675061D03*
D49*
X184062809Y-56000281D03*
X183801731Y-54620158D03*
X182569834Y-53945378D03*
%TD*%
D50*
%TO.C,D42*%
X70667052Y-117604951D03*
D51*
X71731735Y-118521112D03*
X71700163Y-119925356D03*
X72764847Y-120841517D03*
%TD*%
D52*
%TO.C,D22*%
X182607352Y-133351665D03*
D53*
X182868429Y-131971541D03*
X184100326Y-131296762D03*
X184361403Y-129916638D03*
%TD*%
D54*
%TO.C,D52*%
X79758448Y-52976235D03*
D53*
X79497371Y-54356359D03*
X78265474Y-55031138D03*
X78004397Y-56411262D03*
%TD*%
D55*
%TO.C,D37*%
X90995235Y-144588452D03*
D56*
X92375359Y-144849529D03*
X93050138Y-146081426D03*
X94430262Y-146342503D03*
%TD*%
D57*
%TO.C,D4*%
X153512644Y-31837725D03*
D58*
X152119392Y-32015908D03*
X151096960Y-31052822D03*
X149703709Y-31231004D03*
%TD*%
D59*
%TO.C,D47*%
X66554184Y-84072604D03*
D60*
X67018147Y-85398364D03*
X66288682Y-86598689D03*
X66752645Y-87924450D03*
%TD*%
D61*
%TO.C,D21*%
X186526356Y-127756234D03*
D29*
X186641740Y-126356382D03*
X187796356Y-125556530D03*
X187911740Y-124156677D03*
%TD*%
D62*
%TO.C,D59*%
X119857865Y-28889031D03*
D23*
X118740365Y-29739967D03*
X117373370Y-29417127D03*
X116255870Y-30268062D03*
%TD*%
D63*
%TO.C,D23*%
X178124875Y-138506783D03*
D27*
X178528784Y-137161511D03*
X179824466Y-136619195D03*
X180228376Y-135273923D03*
%TD*%
D64*
%TO.C,D55*%
X94694061Y-39052194D03*
D65*
X94019281Y-40284091D03*
X92639158Y-40545169D03*
X91964378Y-41777066D03*
%TD*%
D66*
%TO.C,D14*%
X195457869Y-81838965D03*
D67*
X194606933Y-80721465D03*
X194929773Y-79354470D03*
X194078838Y-78236970D03*
%TD*%
D68*
%TO.C,D32*%
X122091504Y-157792716D03*
D69*
X123417264Y-157328753D03*
X124617589Y-158058218D03*
X125943350Y-157594255D03*
%TD*%
D70*
%TO.C,D44*%
X66907931Y-104488935D03*
D71*
X67758867Y-105606435D03*
X67436027Y-106973430D03*
X68286962Y-108090930D03*
%TD*%
D72*
%TO.C,D25*%
X167671739Y-147275806D03*
D65*
X168346519Y-146043909D03*
X169726642Y-145782831D03*
X170401422Y-144550934D03*
%TD*%
D73*
%TO.C,D27*%
X155623951Y-153679748D03*
D31*
X156540112Y-152615065D03*
X157944356Y-152646637D03*
X158860517Y-151581953D03*
%TD*%
D74*
%TO.C,D30*%
X135727242Y-158270620D03*
D43*
X136927567Y-157541155D03*
X138253328Y-158005118D03*
X139453653Y-157275652D03*
%TD*%
D75*
%TO.C,D8*%
X176525783Y-46221925D03*
D76*
X175180511Y-45818016D03*
X174638195Y-44522334D03*
X173292923Y-44118424D03*
%TD*%
D77*
%TO.C,D5*%
X159800681Y-34507752D03*
D78*
X158396436Y-34539324D03*
X157480275Y-33474641D03*
X156076030Y-33506213D03*
%TD*%
D79*
%TO.C,D35*%
X102565119Y-151820148D03*
D80*
X103969364Y-151788576D03*
X104885525Y-152853259D03*
X106289770Y-152821687D03*
%TD*%
D81*
%TO.C,D3*%
X146980026Y-29839603D03*
D82*
X145613031Y-30162443D03*
X144495531Y-29311508D03*
X143128536Y-29634348D03*
%TD*%
D83*
%TO.C,D24*%
X173128125Y-143165240D03*
D19*
X173670441Y-141869558D03*
X175015713Y-141465648D03*
X175558029Y-140169966D03*
%TD*%
D84*
%TO.C,D2*%
X140274196Y-28535184D03*
D85*
X138948436Y-28999147D03*
X137748111Y-28269682D03*
X136422350Y-28733645D03*
%TD*%
D86*
%TO.C,D1*%
X133468900Y-27939000D03*
D87*
X132198900Y-28539000D03*
X130928900Y-27939000D03*
X129658900Y-28539000D03*
%TD*%
D88*
%TO.C,D16*%
X196407900Y-95450000D03*
D89*
X195807900Y-94180000D03*
X196407900Y-92910000D03*
X195807900Y-91640000D03*
%TD*%
D90*
%TO.C,D18*%
X194507297Y-108961026D03*
D38*
X194184457Y-107594031D03*
X195035392Y-106476531D03*
X194712552Y-105109536D03*
%TD*%
D91*
%TO.C,D17*%
X195811616Y-102255296D03*
D60*
X195347653Y-100929536D03*
X196077118Y-99729211D03*
X195613155Y-98403450D03*
%TD*%
D92*
%TO.C,D38*%
X85840017Y-140105975D03*
D93*
X87185289Y-140509884D03*
X87727605Y-141805566D03*
X89072877Y-142209476D03*
%TD*%
D94*
%TO.C,D56*%
X100550134Y-35534444D03*
D35*
X99750282Y-36689060D03*
X98350430Y-36804444D03*
X97550577Y-37959060D03*
%TD*%
D95*
%TO.C,D15*%
X196289520Y-88619558D03*
D96*
X195560055Y-87419233D03*
X196024018Y-86093472D03*
X195294552Y-84893147D03*
%TD*%
D97*
%TO.C,D33*%
X115385774Y-156488397D03*
D98*
X116752769Y-156165557D03*
X117870269Y-157016492D03*
X119237264Y-156693652D03*
%TD*%
D99*
%TO.C,D6*%
X165775134Y-37820444D03*
D100*
X164375282Y-37705060D03*
X163575430Y-36550444D03*
X162175577Y-36435060D03*
%TD*%
D88*
%TO.C,D46*%
X65957900Y-90878000D03*
D89*
X66557900Y-92148000D03*
X65957900Y-93418000D03*
X66557900Y-94688000D03*
%TD*%
D101*
%TO.C,D45*%
X66076280Y-97708342D03*
D102*
X66805745Y-98908667D03*
X66341782Y-100234428D03*
X67071248Y-101434753D03*
%TD*%
D103*
%TO.C,D7*%
X171370565Y-41739548D03*
D104*
X169990441Y-41478471D03*
X169315662Y-40246574D03*
X167935538Y-39985497D03*
%TD*%
D105*
%TO.C,D11*%
X188812356Y-62531234D03*
D106*
X187657740Y-61731382D03*
X187542356Y-60331530D03*
X186387740Y-59531677D03*
%TD*%
D86*
%TO.C,D31*%
X128896900Y-158389000D03*
D87*
X130166900Y-157789000D03*
X131436900Y-158389000D03*
X132706900Y-157789000D03*
%TD*%
D107*
%TO.C,D43*%
X68443798Y-111145514D03*
D108*
X69406885Y-112167945D03*
X69228703Y-113561197D03*
X70191788Y-114583629D03*
%TD*%
D109*
%TO.C,D49*%
X69856625Y-70834256D03*
D110*
X70034808Y-72227508D03*
X69071722Y-73249940D03*
X69249904Y-74643191D03*
%TD*%
D111*
%TO.C,D19*%
X192509175Y-115493744D03*
D110*
X192330992Y-114100492D03*
X193294078Y-113078060D03*
X193115896Y-111684809D03*
%TD*%
D112*
%TO.C,U1*%
X124460000Y-77470000D03*
D113*
X127000000Y-77470000D03*
X129540000Y-77470000D03*
X132080000Y-77470000D03*
X134620000Y-77470000D03*
X137160000Y-77470000D03*
D112*
X126968000Y-108458000D03*
D113*
X129508000Y-108458000D03*
X132048000Y-108458000D03*
X134588000Y-108458000D03*
X137128000Y-108458000D03*
%TD*%
M02*
