%TF.GenerationSoftware,KiCad,Pcbnew,9.0.6*%
%TF.CreationDate,2026-02-27T14:54:01+01:00*%
%TF.ProjectId,TD-FDCF01,54442d46-4443-4463-9031-2e6b69636164,rev?*%
%TF.SameCoordinates,Original*%
%TF.FileFunction,Legend,Bot*%
%TF.FilePolarity,Positive*%
%FSLAX46Y46*%
G04 Gerber Fmt 4.6, Leading zero omitted, Abs format (unit mm)*
G04 Created by KiCad (PCBNEW 9.0.6) date 2026-02-27 14:54:01*
%MOMM*%
%LPD*%
G01*
G04 APERTURE LIST*
G04 Aperture macros list*
%AMHorizOval*
0 Thick line with rounded ends*
0 $1 width*
0 $2 $3 position (X,Y) of the first rounded end (center of the circle)*
0 $4 $5 position (X,Y) of the second rounded end (center of the circle)*
0 Add line between two ends*
20,1,$1,$2,$3,$4,$5,0*
0 Add two circle primitives to create the rounded ends*
1,1,$1,$2,$3*
1,1,$1,$4,$5*%
G04 Aperture macros list end*
%ADD10C,0.500000*%
%ADD11C,0.300000*%
%ADD12C,0.150000*%
%ADD13C,0.100000*%
%ADD14C,0.200000*%
%ADD15C,0.120000*%
%ADD16HorizOval,0.900000X-0.411095X0.183031X0.411095X-0.183031X0*%
%ADD17HorizOval,0.900000X0.139058X0.427975X-0.139058X-0.427975X0*%
%ADD18HorizOval,0.900000X0.225000X0.389711X-0.225000X-0.389711X0*%
%ADD19HorizOval,0.900000X-0.334415X-0.301109X0.334415X0.301109X0*%
%ADD20HorizOval,0.900000X-0.301109X0.334415X0.301109X-0.334415X0*%
%ADD21HorizOval,0.900000X0.389711X0.225000X-0.389711X-0.225000X0*%
%ADD22HorizOval,0.900000X-0.093560X0.440166X0.093560X-0.440166X0*%
%ADD23HorizOval,0.900000X-0.411095X-0.183031X0.411095X0.183031X0*%
%ADD24HorizOval,0.900000X-0.334415X0.301109X0.334415X-0.301109X0*%
%ADD25HorizOval,0.900000X-0.389711X0.225000X0.389711X-0.225000X0*%
%ADD26HorizOval,0.900000X-0.183031X0.411095X0.183031X-0.411095X0*%
%ADD27HorizOval,0.900000X-0.139058X0.427975X0.139058X-0.427975X0*%
%ADD28HorizOval,0.900000X-0.225000X0.389711X0.225000X-0.389711X0*%
%ADD29HorizOval,0.900000X-0.440166X0.093560X0.440166X-0.093560X0*%
%ADD30HorizOval,0.900000X-0.427975X-0.139058X0.427975X0.139058X0*%
%ADD31HorizOval,0.900000X-0.047038X0.447535X0.047038X-0.447535X0*%
%ADD32HorizOval,0.900000X0.364058X0.264503X-0.364058X-0.264503X0*%
%ADD33HorizOval,0.900000X0.334415X0.301109X-0.334415X-0.301109X0*%
%ADD34HorizOval,0.900000X-0.364058X-0.264503X0.364058X0.264503X0*%
%ADD35HorizOval,0.900000X0.411095X0.183031X-0.411095X-0.183031X0*%
%ADD36HorizOval,0.900000X-0.364058X0.264503X0.364058X-0.264503X0*%
%ADD37HorizOval,0.900000X0.264503X0.364058X-0.264503X-0.364058X0*%
%ADD38HorizOval,0.900000X-0.139058X-0.427975X0.139058X0.427975X0*%
%ADD39HorizOval,0.900000X-0.447535X0.047038X0.447535X-0.047038X0*%
%ADD40HorizOval,0.900000X-0.264503X0.364058X0.264503X-0.364058X0*%
%ADD41HorizOval,0.900000X-0.440166X-0.093560X0.440166X0.093560X0*%
%ADD42HorizOval,0.900000X0.047038X0.447535X-0.047038X-0.447535X0*%
%ADD43HorizOval,0.900000X0.440166X0.093560X-0.440166X-0.093560X0*%
%ADD44HorizOval,0.900000X-0.301109X-0.334415X0.301109X0.334415X0*%
%ADD45HorizOval,0.900000X-0.183031X-0.411095X0.183031X0.411095X0*%
%ADD46HorizOval,0.900000X0.183031X0.411095X-0.183031X-0.411095X0*%
%ADD47HorizOval,0.900000X-0.093560X-0.440166X0.093560X0.440166X0*%
%ADD48HorizOval,0.900000X-0.047038X-0.447535X0.047038X0.447535X0*%
%ADD49O,0.900000X1.800000*%
%ADD50O,1.800000X0.900000*%
%ADD51HorizOval,0.900000X0.301109X0.334415X-0.301109X-0.334415X0*%
%ADD52HorizOval,0.900000X-0.447535X-0.047038X0.447535X0.047038X0*%
%ADD53HorizOval,0.900000X0.093560X0.440166X-0.093560X-0.440166X0*%
%ADD54HorizOval,0.900000X-0.225000X-0.389711X0.225000X0.389711X0*%
%ADD55HorizOval,0.900000X0.447535X0.047038X-0.447535X-0.047038X0*%
%ADD56HorizOval,0.900000X-0.264503X-0.364058X0.264503X0.364058X0*%
%ADD57HorizOval,0.900000X-0.389711X-0.225000X0.389711X0.225000X0*%
%ADD58HorizOval,0.900000X0.427975X0.139058X-0.427975X-0.139058X0*%
%ADD59HorizOval,0.900000X-0.427975X0.139058X0.427975X-0.139058X0*%
G04 APERTURE END LIST*
D10*
X122067957Y-47328523D02*
X122258433Y-47519000D01*
X122258433Y-47519000D02*
X122829862Y-47709476D01*
X122829862Y-47709476D02*
X123210814Y-47709476D01*
X123210814Y-47709476D02*
X123782243Y-47519000D01*
X123782243Y-47519000D02*
X124163195Y-47138047D01*
X124163195Y-47138047D02*
X124353672Y-46757095D01*
X124353672Y-46757095D02*
X124544148Y-45995190D01*
X124544148Y-45995190D02*
X124544148Y-45423761D01*
X124544148Y-45423761D02*
X124353672Y-44661857D01*
X124353672Y-44661857D02*
X124163195Y-44280904D01*
X124163195Y-44280904D02*
X123782243Y-43899952D01*
X123782243Y-43899952D02*
X123210814Y-43709476D01*
X123210814Y-43709476D02*
X122829862Y-43709476D01*
X122829862Y-43709476D02*
X122258433Y-43899952D01*
X122258433Y-43899952D02*
X122067957Y-44090428D01*
D11*
X165159289Y-116895198D02*
X164016432Y-116895198D01*
X164587861Y-118895198D02*
X164587861Y-116895198D01*
X163349765Y-118895198D02*
X163349765Y-116895198D01*
X162492622Y-118895198D02*
X162492622Y-117847579D01*
X162492622Y-117847579D02*
X162587860Y-117657102D01*
X162587860Y-117657102D02*
X162778336Y-117561864D01*
X162778336Y-117561864D02*
X163064051Y-117561864D01*
X163064051Y-117561864D02*
X163254527Y-117657102D01*
X163254527Y-117657102D02*
X163349765Y-117752340D01*
X161540241Y-118895198D02*
X161540241Y-117561864D01*
X161540241Y-116895198D02*
X161635479Y-116990436D01*
X161635479Y-116990436D02*
X161540241Y-117085674D01*
X161540241Y-117085674D02*
X161445003Y-116990436D01*
X161445003Y-116990436D02*
X161540241Y-116895198D01*
X161540241Y-116895198D02*
X161540241Y-117085674D01*
X160683098Y-118799960D02*
X160492622Y-118895198D01*
X160492622Y-118895198D02*
X160111670Y-118895198D01*
X160111670Y-118895198D02*
X159921193Y-118799960D01*
X159921193Y-118799960D02*
X159825955Y-118609483D01*
X159825955Y-118609483D02*
X159825955Y-118514245D01*
X159825955Y-118514245D02*
X159921193Y-118323769D01*
X159921193Y-118323769D02*
X160111670Y-118228531D01*
X160111670Y-118228531D02*
X160397384Y-118228531D01*
X160397384Y-118228531D02*
X160587860Y-118133293D01*
X160587860Y-118133293D02*
X160683098Y-117942817D01*
X160683098Y-117942817D02*
X160683098Y-117847579D01*
X160683098Y-117847579D02*
X160587860Y-117657102D01*
X160587860Y-117657102D02*
X160397384Y-117561864D01*
X160397384Y-117561864D02*
X160111670Y-117561864D01*
X160111670Y-117561864D02*
X159921193Y-117657102D01*
X157445002Y-118895198D02*
X157445002Y-117561864D01*
X157445002Y-116895198D02*
X157540240Y-116990436D01*
X157540240Y-116990436D02*
X157445002Y-117085674D01*
X157445002Y-117085674D02*
X157349764Y-116990436D01*
X157349764Y-116990436D02*
X157445002Y-116895198D01*
X157445002Y-116895198D02*
X157445002Y-117085674D01*
X156587859Y-118799960D02*
X156397383Y-118895198D01*
X156397383Y-118895198D02*
X156016431Y-118895198D01*
X156016431Y-118895198D02*
X155825954Y-118799960D01*
X155825954Y-118799960D02*
X155730716Y-118609483D01*
X155730716Y-118609483D02*
X155730716Y-118514245D01*
X155730716Y-118514245D02*
X155825954Y-118323769D01*
X155825954Y-118323769D02*
X156016431Y-118228531D01*
X156016431Y-118228531D02*
X156302145Y-118228531D01*
X156302145Y-118228531D02*
X156492621Y-118133293D01*
X156492621Y-118133293D02*
X156587859Y-117942817D01*
X156587859Y-117942817D02*
X156587859Y-117847579D01*
X156587859Y-117847579D02*
X156492621Y-117657102D01*
X156492621Y-117657102D02*
X156302145Y-117561864D01*
X156302145Y-117561864D02*
X156016431Y-117561864D01*
X156016431Y-117561864D02*
X155825954Y-117657102D01*
X153349763Y-118895198D02*
X153349763Y-116895198D01*
X153349763Y-116895198D02*
X152206906Y-118895198D01*
X152206906Y-118895198D02*
X152206906Y-116895198D01*
X150873573Y-116895198D02*
X150492620Y-116895198D01*
X150492620Y-116895198D02*
X150302144Y-116990436D01*
X150302144Y-116990436D02*
X150111668Y-117180912D01*
X150111668Y-117180912D02*
X150016430Y-117561864D01*
X150016430Y-117561864D02*
X150016430Y-118228531D01*
X150016430Y-118228531D02*
X150111668Y-118609483D01*
X150111668Y-118609483D02*
X150302144Y-118799960D01*
X150302144Y-118799960D02*
X150492620Y-118895198D01*
X150492620Y-118895198D02*
X150873573Y-118895198D01*
X150873573Y-118895198D02*
X151064049Y-118799960D01*
X151064049Y-118799960D02*
X151254525Y-118609483D01*
X151254525Y-118609483D02*
X151349763Y-118228531D01*
X151349763Y-118228531D02*
X151349763Y-117561864D01*
X151349763Y-117561864D02*
X151254525Y-117180912D01*
X151254525Y-117180912D02*
X151064049Y-116990436D01*
X151064049Y-116990436D02*
X150873573Y-116895198D01*
X149445001Y-116895198D02*
X148302144Y-116895198D01*
X148873573Y-118895198D02*
X148873573Y-116895198D01*
X145254524Y-118895198D02*
X145254524Y-117847579D01*
X145254524Y-117847579D02*
X145349762Y-117657102D01*
X145349762Y-117657102D02*
X145540238Y-117561864D01*
X145540238Y-117561864D02*
X145921191Y-117561864D01*
X145921191Y-117561864D02*
X146111667Y-117657102D01*
X145254524Y-118799960D02*
X145445000Y-118895198D01*
X145445000Y-118895198D02*
X145921191Y-118895198D01*
X145921191Y-118895198D02*
X146111667Y-118799960D01*
X146111667Y-118799960D02*
X146206905Y-118609483D01*
X146206905Y-118609483D02*
X146206905Y-118419007D01*
X146206905Y-118419007D02*
X146111667Y-118228531D01*
X146111667Y-118228531D02*
X145921191Y-118133293D01*
X145921191Y-118133293D02*
X145445000Y-118133293D01*
X145445000Y-118133293D02*
X145254524Y-118038055D01*
X142778333Y-118895198D02*
X142778333Y-116895198D01*
X142778333Y-116895198D02*
X142302143Y-116895198D01*
X142302143Y-116895198D02*
X142016428Y-116990436D01*
X142016428Y-116990436D02*
X141825952Y-117180912D01*
X141825952Y-117180912D02*
X141730714Y-117371388D01*
X141730714Y-117371388D02*
X141635476Y-117752340D01*
X141635476Y-117752340D02*
X141635476Y-118038055D01*
X141635476Y-118038055D02*
X141730714Y-118419007D01*
X141730714Y-118419007D02*
X141825952Y-118609483D01*
X141825952Y-118609483D02*
X142016428Y-118799960D01*
X142016428Y-118799960D02*
X142302143Y-118895198D01*
X142302143Y-118895198D02*
X142778333Y-118895198D01*
X139635476Y-118704721D02*
X139730714Y-118799960D01*
X139730714Y-118799960D02*
X140016428Y-118895198D01*
X140016428Y-118895198D02*
X140206904Y-118895198D01*
X140206904Y-118895198D02*
X140492619Y-118799960D01*
X140492619Y-118799960D02*
X140683095Y-118609483D01*
X140683095Y-118609483D02*
X140778333Y-118419007D01*
X140778333Y-118419007D02*
X140873571Y-118038055D01*
X140873571Y-118038055D02*
X140873571Y-117752340D01*
X140873571Y-117752340D02*
X140778333Y-117371388D01*
X140778333Y-117371388D02*
X140683095Y-117180912D01*
X140683095Y-117180912D02*
X140492619Y-116990436D01*
X140492619Y-116990436D02*
X140206904Y-116895198D01*
X140206904Y-116895198D02*
X140016428Y-116895198D01*
X140016428Y-116895198D02*
X139730714Y-116990436D01*
X139730714Y-116990436D02*
X139635476Y-117085674D01*
X138111666Y-117847579D02*
X138778333Y-117847579D01*
X138778333Y-118895198D02*
X138778333Y-116895198D01*
X138778333Y-116895198D02*
X137825952Y-116895198D01*
X137254523Y-116895198D02*
X135921190Y-116895198D01*
X135921190Y-116895198D02*
X136778333Y-118895198D01*
X135349761Y-116895198D02*
X134016428Y-116895198D01*
X134016428Y-116895198D02*
X134873571Y-118895198D01*
X131730713Y-118895198D02*
X131730713Y-117561864D01*
X131730713Y-117942817D02*
X131635475Y-117752340D01*
X131635475Y-117752340D02*
X131540237Y-117657102D01*
X131540237Y-117657102D02*
X131349761Y-117561864D01*
X131349761Y-117561864D02*
X131159284Y-117561864D01*
X129635475Y-118895198D02*
X129635475Y-117847579D01*
X129635475Y-117847579D02*
X129730713Y-117657102D01*
X129730713Y-117657102D02*
X129921189Y-117561864D01*
X129921189Y-117561864D02*
X130302142Y-117561864D01*
X130302142Y-117561864D02*
X130492618Y-117657102D01*
X129635475Y-118799960D02*
X129825951Y-118895198D01*
X129825951Y-118895198D02*
X130302142Y-118895198D01*
X130302142Y-118895198D02*
X130492618Y-118799960D01*
X130492618Y-118799960D02*
X130587856Y-118609483D01*
X130587856Y-118609483D02*
X130587856Y-118419007D01*
X130587856Y-118419007D02*
X130492618Y-118228531D01*
X130492618Y-118228531D02*
X130302142Y-118133293D01*
X130302142Y-118133293D02*
X129825951Y-118133293D01*
X129825951Y-118133293D02*
X129635475Y-118038055D01*
X127825951Y-118895198D02*
X127825951Y-116895198D01*
X127825951Y-118799960D02*
X128016427Y-118895198D01*
X128016427Y-118895198D02*
X128397380Y-118895198D01*
X128397380Y-118895198D02*
X128587856Y-118799960D01*
X128587856Y-118799960D02*
X128683094Y-118704721D01*
X128683094Y-118704721D02*
X128778332Y-118514245D01*
X128778332Y-118514245D02*
X128778332Y-117942817D01*
X128778332Y-117942817D02*
X128683094Y-117752340D01*
X128683094Y-117752340D02*
X128587856Y-117657102D01*
X128587856Y-117657102D02*
X128397380Y-117561864D01*
X128397380Y-117561864D02*
X128016427Y-117561864D01*
X128016427Y-117561864D02*
X127825951Y-117657102D01*
X126873570Y-118895198D02*
X126873570Y-117561864D01*
X126873570Y-116895198D02*
X126968808Y-116990436D01*
X126968808Y-116990436D02*
X126873570Y-117085674D01*
X126873570Y-117085674D02*
X126778332Y-116990436D01*
X126778332Y-116990436D02*
X126873570Y-116895198D01*
X126873570Y-116895198D02*
X126873570Y-117085674D01*
X125635475Y-118895198D02*
X125825951Y-118799960D01*
X125825951Y-118799960D02*
X125921189Y-118704721D01*
X125921189Y-118704721D02*
X126016427Y-118514245D01*
X126016427Y-118514245D02*
X126016427Y-117942817D01*
X126016427Y-117942817D02*
X125921189Y-117752340D01*
X125921189Y-117752340D02*
X125825951Y-117657102D01*
X125825951Y-117657102D02*
X125635475Y-117561864D01*
X125635475Y-117561864D02*
X125349760Y-117561864D01*
X125349760Y-117561864D02*
X125159284Y-117657102D01*
X125159284Y-117657102D02*
X125064046Y-117752340D01*
X125064046Y-117752340D02*
X124968808Y-117942817D01*
X124968808Y-117942817D02*
X124968808Y-118514245D01*
X124968808Y-118514245D02*
X125064046Y-118704721D01*
X125064046Y-118704721D02*
X125159284Y-118799960D01*
X125159284Y-118799960D02*
X125349760Y-118895198D01*
X125349760Y-118895198D02*
X125635475Y-118895198D01*
X121730712Y-118799960D02*
X121921188Y-118895198D01*
X121921188Y-118895198D02*
X122302141Y-118895198D01*
X122302141Y-118895198D02*
X122492617Y-118799960D01*
X122492617Y-118799960D02*
X122587855Y-118704721D01*
X122587855Y-118704721D02*
X122683093Y-118514245D01*
X122683093Y-118514245D02*
X122683093Y-117942817D01*
X122683093Y-117942817D02*
X122587855Y-117752340D01*
X122587855Y-117752340D02*
X122492617Y-117657102D01*
X122492617Y-117657102D02*
X122302141Y-117561864D01*
X122302141Y-117561864D02*
X121921188Y-117561864D01*
X121921188Y-117561864D02*
X121730712Y-117657102D01*
X120587855Y-118895198D02*
X120778331Y-118799960D01*
X120778331Y-118799960D02*
X120873569Y-118704721D01*
X120873569Y-118704721D02*
X120968807Y-118514245D01*
X120968807Y-118514245D02*
X120968807Y-117942817D01*
X120968807Y-117942817D02*
X120873569Y-117752340D01*
X120873569Y-117752340D02*
X120778331Y-117657102D01*
X120778331Y-117657102D02*
X120587855Y-117561864D01*
X120587855Y-117561864D02*
X120302140Y-117561864D01*
X120302140Y-117561864D02*
X120111664Y-117657102D01*
X120111664Y-117657102D02*
X120016426Y-117752340D01*
X120016426Y-117752340D02*
X119921188Y-117942817D01*
X119921188Y-117942817D02*
X119921188Y-118514245D01*
X119921188Y-118514245D02*
X120016426Y-118704721D01*
X120016426Y-118704721D02*
X120111664Y-118799960D01*
X120111664Y-118799960D02*
X120302140Y-118895198D01*
X120302140Y-118895198D02*
X120587855Y-118895198D01*
X119064045Y-117561864D02*
X119064045Y-118895198D01*
X119064045Y-117752340D02*
X118968807Y-117657102D01*
X118968807Y-117657102D02*
X118778331Y-117561864D01*
X118778331Y-117561864D02*
X118492616Y-117561864D01*
X118492616Y-117561864D02*
X118302140Y-117657102D01*
X118302140Y-117657102D02*
X118206902Y-117847579D01*
X118206902Y-117847579D02*
X118206902Y-118895198D01*
X117540235Y-117561864D02*
X116778331Y-117561864D01*
X117254521Y-116895198D02*
X117254521Y-118609483D01*
X117254521Y-118609483D02*
X117159283Y-118799960D01*
X117159283Y-118799960D02*
X116968807Y-118895198D01*
X116968807Y-118895198D02*
X116778331Y-118895198D01*
X116111664Y-118895198D02*
X116111664Y-117561864D01*
X116111664Y-117942817D02*
X116016426Y-117752340D01*
X116016426Y-117752340D02*
X115921188Y-117657102D01*
X115921188Y-117657102D02*
X115730712Y-117561864D01*
X115730712Y-117561864D02*
X115540235Y-117561864D01*
X114587855Y-118895198D02*
X114778331Y-118799960D01*
X114778331Y-118799960D02*
X114873569Y-118704721D01*
X114873569Y-118704721D02*
X114968807Y-118514245D01*
X114968807Y-118514245D02*
X114968807Y-117942817D01*
X114968807Y-117942817D02*
X114873569Y-117752340D01*
X114873569Y-117752340D02*
X114778331Y-117657102D01*
X114778331Y-117657102D02*
X114587855Y-117561864D01*
X114587855Y-117561864D02*
X114302140Y-117561864D01*
X114302140Y-117561864D02*
X114111664Y-117657102D01*
X114111664Y-117657102D02*
X114016426Y-117752340D01*
X114016426Y-117752340D02*
X113921188Y-117942817D01*
X113921188Y-117942817D02*
X113921188Y-118514245D01*
X113921188Y-118514245D02*
X114016426Y-118704721D01*
X114016426Y-118704721D02*
X114111664Y-118799960D01*
X114111664Y-118799960D02*
X114302140Y-118895198D01*
X114302140Y-118895198D02*
X114587855Y-118895198D01*
X112778331Y-118895198D02*
X112968807Y-118799960D01*
X112968807Y-118799960D02*
X113064045Y-118609483D01*
X113064045Y-118609483D02*
X113064045Y-116895198D01*
X111730712Y-118895198D02*
X111921188Y-118799960D01*
X111921188Y-118799960D02*
X112016426Y-118609483D01*
X112016426Y-118609483D02*
X112016426Y-116895198D01*
X110206902Y-118799960D02*
X110397378Y-118895198D01*
X110397378Y-118895198D02*
X110778331Y-118895198D01*
X110778331Y-118895198D02*
X110968807Y-118799960D01*
X110968807Y-118799960D02*
X111064045Y-118609483D01*
X111064045Y-118609483D02*
X111064045Y-117847579D01*
X111064045Y-117847579D02*
X110968807Y-117657102D01*
X110968807Y-117657102D02*
X110778331Y-117561864D01*
X110778331Y-117561864D02*
X110397378Y-117561864D01*
X110397378Y-117561864D02*
X110206902Y-117657102D01*
X110206902Y-117657102D02*
X110111664Y-117847579D01*
X110111664Y-117847579D02*
X110111664Y-118038055D01*
X110111664Y-118038055D02*
X111064045Y-118228531D01*
X108397378Y-118895198D02*
X108397378Y-116895198D01*
X108397378Y-118799960D02*
X108587854Y-118895198D01*
X108587854Y-118895198D02*
X108968807Y-118895198D01*
X108968807Y-118895198D02*
X109159283Y-118799960D01*
X109159283Y-118799960D02*
X109254521Y-118704721D01*
X109254521Y-118704721D02*
X109349759Y-118514245D01*
X109349759Y-118514245D02*
X109349759Y-117942817D01*
X109349759Y-117942817D02*
X109254521Y-117752340D01*
X109254521Y-117752340D02*
X109159283Y-117657102D01*
X109159283Y-117657102D02*
X108968807Y-117561864D01*
X108968807Y-117561864D02*
X108587854Y-117561864D01*
X108587854Y-117561864D02*
X108397378Y-117657102D01*
X105064044Y-118799960D02*
X105254520Y-118895198D01*
X105254520Y-118895198D02*
X105635473Y-118895198D01*
X105635473Y-118895198D02*
X105825949Y-118799960D01*
X105825949Y-118799960D02*
X105921187Y-118704721D01*
X105921187Y-118704721D02*
X106016425Y-118514245D01*
X106016425Y-118514245D02*
X106016425Y-117942817D01*
X106016425Y-117942817D02*
X105921187Y-117752340D01*
X105921187Y-117752340D02*
X105825949Y-117657102D01*
X105825949Y-117657102D02*
X105635473Y-117561864D01*
X105635473Y-117561864D02*
X105254520Y-117561864D01*
X105254520Y-117561864D02*
X105064044Y-117657102D01*
X103921187Y-118895198D02*
X104111663Y-118799960D01*
X104111663Y-118799960D02*
X104206901Y-118609483D01*
X104206901Y-118609483D02*
X104206901Y-116895198D01*
X102873568Y-118895198D02*
X103064044Y-118799960D01*
X103064044Y-118799960D02*
X103159282Y-118704721D01*
X103159282Y-118704721D02*
X103254520Y-118514245D01*
X103254520Y-118514245D02*
X103254520Y-117942817D01*
X103254520Y-117942817D02*
X103159282Y-117752340D01*
X103159282Y-117752340D02*
X103064044Y-117657102D01*
X103064044Y-117657102D02*
X102873568Y-117561864D01*
X102873568Y-117561864D02*
X102587853Y-117561864D01*
X102587853Y-117561864D02*
X102397377Y-117657102D01*
X102397377Y-117657102D02*
X102302139Y-117752340D01*
X102302139Y-117752340D02*
X102206901Y-117942817D01*
X102206901Y-117942817D02*
X102206901Y-118514245D01*
X102206901Y-118514245D02*
X102302139Y-118704721D01*
X102302139Y-118704721D02*
X102397377Y-118799960D01*
X102397377Y-118799960D02*
X102587853Y-118895198D01*
X102587853Y-118895198D02*
X102873568Y-118895198D01*
X100492615Y-118799960D02*
X100683091Y-118895198D01*
X100683091Y-118895198D02*
X101064044Y-118895198D01*
X101064044Y-118895198D02*
X101254520Y-118799960D01*
X101254520Y-118799960D02*
X101349758Y-118704721D01*
X101349758Y-118704721D02*
X101444996Y-118514245D01*
X101444996Y-118514245D02*
X101444996Y-117942817D01*
X101444996Y-117942817D02*
X101349758Y-117752340D01*
X101349758Y-117752340D02*
X101254520Y-117657102D01*
X101254520Y-117657102D02*
X101064044Y-117561864D01*
X101064044Y-117561864D02*
X100683091Y-117561864D01*
X100683091Y-117561864D02*
X100492615Y-117657102D01*
X99635472Y-118895198D02*
X99635472Y-116895198D01*
X99444996Y-118133293D02*
X98873567Y-118895198D01*
X98873567Y-117561864D02*
X99635472Y-118323769D01*
X98016424Y-118704721D02*
X97921186Y-118799960D01*
X97921186Y-118799960D02*
X98016424Y-118895198D01*
X98016424Y-118895198D02*
X98111662Y-118799960D01*
X98111662Y-118799960D02*
X98016424Y-118704721D01*
X98016424Y-118704721D02*
X98016424Y-118895198D01*
X165445004Y-120115086D02*
X164302147Y-120115086D01*
X164873576Y-122115086D02*
X164873576Y-120115086D01*
X163635480Y-122115086D02*
X163635480Y-120115086D01*
X162778337Y-122115086D02*
X162778337Y-121067467D01*
X162778337Y-121067467D02*
X162873575Y-120876990D01*
X162873575Y-120876990D02*
X163064051Y-120781752D01*
X163064051Y-120781752D02*
X163349766Y-120781752D01*
X163349766Y-120781752D02*
X163540242Y-120876990D01*
X163540242Y-120876990D02*
X163635480Y-120972228D01*
X161825956Y-122115086D02*
X161825956Y-120781752D01*
X161825956Y-120115086D02*
X161921194Y-120210324D01*
X161921194Y-120210324D02*
X161825956Y-120305562D01*
X161825956Y-120305562D02*
X161730718Y-120210324D01*
X161730718Y-120210324D02*
X161825956Y-120115086D01*
X161825956Y-120115086D02*
X161825956Y-120305562D01*
X160968813Y-122019848D02*
X160778337Y-122115086D01*
X160778337Y-122115086D02*
X160397385Y-122115086D01*
X160397385Y-122115086D02*
X160206908Y-122019848D01*
X160206908Y-122019848D02*
X160111670Y-121829371D01*
X160111670Y-121829371D02*
X160111670Y-121734133D01*
X160111670Y-121734133D02*
X160206908Y-121543657D01*
X160206908Y-121543657D02*
X160397385Y-121448419D01*
X160397385Y-121448419D02*
X160683099Y-121448419D01*
X160683099Y-121448419D02*
X160873575Y-121353181D01*
X160873575Y-121353181D02*
X160968813Y-121162705D01*
X160968813Y-121162705D02*
X160968813Y-121067467D01*
X160968813Y-121067467D02*
X160873575Y-120876990D01*
X160873575Y-120876990D02*
X160683099Y-120781752D01*
X160683099Y-120781752D02*
X160397385Y-120781752D01*
X160397385Y-120781752D02*
X160206908Y-120876990D01*
X157730717Y-122115086D02*
X157730717Y-120781752D01*
X157730717Y-120115086D02*
X157825955Y-120210324D01*
X157825955Y-120210324D02*
X157730717Y-120305562D01*
X157730717Y-120305562D02*
X157635479Y-120210324D01*
X157635479Y-120210324D02*
X157730717Y-120115086D01*
X157730717Y-120115086D02*
X157730717Y-120305562D01*
X156873574Y-122019848D02*
X156683098Y-122115086D01*
X156683098Y-122115086D02*
X156302146Y-122115086D01*
X156302146Y-122115086D02*
X156111669Y-122019848D01*
X156111669Y-122019848D02*
X156016431Y-121829371D01*
X156016431Y-121829371D02*
X156016431Y-121734133D01*
X156016431Y-121734133D02*
X156111669Y-121543657D01*
X156111669Y-121543657D02*
X156302146Y-121448419D01*
X156302146Y-121448419D02*
X156587860Y-121448419D01*
X156587860Y-121448419D02*
X156778336Y-121353181D01*
X156778336Y-121353181D02*
X156873574Y-121162705D01*
X156873574Y-121162705D02*
X156873574Y-121067467D01*
X156873574Y-121067467D02*
X156778336Y-120876990D01*
X156778336Y-120876990D02*
X156587860Y-120781752D01*
X156587860Y-120781752D02*
X156302146Y-120781752D01*
X156302146Y-120781752D02*
X156111669Y-120876990D01*
X152778335Y-122115086D02*
X152778335Y-121067467D01*
X152778335Y-121067467D02*
X152873573Y-120876990D01*
X152873573Y-120876990D02*
X153064049Y-120781752D01*
X153064049Y-120781752D02*
X153445002Y-120781752D01*
X153445002Y-120781752D02*
X153635478Y-120876990D01*
X152778335Y-122019848D02*
X152968811Y-122115086D01*
X152968811Y-122115086D02*
X153445002Y-122115086D01*
X153445002Y-122115086D02*
X153635478Y-122019848D01*
X153635478Y-122019848D02*
X153730716Y-121829371D01*
X153730716Y-121829371D02*
X153730716Y-121638895D01*
X153730716Y-121638895D02*
X153635478Y-121448419D01*
X153635478Y-121448419D02*
X153445002Y-121353181D01*
X153445002Y-121353181D02*
X152968811Y-121353181D01*
X152968811Y-121353181D02*
X152778335Y-121257943D01*
X149445001Y-122019848D02*
X149635477Y-122115086D01*
X149635477Y-122115086D02*
X150016430Y-122115086D01*
X150016430Y-122115086D02*
X150206906Y-122019848D01*
X150206906Y-122019848D02*
X150302144Y-121924609D01*
X150302144Y-121924609D02*
X150397382Y-121734133D01*
X150397382Y-121734133D02*
X150397382Y-121162705D01*
X150397382Y-121162705D02*
X150302144Y-120972228D01*
X150302144Y-120972228D02*
X150206906Y-120876990D01*
X150206906Y-120876990D02*
X150016430Y-120781752D01*
X150016430Y-120781752D02*
X149635477Y-120781752D01*
X149635477Y-120781752D02*
X149445001Y-120876990D01*
X148302144Y-122115086D02*
X148492620Y-122019848D01*
X148492620Y-122019848D02*
X148587858Y-121829371D01*
X148587858Y-121829371D02*
X148587858Y-120115086D01*
X147254525Y-122115086D02*
X147445001Y-122019848D01*
X147445001Y-122019848D02*
X147540239Y-121924609D01*
X147540239Y-121924609D02*
X147635477Y-121734133D01*
X147635477Y-121734133D02*
X147635477Y-121162705D01*
X147635477Y-121162705D02*
X147540239Y-120972228D01*
X147540239Y-120972228D02*
X147445001Y-120876990D01*
X147445001Y-120876990D02*
X147254525Y-120781752D01*
X147254525Y-120781752D02*
X146968810Y-120781752D01*
X146968810Y-120781752D02*
X146778334Y-120876990D01*
X146778334Y-120876990D02*
X146683096Y-120972228D01*
X146683096Y-120972228D02*
X146587858Y-121162705D01*
X146587858Y-121162705D02*
X146587858Y-121734133D01*
X146587858Y-121734133D02*
X146683096Y-121924609D01*
X146683096Y-121924609D02*
X146778334Y-122019848D01*
X146778334Y-122019848D02*
X146968810Y-122115086D01*
X146968810Y-122115086D02*
X147254525Y-122115086D01*
X144873572Y-122019848D02*
X145064048Y-122115086D01*
X145064048Y-122115086D02*
X145445001Y-122115086D01*
X145445001Y-122115086D02*
X145635477Y-122019848D01*
X145635477Y-122019848D02*
X145730715Y-121924609D01*
X145730715Y-121924609D02*
X145825953Y-121734133D01*
X145825953Y-121734133D02*
X145825953Y-121162705D01*
X145825953Y-121162705D02*
X145730715Y-120972228D01*
X145730715Y-120972228D02*
X145635477Y-120876990D01*
X145635477Y-120876990D02*
X145445001Y-120781752D01*
X145445001Y-120781752D02*
X145064048Y-120781752D01*
X145064048Y-120781752D02*
X144873572Y-120876990D01*
X144016429Y-122115086D02*
X144016429Y-120115086D01*
X143825953Y-121353181D02*
X143254524Y-122115086D01*
X143254524Y-120781752D02*
X144016429Y-121543657D01*
X140968809Y-122019848D02*
X140778333Y-122115086D01*
X140778333Y-122115086D02*
X140397381Y-122115086D01*
X140397381Y-122115086D02*
X140206904Y-122019848D01*
X140206904Y-122019848D02*
X140111666Y-121829371D01*
X140111666Y-121829371D02*
X140111666Y-121734133D01*
X140111666Y-121734133D02*
X140206904Y-121543657D01*
X140206904Y-121543657D02*
X140397381Y-121448419D01*
X140397381Y-121448419D02*
X140683095Y-121448419D01*
X140683095Y-121448419D02*
X140873571Y-121353181D01*
X140873571Y-121353181D02*
X140968809Y-121162705D01*
X140968809Y-121162705D02*
X140968809Y-121067467D01*
X140968809Y-121067467D02*
X140873571Y-120876990D01*
X140873571Y-120876990D02*
X140683095Y-120781752D01*
X140683095Y-120781752D02*
X140397381Y-120781752D01*
X140397381Y-120781752D02*
X140206904Y-120876990D01*
X139254523Y-122115086D02*
X139254523Y-120115086D01*
X138397380Y-122115086D02*
X138397380Y-121067467D01*
X138397380Y-121067467D02*
X138492618Y-120876990D01*
X138492618Y-120876990D02*
X138683094Y-120781752D01*
X138683094Y-120781752D02*
X138968809Y-120781752D01*
X138968809Y-120781752D02*
X139159285Y-120876990D01*
X139159285Y-120876990D02*
X139254523Y-120972228D01*
X137159285Y-122115086D02*
X137349761Y-122019848D01*
X137349761Y-122019848D02*
X137444999Y-121924609D01*
X137444999Y-121924609D02*
X137540237Y-121734133D01*
X137540237Y-121734133D02*
X137540237Y-121162705D01*
X137540237Y-121162705D02*
X137444999Y-120972228D01*
X137444999Y-120972228D02*
X137349761Y-120876990D01*
X137349761Y-120876990D02*
X137159285Y-120781752D01*
X137159285Y-120781752D02*
X136873570Y-120781752D01*
X136873570Y-120781752D02*
X136683094Y-120876990D01*
X136683094Y-120876990D02*
X136587856Y-120972228D01*
X136587856Y-120972228D02*
X136492618Y-121162705D01*
X136492618Y-121162705D02*
X136492618Y-121734133D01*
X136492618Y-121734133D02*
X136587856Y-121924609D01*
X136587856Y-121924609D02*
X136683094Y-122019848D01*
X136683094Y-122019848D02*
X136873570Y-122115086D01*
X136873570Y-122115086D02*
X137159285Y-122115086D01*
X135825951Y-120781752D02*
X135444999Y-122115086D01*
X135444999Y-122115086D02*
X135064046Y-121162705D01*
X135064046Y-121162705D02*
X134683094Y-122115086D01*
X134683094Y-122115086D02*
X134302142Y-120781752D01*
X133540237Y-122115086D02*
X133540237Y-120781752D01*
X133540237Y-120115086D02*
X133635475Y-120210324D01*
X133635475Y-120210324D02*
X133540237Y-120305562D01*
X133540237Y-120305562D02*
X133444999Y-120210324D01*
X133444999Y-120210324D02*
X133540237Y-120115086D01*
X133540237Y-120115086D02*
X133540237Y-120305562D01*
X132587856Y-120781752D02*
X132587856Y-122115086D01*
X132587856Y-120972228D02*
X132492618Y-120876990D01*
X132492618Y-120876990D02*
X132302142Y-120781752D01*
X132302142Y-120781752D02*
X132016427Y-120781752D01*
X132016427Y-120781752D02*
X131825951Y-120876990D01*
X131825951Y-120876990D02*
X131730713Y-121067467D01*
X131730713Y-121067467D02*
X131730713Y-122115086D01*
X129921189Y-120781752D02*
X129921189Y-122400800D01*
X129921189Y-122400800D02*
X130016427Y-122591276D01*
X130016427Y-122591276D02*
X130111665Y-122686514D01*
X130111665Y-122686514D02*
X130302142Y-122781752D01*
X130302142Y-122781752D02*
X130587856Y-122781752D01*
X130587856Y-122781752D02*
X130778332Y-122686514D01*
X129921189Y-122019848D02*
X130111665Y-122115086D01*
X130111665Y-122115086D02*
X130492618Y-122115086D01*
X130492618Y-122115086D02*
X130683094Y-122019848D01*
X130683094Y-122019848D02*
X130778332Y-121924609D01*
X130778332Y-121924609D02*
X130873570Y-121734133D01*
X130873570Y-121734133D02*
X130873570Y-121162705D01*
X130873570Y-121162705D02*
X130778332Y-120972228D01*
X130778332Y-120972228D02*
X130683094Y-120876990D01*
X130683094Y-120876990D02*
X130492618Y-120781752D01*
X130492618Y-120781752D02*
X130111665Y-120781752D01*
X130111665Y-120781752D02*
X129921189Y-120876990D01*
X127730712Y-120781752D02*
X126968808Y-120781752D01*
X127444998Y-120115086D02*
X127444998Y-121829371D01*
X127444998Y-121829371D02*
X127349760Y-122019848D01*
X127349760Y-122019848D02*
X127159284Y-122115086D01*
X127159284Y-122115086D02*
X126968808Y-122115086D01*
X126302141Y-122115086D02*
X126302141Y-120115086D01*
X125444998Y-122115086D02*
X125444998Y-121067467D01*
X125444998Y-121067467D02*
X125540236Y-120876990D01*
X125540236Y-120876990D02*
X125730712Y-120781752D01*
X125730712Y-120781752D02*
X126016427Y-120781752D01*
X126016427Y-120781752D02*
X126206903Y-120876990D01*
X126206903Y-120876990D02*
X126302141Y-120972228D01*
X123730712Y-122019848D02*
X123921188Y-122115086D01*
X123921188Y-122115086D02*
X124302141Y-122115086D01*
X124302141Y-122115086D02*
X124492617Y-122019848D01*
X124492617Y-122019848D02*
X124587855Y-121829371D01*
X124587855Y-121829371D02*
X124587855Y-121067467D01*
X124587855Y-121067467D02*
X124492617Y-120876990D01*
X124492617Y-120876990D02*
X124302141Y-120781752D01*
X124302141Y-120781752D02*
X123921188Y-120781752D01*
X123921188Y-120781752D02*
X123730712Y-120876990D01*
X123730712Y-120876990D02*
X123635474Y-121067467D01*
X123635474Y-121067467D02*
X123635474Y-121257943D01*
X123635474Y-121257943D02*
X124587855Y-121448419D01*
X121349759Y-122019848D02*
X121159283Y-122115086D01*
X121159283Y-122115086D02*
X120778331Y-122115086D01*
X120778331Y-122115086D02*
X120587854Y-122019848D01*
X120587854Y-122019848D02*
X120492616Y-121829371D01*
X120492616Y-121829371D02*
X120492616Y-121734133D01*
X120492616Y-121734133D02*
X120587854Y-121543657D01*
X120587854Y-121543657D02*
X120778331Y-121448419D01*
X120778331Y-121448419D02*
X121064045Y-121448419D01*
X121064045Y-121448419D02*
X121254521Y-121353181D01*
X121254521Y-121353181D02*
X121349759Y-121162705D01*
X121349759Y-121162705D02*
X121349759Y-121067467D01*
X121349759Y-121067467D02*
X121254521Y-120876990D01*
X121254521Y-120876990D02*
X121064045Y-120781752D01*
X121064045Y-120781752D02*
X120778331Y-120781752D01*
X120778331Y-120781752D02*
X120587854Y-120876990D01*
X118873568Y-122019848D02*
X119064044Y-122115086D01*
X119064044Y-122115086D02*
X119444997Y-122115086D01*
X119444997Y-122115086D02*
X119635473Y-122019848D01*
X119635473Y-122019848D02*
X119730711Y-121829371D01*
X119730711Y-121829371D02*
X119730711Y-121067467D01*
X119730711Y-121067467D02*
X119635473Y-120876990D01*
X119635473Y-120876990D02*
X119444997Y-120781752D01*
X119444997Y-120781752D02*
X119064044Y-120781752D01*
X119064044Y-120781752D02*
X118873568Y-120876990D01*
X118873568Y-120876990D02*
X118778330Y-121067467D01*
X118778330Y-121067467D02*
X118778330Y-121257943D01*
X118778330Y-121257943D02*
X119730711Y-121448419D01*
X118206901Y-120781752D02*
X117444997Y-120781752D01*
X117921187Y-120115086D02*
X117921187Y-121829371D01*
X117921187Y-121829371D02*
X117825949Y-122019848D01*
X117825949Y-122019848D02*
X117635473Y-122115086D01*
X117635473Y-122115086D02*
X117444997Y-122115086D01*
X115540234Y-120781752D02*
X114778330Y-120781752D01*
X115254520Y-120115086D02*
X115254520Y-121829371D01*
X115254520Y-121829371D02*
X115159282Y-122019848D01*
X115159282Y-122019848D02*
X114968806Y-122115086D01*
X114968806Y-122115086D02*
X114778330Y-122115086D01*
X114111663Y-122115086D02*
X114111663Y-120781752D01*
X114111663Y-120115086D02*
X114206901Y-120210324D01*
X114206901Y-120210324D02*
X114111663Y-120305562D01*
X114111663Y-120305562D02*
X114016425Y-120210324D01*
X114016425Y-120210324D02*
X114111663Y-120115086D01*
X114111663Y-120115086D02*
X114111663Y-120305562D01*
X113159282Y-122115086D02*
X113159282Y-120781752D01*
X113159282Y-120972228D02*
X113064044Y-120876990D01*
X113064044Y-120876990D02*
X112873568Y-120781752D01*
X112873568Y-120781752D02*
X112587853Y-120781752D01*
X112587853Y-120781752D02*
X112397377Y-120876990D01*
X112397377Y-120876990D02*
X112302139Y-121067467D01*
X112302139Y-121067467D02*
X112302139Y-122115086D01*
X112302139Y-121067467D02*
X112206901Y-120876990D01*
X112206901Y-120876990D02*
X112016425Y-120781752D01*
X112016425Y-120781752D02*
X111730711Y-120781752D01*
X111730711Y-120781752D02*
X111540234Y-120876990D01*
X111540234Y-120876990D02*
X111444996Y-121067467D01*
X111444996Y-121067467D02*
X111444996Y-122115086D01*
X109730710Y-122019848D02*
X109921186Y-122115086D01*
X109921186Y-122115086D02*
X110302139Y-122115086D01*
X110302139Y-122115086D02*
X110492615Y-122019848D01*
X110492615Y-122019848D02*
X110587853Y-121829371D01*
X110587853Y-121829371D02*
X110587853Y-121067467D01*
X110587853Y-121067467D02*
X110492615Y-120876990D01*
X110492615Y-120876990D02*
X110302139Y-120781752D01*
X110302139Y-120781752D02*
X109921186Y-120781752D01*
X109921186Y-120781752D02*
X109730710Y-120876990D01*
X109730710Y-120876990D02*
X109635472Y-121067467D01*
X109635472Y-121067467D02*
X109635472Y-121257943D01*
X109635472Y-121257943D02*
X110587853Y-121448419D01*
X106397376Y-122115086D02*
X106397376Y-121067467D01*
X106397376Y-121067467D02*
X106492614Y-120876990D01*
X106492614Y-120876990D02*
X106683090Y-120781752D01*
X106683090Y-120781752D02*
X107064043Y-120781752D01*
X107064043Y-120781752D02*
X107254519Y-120876990D01*
X106397376Y-122019848D02*
X106587852Y-122115086D01*
X106587852Y-122115086D02*
X107064043Y-122115086D01*
X107064043Y-122115086D02*
X107254519Y-122019848D01*
X107254519Y-122019848D02*
X107349757Y-121829371D01*
X107349757Y-121829371D02*
X107349757Y-121638895D01*
X107349757Y-121638895D02*
X107254519Y-121448419D01*
X107254519Y-121448419D02*
X107064043Y-121353181D01*
X107064043Y-121353181D02*
X106587852Y-121353181D01*
X106587852Y-121353181D02*
X106397376Y-121257943D01*
X105540233Y-122019848D02*
X105349757Y-122115086D01*
X105349757Y-122115086D02*
X104968805Y-122115086D01*
X104968805Y-122115086D02*
X104778328Y-122019848D01*
X104778328Y-122019848D02*
X104683090Y-121829371D01*
X104683090Y-121829371D02*
X104683090Y-121734133D01*
X104683090Y-121734133D02*
X104778328Y-121543657D01*
X104778328Y-121543657D02*
X104968805Y-121448419D01*
X104968805Y-121448419D02*
X105254519Y-121448419D01*
X105254519Y-121448419D02*
X105444995Y-121353181D01*
X105444995Y-121353181D02*
X105540233Y-121162705D01*
X105540233Y-121162705D02*
X105540233Y-121067467D01*
X105540233Y-121067467D02*
X105444995Y-120876990D01*
X105444995Y-120876990D02*
X105254519Y-120781752D01*
X105254519Y-120781752D02*
X104968805Y-120781752D01*
X104968805Y-120781752D02*
X104778328Y-120876990D01*
X102302137Y-122115086D02*
X102302137Y-120115086D01*
X102302137Y-120876990D02*
X102111661Y-120781752D01*
X102111661Y-120781752D02*
X101730708Y-120781752D01*
X101730708Y-120781752D02*
X101540232Y-120876990D01*
X101540232Y-120876990D02*
X101444994Y-120972228D01*
X101444994Y-120972228D02*
X101349756Y-121162705D01*
X101349756Y-121162705D02*
X101349756Y-121734133D01*
X101349756Y-121734133D02*
X101444994Y-121924609D01*
X101444994Y-121924609D02*
X101540232Y-122019848D01*
X101540232Y-122019848D02*
X101730708Y-122115086D01*
X101730708Y-122115086D02*
X102111661Y-122115086D01*
X102111661Y-122115086D02*
X102302137Y-122019848D01*
X100492613Y-122115086D02*
X100492613Y-120781752D01*
X100492613Y-120115086D02*
X100587851Y-120210324D01*
X100587851Y-120210324D02*
X100492613Y-120305562D01*
X100492613Y-120305562D02*
X100397375Y-120210324D01*
X100397375Y-120210324D02*
X100492613Y-120115086D01*
X100492613Y-120115086D02*
X100492613Y-120305562D01*
X99825946Y-120781752D02*
X99064042Y-120781752D01*
X99540232Y-120115086D02*
X99540232Y-121829371D01*
X99540232Y-121829371D02*
X99444994Y-122019848D01*
X99444994Y-122019848D02*
X99254518Y-122115086D01*
X99254518Y-122115086D02*
X99064042Y-122115086D01*
X98492613Y-122019848D02*
X98302137Y-122115086D01*
X98302137Y-122115086D02*
X97921185Y-122115086D01*
X97921185Y-122115086D02*
X97730708Y-122019848D01*
X97730708Y-122019848D02*
X97635470Y-121829371D01*
X97635470Y-121829371D02*
X97635470Y-121734133D01*
X97635470Y-121734133D02*
X97730708Y-121543657D01*
X97730708Y-121543657D02*
X97921185Y-121448419D01*
X97921185Y-121448419D02*
X98206899Y-121448419D01*
X98206899Y-121448419D02*
X98397375Y-121353181D01*
X98397375Y-121353181D02*
X98492613Y-121162705D01*
X98492613Y-121162705D02*
X98492613Y-121067467D01*
X98492613Y-121067467D02*
X98397375Y-120876990D01*
X98397375Y-120876990D02*
X98206899Y-120781752D01*
X98206899Y-120781752D02*
X97921185Y-120781752D01*
X97921185Y-120781752D02*
X97730708Y-120876990D01*
X148397382Y-125334974D02*
X148397382Y-124001640D01*
X148397382Y-123334974D02*
X148492620Y-123430212D01*
X148492620Y-123430212D02*
X148397382Y-123525450D01*
X148397382Y-123525450D02*
X148302144Y-123430212D01*
X148302144Y-123430212D02*
X148397382Y-123334974D01*
X148397382Y-123334974D02*
X148397382Y-123525450D01*
X147445001Y-124001640D02*
X147445001Y-125334974D01*
X147445001Y-124192116D02*
X147349763Y-124096878D01*
X147349763Y-124096878D02*
X147159287Y-124001640D01*
X147159287Y-124001640D02*
X146873572Y-124001640D01*
X146873572Y-124001640D02*
X146683096Y-124096878D01*
X146683096Y-124096878D02*
X146587858Y-124287355D01*
X146587858Y-124287355D02*
X146587858Y-125334974D01*
X144397381Y-124001640D02*
X143635477Y-124001640D01*
X144111667Y-123334974D02*
X144111667Y-125049259D01*
X144111667Y-125049259D02*
X144016429Y-125239736D01*
X144016429Y-125239736D02*
X143825953Y-125334974D01*
X143825953Y-125334974D02*
X143635477Y-125334974D01*
X142968810Y-125334974D02*
X142968810Y-123334974D01*
X142111667Y-125334974D02*
X142111667Y-124287355D01*
X142111667Y-124287355D02*
X142206905Y-124096878D01*
X142206905Y-124096878D02*
X142397381Y-124001640D01*
X142397381Y-124001640D02*
X142683096Y-124001640D01*
X142683096Y-124001640D02*
X142873572Y-124096878D01*
X142873572Y-124096878D02*
X142968810Y-124192116D01*
X140397381Y-125239736D02*
X140587857Y-125334974D01*
X140587857Y-125334974D02*
X140968810Y-125334974D01*
X140968810Y-125334974D02*
X141159286Y-125239736D01*
X141159286Y-125239736D02*
X141254524Y-125049259D01*
X141254524Y-125049259D02*
X141254524Y-124287355D01*
X141254524Y-124287355D02*
X141159286Y-124096878D01*
X141159286Y-124096878D02*
X140968810Y-124001640D01*
X140968810Y-124001640D02*
X140587857Y-124001640D01*
X140587857Y-124001640D02*
X140397381Y-124096878D01*
X140397381Y-124096878D02*
X140302143Y-124287355D01*
X140302143Y-124287355D02*
X140302143Y-124477831D01*
X140302143Y-124477831D02*
X141254524Y-124668307D01*
X137921190Y-125334974D02*
X137921190Y-123334974D01*
X137921190Y-123334974D02*
X137445000Y-123334974D01*
X137445000Y-123334974D02*
X137159285Y-123430212D01*
X137159285Y-123430212D02*
X136968809Y-123620688D01*
X136968809Y-123620688D02*
X136873571Y-123811164D01*
X136873571Y-123811164D02*
X136778333Y-124192116D01*
X136778333Y-124192116D02*
X136778333Y-124477831D01*
X136778333Y-124477831D02*
X136873571Y-124858783D01*
X136873571Y-124858783D02*
X136968809Y-125049259D01*
X136968809Y-125049259D02*
X137159285Y-125239736D01*
X137159285Y-125239736D02*
X137445000Y-125334974D01*
X137445000Y-125334974D02*
X137921190Y-125334974D01*
X134778333Y-125144497D02*
X134873571Y-125239736D01*
X134873571Y-125239736D02*
X135159285Y-125334974D01*
X135159285Y-125334974D02*
X135349761Y-125334974D01*
X135349761Y-125334974D02*
X135635476Y-125239736D01*
X135635476Y-125239736D02*
X135825952Y-125049259D01*
X135825952Y-125049259D02*
X135921190Y-124858783D01*
X135921190Y-124858783D02*
X136016428Y-124477831D01*
X136016428Y-124477831D02*
X136016428Y-124192116D01*
X136016428Y-124192116D02*
X135921190Y-123811164D01*
X135921190Y-123811164D02*
X135825952Y-123620688D01*
X135825952Y-123620688D02*
X135635476Y-123430212D01*
X135635476Y-123430212D02*
X135349761Y-123334974D01*
X135349761Y-123334974D02*
X135159285Y-123334974D01*
X135159285Y-123334974D02*
X134873571Y-123430212D01*
X134873571Y-123430212D02*
X134778333Y-123525450D01*
X133254523Y-124287355D02*
X133921190Y-124287355D01*
X133921190Y-125334974D02*
X133921190Y-123334974D01*
X133921190Y-123334974D02*
X132968809Y-123334974D01*
X132397380Y-123334974D02*
X131064047Y-123334974D01*
X131064047Y-123334974D02*
X131921190Y-125334974D01*
X130492618Y-123334974D02*
X129159285Y-123334974D01*
X129159285Y-123334974D02*
X130016428Y-125334974D01*
X126873570Y-124001640D02*
X126873570Y-126001640D01*
X126873570Y-124096878D02*
X126683094Y-124001640D01*
X126683094Y-124001640D02*
X126302141Y-124001640D01*
X126302141Y-124001640D02*
X126111665Y-124096878D01*
X126111665Y-124096878D02*
X126016427Y-124192116D01*
X126016427Y-124192116D02*
X125921189Y-124382593D01*
X125921189Y-124382593D02*
X125921189Y-124954021D01*
X125921189Y-124954021D02*
X126016427Y-125144497D01*
X126016427Y-125144497D02*
X126111665Y-125239736D01*
X126111665Y-125239736D02*
X126302141Y-125334974D01*
X126302141Y-125334974D02*
X126683094Y-125334974D01*
X126683094Y-125334974D02*
X126873570Y-125239736D01*
X125064046Y-125334974D02*
X125064046Y-124001640D01*
X125064046Y-124382593D02*
X124968808Y-124192116D01*
X124968808Y-124192116D02*
X124873570Y-124096878D01*
X124873570Y-124096878D02*
X124683094Y-124001640D01*
X124683094Y-124001640D02*
X124492617Y-124001640D01*
X123540237Y-125334974D02*
X123730713Y-125239736D01*
X123730713Y-125239736D02*
X123825951Y-125144497D01*
X123825951Y-125144497D02*
X123921189Y-124954021D01*
X123921189Y-124954021D02*
X123921189Y-124382593D01*
X123921189Y-124382593D02*
X123825951Y-124192116D01*
X123825951Y-124192116D02*
X123730713Y-124096878D01*
X123730713Y-124096878D02*
X123540237Y-124001640D01*
X123540237Y-124001640D02*
X123254522Y-124001640D01*
X123254522Y-124001640D02*
X123064046Y-124096878D01*
X123064046Y-124096878D02*
X122968808Y-124192116D01*
X122968808Y-124192116D02*
X122873570Y-124382593D01*
X122873570Y-124382593D02*
X122873570Y-124954021D01*
X122873570Y-124954021D02*
X122968808Y-125144497D01*
X122968808Y-125144497D02*
X123064046Y-125239736D01*
X123064046Y-125239736D02*
X123254522Y-125334974D01*
X123254522Y-125334974D02*
X123540237Y-125334974D01*
X122302141Y-124001640D02*
X121540237Y-124001640D01*
X122016427Y-123334974D02*
X122016427Y-125049259D01*
X122016427Y-125049259D02*
X121921189Y-125239736D01*
X121921189Y-125239736D02*
X121730713Y-125334974D01*
X121730713Y-125334974D02*
X121540237Y-125334974D01*
X120587856Y-125334974D02*
X120778332Y-125239736D01*
X120778332Y-125239736D02*
X120873570Y-125144497D01*
X120873570Y-125144497D02*
X120968808Y-124954021D01*
X120968808Y-124954021D02*
X120968808Y-124382593D01*
X120968808Y-124382593D02*
X120873570Y-124192116D01*
X120873570Y-124192116D02*
X120778332Y-124096878D01*
X120778332Y-124096878D02*
X120587856Y-124001640D01*
X120587856Y-124001640D02*
X120302141Y-124001640D01*
X120302141Y-124001640D02*
X120111665Y-124096878D01*
X120111665Y-124096878D02*
X120016427Y-124192116D01*
X120016427Y-124192116D02*
X119921189Y-124382593D01*
X119921189Y-124382593D02*
X119921189Y-124954021D01*
X119921189Y-124954021D02*
X120016427Y-125144497D01*
X120016427Y-125144497D02*
X120111665Y-125239736D01*
X120111665Y-125239736D02*
X120302141Y-125334974D01*
X120302141Y-125334974D02*
X120587856Y-125334974D01*
X118206903Y-125239736D02*
X118397379Y-125334974D01*
X118397379Y-125334974D02*
X118778332Y-125334974D01*
X118778332Y-125334974D02*
X118968808Y-125239736D01*
X118968808Y-125239736D02*
X119064046Y-125144497D01*
X119064046Y-125144497D02*
X119159284Y-124954021D01*
X119159284Y-124954021D02*
X119159284Y-124382593D01*
X119159284Y-124382593D02*
X119064046Y-124192116D01*
X119064046Y-124192116D02*
X118968808Y-124096878D01*
X118968808Y-124096878D02*
X118778332Y-124001640D01*
X118778332Y-124001640D02*
X118397379Y-124001640D01*
X118397379Y-124001640D02*
X118206903Y-124096878D01*
X117064046Y-125334974D02*
X117254522Y-125239736D01*
X117254522Y-125239736D02*
X117349760Y-125144497D01*
X117349760Y-125144497D02*
X117444998Y-124954021D01*
X117444998Y-124954021D02*
X117444998Y-124382593D01*
X117444998Y-124382593D02*
X117349760Y-124192116D01*
X117349760Y-124192116D02*
X117254522Y-124096878D01*
X117254522Y-124096878D02*
X117064046Y-124001640D01*
X117064046Y-124001640D02*
X116778331Y-124001640D01*
X116778331Y-124001640D02*
X116587855Y-124096878D01*
X116587855Y-124096878D02*
X116492617Y-124192116D01*
X116492617Y-124192116D02*
X116397379Y-124382593D01*
X116397379Y-124382593D02*
X116397379Y-124954021D01*
X116397379Y-124954021D02*
X116492617Y-125144497D01*
X116492617Y-125144497D02*
X116587855Y-125239736D01*
X116587855Y-125239736D02*
X116778331Y-125334974D01*
X116778331Y-125334974D02*
X117064046Y-125334974D01*
X115254522Y-125334974D02*
X115444998Y-125239736D01*
X115444998Y-125239736D02*
X115540236Y-125049259D01*
X115540236Y-125049259D02*
X115540236Y-123334974D01*
X114492617Y-125144497D02*
X114397379Y-125239736D01*
X114397379Y-125239736D02*
X114492617Y-125334974D01*
X114492617Y-125334974D02*
X114587855Y-125239736D01*
X114587855Y-125239736D02*
X114492617Y-125144497D01*
X114492617Y-125144497D02*
X114492617Y-125334974D01*
X165111669Y-131774750D02*
X165111669Y-129774750D01*
X165111669Y-129774750D02*
X163968812Y-131774750D01*
X163968812Y-131774750D02*
X163968812Y-129774750D01*
X162635479Y-129774750D02*
X162254526Y-129774750D01*
X162254526Y-129774750D02*
X162064050Y-129869988D01*
X162064050Y-129869988D02*
X161873574Y-130060464D01*
X161873574Y-130060464D02*
X161778336Y-130441416D01*
X161778336Y-130441416D02*
X161778336Y-131108083D01*
X161778336Y-131108083D02*
X161873574Y-131489035D01*
X161873574Y-131489035D02*
X162064050Y-131679512D01*
X162064050Y-131679512D02*
X162254526Y-131774750D01*
X162254526Y-131774750D02*
X162635479Y-131774750D01*
X162635479Y-131774750D02*
X162825955Y-131679512D01*
X162825955Y-131679512D02*
X163016431Y-131489035D01*
X163016431Y-131489035D02*
X163111669Y-131108083D01*
X163111669Y-131108083D02*
X163111669Y-130441416D01*
X163111669Y-130441416D02*
X163016431Y-130060464D01*
X163016431Y-130060464D02*
X162825955Y-129869988D01*
X162825955Y-129869988D02*
X162635479Y-129774750D01*
X159587859Y-129774750D02*
X159111669Y-131774750D01*
X159111669Y-131774750D02*
X158730716Y-130346178D01*
X158730716Y-130346178D02*
X158349764Y-131774750D01*
X158349764Y-131774750D02*
X157873574Y-129774750D01*
X157111669Y-130727131D02*
X156445002Y-130727131D01*
X156159288Y-131774750D02*
X157111669Y-131774750D01*
X157111669Y-131774750D02*
X157111669Y-129774750D01*
X157111669Y-129774750D02*
X156159288Y-129774750D01*
X155397383Y-131203321D02*
X154445002Y-131203321D01*
X155587859Y-131774750D02*
X154921193Y-129774750D01*
X154921193Y-129774750D02*
X154254526Y-131774750D01*
X153873573Y-129774750D02*
X152730716Y-129774750D01*
X153302145Y-131774750D02*
X153302145Y-129774750D01*
X152064049Y-131774750D02*
X152064049Y-129774750D01*
X152064049Y-130727131D02*
X150921192Y-130727131D01*
X150921192Y-131774750D02*
X150921192Y-129774750D01*
X149968811Y-130727131D02*
X149302144Y-130727131D01*
X149016430Y-131774750D02*
X149968811Y-131774750D01*
X149968811Y-131774750D02*
X149968811Y-129774750D01*
X149968811Y-129774750D02*
X149016430Y-129774750D01*
X147016430Y-131774750D02*
X147683097Y-130822369D01*
X148159287Y-131774750D02*
X148159287Y-129774750D01*
X148159287Y-129774750D02*
X147397382Y-129774750D01*
X147397382Y-129774750D02*
X147206906Y-129869988D01*
X147206906Y-129869988D02*
X147111668Y-129965226D01*
X147111668Y-129965226D02*
X147016430Y-130155702D01*
X147016430Y-130155702D02*
X147016430Y-130441416D01*
X147016430Y-130441416D02*
X147111668Y-130631892D01*
X147111668Y-130631892D02*
X147206906Y-130727131D01*
X147206906Y-130727131D02*
X147397382Y-130822369D01*
X147397382Y-130822369D02*
X148159287Y-130822369D01*
X144635477Y-131774750D02*
X144635477Y-129774750D01*
X144635477Y-129774750D02*
X144159287Y-129774750D01*
X144159287Y-129774750D02*
X143873572Y-129869988D01*
X143873572Y-129869988D02*
X143683096Y-130060464D01*
X143683096Y-130060464D02*
X143587858Y-130250940D01*
X143587858Y-130250940D02*
X143492620Y-130631892D01*
X143492620Y-130631892D02*
X143492620Y-130917607D01*
X143492620Y-130917607D02*
X143587858Y-131298559D01*
X143587858Y-131298559D02*
X143683096Y-131489035D01*
X143683096Y-131489035D02*
X143873572Y-131679512D01*
X143873572Y-131679512D02*
X144159287Y-131774750D01*
X144159287Y-131774750D02*
X144635477Y-131774750D01*
X142730715Y-131203321D02*
X141778334Y-131203321D01*
X142921191Y-131774750D02*
X142254525Y-129774750D01*
X142254525Y-129774750D02*
X141587858Y-131774750D01*
X141206905Y-129774750D02*
X140064048Y-129774750D01*
X140635477Y-131774750D02*
X140635477Y-129774750D01*
X139492619Y-131203321D02*
X138540238Y-131203321D01*
X139683095Y-131774750D02*
X139016429Y-129774750D01*
X139016429Y-129774750D02*
X138349762Y-131774750D01*
X135302142Y-131774750D02*
X135302142Y-130727131D01*
X135302142Y-130727131D02*
X135397380Y-130536654D01*
X135397380Y-130536654D02*
X135587856Y-130441416D01*
X135587856Y-130441416D02*
X135968809Y-130441416D01*
X135968809Y-130441416D02*
X136159285Y-130536654D01*
X135302142Y-131679512D02*
X135492618Y-131774750D01*
X135492618Y-131774750D02*
X135968809Y-131774750D01*
X135968809Y-131774750D02*
X136159285Y-131679512D01*
X136159285Y-131679512D02*
X136254523Y-131489035D01*
X136254523Y-131489035D02*
X136254523Y-131298559D01*
X136254523Y-131298559D02*
X136159285Y-131108083D01*
X136159285Y-131108083D02*
X135968809Y-131012845D01*
X135968809Y-131012845D02*
X135492618Y-131012845D01*
X135492618Y-131012845D02*
X135302142Y-130917607D01*
X134349761Y-130441416D02*
X134349761Y-131774750D01*
X134349761Y-130631892D02*
X134254523Y-130536654D01*
X134254523Y-130536654D02*
X134064047Y-130441416D01*
X134064047Y-130441416D02*
X133778332Y-130441416D01*
X133778332Y-130441416D02*
X133587856Y-130536654D01*
X133587856Y-130536654D02*
X133492618Y-130727131D01*
X133492618Y-130727131D02*
X133492618Y-131774750D01*
X131683094Y-131774750D02*
X131683094Y-129774750D01*
X131683094Y-131679512D02*
X131873570Y-131774750D01*
X131873570Y-131774750D02*
X132254523Y-131774750D01*
X132254523Y-131774750D02*
X132444999Y-131679512D01*
X132444999Y-131679512D02*
X132540237Y-131584273D01*
X132540237Y-131584273D02*
X132635475Y-131393797D01*
X132635475Y-131393797D02*
X132635475Y-130822369D01*
X132635475Y-130822369D02*
X132540237Y-130631892D01*
X132540237Y-130631892D02*
X132444999Y-130536654D01*
X132444999Y-130536654D02*
X132254523Y-130441416D01*
X132254523Y-130441416D02*
X131873570Y-130441416D01*
X131873570Y-130441416D02*
X131683094Y-130536654D01*
X129206903Y-131774750D02*
X129206903Y-129774750D01*
X129206903Y-129774750D02*
X128064046Y-131774750D01*
X128064046Y-131774750D02*
X128064046Y-129774750D01*
X126730713Y-129774750D02*
X126349760Y-129774750D01*
X126349760Y-129774750D02*
X126159284Y-129869988D01*
X126159284Y-129869988D02*
X125968808Y-130060464D01*
X125968808Y-130060464D02*
X125873570Y-130441416D01*
X125873570Y-130441416D02*
X125873570Y-131108083D01*
X125873570Y-131108083D02*
X125968808Y-131489035D01*
X125968808Y-131489035D02*
X126159284Y-131679512D01*
X126159284Y-131679512D02*
X126349760Y-131774750D01*
X126349760Y-131774750D02*
X126730713Y-131774750D01*
X126730713Y-131774750D02*
X126921189Y-131679512D01*
X126921189Y-131679512D02*
X127111665Y-131489035D01*
X127111665Y-131489035D02*
X127206903Y-131108083D01*
X127206903Y-131108083D02*
X127206903Y-130441416D01*
X127206903Y-130441416D02*
X127111665Y-130060464D01*
X127111665Y-130060464D02*
X126921189Y-129869988D01*
X126921189Y-129869988D02*
X126730713Y-129774750D01*
X123587855Y-131203321D02*
X122635474Y-131203321D01*
X123778331Y-131774750D02*
X123111665Y-129774750D01*
X123111665Y-129774750D02*
X122444998Y-131774750D01*
X120825950Y-131774750D02*
X121778331Y-131774750D01*
X121778331Y-131774750D02*
X121778331Y-129774750D01*
X120159283Y-130727131D02*
X119492616Y-130727131D01*
X119206902Y-131774750D02*
X120159283Y-131774750D01*
X120159283Y-131774750D02*
X120159283Y-129774750D01*
X120159283Y-129774750D02*
X119206902Y-129774750D01*
X117206902Y-131774750D02*
X117873569Y-130822369D01*
X118349759Y-131774750D02*
X118349759Y-129774750D01*
X118349759Y-129774750D02*
X117587854Y-129774750D01*
X117587854Y-129774750D02*
X117397378Y-129869988D01*
X117397378Y-129869988D02*
X117302140Y-129965226D01*
X117302140Y-129965226D02*
X117206902Y-130155702D01*
X117206902Y-130155702D02*
X117206902Y-130441416D01*
X117206902Y-130441416D02*
X117302140Y-130631892D01*
X117302140Y-130631892D02*
X117397378Y-130727131D01*
X117397378Y-130727131D02*
X117587854Y-130822369D01*
X117587854Y-130822369D02*
X118349759Y-130822369D01*
X116635473Y-129774750D02*
X115492616Y-129774750D01*
X116064045Y-131774750D02*
X116064045Y-129774750D01*
X114921187Y-131679512D02*
X114635473Y-131774750D01*
X114635473Y-131774750D02*
X114159282Y-131774750D01*
X114159282Y-131774750D02*
X113968806Y-131679512D01*
X113968806Y-131679512D02*
X113873568Y-131584273D01*
X113873568Y-131584273D02*
X113778330Y-131393797D01*
X113778330Y-131393797D02*
X113778330Y-131203321D01*
X113778330Y-131203321D02*
X113873568Y-131012845D01*
X113873568Y-131012845D02*
X113968806Y-130917607D01*
X113968806Y-130917607D02*
X114159282Y-130822369D01*
X114159282Y-130822369D02*
X114540235Y-130727131D01*
X114540235Y-130727131D02*
X114730711Y-130631892D01*
X114730711Y-130631892D02*
X114825949Y-130536654D01*
X114825949Y-130536654D02*
X114921187Y-130346178D01*
X114921187Y-130346178D02*
X114921187Y-130155702D01*
X114921187Y-130155702D02*
X114825949Y-129965226D01*
X114825949Y-129965226D02*
X114730711Y-129869988D01*
X114730711Y-129869988D02*
X114540235Y-129774750D01*
X114540235Y-129774750D02*
X114064044Y-129774750D01*
X114064044Y-129774750D02*
X113778330Y-129869988D01*
X111397377Y-131774750D02*
X111397377Y-129774750D01*
X111397377Y-129774750D02*
X110635472Y-129774750D01*
X110635472Y-129774750D02*
X110444996Y-129869988D01*
X110444996Y-129869988D02*
X110349758Y-129965226D01*
X110349758Y-129965226D02*
X110254520Y-130155702D01*
X110254520Y-130155702D02*
X110254520Y-130441416D01*
X110254520Y-130441416D02*
X110349758Y-130631892D01*
X110349758Y-130631892D02*
X110444996Y-130727131D01*
X110444996Y-130727131D02*
X110635472Y-130822369D01*
X110635472Y-130822369D02*
X111397377Y-130822369D01*
X108254520Y-131774750D02*
X108921187Y-130822369D01*
X109397377Y-131774750D02*
X109397377Y-129774750D01*
X109397377Y-129774750D02*
X108635472Y-129774750D01*
X108635472Y-129774750D02*
X108444996Y-129869988D01*
X108444996Y-129869988D02*
X108349758Y-129965226D01*
X108349758Y-129965226D02*
X108254520Y-130155702D01*
X108254520Y-130155702D02*
X108254520Y-130441416D01*
X108254520Y-130441416D02*
X108349758Y-130631892D01*
X108349758Y-130631892D02*
X108444996Y-130727131D01*
X108444996Y-130727131D02*
X108635472Y-130822369D01*
X108635472Y-130822369D02*
X109397377Y-130822369D01*
X107016425Y-129774750D02*
X106635472Y-129774750D01*
X106635472Y-129774750D02*
X106444996Y-129869988D01*
X106444996Y-129869988D02*
X106254520Y-130060464D01*
X106254520Y-130060464D02*
X106159282Y-130441416D01*
X106159282Y-130441416D02*
X106159282Y-131108083D01*
X106159282Y-131108083D02*
X106254520Y-131489035D01*
X106254520Y-131489035D02*
X106444996Y-131679512D01*
X106444996Y-131679512D02*
X106635472Y-131774750D01*
X106635472Y-131774750D02*
X107016425Y-131774750D01*
X107016425Y-131774750D02*
X107206901Y-131679512D01*
X107206901Y-131679512D02*
X107397377Y-131489035D01*
X107397377Y-131489035D02*
X107492615Y-131108083D01*
X107492615Y-131108083D02*
X107492615Y-130441416D01*
X107492615Y-130441416D02*
X107397377Y-130060464D01*
X107397377Y-130060464D02*
X107206901Y-129869988D01*
X107206901Y-129869988D02*
X107016425Y-129774750D01*
X105587853Y-129774750D02*
X104921187Y-131774750D01*
X104921187Y-131774750D02*
X104254520Y-129774750D01*
X103587853Y-131774750D02*
X103587853Y-129774750D01*
X102635472Y-131774750D02*
X102635472Y-129774750D01*
X102635472Y-129774750D02*
X102159282Y-129774750D01*
X102159282Y-129774750D02*
X101873567Y-129869988D01*
X101873567Y-129869988D02*
X101683091Y-130060464D01*
X101683091Y-130060464D02*
X101587853Y-130250940D01*
X101587853Y-130250940D02*
X101492615Y-130631892D01*
X101492615Y-130631892D02*
X101492615Y-130917607D01*
X101492615Y-130917607D02*
X101587853Y-131298559D01*
X101587853Y-131298559D02*
X101683091Y-131489035D01*
X101683091Y-131489035D02*
X101873567Y-131679512D01*
X101873567Y-131679512D02*
X102159282Y-131774750D01*
X102159282Y-131774750D02*
X102635472Y-131774750D01*
X100635472Y-130727131D02*
X99968805Y-130727131D01*
X99683091Y-131774750D02*
X100635472Y-131774750D01*
X100635472Y-131774750D02*
X100635472Y-129774750D01*
X100635472Y-129774750D02*
X99683091Y-129774750D01*
X98825948Y-131774750D02*
X98825948Y-129774750D01*
X98825948Y-129774750D02*
X98349758Y-129774750D01*
X98349758Y-129774750D02*
X98064043Y-129869988D01*
X98064043Y-129869988D02*
X97873567Y-130060464D01*
X97873567Y-130060464D02*
X97778329Y-130250940D01*
X97778329Y-130250940D02*
X97683091Y-130631892D01*
X97683091Y-130631892D02*
X97683091Y-130917607D01*
X97683091Y-130917607D02*
X97778329Y-131298559D01*
X97778329Y-131298559D02*
X97873567Y-131489035D01*
X97873567Y-131489035D02*
X98064043Y-131679512D01*
X98064043Y-131679512D02*
X98349758Y-131774750D01*
X98349758Y-131774750D02*
X98825948Y-131774750D01*
X152587859Y-133947019D02*
X152302145Y-134042257D01*
X152302145Y-134042257D02*
X152206907Y-134137495D01*
X152206907Y-134137495D02*
X152111669Y-134327971D01*
X152111669Y-134327971D02*
X152111669Y-134613685D01*
X152111669Y-134613685D02*
X152206907Y-134804161D01*
X152206907Y-134804161D02*
X152302145Y-134899400D01*
X152302145Y-134899400D02*
X152492621Y-134994638D01*
X152492621Y-134994638D02*
X153254526Y-134994638D01*
X153254526Y-134994638D02*
X153254526Y-132994638D01*
X153254526Y-132994638D02*
X152587859Y-132994638D01*
X152587859Y-132994638D02*
X152397383Y-133089876D01*
X152397383Y-133089876D02*
X152302145Y-133185114D01*
X152302145Y-133185114D02*
X152206907Y-133375590D01*
X152206907Y-133375590D02*
X152206907Y-133566066D01*
X152206907Y-133566066D02*
X152302145Y-133756542D01*
X152302145Y-133756542D02*
X152397383Y-133851780D01*
X152397383Y-133851780D02*
X152587859Y-133947019D01*
X152587859Y-133947019D02*
X153254526Y-133947019D01*
X151254526Y-134994638D02*
X151254526Y-133661304D01*
X151254526Y-132994638D02*
X151349764Y-133089876D01*
X151349764Y-133089876D02*
X151254526Y-133185114D01*
X151254526Y-133185114D02*
X151159288Y-133089876D01*
X151159288Y-133089876D02*
X151254526Y-132994638D01*
X151254526Y-132994638D02*
X151254526Y-133185114D01*
X150587859Y-133661304D02*
X149825955Y-133661304D01*
X150302145Y-132994638D02*
X150302145Y-134708923D01*
X150302145Y-134708923D02*
X150206907Y-134899400D01*
X150206907Y-134899400D02*
X150016431Y-134994638D01*
X150016431Y-134994638D02*
X149825955Y-134994638D01*
X149254526Y-134899400D02*
X149064050Y-134994638D01*
X149064050Y-134994638D02*
X148683098Y-134994638D01*
X148683098Y-134994638D02*
X148492621Y-134899400D01*
X148492621Y-134899400D02*
X148397383Y-134708923D01*
X148397383Y-134708923D02*
X148397383Y-134613685D01*
X148397383Y-134613685D02*
X148492621Y-134423209D01*
X148492621Y-134423209D02*
X148683098Y-134327971D01*
X148683098Y-134327971D02*
X148968812Y-134327971D01*
X148968812Y-134327971D02*
X149159288Y-134232733D01*
X149159288Y-134232733D02*
X149254526Y-134042257D01*
X149254526Y-134042257D02*
X149254526Y-133947019D01*
X149254526Y-133947019D02*
X149159288Y-133756542D01*
X149159288Y-133756542D02*
X148968812Y-133661304D01*
X148968812Y-133661304D02*
X148683098Y-133661304D01*
X148683098Y-133661304D02*
X148492621Y-133756542D01*
X144968811Y-134994638D02*
X146111668Y-134994638D01*
X145540240Y-134994638D02*
X145540240Y-132994638D01*
X145540240Y-132994638D02*
X145730716Y-133280352D01*
X145730716Y-133280352D02*
X145921192Y-133470828D01*
X145921192Y-133470828D02*
X146111668Y-133566066D01*
X144111668Y-134232733D02*
X142587859Y-134232733D01*
X140587859Y-134994638D02*
X141730716Y-134994638D01*
X141159288Y-134994638D02*
X141159288Y-132994638D01*
X141159288Y-132994638D02*
X141349764Y-133280352D01*
X141349764Y-133280352D02*
X141540240Y-133470828D01*
X141540240Y-133470828D02*
X141730716Y-133566066D01*
X138873573Y-133661304D02*
X138873573Y-134994638D01*
X139349764Y-132899400D02*
X139825954Y-134327971D01*
X139825954Y-134327971D02*
X138587859Y-134327971D01*
X136302144Y-134994638D02*
X136302144Y-132994638D01*
X135445001Y-134994638D02*
X135445001Y-133947019D01*
X135445001Y-133947019D02*
X135540239Y-133756542D01*
X135540239Y-133756542D02*
X135730715Y-133661304D01*
X135730715Y-133661304D02*
X136016430Y-133661304D01*
X136016430Y-133661304D02*
X136206906Y-133756542D01*
X136206906Y-133756542D02*
X136302144Y-133851780D01*
X133635477Y-134994638D02*
X133635477Y-133947019D01*
X133635477Y-133947019D02*
X133730715Y-133756542D01*
X133730715Y-133756542D02*
X133921191Y-133661304D01*
X133921191Y-133661304D02*
X134302144Y-133661304D01*
X134302144Y-133661304D02*
X134492620Y-133756542D01*
X133635477Y-134899400D02*
X133825953Y-134994638D01*
X133825953Y-134994638D02*
X134302144Y-134994638D01*
X134302144Y-134994638D02*
X134492620Y-134899400D01*
X134492620Y-134899400D02*
X134587858Y-134708923D01*
X134587858Y-134708923D02*
X134587858Y-134518447D01*
X134587858Y-134518447D02*
X134492620Y-134327971D01*
X134492620Y-134327971D02*
X134302144Y-134232733D01*
X134302144Y-134232733D02*
X133825953Y-134232733D01*
X133825953Y-134232733D02*
X133635477Y-134137495D01*
X132873572Y-133661304D02*
X132397382Y-134994638D01*
X132397382Y-134994638D02*
X131921191Y-133661304D01*
X130397381Y-134899400D02*
X130587857Y-134994638D01*
X130587857Y-134994638D02*
X130968810Y-134994638D01*
X130968810Y-134994638D02*
X131159286Y-134899400D01*
X131159286Y-134899400D02*
X131254524Y-134708923D01*
X131254524Y-134708923D02*
X131254524Y-133947019D01*
X131254524Y-133947019D02*
X131159286Y-133756542D01*
X131159286Y-133756542D02*
X130968810Y-133661304D01*
X130968810Y-133661304D02*
X130587857Y-133661304D01*
X130587857Y-133661304D02*
X130397381Y-133756542D01*
X130397381Y-133756542D02*
X130302143Y-133947019D01*
X130302143Y-133947019D02*
X130302143Y-134137495D01*
X130302143Y-134137495D02*
X131254524Y-134327971D01*
X128206904Y-133661304D02*
X127445000Y-133661304D01*
X127921190Y-134994638D02*
X127921190Y-133280352D01*
X127921190Y-133280352D02*
X127825952Y-133089876D01*
X127825952Y-133089876D02*
X127635476Y-132994638D01*
X127635476Y-132994638D02*
X127445000Y-132994638D01*
X126778333Y-134994638D02*
X126778333Y-133661304D01*
X126778333Y-132994638D02*
X126873571Y-133089876D01*
X126873571Y-133089876D02*
X126778333Y-133185114D01*
X126778333Y-133185114D02*
X126683095Y-133089876D01*
X126683095Y-133089876D02*
X126778333Y-132994638D01*
X126778333Y-132994638D02*
X126778333Y-133185114D01*
X126016428Y-134994638D02*
X124968809Y-133661304D01*
X126016428Y-133661304D02*
X124968809Y-134994638D01*
X123444999Y-134899400D02*
X123635475Y-134994638D01*
X123635475Y-134994638D02*
X124016428Y-134994638D01*
X124016428Y-134994638D02*
X124206904Y-134899400D01*
X124206904Y-134899400D02*
X124302142Y-134708923D01*
X124302142Y-134708923D02*
X124302142Y-133947019D01*
X124302142Y-133947019D02*
X124206904Y-133756542D01*
X124206904Y-133756542D02*
X124016428Y-133661304D01*
X124016428Y-133661304D02*
X123635475Y-133661304D01*
X123635475Y-133661304D02*
X123444999Y-133756542D01*
X123444999Y-133756542D02*
X123349761Y-133947019D01*
X123349761Y-133947019D02*
X123349761Y-134137495D01*
X123349761Y-134137495D02*
X124302142Y-134327971D01*
X121635475Y-134994638D02*
X121635475Y-132994638D01*
X121635475Y-134899400D02*
X121825951Y-134994638D01*
X121825951Y-134994638D02*
X122206904Y-134994638D01*
X122206904Y-134994638D02*
X122397380Y-134899400D01*
X122397380Y-134899400D02*
X122492618Y-134804161D01*
X122492618Y-134804161D02*
X122587856Y-134613685D01*
X122587856Y-134613685D02*
X122587856Y-134042257D01*
X122587856Y-134042257D02*
X122492618Y-133851780D01*
X122492618Y-133851780D02*
X122397380Y-133756542D01*
X122397380Y-133756542D02*
X122206904Y-133661304D01*
X122206904Y-133661304D02*
X121825951Y-133661304D01*
X121825951Y-133661304D02*
X121635475Y-133756542D01*
X119349760Y-133661304D02*
X118873570Y-134994638D01*
X118873570Y-134994638D02*
X118397379Y-133661304D01*
X116778331Y-134994638D02*
X116778331Y-133947019D01*
X116778331Y-133947019D02*
X116873569Y-133756542D01*
X116873569Y-133756542D02*
X117064045Y-133661304D01*
X117064045Y-133661304D02*
X117444998Y-133661304D01*
X117444998Y-133661304D02*
X117635474Y-133756542D01*
X116778331Y-134899400D02*
X116968807Y-134994638D01*
X116968807Y-134994638D02*
X117444998Y-134994638D01*
X117444998Y-134994638D02*
X117635474Y-134899400D01*
X117635474Y-134899400D02*
X117730712Y-134708923D01*
X117730712Y-134708923D02*
X117730712Y-134518447D01*
X117730712Y-134518447D02*
X117635474Y-134327971D01*
X117635474Y-134327971D02*
X117444998Y-134232733D01*
X117444998Y-134232733D02*
X116968807Y-134232733D01*
X116968807Y-134232733D02*
X116778331Y-134137495D01*
X115540236Y-134994638D02*
X115730712Y-134899400D01*
X115730712Y-134899400D02*
X115825950Y-134708923D01*
X115825950Y-134708923D02*
X115825950Y-132994638D01*
X113921188Y-133661304D02*
X113921188Y-134994638D01*
X114778331Y-133661304D02*
X114778331Y-134708923D01*
X114778331Y-134708923D02*
X114683093Y-134899400D01*
X114683093Y-134899400D02*
X114492617Y-134994638D01*
X114492617Y-134994638D02*
X114206902Y-134994638D01*
X114206902Y-134994638D02*
X114016426Y-134899400D01*
X114016426Y-134899400D02*
X113921188Y-134804161D01*
X112206902Y-134899400D02*
X112397378Y-134994638D01*
X112397378Y-134994638D02*
X112778331Y-134994638D01*
X112778331Y-134994638D02*
X112968807Y-134899400D01*
X112968807Y-134899400D02*
X113064045Y-134708923D01*
X113064045Y-134708923D02*
X113064045Y-133947019D01*
X113064045Y-133947019D02*
X112968807Y-133756542D01*
X112968807Y-133756542D02*
X112778331Y-133661304D01*
X112778331Y-133661304D02*
X112397378Y-133661304D01*
X112397378Y-133661304D02*
X112206902Y-133756542D01*
X112206902Y-133756542D02*
X112111664Y-133947019D01*
X112111664Y-133947019D02*
X112111664Y-134137495D01*
X112111664Y-134137495D02*
X113064045Y-134327971D01*
X111349759Y-134899400D02*
X111159283Y-134994638D01*
X111159283Y-134994638D02*
X110778331Y-134994638D01*
X110778331Y-134994638D02*
X110587854Y-134899400D01*
X110587854Y-134899400D02*
X110492616Y-134708923D01*
X110492616Y-134708923D02*
X110492616Y-134613685D01*
X110492616Y-134613685D02*
X110587854Y-134423209D01*
X110587854Y-134423209D02*
X110778331Y-134327971D01*
X110778331Y-134327971D02*
X111064045Y-134327971D01*
X111064045Y-134327971D02*
X111254521Y-134232733D01*
X111254521Y-134232733D02*
X111349759Y-134042257D01*
X111349759Y-134042257D02*
X111349759Y-133947019D01*
X111349759Y-133947019D02*
X111254521Y-133756542D01*
X111254521Y-133756542D02*
X111064045Y-133661304D01*
X111064045Y-133661304D02*
X110778331Y-133661304D01*
X110778331Y-133661304D02*
X110587854Y-133756542D01*
X109635473Y-134804161D02*
X109540235Y-134899400D01*
X109540235Y-134899400D02*
X109635473Y-134994638D01*
X109635473Y-134994638D02*
X109730711Y-134899400D01*
X109730711Y-134899400D02*
X109635473Y-134804161D01*
X109635473Y-134804161D02*
X109635473Y-134994638D01*
X110202858Y-59885086D02*
X110202858Y-57885086D01*
X110202858Y-57885086D02*
X109536191Y-59313657D01*
X109536191Y-59313657D02*
X108869525Y-57885086D01*
X108869525Y-57885086D02*
X108869525Y-59885086D01*
X107631430Y-59885086D02*
X107821906Y-59789848D01*
X107821906Y-59789848D02*
X107917144Y-59694609D01*
X107917144Y-59694609D02*
X108012382Y-59504133D01*
X108012382Y-59504133D02*
X108012382Y-58932705D01*
X108012382Y-58932705D02*
X107917144Y-58742228D01*
X107917144Y-58742228D02*
X107821906Y-58646990D01*
X107821906Y-58646990D02*
X107631430Y-58551752D01*
X107631430Y-58551752D02*
X107345715Y-58551752D01*
X107345715Y-58551752D02*
X107155239Y-58646990D01*
X107155239Y-58646990D02*
X107060001Y-58742228D01*
X107060001Y-58742228D02*
X106964763Y-58932705D01*
X106964763Y-58932705D02*
X106964763Y-59504133D01*
X106964763Y-59504133D02*
X107060001Y-59694609D01*
X107060001Y-59694609D02*
X107155239Y-59789848D01*
X107155239Y-59789848D02*
X107345715Y-59885086D01*
X107345715Y-59885086D02*
X107631430Y-59885086D01*
X105250477Y-59885086D02*
X105250477Y-57885086D01*
X105250477Y-59789848D02*
X105440953Y-59885086D01*
X105440953Y-59885086D02*
X105821906Y-59885086D01*
X105821906Y-59885086D02*
X106012382Y-59789848D01*
X106012382Y-59789848D02*
X106107620Y-59694609D01*
X106107620Y-59694609D02*
X106202858Y-59504133D01*
X106202858Y-59504133D02*
X106202858Y-58932705D01*
X106202858Y-58932705D02*
X106107620Y-58742228D01*
X106107620Y-58742228D02*
X106012382Y-58646990D01*
X106012382Y-58646990D02*
X105821906Y-58551752D01*
X105821906Y-58551752D02*
X105440953Y-58551752D01*
X105440953Y-58551752D02*
X105250477Y-58646990D01*
X103536191Y-59789848D02*
X103726667Y-59885086D01*
X103726667Y-59885086D02*
X104107620Y-59885086D01*
X104107620Y-59885086D02*
X104298096Y-59789848D01*
X104298096Y-59789848D02*
X104393334Y-59599371D01*
X104393334Y-59599371D02*
X104393334Y-58837467D01*
X104393334Y-58837467D02*
X104298096Y-58646990D01*
X104298096Y-58646990D02*
X104107620Y-58551752D01*
X104107620Y-58551752D02*
X103726667Y-58551752D01*
X103726667Y-58551752D02*
X103536191Y-58646990D01*
X103536191Y-58646990D02*
X103440953Y-58837467D01*
X103440953Y-58837467D02*
X103440953Y-59027943D01*
X103440953Y-59027943D02*
X104393334Y-59218419D01*
X102583810Y-59694609D02*
X102488572Y-59789848D01*
X102488572Y-59789848D02*
X102583810Y-59885086D01*
X102583810Y-59885086D02*
X102679048Y-59789848D01*
X102679048Y-59789848D02*
X102583810Y-59694609D01*
X102583810Y-59694609D02*
X102583810Y-59885086D01*
X102583810Y-58646990D02*
X102488572Y-58742228D01*
X102488572Y-58742228D02*
X102583810Y-58837467D01*
X102583810Y-58837467D02*
X102679048Y-58742228D01*
X102679048Y-58742228D02*
X102583810Y-58646990D01*
X102583810Y-58646990D02*
X102583810Y-58837467D01*
X100393333Y-57885086D02*
X99250476Y-57885086D01*
X99821905Y-59885086D02*
X99821905Y-57885086D01*
X98583809Y-59885086D02*
X98583809Y-58551752D01*
X98583809Y-57885086D02*
X98679047Y-57980324D01*
X98679047Y-57980324D02*
X98583809Y-58075562D01*
X98583809Y-58075562D02*
X98488571Y-57980324D01*
X98488571Y-57980324D02*
X98583809Y-57885086D01*
X98583809Y-57885086D02*
X98583809Y-58075562D01*
X97631428Y-59885086D02*
X97631428Y-58551752D01*
X97631428Y-58742228D02*
X97536190Y-58646990D01*
X97536190Y-58646990D02*
X97345714Y-58551752D01*
X97345714Y-58551752D02*
X97059999Y-58551752D01*
X97059999Y-58551752D02*
X96869523Y-58646990D01*
X96869523Y-58646990D02*
X96774285Y-58837467D01*
X96774285Y-58837467D02*
X96774285Y-59885086D01*
X96774285Y-58837467D02*
X96679047Y-58646990D01*
X96679047Y-58646990D02*
X96488571Y-58551752D01*
X96488571Y-58551752D02*
X96202857Y-58551752D01*
X96202857Y-58551752D02*
X96012380Y-58646990D01*
X96012380Y-58646990D02*
X95917142Y-58837467D01*
X95917142Y-58837467D02*
X95917142Y-59885086D01*
X94202856Y-59789848D02*
X94393332Y-59885086D01*
X94393332Y-59885086D02*
X94774285Y-59885086D01*
X94774285Y-59885086D02*
X94964761Y-59789848D01*
X94964761Y-59789848D02*
X95059999Y-59599371D01*
X95059999Y-59599371D02*
X95059999Y-58837467D01*
X95059999Y-58837467D02*
X94964761Y-58646990D01*
X94964761Y-58646990D02*
X94774285Y-58551752D01*
X94774285Y-58551752D02*
X94393332Y-58551752D01*
X94393332Y-58551752D02*
X94202856Y-58646990D01*
X94202856Y-58646990D02*
X94107618Y-58837467D01*
X94107618Y-58837467D02*
X94107618Y-59027943D01*
X94107618Y-59027943D02*
X95059999Y-59218419D01*
X91821903Y-59789848D02*
X91536189Y-59885086D01*
X91536189Y-59885086D02*
X91059998Y-59885086D01*
X91059998Y-59885086D02*
X90869522Y-59789848D01*
X90869522Y-59789848D02*
X90774284Y-59694609D01*
X90774284Y-59694609D02*
X90679046Y-59504133D01*
X90679046Y-59504133D02*
X90679046Y-59313657D01*
X90679046Y-59313657D02*
X90774284Y-59123181D01*
X90774284Y-59123181D02*
X90869522Y-59027943D01*
X90869522Y-59027943D02*
X91059998Y-58932705D01*
X91059998Y-58932705D02*
X91440951Y-58837467D01*
X91440951Y-58837467D02*
X91631427Y-58742228D01*
X91631427Y-58742228D02*
X91726665Y-58646990D01*
X91726665Y-58646990D02*
X91821903Y-58456514D01*
X91821903Y-58456514D02*
X91821903Y-58266038D01*
X91821903Y-58266038D02*
X91726665Y-58075562D01*
X91726665Y-58075562D02*
X91631427Y-57980324D01*
X91631427Y-57980324D02*
X91440951Y-57885086D01*
X91440951Y-57885086D02*
X90964760Y-57885086D01*
X90964760Y-57885086D02*
X90679046Y-57980324D01*
X89059998Y-59789848D02*
X89250474Y-59885086D01*
X89250474Y-59885086D02*
X89631427Y-59885086D01*
X89631427Y-59885086D02*
X89821903Y-59789848D01*
X89821903Y-59789848D02*
X89917141Y-59599371D01*
X89917141Y-59599371D02*
X89917141Y-58837467D01*
X89917141Y-58837467D02*
X89821903Y-58646990D01*
X89821903Y-58646990D02*
X89631427Y-58551752D01*
X89631427Y-58551752D02*
X89250474Y-58551752D01*
X89250474Y-58551752D02*
X89059998Y-58646990D01*
X89059998Y-58646990D02*
X88964760Y-58837467D01*
X88964760Y-58837467D02*
X88964760Y-59027943D01*
X88964760Y-59027943D02*
X89917141Y-59218419D01*
X88393331Y-58551752D02*
X87631427Y-58551752D01*
X88107617Y-57885086D02*
X88107617Y-59599371D01*
X88107617Y-59599371D02*
X88012379Y-59789848D01*
X88012379Y-59789848D02*
X87821903Y-59885086D01*
X87821903Y-59885086D02*
X87631427Y-59885086D01*
X118631431Y-62533545D02*
X117679050Y-62533545D01*
X118821907Y-63104974D02*
X118155241Y-61104974D01*
X118155241Y-61104974D02*
X117488574Y-63104974D01*
X116821907Y-62914497D02*
X116726669Y-63009736D01*
X116726669Y-63009736D02*
X116821907Y-63104974D01*
X116821907Y-63104974D02*
X116917145Y-63009736D01*
X116917145Y-63009736D02*
X116821907Y-62914497D01*
X116821907Y-62914497D02*
X116821907Y-63104974D01*
X116821907Y-61866878D02*
X116726669Y-61962116D01*
X116726669Y-61962116D02*
X116821907Y-62057355D01*
X116821907Y-62057355D02*
X116917145Y-61962116D01*
X116917145Y-61962116D02*
X116821907Y-61866878D01*
X116821907Y-61866878D02*
X116821907Y-62057355D01*
X113488573Y-63009736D02*
X113679049Y-63104974D01*
X113679049Y-63104974D02*
X114060002Y-63104974D01*
X114060002Y-63104974D02*
X114250478Y-63009736D01*
X114250478Y-63009736D02*
X114345716Y-62914497D01*
X114345716Y-62914497D02*
X114440954Y-62724021D01*
X114440954Y-62724021D02*
X114440954Y-62152593D01*
X114440954Y-62152593D02*
X114345716Y-61962116D01*
X114345716Y-61962116D02*
X114250478Y-61866878D01*
X114250478Y-61866878D02*
X114060002Y-61771640D01*
X114060002Y-61771640D02*
X113679049Y-61771640D01*
X113679049Y-61771640D02*
X113488573Y-61866878D01*
X112631430Y-63104974D02*
X112631430Y-61104974D01*
X111774287Y-63104974D02*
X111774287Y-62057355D01*
X111774287Y-62057355D02*
X111869525Y-61866878D01*
X111869525Y-61866878D02*
X112060001Y-61771640D01*
X112060001Y-61771640D02*
X112345716Y-61771640D01*
X112345716Y-61771640D02*
X112536192Y-61866878D01*
X112536192Y-61866878D02*
X112631430Y-61962116D01*
X109964763Y-63104974D02*
X109964763Y-62057355D01*
X109964763Y-62057355D02*
X110060001Y-61866878D01*
X110060001Y-61866878D02*
X110250477Y-61771640D01*
X110250477Y-61771640D02*
X110631430Y-61771640D01*
X110631430Y-61771640D02*
X110821906Y-61866878D01*
X109964763Y-63009736D02*
X110155239Y-63104974D01*
X110155239Y-63104974D02*
X110631430Y-63104974D01*
X110631430Y-63104974D02*
X110821906Y-63009736D01*
X110821906Y-63009736D02*
X110917144Y-62819259D01*
X110917144Y-62819259D02*
X110917144Y-62628783D01*
X110917144Y-62628783D02*
X110821906Y-62438307D01*
X110821906Y-62438307D02*
X110631430Y-62343069D01*
X110631430Y-62343069D02*
X110155239Y-62343069D01*
X110155239Y-62343069D02*
X109964763Y-62247831D01*
X109012382Y-61771640D02*
X109012382Y-63104974D01*
X109012382Y-61962116D02*
X108917144Y-61866878D01*
X108917144Y-61866878D02*
X108726668Y-61771640D01*
X108726668Y-61771640D02*
X108440953Y-61771640D01*
X108440953Y-61771640D02*
X108250477Y-61866878D01*
X108250477Y-61866878D02*
X108155239Y-62057355D01*
X108155239Y-62057355D02*
X108155239Y-63104974D01*
X106345715Y-61771640D02*
X106345715Y-63390688D01*
X106345715Y-63390688D02*
X106440953Y-63581164D01*
X106440953Y-63581164D02*
X106536191Y-63676402D01*
X106536191Y-63676402D02*
X106726668Y-63771640D01*
X106726668Y-63771640D02*
X107012382Y-63771640D01*
X107012382Y-63771640D02*
X107202858Y-63676402D01*
X106345715Y-63009736D02*
X106536191Y-63104974D01*
X106536191Y-63104974D02*
X106917144Y-63104974D01*
X106917144Y-63104974D02*
X107107620Y-63009736D01*
X107107620Y-63009736D02*
X107202858Y-62914497D01*
X107202858Y-62914497D02*
X107298096Y-62724021D01*
X107298096Y-62724021D02*
X107298096Y-62152593D01*
X107298096Y-62152593D02*
X107202858Y-61962116D01*
X107202858Y-61962116D02*
X107107620Y-61866878D01*
X107107620Y-61866878D02*
X106917144Y-61771640D01*
X106917144Y-61771640D02*
X106536191Y-61771640D01*
X106536191Y-61771640D02*
X106345715Y-61866878D01*
X104631429Y-63009736D02*
X104821905Y-63104974D01*
X104821905Y-63104974D02*
X105202858Y-63104974D01*
X105202858Y-63104974D02*
X105393334Y-63009736D01*
X105393334Y-63009736D02*
X105488572Y-62819259D01*
X105488572Y-62819259D02*
X105488572Y-62057355D01*
X105488572Y-62057355D02*
X105393334Y-61866878D01*
X105393334Y-61866878D02*
X105202858Y-61771640D01*
X105202858Y-61771640D02*
X104821905Y-61771640D01*
X104821905Y-61771640D02*
X104631429Y-61866878D01*
X104631429Y-61866878D02*
X104536191Y-62057355D01*
X104536191Y-62057355D02*
X104536191Y-62247831D01*
X104536191Y-62247831D02*
X105488572Y-62438307D01*
X102345714Y-61771640D02*
X101869524Y-63104974D01*
X101869524Y-63104974D02*
X101393333Y-61771640D01*
X99774285Y-63104974D02*
X99774285Y-62057355D01*
X99774285Y-62057355D02*
X99869523Y-61866878D01*
X99869523Y-61866878D02*
X100059999Y-61771640D01*
X100059999Y-61771640D02*
X100440952Y-61771640D01*
X100440952Y-61771640D02*
X100631428Y-61866878D01*
X99774285Y-63009736D02*
X99964761Y-63104974D01*
X99964761Y-63104974D02*
X100440952Y-63104974D01*
X100440952Y-63104974D02*
X100631428Y-63009736D01*
X100631428Y-63009736D02*
X100726666Y-62819259D01*
X100726666Y-62819259D02*
X100726666Y-62628783D01*
X100726666Y-62628783D02*
X100631428Y-62438307D01*
X100631428Y-62438307D02*
X100440952Y-62343069D01*
X100440952Y-62343069D02*
X99964761Y-62343069D01*
X99964761Y-62343069D02*
X99774285Y-62247831D01*
X98536190Y-63104974D02*
X98726666Y-63009736D01*
X98726666Y-63009736D02*
X98821904Y-62819259D01*
X98821904Y-62819259D02*
X98821904Y-61104974D01*
X96917142Y-61771640D02*
X96917142Y-63104974D01*
X97774285Y-61771640D02*
X97774285Y-62819259D01*
X97774285Y-62819259D02*
X97679047Y-63009736D01*
X97679047Y-63009736D02*
X97488571Y-63104974D01*
X97488571Y-63104974D02*
X97202856Y-63104974D01*
X97202856Y-63104974D02*
X97012380Y-63009736D01*
X97012380Y-63009736D02*
X96917142Y-62914497D01*
X95202856Y-63009736D02*
X95393332Y-63104974D01*
X95393332Y-63104974D02*
X95774285Y-63104974D01*
X95774285Y-63104974D02*
X95964761Y-63009736D01*
X95964761Y-63009736D02*
X96059999Y-62819259D01*
X96059999Y-62819259D02*
X96059999Y-62057355D01*
X96059999Y-62057355D02*
X95964761Y-61866878D01*
X95964761Y-61866878D02*
X95774285Y-61771640D01*
X95774285Y-61771640D02*
X95393332Y-61771640D01*
X95393332Y-61771640D02*
X95202856Y-61866878D01*
X95202856Y-61866878D02*
X95107618Y-62057355D01*
X95107618Y-62057355D02*
X95107618Y-62247831D01*
X95107618Y-62247831D02*
X96059999Y-62438307D01*
X92726665Y-63104974D02*
X92726665Y-61104974D01*
X92726665Y-61866878D02*
X92536189Y-61771640D01*
X92536189Y-61771640D02*
X92155236Y-61771640D01*
X92155236Y-61771640D02*
X91964760Y-61866878D01*
X91964760Y-61866878D02*
X91869522Y-61962116D01*
X91869522Y-61962116D02*
X91774284Y-62152593D01*
X91774284Y-62152593D02*
X91774284Y-62724021D01*
X91774284Y-62724021D02*
X91869522Y-62914497D01*
X91869522Y-62914497D02*
X91964760Y-63009736D01*
X91964760Y-63009736D02*
X92155236Y-63104974D01*
X92155236Y-63104974D02*
X92536189Y-63104974D01*
X92536189Y-63104974D02*
X92726665Y-63009736D01*
X90155236Y-63009736D02*
X90345712Y-63104974D01*
X90345712Y-63104974D02*
X90726665Y-63104974D01*
X90726665Y-63104974D02*
X90917141Y-63009736D01*
X90917141Y-63009736D02*
X91012379Y-62819259D01*
X91012379Y-62819259D02*
X91012379Y-62057355D01*
X91012379Y-62057355D02*
X90917141Y-61866878D01*
X90917141Y-61866878D02*
X90726665Y-61771640D01*
X90726665Y-61771640D02*
X90345712Y-61771640D01*
X90345712Y-61771640D02*
X90155236Y-61866878D01*
X90155236Y-61866878D02*
X90059998Y-62057355D01*
X90059998Y-62057355D02*
X90059998Y-62247831D01*
X90059998Y-62247831D02*
X91012379Y-62438307D01*
X89202855Y-63104974D02*
X89202855Y-61771640D01*
X89202855Y-61104974D02*
X89298093Y-61200212D01*
X89298093Y-61200212D02*
X89202855Y-61295450D01*
X89202855Y-61295450D02*
X89107617Y-61200212D01*
X89107617Y-61200212D02*
X89202855Y-61104974D01*
X89202855Y-61104974D02*
X89202855Y-61295450D01*
X88250474Y-61771640D02*
X88250474Y-63104974D01*
X88250474Y-61962116D02*
X88155236Y-61866878D01*
X88155236Y-61866878D02*
X87964760Y-61771640D01*
X87964760Y-61771640D02*
X87679045Y-61771640D01*
X87679045Y-61771640D02*
X87488569Y-61866878D01*
X87488569Y-61866878D02*
X87393331Y-62057355D01*
X87393331Y-62057355D02*
X87393331Y-63104974D01*
X85583807Y-61771640D02*
X85583807Y-63390688D01*
X85583807Y-63390688D02*
X85679045Y-63581164D01*
X85679045Y-63581164D02*
X85774283Y-63676402D01*
X85774283Y-63676402D02*
X85964760Y-63771640D01*
X85964760Y-63771640D02*
X86250474Y-63771640D01*
X86250474Y-63771640D02*
X86440950Y-63676402D01*
X85583807Y-63009736D02*
X85774283Y-63104974D01*
X85774283Y-63104974D02*
X86155236Y-63104974D01*
X86155236Y-63104974D02*
X86345712Y-63009736D01*
X86345712Y-63009736D02*
X86440950Y-62914497D01*
X86440950Y-62914497D02*
X86536188Y-62724021D01*
X86536188Y-62724021D02*
X86536188Y-62152593D01*
X86536188Y-62152593D02*
X86440950Y-61962116D01*
X86440950Y-61962116D02*
X86345712Y-61866878D01*
X86345712Y-61866878D02*
X86155236Y-61771640D01*
X86155236Y-61771640D02*
X85774283Y-61771640D01*
X85774283Y-61771640D02*
X85583807Y-61866878D01*
X83202854Y-63009736D02*
X83012378Y-63104974D01*
X83012378Y-63104974D02*
X82631426Y-63104974D01*
X82631426Y-63104974D02*
X82440949Y-63009736D01*
X82440949Y-63009736D02*
X82345711Y-62819259D01*
X82345711Y-62819259D02*
X82345711Y-62724021D01*
X82345711Y-62724021D02*
X82440949Y-62533545D01*
X82440949Y-62533545D02*
X82631426Y-62438307D01*
X82631426Y-62438307D02*
X82917140Y-62438307D01*
X82917140Y-62438307D02*
X83107616Y-62343069D01*
X83107616Y-62343069D02*
X83202854Y-62152593D01*
X83202854Y-62152593D02*
X83202854Y-62057355D01*
X83202854Y-62057355D02*
X83107616Y-61866878D01*
X83107616Y-61866878D02*
X82917140Y-61771640D01*
X82917140Y-61771640D02*
X82631426Y-61771640D01*
X82631426Y-61771640D02*
X82440949Y-61866878D01*
X80726663Y-63009736D02*
X80917139Y-63104974D01*
X80917139Y-63104974D02*
X81298092Y-63104974D01*
X81298092Y-63104974D02*
X81488568Y-63009736D01*
X81488568Y-63009736D02*
X81583806Y-62819259D01*
X81583806Y-62819259D02*
X81583806Y-62057355D01*
X81583806Y-62057355D02*
X81488568Y-61866878D01*
X81488568Y-61866878D02*
X81298092Y-61771640D01*
X81298092Y-61771640D02*
X80917139Y-61771640D01*
X80917139Y-61771640D02*
X80726663Y-61866878D01*
X80726663Y-61866878D02*
X80631425Y-62057355D01*
X80631425Y-62057355D02*
X80631425Y-62247831D01*
X80631425Y-62247831D02*
X81583806Y-62438307D01*
X80059996Y-61771640D02*
X79298092Y-61771640D01*
X79774282Y-61104974D02*
X79774282Y-62819259D01*
X79774282Y-62819259D02*
X79679044Y-63009736D01*
X79679044Y-63009736D02*
X79488568Y-63104974D01*
X79488568Y-63104974D02*
X79298092Y-63104974D01*
X112250477Y-65277243D02*
X111964763Y-65372481D01*
X111964763Y-65372481D02*
X111869525Y-65467719D01*
X111869525Y-65467719D02*
X111774287Y-65658195D01*
X111774287Y-65658195D02*
X111774287Y-65943909D01*
X111774287Y-65943909D02*
X111869525Y-66134385D01*
X111869525Y-66134385D02*
X111964763Y-66229624D01*
X111964763Y-66229624D02*
X112155239Y-66324862D01*
X112155239Y-66324862D02*
X112917144Y-66324862D01*
X112917144Y-66324862D02*
X112917144Y-64324862D01*
X112917144Y-64324862D02*
X112250477Y-64324862D01*
X112250477Y-64324862D02*
X112060001Y-64420100D01*
X112060001Y-64420100D02*
X111964763Y-64515338D01*
X111964763Y-64515338D02*
X111869525Y-64705814D01*
X111869525Y-64705814D02*
X111869525Y-64896290D01*
X111869525Y-64896290D02*
X111964763Y-65086766D01*
X111964763Y-65086766D02*
X112060001Y-65182004D01*
X112060001Y-65182004D02*
X112250477Y-65277243D01*
X112250477Y-65277243D02*
X112917144Y-65277243D01*
X110917144Y-66134385D02*
X110821906Y-66229624D01*
X110821906Y-66229624D02*
X110917144Y-66324862D01*
X110917144Y-66324862D02*
X111012382Y-66229624D01*
X111012382Y-66229624D02*
X110917144Y-66134385D01*
X110917144Y-66134385D02*
X110917144Y-66324862D01*
X110917144Y-65086766D02*
X110821906Y-65182004D01*
X110821906Y-65182004D02*
X110917144Y-65277243D01*
X110917144Y-65277243D02*
X111012382Y-65182004D01*
X111012382Y-65182004D02*
X110917144Y-65086766D01*
X110917144Y-65086766D02*
X110917144Y-65277243D01*
X108440953Y-66324862D02*
X108440953Y-64991528D01*
X108440953Y-64324862D02*
X108536191Y-64420100D01*
X108536191Y-64420100D02*
X108440953Y-64515338D01*
X108440953Y-64515338D02*
X108345715Y-64420100D01*
X108345715Y-64420100D02*
X108440953Y-64324862D01*
X108440953Y-64324862D02*
X108440953Y-64515338D01*
X107488572Y-64991528D02*
X107488572Y-66324862D01*
X107488572Y-65182004D02*
X107393334Y-65086766D01*
X107393334Y-65086766D02*
X107202858Y-64991528D01*
X107202858Y-64991528D02*
X106917143Y-64991528D01*
X106917143Y-64991528D02*
X106726667Y-65086766D01*
X106726667Y-65086766D02*
X106631429Y-65277243D01*
X106631429Y-65277243D02*
X106631429Y-66324862D01*
X104821905Y-66229624D02*
X105012381Y-66324862D01*
X105012381Y-66324862D02*
X105393334Y-66324862D01*
X105393334Y-66324862D02*
X105583810Y-66229624D01*
X105583810Y-66229624D02*
X105679048Y-66134385D01*
X105679048Y-66134385D02*
X105774286Y-65943909D01*
X105774286Y-65943909D02*
X105774286Y-65372481D01*
X105774286Y-65372481D02*
X105679048Y-65182004D01*
X105679048Y-65182004D02*
X105583810Y-65086766D01*
X105583810Y-65086766D02*
X105393334Y-64991528D01*
X105393334Y-64991528D02*
X105012381Y-64991528D01*
X105012381Y-64991528D02*
X104821905Y-65086766D01*
X103964762Y-66324862D02*
X103964762Y-64991528D01*
X103964762Y-65372481D02*
X103869524Y-65182004D01*
X103869524Y-65182004D02*
X103774286Y-65086766D01*
X103774286Y-65086766D02*
X103583810Y-64991528D01*
X103583810Y-64991528D02*
X103393333Y-64991528D01*
X101964762Y-66229624D02*
X102155238Y-66324862D01*
X102155238Y-66324862D02*
X102536191Y-66324862D01*
X102536191Y-66324862D02*
X102726667Y-66229624D01*
X102726667Y-66229624D02*
X102821905Y-66039147D01*
X102821905Y-66039147D02*
X102821905Y-65277243D01*
X102821905Y-65277243D02*
X102726667Y-65086766D01*
X102726667Y-65086766D02*
X102536191Y-64991528D01*
X102536191Y-64991528D02*
X102155238Y-64991528D01*
X102155238Y-64991528D02*
X101964762Y-65086766D01*
X101964762Y-65086766D02*
X101869524Y-65277243D01*
X101869524Y-65277243D02*
X101869524Y-65467719D01*
X101869524Y-65467719D02*
X102821905Y-65658195D01*
X101012381Y-66324862D02*
X101012381Y-64991528D01*
X101012381Y-65182004D02*
X100917143Y-65086766D01*
X100917143Y-65086766D02*
X100726667Y-64991528D01*
X100726667Y-64991528D02*
X100440952Y-64991528D01*
X100440952Y-64991528D02*
X100250476Y-65086766D01*
X100250476Y-65086766D02*
X100155238Y-65277243D01*
X100155238Y-65277243D02*
X100155238Y-66324862D01*
X100155238Y-65277243D02*
X100060000Y-65086766D01*
X100060000Y-65086766D02*
X99869524Y-64991528D01*
X99869524Y-64991528D02*
X99583810Y-64991528D01*
X99583810Y-64991528D02*
X99393333Y-65086766D01*
X99393333Y-65086766D02*
X99298095Y-65277243D01*
X99298095Y-65277243D02*
X99298095Y-66324862D01*
X97583809Y-66229624D02*
X97774285Y-66324862D01*
X97774285Y-66324862D02*
X98155238Y-66324862D01*
X98155238Y-66324862D02*
X98345714Y-66229624D01*
X98345714Y-66229624D02*
X98440952Y-66039147D01*
X98440952Y-66039147D02*
X98440952Y-65277243D01*
X98440952Y-65277243D02*
X98345714Y-65086766D01*
X98345714Y-65086766D02*
X98155238Y-64991528D01*
X98155238Y-64991528D02*
X97774285Y-64991528D01*
X97774285Y-64991528D02*
X97583809Y-65086766D01*
X97583809Y-65086766D02*
X97488571Y-65277243D01*
X97488571Y-65277243D02*
X97488571Y-65467719D01*
X97488571Y-65467719D02*
X98440952Y-65658195D01*
X96631428Y-64991528D02*
X96631428Y-66324862D01*
X96631428Y-65182004D02*
X96536190Y-65086766D01*
X96536190Y-65086766D02*
X96345714Y-64991528D01*
X96345714Y-64991528D02*
X96059999Y-64991528D01*
X96059999Y-64991528D02*
X95869523Y-65086766D01*
X95869523Y-65086766D02*
X95774285Y-65277243D01*
X95774285Y-65277243D02*
X95774285Y-66324862D01*
X95107618Y-64991528D02*
X94345714Y-64991528D01*
X94821904Y-64324862D02*
X94821904Y-66039147D01*
X94821904Y-66039147D02*
X94726666Y-66229624D01*
X94726666Y-66229624D02*
X94536190Y-66324862D01*
X94536190Y-66324862D02*
X94345714Y-66324862D01*
X92345713Y-64991528D02*
X91869523Y-66324862D01*
X91869523Y-66324862D02*
X91393332Y-64991528D01*
X89774284Y-66324862D02*
X89774284Y-65277243D01*
X89774284Y-65277243D02*
X89869522Y-65086766D01*
X89869522Y-65086766D02*
X90059998Y-64991528D01*
X90059998Y-64991528D02*
X90440951Y-64991528D01*
X90440951Y-64991528D02*
X90631427Y-65086766D01*
X89774284Y-66229624D02*
X89964760Y-66324862D01*
X89964760Y-66324862D02*
X90440951Y-66324862D01*
X90440951Y-66324862D02*
X90631427Y-66229624D01*
X90631427Y-66229624D02*
X90726665Y-66039147D01*
X90726665Y-66039147D02*
X90726665Y-65848671D01*
X90726665Y-65848671D02*
X90631427Y-65658195D01*
X90631427Y-65658195D02*
X90440951Y-65562957D01*
X90440951Y-65562957D02*
X89964760Y-65562957D01*
X89964760Y-65562957D02*
X89774284Y-65467719D01*
X88536189Y-66324862D02*
X88726665Y-66229624D01*
X88726665Y-66229624D02*
X88821903Y-66039147D01*
X88821903Y-66039147D02*
X88821903Y-64324862D01*
X86917141Y-64991528D02*
X86917141Y-66324862D01*
X87774284Y-64991528D02*
X87774284Y-66039147D01*
X87774284Y-66039147D02*
X87679046Y-66229624D01*
X87679046Y-66229624D02*
X87488570Y-66324862D01*
X87488570Y-66324862D02*
X87202855Y-66324862D01*
X87202855Y-66324862D02*
X87012379Y-66229624D01*
X87012379Y-66229624D02*
X86917141Y-66134385D01*
X85202855Y-66229624D02*
X85393331Y-66324862D01*
X85393331Y-66324862D02*
X85774284Y-66324862D01*
X85774284Y-66324862D02*
X85964760Y-66229624D01*
X85964760Y-66229624D02*
X86059998Y-66039147D01*
X86059998Y-66039147D02*
X86059998Y-65277243D01*
X86059998Y-65277243D02*
X85964760Y-65086766D01*
X85964760Y-65086766D02*
X85774284Y-64991528D01*
X85774284Y-64991528D02*
X85393331Y-64991528D01*
X85393331Y-64991528D02*
X85202855Y-65086766D01*
X85202855Y-65086766D02*
X85107617Y-65277243D01*
X85107617Y-65277243D02*
X85107617Y-65467719D01*
X85107617Y-65467719D02*
X86059998Y-65658195D01*
X112155239Y-69354273D02*
X112250477Y-69449512D01*
X112250477Y-69449512D02*
X112536191Y-69544750D01*
X112536191Y-69544750D02*
X112726667Y-69544750D01*
X112726667Y-69544750D02*
X113012382Y-69449512D01*
X113012382Y-69449512D02*
X113202858Y-69259035D01*
X113202858Y-69259035D02*
X113298096Y-69068559D01*
X113298096Y-69068559D02*
X113393334Y-68687607D01*
X113393334Y-68687607D02*
X113393334Y-68401892D01*
X113393334Y-68401892D02*
X113298096Y-68020940D01*
X113298096Y-68020940D02*
X113202858Y-67830464D01*
X113202858Y-67830464D02*
X113012382Y-67639988D01*
X113012382Y-67639988D02*
X112726667Y-67544750D01*
X112726667Y-67544750D02*
X112536191Y-67544750D01*
X112536191Y-67544750D02*
X112250477Y-67639988D01*
X112250477Y-67639988D02*
X112155239Y-67735226D01*
X111298096Y-69354273D02*
X111202858Y-69449512D01*
X111202858Y-69449512D02*
X111298096Y-69544750D01*
X111298096Y-69544750D02*
X111393334Y-69449512D01*
X111393334Y-69449512D02*
X111298096Y-69354273D01*
X111298096Y-69354273D02*
X111298096Y-69544750D01*
X111298096Y-68306654D02*
X111202858Y-68401892D01*
X111202858Y-68401892D02*
X111298096Y-68497131D01*
X111298096Y-68497131D02*
X111393334Y-68401892D01*
X111393334Y-68401892D02*
X111298096Y-68306654D01*
X111298096Y-68306654D02*
X111298096Y-68497131D01*
X107964762Y-69544750D02*
X107964762Y-67544750D01*
X107964762Y-69449512D02*
X108155238Y-69544750D01*
X108155238Y-69544750D02*
X108536191Y-69544750D01*
X108536191Y-69544750D02*
X108726667Y-69449512D01*
X108726667Y-69449512D02*
X108821905Y-69354273D01*
X108821905Y-69354273D02*
X108917143Y-69163797D01*
X108917143Y-69163797D02*
X108917143Y-68592369D01*
X108917143Y-68592369D02*
X108821905Y-68401892D01*
X108821905Y-68401892D02*
X108726667Y-68306654D01*
X108726667Y-68306654D02*
X108536191Y-68211416D01*
X108536191Y-68211416D02*
X108155238Y-68211416D01*
X108155238Y-68211416D02*
X107964762Y-68306654D01*
X106250476Y-69449512D02*
X106440952Y-69544750D01*
X106440952Y-69544750D02*
X106821905Y-69544750D01*
X106821905Y-69544750D02*
X107012381Y-69449512D01*
X107012381Y-69449512D02*
X107107619Y-69259035D01*
X107107619Y-69259035D02*
X107107619Y-68497131D01*
X107107619Y-68497131D02*
X107012381Y-68306654D01*
X107012381Y-68306654D02*
X106821905Y-68211416D01*
X106821905Y-68211416D02*
X106440952Y-68211416D01*
X106440952Y-68211416D02*
X106250476Y-68306654D01*
X106250476Y-68306654D02*
X106155238Y-68497131D01*
X106155238Y-68497131D02*
X106155238Y-68687607D01*
X106155238Y-68687607D02*
X107107619Y-68878083D01*
X104440952Y-69449512D02*
X104631428Y-69544750D01*
X104631428Y-69544750D02*
X105012381Y-69544750D01*
X105012381Y-69544750D02*
X105202857Y-69449512D01*
X105202857Y-69449512D02*
X105298095Y-69354273D01*
X105298095Y-69354273D02*
X105393333Y-69163797D01*
X105393333Y-69163797D02*
X105393333Y-68592369D01*
X105393333Y-68592369D02*
X105298095Y-68401892D01*
X105298095Y-68401892D02*
X105202857Y-68306654D01*
X105202857Y-68306654D02*
X105012381Y-68211416D01*
X105012381Y-68211416D02*
X104631428Y-68211416D01*
X104631428Y-68211416D02*
X104440952Y-68306654D01*
X103583809Y-69544750D02*
X103583809Y-68211416D01*
X103583809Y-68592369D02*
X103488571Y-68401892D01*
X103488571Y-68401892D02*
X103393333Y-68306654D01*
X103393333Y-68306654D02*
X103202857Y-68211416D01*
X103202857Y-68211416D02*
X103012380Y-68211416D01*
X101583809Y-69449512D02*
X101774285Y-69544750D01*
X101774285Y-69544750D02*
X102155238Y-69544750D01*
X102155238Y-69544750D02*
X102345714Y-69449512D01*
X102345714Y-69449512D02*
X102440952Y-69259035D01*
X102440952Y-69259035D02*
X102440952Y-68497131D01*
X102440952Y-68497131D02*
X102345714Y-68306654D01*
X102345714Y-68306654D02*
X102155238Y-68211416D01*
X102155238Y-68211416D02*
X101774285Y-68211416D01*
X101774285Y-68211416D02*
X101583809Y-68306654D01*
X101583809Y-68306654D02*
X101488571Y-68497131D01*
X101488571Y-68497131D02*
X101488571Y-68687607D01*
X101488571Y-68687607D02*
X102440952Y-68878083D01*
X100631428Y-69544750D02*
X100631428Y-68211416D01*
X100631428Y-68401892D02*
X100536190Y-68306654D01*
X100536190Y-68306654D02*
X100345714Y-68211416D01*
X100345714Y-68211416D02*
X100059999Y-68211416D01*
X100059999Y-68211416D02*
X99869523Y-68306654D01*
X99869523Y-68306654D02*
X99774285Y-68497131D01*
X99774285Y-68497131D02*
X99774285Y-69544750D01*
X99774285Y-68497131D02*
X99679047Y-68306654D01*
X99679047Y-68306654D02*
X99488571Y-68211416D01*
X99488571Y-68211416D02*
X99202857Y-68211416D01*
X99202857Y-68211416D02*
X99012380Y-68306654D01*
X99012380Y-68306654D02*
X98917142Y-68497131D01*
X98917142Y-68497131D02*
X98917142Y-69544750D01*
X97202856Y-69449512D02*
X97393332Y-69544750D01*
X97393332Y-69544750D02*
X97774285Y-69544750D01*
X97774285Y-69544750D02*
X97964761Y-69449512D01*
X97964761Y-69449512D02*
X98059999Y-69259035D01*
X98059999Y-69259035D02*
X98059999Y-68497131D01*
X98059999Y-68497131D02*
X97964761Y-68306654D01*
X97964761Y-68306654D02*
X97774285Y-68211416D01*
X97774285Y-68211416D02*
X97393332Y-68211416D01*
X97393332Y-68211416D02*
X97202856Y-68306654D01*
X97202856Y-68306654D02*
X97107618Y-68497131D01*
X97107618Y-68497131D02*
X97107618Y-68687607D01*
X97107618Y-68687607D02*
X98059999Y-68878083D01*
X96250475Y-68211416D02*
X96250475Y-69544750D01*
X96250475Y-68401892D02*
X96155237Y-68306654D01*
X96155237Y-68306654D02*
X95964761Y-68211416D01*
X95964761Y-68211416D02*
X95679046Y-68211416D01*
X95679046Y-68211416D02*
X95488570Y-68306654D01*
X95488570Y-68306654D02*
X95393332Y-68497131D01*
X95393332Y-68497131D02*
X95393332Y-69544750D01*
X94726665Y-68211416D02*
X93964761Y-68211416D01*
X94440951Y-67544750D02*
X94440951Y-69259035D01*
X94440951Y-69259035D02*
X94345713Y-69449512D01*
X94345713Y-69449512D02*
X94155237Y-69544750D01*
X94155237Y-69544750D02*
X93964761Y-69544750D01*
X91964760Y-68211416D02*
X91488570Y-69544750D01*
X91488570Y-69544750D02*
X91012379Y-68211416D01*
X89393331Y-69544750D02*
X89393331Y-68497131D01*
X89393331Y-68497131D02*
X89488569Y-68306654D01*
X89488569Y-68306654D02*
X89679045Y-68211416D01*
X89679045Y-68211416D02*
X90059998Y-68211416D01*
X90059998Y-68211416D02*
X90250474Y-68306654D01*
X89393331Y-69449512D02*
X89583807Y-69544750D01*
X89583807Y-69544750D02*
X90059998Y-69544750D01*
X90059998Y-69544750D02*
X90250474Y-69449512D01*
X90250474Y-69449512D02*
X90345712Y-69259035D01*
X90345712Y-69259035D02*
X90345712Y-69068559D01*
X90345712Y-69068559D02*
X90250474Y-68878083D01*
X90250474Y-68878083D02*
X90059998Y-68782845D01*
X90059998Y-68782845D02*
X89583807Y-68782845D01*
X89583807Y-68782845D02*
X89393331Y-68687607D01*
X88155236Y-69544750D02*
X88345712Y-69449512D01*
X88345712Y-69449512D02*
X88440950Y-69259035D01*
X88440950Y-69259035D02*
X88440950Y-67544750D01*
X86536188Y-68211416D02*
X86536188Y-69544750D01*
X87393331Y-68211416D02*
X87393331Y-69259035D01*
X87393331Y-69259035D02*
X87298093Y-69449512D01*
X87298093Y-69449512D02*
X87107617Y-69544750D01*
X87107617Y-69544750D02*
X86821902Y-69544750D01*
X86821902Y-69544750D02*
X86631426Y-69449512D01*
X86631426Y-69449512D02*
X86536188Y-69354273D01*
X84821902Y-69449512D02*
X85012378Y-69544750D01*
X85012378Y-69544750D02*
X85393331Y-69544750D01*
X85393331Y-69544750D02*
X85583807Y-69449512D01*
X85583807Y-69449512D02*
X85679045Y-69259035D01*
X85679045Y-69259035D02*
X85679045Y-68497131D01*
X85679045Y-68497131D02*
X85583807Y-68306654D01*
X85583807Y-68306654D02*
X85393331Y-68211416D01*
X85393331Y-68211416D02*
X85012378Y-68211416D01*
X85012378Y-68211416D02*
X84821902Y-68306654D01*
X84821902Y-68306654D02*
X84726664Y-68497131D01*
X84726664Y-68497131D02*
X84726664Y-68687607D01*
X84726664Y-68687607D02*
X85679045Y-68878083D01*
X118488574Y-72764638D02*
X119440955Y-72764638D01*
X119440955Y-72764638D02*
X119440955Y-70764638D01*
X117536193Y-72764638D02*
X117726669Y-72669400D01*
X117726669Y-72669400D02*
X117821907Y-72574161D01*
X117821907Y-72574161D02*
X117917145Y-72383685D01*
X117917145Y-72383685D02*
X117917145Y-71812257D01*
X117917145Y-71812257D02*
X117821907Y-71621780D01*
X117821907Y-71621780D02*
X117726669Y-71526542D01*
X117726669Y-71526542D02*
X117536193Y-71431304D01*
X117536193Y-71431304D02*
X117250478Y-71431304D01*
X117250478Y-71431304D02*
X117060002Y-71526542D01*
X117060002Y-71526542D02*
X116964764Y-71621780D01*
X116964764Y-71621780D02*
X116869526Y-71812257D01*
X116869526Y-71812257D02*
X116869526Y-72383685D01*
X116869526Y-72383685D02*
X116964764Y-72574161D01*
X116964764Y-72574161D02*
X117060002Y-72669400D01*
X117060002Y-72669400D02*
X117250478Y-72764638D01*
X117250478Y-72764638D02*
X117536193Y-72764638D01*
X116012383Y-71431304D02*
X116012383Y-72764638D01*
X116012383Y-71621780D02*
X115917145Y-71526542D01*
X115917145Y-71526542D02*
X115726669Y-71431304D01*
X115726669Y-71431304D02*
X115440954Y-71431304D01*
X115440954Y-71431304D02*
X115250478Y-71526542D01*
X115250478Y-71526542D02*
X115155240Y-71717019D01*
X115155240Y-71717019D02*
X115155240Y-72764638D01*
X113345716Y-71431304D02*
X113345716Y-73050352D01*
X113345716Y-73050352D02*
X113440954Y-73240828D01*
X113440954Y-73240828D02*
X113536192Y-73336066D01*
X113536192Y-73336066D02*
X113726669Y-73431304D01*
X113726669Y-73431304D02*
X114012383Y-73431304D01*
X114012383Y-73431304D02*
X114202859Y-73336066D01*
X113345716Y-72669400D02*
X113536192Y-72764638D01*
X113536192Y-72764638D02*
X113917145Y-72764638D01*
X113917145Y-72764638D02*
X114107621Y-72669400D01*
X114107621Y-72669400D02*
X114202859Y-72574161D01*
X114202859Y-72574161D02*
X114298097Y-72383685D01*
X114298097Y-72383685D02*
X114298097Y-71812257D01*
X114298097Y-71812257D02*
X114202859Y-71621780D01*
X114202859Y-71621780D02*
X114107621Y-71526542D01*
X114107621Y-71526542D02*
X113917145Y-71431304D01*
X113917145Y-71431304D02*
X113536192Y-71431304D01*
X113536192Y-71431304D02*
X113345716Y-71526542D01*
X110964763Y-72193209D02*
X110012382Y-72193209D01*
X111155239Y-72764638D02*
X110488573Y-70764638D01*
X110488573Y-70764638D02*
X109821906Y-72764638D01*
X109155239Y-72574161D02*
X109060001Y-72669400D01*
X109060001Y-72669400D02*
X109155239Y-72764638D01*
X109155239Y-72764638D02*
X109250477Y-72669400D01*
X109250477Y-72669400D02*
X109155239Y-72574161D01*
X109155239Y-72574161D02*
X109155239Y-72764638D01*
X109155239Y-71526542D02*
X109060001Y-71621780D01*
X109060001Y-71621780D02*
X109155239Y-71717019D01*
X109155239Y-71717019D02*
X109250477Y-71621780D01*
X109250477Y-71621780D02*
X109155239Y-71526542D01*
X109155239Y-71526542D02*
X109155239Y-71717019D01*
X105917143Y-72669400D02*
X106107619Y-72764638D01*
X106107619Y-72764638D02*
X106488572Y-72764638D01*
X106488572Y-72764638D02*
X106679048Y-72669400D01*
X106679048Y-72669400D02*
X106774286Y-72478923D01*
X106774286Y-72478923D02*
X106774286Y-71717019D01*
X106774286Y-71717019D02*
X106679048Y-71526542D01*
X106679048Y-71526542D02*
X106488572Y-71431304D01*
X106488572Y-71431304D02*
X106107619Y-71431304D01*
X106107619Y-71431304D02*
X105917143Y-71526542D01*
X105917143Y-71526542D02*
X105821905Y-71717019D01*
X105821905Y-71717019D02*
X105821905Y-71907495D01*
X105821905Y-71907495D02*
X106774286Y-72097971D01*
X105155238Y-72764638D02*
X104107619Y-71431304D01*
X105155238Y-71431304D02*
X104107619Y-72764638D01*
X103345714Y-72764638D02*
X103345714Y-71431304D01*
X103345714Y-70764638D02*
X103440952Y-70859876D01*
X103440952Y-70859876D02*
X103345714Y-70955114D01*
X103345714Y-70955114D02*
X103250476Y-70859876D01*
X103250476Y-70859876D02*
X103345714Y-70764638D01*
X103345714Y-70764638D02*
X103345714Y-70955114D01*
X102679047Y-71431304D02*
X101917143Y-71431304D01*
X102393333Y-70764638D02*
X102393333Y-72478923D01*
X102393333Y-72478923D02*
X102298095Y-72669400D01*
X102298095Y-72669400D02*
X102107619Y-72764638D01*
X102107619Y-72764638D02*
X101917143Y-72764638D01*
X100012380Y-71431304D02*
X99250476Y-71431304D01*
X99726666Y-70764638D02*
X99726666Y-72478923D01*
X99726666Y-72478923D02*
X99631428Y-72669400D01*
X99631428Y-72669400D02*
X99440952Y-72764638D01*
X99440952Y-72764638D02*
X99250476Y-72764638D01*
X98583809Y-72764638D02*
X98583809Y-71431304D01*
X98583809Y-70764638D02*
X98679047Y-70859876D01*
X98679047Y-70859876D02*
X98583809Y-70955114D01*
X98583809Y-70955114D02*
X98488571Y-70859876D01*
X98488571Y-70859876D02*
X98583809Y-70764638D01*
X98583809Y-70764638D02*
X98583809Y-70955114D01*
X97631428Y-72764638D02*
X97631428Y-71431304D01*
X97631428Y-71621780D02*
X97536190Y-71526542D01*
X97536190Y-71526542D02*
X97345714Y-71431304D01*
X97345714Y-71431304D02*
X97059999Y-71431304D01*
X97059999Y-71431304D02*
X96869523Y-71526542D01*
X96869523Y-71526542D02*
X96774285Y-71717019D01*
X96774285Y-71717019D02*
X96774285Y-72764638D01*
X96774285Y-71717019D02*
X96679047Y-71526542D01*
X96679047Y-71526542D02*
X96488571Y-71431304D01*
X96488571Y-71431304D02*
X96202857Y-71431304D01*
X96202857Y-71431304D02*
X96012380Y-71526542D01*
X96012380Y-71526542D02*
X95917142Y-71717019D01*
X95917142Y-71717019D02*
X95917142Y-72764638D01*
X94202856Y-72669400D02*
X94393332Y-72764638D01*
X94393332Y-72764638D02*
X94774285Y-72764638D01*
X94774285Y-72764638D02*
X94964761Y-72669400D01*
X94964761Y-72669400D02*
X95059999Y-72478923D01*
X95059999Y-72478923D02*
X95059999Y-71717019D01*
X95059999Y-71717019D02*
X94964761Y-71526542D01*
X94964761Y-71526542D02*
X94774285Y-71431304D01*
X94774285Y-71431304D02*
X94393332Y-71431304D01*
X94393332Y-71431304D02*
X94202856Y-71526542D01*
X94202856Y-71526542D02*
X94107618Y-71717019D01*
X94107618Y-71717019D02*
X94107618Y-71907495D01*
X94107618Y-71907495D02*
X95059999Y-72097971D01*
X91821903Y-72669400D02*
X91631427Y-72764638D01*
X91631427Y-72764638D02*
X91250475Y-72764638D01*
X91250475Y-72764638D02*
X91059998Y-72669400D01*
X91059998Y-72669400D02*
X90964760Y-72478923D01*
X90964760Y-72478923D02*
X90964760Y-72383685D01*
X90964760Y-72383685D02*
X91059998Y-72193209D01*
X91059998Y-72193209D02*
X91250475Y-72097971D01*
X91250475Y-72097971D02*
X91536189Y-72097971D01*
X91536189Y-72097971D02*
X91726665Y-72002733D01*
X91726665Y-72002733D02*
X91821903Y-71812257D01*
X91821903Y-71812257D02*
X91821903Y-71717019D01*
X91821903Y-71717019D02*
X91726665Y-71526542D01*
X91726665Y-71526542D02*
X91536189Y-71431304D01*
X91536189Y-71431304D02*
X91250475Y-71431304D01*
X91250475Y-71431304D02*
X91059998Y-71526542D01*
X89345712Y-72669400D02*
X89536188Y-72764638D01*
X89536188Y-72764638D02*
X89917141Y-72764638D01*
X89917141Y-72764638D02*
X90107617Y-72669400D01*
X90107617Y-72669400D02*
X90202855Y-72478923D01*
X90202855Y-72478923D02*
X90202855Y-71717019D01*
X90202855Y-71717019D02*
X90107617Y-71526542D01*
X90107617Y-71526542D02*
X89917141Y-71431304D01*
X89917141Y-71431304D02*
X89536188Y-71431304D01*
X89536188Y-71431304D02*
X89345712Y-71526542D01*
X89345712Y-71526542D02*
X89250474Y-71717019D01*
X89250474Y-71717019D02*
X89250474Y-71907495D01*
X89250474Y-71907495D02*
X90202855Y-72097971D01*
X88679045Y-71431304D02*
X87917141Y-71431304D01*
X88393331Y-70764638D02*
X88393331Y-72478923D01*
X88393331Y-72478923D02*
X88298093Y-72669400D01*
X88298093Y-72669400D02*
X88107617Y-72764638D01*
X88107617Y-72764638D02*
X87917141Y-72764638D01*
X85726664Y-72764638D02*
X85726664Y-71431304D01*
X85726664Y-71621780D02*
X85631426Y-71526542D01*
X85631426Y-71526542D02*
X85440950Y-71431304D01*
X85440950Y-71431304D02*
X85155235Y-71431304D01*
X85155235Y-71431304D02*
X84964759Y-71526542D01*
X84964759Y-71526542D02*
X84869521Y-71717019D01*
X84869521Y-71717019D02*
X84869521Y-72764638D01*
X84869521Y-71717019D02*
X84774283Y-71526542D01*
X84774283Y-71526542D02*
X84583807Y-71431304D01*
X84583807Y-71431304D02*
X84298093Y-71431304D01*
X84298093Y-71431304D02*
X84107616Y-71526542D01*
X84107616Y-71526542D02*
X84012378Y-71717019D01*
X84012378Y-71717019D02*
X84012378Y-72764638D01*
X82774283Y-72764638D02*
X82964759Y-72669400D01*
X82964759Y-72669400D02*
X83059997Y-72574161D01*
X83059997Y-72574161D02*
X83155235Y-72383685D01*
X83155235Y-72383685D02*
X83155235Y-71812257D01*
X83155235Y-71812257D02*
X83059997Y-71621780D01*
X83059997Y-71621780D02*
X82964759Y-71526542D01*
X82964759Y-71526542D02*
X82774283Y-71431304D01*
X82774283Y-71431304D02*
X82488568Y-71431304D01*
X82488568Y-71431304D02*
X82298092Y-71526542D01*
X82298092Y-71526542D02*
X82202854Y-71621780D01*
X82202854Y-71621780D02*
X82107616Y-71812257D01*
X82107616Y-71812257D02*
X82107616Y-72383685D01*
X82107616Y-72383685D02*
X82202854Y-72574161D01*
X82202854Y-72574161D02*
X82298092Y-72669400D01*
X82298092Y-72669400D02*
X82488568Y-72764638D01*
X82488568Y-72764638D02*
X82774283Y-72764638D01*
X80393330Y-72764638D02*
X80393330Y-70764638D01*
X80393330Y-72669400D02*
X80583806Y-72764638D01*
X80583806Y-72764638D02*
X80964759Y-72764638D01*
X80964759Y-72764638D02*
X81155235Y-72669400D01*
X81155235Y-72669400D02*
X81250473Y-72574161D01*
X81250473Y-72574161D02*
X81345711Y-72383685D01*
X81345711Y-72383685D02*
X81345711Y-71812257D01*
X81345711Y-71812257D02*
X81250473Y-71621780D01*
X81250473Y-71621780D02*
X81155235Y-71526542D01*
X81155235Y-71526542D02*
X80964759Y-71431304D01*
X80964759Y-71431304D02*
X80583806Y-71431304D01*
X80583806Y-71431304D02*
X80393330Y-71526542D01*
X78679044Y-72669400D02*
X78869520Y-72764638D01*
X78869520Y-72764638D02*
X79250473Y-72764638D01*
X79250473Y-72764638D02*
X79440949Y-72669400D01*
X79440949Y-72669400D02*
X79536187Y-72478923D01*
X79536187Y-72478923D02*
X79536187Y-71717019D01*
X79536187Y-71717019D02*
X79440949Y-71526542D01*
X79440949Y-71526542D02*
X79250473Y-71431304D01*
X79250473Y-71431304D02*
X78869520Y-71431304D01*
X78869520Y-71431304D02*
X78679044Y-71526542D01*
X78679044Y-71526542D02*
X78583806Y-71717019D01*
X78583806Y-71717019D02*
X78583806Y-71907495D01*
X78583806Y-71907495D02*
X79536187Y-72097971D01*
X169289762Y-62469974D02*
X169289762Y-60469974D01*
X169289762Y-60469974D02*
X168623095Y-61898545D01*
X168623095Y-61898545D02*
X167956429Y-60469974D01*
X167956429Y-60469974D02*
X167956429Y-62469974D01*
X166718334Y-62469974D02*
X166908810Y-62374736D01*
X166908810Y-62374736D02*
X167004048Y-62279497D01*
X167004048Y-62279497D02*
X167099286Y-62089021D01*
X167099286Y-62089021D02*
X167099286Y-61517593D01*
X167099286Y-61517593D02*
X167004048Y-61327116D01*
X167004048Y-61327116D02*
X166908810Y-61231878D01*
X166908810Y-61231878D02*
X166718334Y-61136640D01*
X166718334Y-61136640D02*
X166432619Y-61136640D01*
X166432619Y-61136640D02*
X166242143Y-61231878D01*
X166242143Y-61231878D02*
X166146905Y-61327116D01*
X166146905Y-61327116D02*
X166051667Y-61517593D01*
X166051667Y-61517593D02*
X166051667Y-62089021D01*
X166051667Y-62089021D02*
X166146905Y-62279497D01*
X166146905Y-62279497D02*
X166242143Y-62374736D01*
X166242143Y-62374736D02*
X166432619Y-62469974D01*
X166432619Y-62469974D02*
X166718334Y-62469974D01*
X164337381Y-62469974D02*
X164337381Y-60469974D01*
X164337381Y-62374736D02*
X164527857Y-62469974D01*
X164527857Y-62469974D02*
X164908810Y-62469974D01*
X164908810Y-62469974D02*
X165099286Y-62374736D01*
X165099286Y-62374736D02*
X165194524Y-62279497D01*
X165194524Y-62279497D02*
X165289762Y-62089021D01*
X165289762Y-62089021D02*
X165289762Y-61517593D01*
X165289762Y-61517593D02*
X165194524Y-61327116D01*
X165194524Y-61327116D02*
X165099286Y-61231878D01*
X165099286Y-61231878D02*
X164908810Y-61136640D01*
X164908810Y-61136640D02*
X164527857Y-61136640D01*
X164527857Y-61136640D02*
X164337381Y-61231878D01*
X162623095Y-62374736D02*
X162813571Y-62469974D01*
X162813571Y-62469974D02*
X163194524Y-62469974D01*
X163194524Y-62469974D02*
X163385000Y-62374736D01*
X163385000Y-62374736D02*
X163480238Y-62184259D01*
X163480238Y-62184259D02*
X163480238Y-61422355D01*
X163480238Y-61422355D02*
X163385000Y-61231878D01*
X163385000Y-61231878D02*
X163194524Y-61136640D01*
X163194524Y-61136640D02*
X162813571Y-61136640D01*
X162813571Y-61136640D02*
X162623095Y-61231878D01*
X162623095Y-61231878D02*
X162527857Y-61422355D01*
X162527857Y-61422355D02*
X162527857Y-61612831D01*
X162527857Y-61612831D02*
X163480238Y-61803307D01*
X161670714Y-62279497D02*
X161575476Y-62374736D01*
X161575476Y-62374736D02*
X161670714Y-62469974D01*
X161670714Y-62469974D02*
X161765952Y-62374736D01*
X161765952Y-62374736D02*
X161670714Y-62279497D01*
X161670714Y-62279497D02*
X161670714Y-62469974D01*
X161670714Y-61231878D02*
X161575476Y-61327116D01*
X161575476Y-61327116D02*
X161670714Y-61422355D01*
X161670714Y-61422355D02*
X161765952Y-61327116D01*
X161765952Y-61327116D02*
X161670714Y-61231878D01*
X161670714Y-61231878D02*
X161670714Y-61422355D01*
X159194523Y-62469974D02*
X159194523Y-60469974D01*
X159194523Y-60469974D02*
X158051666Y-62469974D01*
X158051666Y-62469974D02*
X158051666Y-60469974D01*
X156813571Y-62469974D02*
X157004047Y-62374736D01*
X157004047Y-62374736D02*
X157099285Y-62279497D01*
X157099285Y-62279497D02*
X157194523Y-62089021D01*
X157194523Y-62089021D02*
X157194523Y-61517593D01*
X157194523Y-61517593D02*
X157099285Y-61327116D01*
X157099285Y-61327116D02*
X157004047Y-61231878D01*
X157004047Y-61231878D02*
X156813571Y-61136640D01*
X156813571Y-61136640D02*
X156527856Y-61136640D01*
X156527856Y-61136640D02*
X156337380Y-61231878D01*
X156337380Y-61231878D02*
X156242142Y-61327116D01*
X156242142Y-61327116D02*
X156146904Y-61517593D01*
X156146904Y-61517593D02*
X156146904Y-62089021D01*
X156146904Y-62089021D02*
X156242142Y-62279497D01*
X156242142Y-62279497D02*
X156337380Y-62374736D01*
X156337380Y-62374736D02*
X156527856Y-62469974D01*
X156527856Y-62469974D02*
X156813571Y-62469974D01*
X155289761Y-62469974D02*
X155289761Y-61136640D01*
X155289761Y-61517593D02*
X155194523Y-61327116D01*
X155194523Y-61327116D02*
X155099285Y-61231878D01*
X155099285Y-61231878D02*
X154908809Y-61136640D01*
X154908809Y-61136640D02*
X154718332Y-61136640D01*
X154051666Y-62469974D02*
X154051666Y-61136640D01*
X154051666Y-61327116D02*
X153956428Y-61231878D01*
X153956428Y-61231878D02*
X153765952Y-61136640D01*
X153765952Y-61136640D02*
X153480237Y-61136640D01*
X153480237Y-61136640D02*
X153289761Y-61231878D01*
X153289761Y-61231878D02*
X153194523Y-61422355D01*
X153194523Y-61422355D02*
X153194523Y-62469974D01*
X153194523Y-61422355D02*
X153099285Y-61231878D01*
X153099285Y-61231878D02*
X152908809Y-61136640D01*
X152908809Y-61136640D02*
X152623095Y-61136640D01*
X152623095Y-61136640D02*
X152432618Y-61231878D01*
X152432618Y-61231878D02*
X152337380Y-61422355D01*
X152337380Y-61422355D02*
X152337380Y-62469974D01*
X150527856Y-62469974D02*
X150527856Y-61422355D01*
X150527856Y-61422355D02*
X150623094Y-61231878D01*
X150623094Y-61231878D02*
X150813570Y-61136640D01*
X150813570Y-61136640D02*
X151194523Y-61136640D01*
X151194523Y-61136640D02*
X151384999Y-61231878D01*
X150527856Y-62374736D02*
X150718332Y-62469974D01*
X150718332Y-62469974D02*
X151194523Y-62469974D01*
X151194523Y-62469974D02*
X151384999Y-62374736D01*
X151384999Y-62374736D02*
X151480237Y-62184259D01*
X151480237Y-62184259D02*
X151480237Y-61993783D01*
X151480237Y-61993783D02*
X151384999Y-61803307D01*
X151384999Y-61803307D02*
X151194523Y-61708069D01*
X151194523Y-61708069D02*
X150718332Y-61708069D01*
X150718332Y-61708069D02*
X150527856Y-61612831D01*
X149289761Y-62469974D02*
X149480237Y-62374736D01*
X149480237Y-62374736D02*
X149575475Y-62184259D01*
X149575475Y-62184259D02*
X149575475Y-60469974D01*
X180385002Y-65689862D02*
X181337383Y-65689862D01*
X181337383Y-65689862D02*
X181337383Y-63689862D01*
X179432621Y-65689862D02*
X179623097Y-65594624D01*
X179623097Y-65594624D02*
X179718335Y-65499385D01*
X179718335Y-65499385D02*
X179813573Y-65308909D01*
X179813573Y-65308909D02*
X179813573Y-64737481D01*
X179813573Y-64737481D02*
X179718335Y-64547004D01*
X179718335Y-64547004D02*
X179623097Y-64451766D01*
X179623097Y-64451766D02*
X179432621Y-64356528D01*
X179432621Y-64356528D02*
X179146906Y-64356528D01*
X179146906Y-64356528D02*
X178956430Y-64451766D01*
X178956430Y-64451766D02*
X178861192Y-64547004D01*
X178861192Y-64547004D02*
X178765954Y-64737481D01*
X178765954Y-64737481D02*
X178765954Y-65308909D01*
X178765954Y-65308909D02*
X178861192Y-65499385D01*
X178861192Y-65499385D02*
X178956430Y-65594624D01*
X178956430Y-65594624D02*
X179146906Y-65689862D01*
X179146906Y-65689862D02*
X179432621Y-65689862D01*
X177908811Y-64356528D02*
X177908811Y-65689862D01*
X177908811Y-64547004D02*
X177813573Y-64451766D01*
X177813573Y-64451766D02*
X177623097Y-64356528D01*
X177623097Y-64356528D02*
X177337382Y-64356528D01*
X177337382Y-64356528D02*
X177146906Y-64451766D01*
X177146906Y-64451766D02*
X177051668Y-64642243D01*
X177051668Y-64642243D02*
X177051668Y-65689862D01*
X175242144Y-64356528D02*
X175242144Y-65975576D01*
X175242144Y-65975576D02*
X175337382Y-66166052D01*
X175337382Y-66166052D02*
X175432620Y-66261290D01*
X175432620Y-66261290D02*
X175623097Y-66356528D01*
X175623097Y-66356528D02*
X175908811Y-66356528D01*
X175908811Y-66356528D02*
X176099287Y-66261290D01*
X175242144Y-65594624D02*
X175432620Y-65689862D01*
X175432620Y-65689862D02*
X175813573Y-65689862D01*
X175813573Y-65689862D02*
X176004049Y-65594624D01*
X176004049Y-65594624D02*
X176099287Y-65499385D01*
X176099287Y-65499385D02*
X176194525Y-65308909D01*
X176194525Y-65308909D02*
X176194525Y-64737481D01*
X176194525Y-64737481D02*
X176099287Y-64547004D01*
X176099287Y-64547004D02*
X176004049Y-64451766D01*
X176004049Y-64451766D02*
X175813573Y-64356528D01*
X175813573Y-64356528D02*
X175432620Y-64356528D01*
X175432620Y-64356528D02*
X175242144Y-64451766D01*
X171623096Y-65499385D02*
X171718334Y-65594624D01*
X171718334Y-65594624D02*
X172004048Y-65689862D01*
X172004048Y-65689862D02*
X172194524Y-65689862D01*
X172194524Y-65689862D02*
X172480239Y-65594624D01*
X172480239Y-65594624D02*
X172670715Y-65404147D01*
X172670715Y-65404147D02*
X172765953Y-65213671D01*
X172765953Y-65213671D02*
X172861191Y-64832719D01*
X172861191Y-64832719D02*
X172861191Y-64547004D01*
X172861191Y-64547004D02*
X172765953Y-64166052D01*
X172765953Y-64166052D02*
X172670715Y-63975576D01*
X172670715Y-63975576D02*
X172480239Y-63785100D01*
X172480239Y-63785100D02*
X172194524Y-63689862D01*
X172194524Y-63689862D02*
X172004048Y-63689862D01*
X172004048Y-63689862D02*
X171718334Y-63785100D01*
X171718334Y-63785100D02*
X171623096Y-63880338D01*
X170765953Y-65499385D02*
X170670715Y-65594624D01*
X170670715Y-65594624D02*
X170765953Y-65689862D01*
X170765953Y-65689862D02*
X170861191Y-65594624D01*
X170861191Y-65594624D02*
X170765953Y-65499385D01*
X170765953Y-65499385D02*
X170765953Y-65689862D01*
X170765953Y-64451766D02*
X170670715Y-64547004D01*
X170670715Y-64547004D02*
X170765953Y-64642243D01*
X170765953Y-64642243D02*
X170861191Y-64547004D01*
X170861191Y-64547004D02*
X170765953Y-64451766D01*
X170765953Y-64451766D02*
X170765953Y-64642243D01*
X167527857Y-65594624D02*
X167718333Y-65689862D01*
X167718333Y-65689862D02*
X168099286Y-65689862D01*
X168099286Y-65689862D02*
X168289762Y-65594624D01*
X168289762Y-65594624D02*
X168385000Y-65404147D01*
X168385000Y-65404147D02*
X168385000Y-64642243D01*
X168385000Y-64642243D02*
X168289762Y-64451766D01*
X168289762Y-64451766D02*
X168099286Y-64356528D01*
X168099286Y-64356528D02*
X167718333Y-64356528D01*
X167718333Y-64356528D02*
X167527857Y-64451766D01*
X167527857Y-64451766D02*
X167432619Y-64642243D01*
X167432619Y-64642243D02*
X167432619Y-64832719D01*
X167432619Y-64832719D02*
X168385000Y-65023195D01*
X166575476Y-64356528D02*
X166575476Y-65689862D01*
X166575476Y-64547004D02*
X166480238Y-64451766D01*
X166480238Y-64451766D02*
X166289762Y-64356528D01*
X166289762Y-64356528D02*
X166004047Y-64356528D01*
X166004047Y-64356528D02*
X165813571Y-64451766D01*
X165813571Y-64451766D02*
X165718333Y-64642243D01*
X165718333Y-64642243D02*
X165718333Y-65689862D01*
X165051666Y-64356528D02*
X164289762Y-64356528D01*
X164765952Y-63689862D02*
X164765952Y-65404147D01*
X164765952Y-65404147D02*
X164670714Y-65594624D01*
X164670714Y-65594624D02*
X164480238Y-65689862D01*
X164480238Y-65689862D02*
X164289762Y-65689862D01*
X162861190Y-65594624D02*
X163051666Y-65689862D01*
X163051666Y-65689862D02*
X163432619Y-65689862D01*
X163432619Y-65689862D02*
X163623095Y-65594624D01*
X163623095Y-65594624D02*
X163718333Y-65404147D01*
X163718333Y-65404147D02*
X163718333Y-64642243D01*
X163718333Y-64642243D02*
X163623095Y-64451766D01*
X163623095Y-64451766D02*
X163432619Y-64356528D01*
X163432619Y-64356528D02*
X163051666Y-64356528D01*
X163051666Y-64356528D02*
X162861190Y-64451766D01*
X162861190Y-64451766D02*
X162765952Y-64642243D01*
X162765952Y-64642243D02*
X162765952Y-64832719D01*
X162765952Y-64832719D02*
X163718333Y-65023195D01*
X161908809Y-65689862D02*
X161908809Y-64356528D01*
X161908809Y-64737481D02*
X161813571Y-64547004D01*
X161813571Y-64547004D02*
X161718333Y-64451766D01*
X161718333Y-64451766D02*
X161527857Y-64356528D01*
X161527857Y-64356528D02*
X161337380Y-64356528D01*
X159242143Y-63594624D02*
X160956428Y-66166052D01*
X157813571Y-65594624D02*
X158004047Y-65689862D01*
X158004047Y-65689862D02*
X158385000Y-65689862D01*
X158385000Y-65689862D02*
X158575476Y-65594624D01*
X158575476Y-65594624D02*
X158670714Y-65404147D01*
X158670714Y-65404147D02*
X158670714Y-64642243D01*
X158670714Y-64642243D02*
X158575476Y-64451766D01*
X158575476Y-64451766D02*
X158385000Y-64356528D01*
X158385000Y-64356528D02*
X158004047Y-64356528D01*
X158004047Y-64356528D02*
X157813571Y-64451766D01*
X157813571Y-64451766D02*
X157718333Y-64642243D01*
X157718333Y-64642243D02*
X157718333Y-64832719D01*
X157718333Y-64832719D02*
X158670714Y-65023195D01*
X157051666Y-65689862D02*
X156004047Y-64356528D01*
X157051666Y-64356528D02*
X156004047Y-65689862D01*
X155242142Y-65689862D02*
X155242142Y-64356528D01*
X155242142Y-63689862D02*
X155337380Y-63785100D01*
X155337380Y-63785100D02*
X155242142Y-63880338D01*
X155242142Y-63880338D02*
X155146904Y-63785100D01*
X155146904Y-63785100D02*
X155242142Y-63689862D01*
X155242142Y-63689862D02*
X155242142Y-63880338D01*
X154575475Y-64356528D02*
X153813571Y-64356528D01*
X154289761Y-63689862D02*
X154289761Y-65404147D01*
X154289761Y-65404147D02*
X154194523Y-65594624D01*
X154194523Y-65594624D02*
X154004047Y-65689862D01*
X154004047Y-65689862D02*
X153813571Y-65689862D01*
X151908808Y-64356528D02*
X151146904Y-64356528D01*
X151623094Y-63689862D02*
X151623094Y-65404147D01*
X151623094Y-65404147D02*
X151527856Y-65594624D01*
X151527856Y-65594624D02*
X151337380Y-65689862D01*
X151337380Y-65689862D02*
X151146904Y-65689862D01*
X149718332Y-65594624D02*
X149908808Y-65689862D01*
X149908808Y-65689862D02*
X150289761Y-65689862D01*
X150289761Y-65689862D02*
X150480237Y-65594624D01*
X150480237Y-65594624D02*
X150575475Y-65404147D01*
X150575475Y-65404147D02*
X150575475Y-64642243D01*
X150575475Y-64642243D02*
X150480237Y-64451766D01*
X150480237Y-64451766D02*
X150289761Y-64356528D01*
X150289761Y-64356528D02*
X149908808Y-64356528D01*
X149908808Y-64356528D02*
X149718332Y-64451766D01*
X149718332Y-64451766D02*
X149623094Y-64642243D01*
X149623094Y-64642243D02*
X149623094Y-64832719D01*
X149623094Y-64832719D02*
X150575475Y-65023195D01*
X148861189Y-65594624D02*
X148670713Y-65689862D01*
X148670713Y-65689862D02*
X148289761Y-65689862D01*
X148289761Y-65689862D02*
X148099284Y-65594624D01*
X148099284Y-65594624D02*
X148004046Y-65404147D01*
X148004046Y-65404147D02*
X148004046Y-65308909D01*
X148004046Y-65308909D02*
X148099284Y-65118433D01*
X148099284Y-65118433D02*
X148289761Y-65023195D01*
X148289761Y-65023195D02*
X148575475Y-65023195D01*
X148575475Y-65023195D02*
X148765951Y-64927957D01*
X148765951Y-64927957D02*
X148861189Y-64737481D01*
X148861189Y-64737481D02*
X148861189Y-64642243D01*
X148861189Y-64642243D02*
X148765951Y-64451766D01*
X148765951Y-64451766D02*
X148575475Y-64356528D01*
X148575475Y-64356528D02*
X148289761Y-64356528D01*
X148289761Y-64356528D02*
X148099284Y-64451766D01*
X147432617Y-64356528D02*
X146670713Y-64356528D01*
X147146903Y-63689862D02*
X147146903Y-65404147D01*
X147146903Y-65404147D02*
X147051665Y-65594624D01*
X147051665Y-65594624D02*
X146861189Y-65689862D01*
X146861189Y-65689862D02*
X146670713Y-65689862D01*
X144480236Y-65689862D02*
X144480236Y-64356528D01*
X144480236Y-64547004D02*
X144384998Y-64451766D01*
X144384998Y-64451766D02*
X144194522Y-64356528D01*
X144194522Y-64356528D02*
X143908807Y-64356528D01*
X143908807Y-64356528D02*
X143718331Y-64451766D01*
X143718331Y-64451766D02*
X143623093Y-64642243D01*
X143623093Y-64642243D02*
X143623093Y-65689862D01*
X143623093Y-64642243D02*
X143527855Y-64451766D01*
X143527855Y-64451766D02*
X143337379Y-64356528D01*
X143337379Y-64356528D02*
X143051665Y-64356528D01*
X143051665Y-64356528D02*
X142861188Y-64451766D01*
X142861188Y-64451766D02*
X142765950Y-64642243D01*
X142765950Y-64642243D02*
X142765950Y-65689862D01*
X141527855Y-65689862D02*
X141718331Y-65594624D01*
X141718331Y-65594624D02*
X141813569Y-65499385D01*
X141813569Y-65499385D02*
X141908807Y-65308909D01*
X141908807Y-65308909D02*
X141908807Y-64737481D01*
X141908807Y-64737481D02*
X141813569Y-64547004D01*
X141813569Y-64547004D02*
X141718331Y-64451766D01*
X141718331Y-64451766D02*
X141527855Y-64356528D01*
X141527855Y-64356528D02*
X141242140Y-64356528D01*
X141242140Y-64356528D02*
X141051664Y-64451766D01*
X141051664Y-64451766D02*
X140956426Y-64547004D01*
X140956426Y-64547004D02*
X140861188Y-64737481D01*
X140861188Y-64737481D02*
X140861188Y-65308909D01*
X140861188Y-65308909D02*
X140956426Y-65499385D01*
X140956426Y-65499385D02*
X141051664Y-65594624D01*
X141051664Y-65594624D02*
X141242140Y-65689862D01*
X141242140Y-65689862D02*
X141527855Y-65689862D01*
X139146902Y-65689862D02*
X139146902Y-63689862D01*
X139146902Y-65594624D02*
X139337378Y-65689862D01*
X139337378Y-65689862D02*
X139718331Y-65689862D01*
X139718331Y-65689862D02*
X139908807Y-65594624D01*
X139908807Y-65594624D02*
X140004045Y-65499385D01*
X140004045Y-65499385D02*
X140099283Y-65308909D01*
X140099283Y-65308909D02*
X140099283Y-64737481D01*
X140099283Y-64737481D02*
X140004045Y-64547004D01*
X140004045Y-64547004D02*
X139908807Y-64451766D01*
X139908807Y-64451766D02*
X139718331Y-64356528D01*
X139718331Y-64356528D02*
X139337378Y-64356528D01*
X139337378Y-64356528D02*
X139146902Y-64451766D01*
X137432616Y-65594624D02*
X137623092Y-65689862D01*
X137623092Y-65689862D02*
X138004045Y-65689862D01*
X138004045Y-65689862D02*
X138194521Y-65594624D01*
X138194521Y-65594624D02*
X138289759Y-65404147D01*
X138289759Y-65404147D02*
X138289759Y-64642243D01*
X138289759Y-64642243D02*
X138194521Y-64451766D01*
X138194521Y-64451766D02*
X138004045Y-64356528D01*
X138004045Y-64356528D02*
X137623092Y-64356528D01*
X137623092Y-64356528D02*
X137432616Y-64451766D01*
X137432616Y-64451766D02*
X137337378Y-64642243D01*
X137337378Y-64642243D02*
X137337378Y-64832719D01*
X137337378Y-64832719D02*
X138289759Y-65023195D01*
X180194525Y-68338321D02*
X179242144Y-68338321D01*
X180385001Y-68909750D02*
X179718335Y-66909750D01*
X179718335Y-66909750D02*
X179051668Y-68909750D01*
X178385001Y-68719273D02*
X178289763Y-68814512D01*
X178289763Y-68814512D02*
X178385001Y-68909750D01*
X178385001Y-68909750D02*
X178480239Y-68814512D01*
X178480239Y-68814512D02*
X178385001Y-68719273D01*
X178385001Y-68719273D02*
X178385001Y-68909750D01*
X178385001Y-67671654D02*
X178289763Y-67766892D01*
X178289763Y-67766892D02*
X178385001Y-67862131D01*
X178385001Y-67862131D02*
X178480239Y-67766892D01*
X178480239Y-67766892D02*
X178385001Y-67671654D01*
X178385001Y-67671654D02*
X178385001Y-67862131D01*
X175051667Y-68909750D02*
X175051667Y-66909750D01*
X175051667Y-68814512D02*
X175242143Y-68909750D01*
X175242143Y-68909750D02*
X175623096Y-68909750D01*
X175623096Y-68909750D02*
X175813572Y-68814512D01*
X175813572Y-68814512D02*
X175908810Y-68719273D01*
X175908810Y-68719273D02*
X176004048Y-68528797D01*
X176004048Y-68528797D02*
X176004048Y-67957369D01*
X176004048Y-67957369D02*
X175908810Y-67766892D01*
X175908810Y-67766892D02*
X175813572Y-67671654D01*
X175813572Y-67671654D02*
X175623096Y-67576416D01*
X175623096Y-67576416D02*
X175242143Y-67576416D01*
X175242143Y-67576416D02*
X175051667Y-67671654D01*
X174099286Y-68909750D02*
X174099286Y-67576416D01*
X174099286Y-66909750D02*
X174194524Y-67004988D01*
X174194524Y-67004988D02*
X174099286Y-67100226D01*
X174099286Y-67100226D02*
X174004048Y-67004988D01*
X174004048Y-67004988D02*
X174099286Y-66909750D01*
X174099286Y-66909750D02*
X174099286Y-67100226D01*
X173242143Y-68814512D02*
X173051667Y-68909750D01*
X173051667Y-68909750D02*
X172670715Y-68909750D01*
X172670715Y-68909750D02*
X172480238Y-68814512D01*
X172480238Y-68814512D02*
X172385000Y-68624035D01*
X172385000Y-68624035D02*
X172385000Y-68528797D01*
X172385000Y-68528797D02*
X172480238Y-68338321D01*
X172480238Y-68338321D02*
X172670715Y-68243083D01*
X172670715Y-68243083D02*
X172956429Y-68243083D01*
X172956429Y-68243083D02*
X173146905Y-68147845D01*
X173146905Y-68147845D02*
X173242143Y-67957369D01*
X173242143Y-67957369D02*
X173242143Y-67862131D01*
X173242143Y-67862131D02*
X173146905Y-67671654D01*
X173146905Y-67671654D02*
X172956429Y-67576416D01*
X172956429Y-67576416D02*
X172670715Y-67576416D01*
X172670715Y-67576416D02*
X172480238Y-67671654D01*
X171527857Y-67576416D02*
X171527857Y-69576416D01*
X171527857Y-67671654D02*
X171337381Y-67576416D01*
X171337381Y-67576416D02*
X170956428Y-67576416D01*
X170956428Y-67576416D02*
X170765952Y-67671654D01*
X170765952Y-67671654D02*
X170670714Y-67766892D01*
X170670714Y-67766892D02*
X170575476Y-67957369D01*
X170575476Y-67957369D02*
X170575476Y-68528797D01*
X170575476Y-68528797D02*
X170670714Y-68719273D01*
X170670714Y-68719273D02*
X170765952Y-68814512D01*
X170765952Y-68814512D02*
X170956428Y-68909750D01*
X170956428Y-68909750D02*
X171337381Y-68909750D01*
X171337381Y-68909750D02*
X171527857Y-68814512D01*
X169432619Y-68909750D02*
X169623095Y-68814512D01*
X169623095Y-68814512D02*
X169718333Y-68624035D01*
X169718333Y-68624035D02*
X169718333Y-66909750D01*
X167813571Y-68909750D02*
X167813571Y-67862131D01*
X167813571Y-67862131D02*
X167908809Y-67671654D01*
X167908809Y-67671654D02*
X168099285Y-67576416D01*
X168099285Y-67576416D02*
X168480238Y-67576416D01*
X168480238Y-67576416D02*
X168670714Y-67671654D01*
X167813571Y-68814512D02*
X168004047Y-68909750D01*
X168004047Y-68909750D02*
X168480238Y-68909750D01*
X168480238Y-68909750D02*
X168670714Y-68814512D01*
X168670714Y-68814512D02*
X168765952Y-68624035D01*
X168765952Y-68624035D02*
X168765952Y-68433559D01*
X168765952Y-68433559D02*
X168670714Y-68243083D01*
X168670714Y-68243083D02*
X168480238Y-68147845D01*
X168480238Y-68147845D02*
X168004047Y-68147845D01*
X168004047Y-68147845D02*
X167813571Y-68052607D01*
X167051666Y-67576416D02*
X166575476Y-68909750D01*
X166099285Y-67576416D02*
X166575476Y-68909750D01*
X166575476Y-68909750D02*
X166765952Y-69385940D01*
X166765952Y-69385940D02*
X166861190Y-69481178D01*
X166861190Y-69481178D02*
X167051666Y-69576416D01*
X163813570Y-68909750D02*
X163813570Y-67576416D01*
X163813570Y-67766892D02*
X163718332Y-67671654D01*
X163718332Y-67671654D02*
X163527856Y-67576416D01*
X163527856Y-67576416D02*
X163242141Y-67576416D01*
X163242141Y-67576416D02*
X163051665Y-67671654D01*
X163051665Y-67671654D02*
X162956427Y-67862131D01*
X162956427Y-67862131D02*
X162956427Y-68909750D01*
X162956427Y-67862131D02*
X162861189Y-67671654D01*
X162861189Y-67671654D02*
X162670713Y-67576416D01*
X162670713Y-67576416D02*
X162384999Y-67576416D01*
X162384999Y-67576416D02*
X162194522Y-67671654D01*
X162194522Y-67671654D02*
X162099284Y-67862131D01*
X162099284Y-67862131D02*
X162099284Y-68909750D01*
X160861189Y-68909750D02*
X161051665Y-68814512D01*
X161051665Y-68814512D02*
X161146903Y-68719273D01*
X161146903Y-68719273D02*
X161242141Y-68528797D01*
X161242141Y-68528797D02*
X161242141Y-67957369D01*
X161242141Y-67957369D02*
X161146903Y-67766892D01*
X161146903Y-67766892D02*
X161051665Y-67671654D01*
X161051665Y-67671654D02*
X160861189Y-67576416D01*
X160861189Y-67576416D02*
X160575474Y-67576416D01*
X160575474Y-67576416D02*
X160384998Y-67671654D01*
X160384998Y-67671654D02*
X160289760Y-67766892D01*
X160289760Y-67766892D02*
X160194522Y-67957369D01*
X160194522Y-67957369D02*
X160194522Y-68528797D01*
X160194522Y-68528797D02*
X160289760Y-68719273D01*
X160289760Y-68719273D02*
X160384998Y-68814512D01*
X160384998Y-68814512D02*
X160575474Y-68909750D01*
X160575474Y-68909750D02*
X160861189Y-68909750D01*
X158480236Y-68909750D02*
X158480236Y-66909750D01*
X158480236Y-68814512D02*
X158670712Y-68909750D01*
X158670712Y-68909750D02*
X159051665Y-68909750D01*
X159051665Y-68909750D02*
X159242141Y-68814512D01*
X159242141Y-68814512D02*
X159337379Y-68719273D01*
X159337379Y-68719273D02*
X159432617Y-68528797D01*
X159432617Y-68528797D02*
X159432617Y-67957369D01*
X159432617Y-67957369D02*
X159337379Y-67766892D01*
X159337379Y-67766892D02*
X159242141Y-67671654D01*
X159242141Y-67671654D02*
X159051665Y-67576416D01*
X159051665Y-67576416D02*
X158670712Y-67576416D01*
X158670712Y-67576416D02*
X158480236Y-67671654D01*
X156765950Y-68814512D02*
X156956426Y-68909750D01*
X156956426Y-68909750D02*
X157337379Y-68909750D01*
X157337379Y-68909750D02*
X157527855Y-68814512D01*
X157527855Y-68814512D02*
X157623093Y-68624035D01*
X157623093Y-68624035D02*
X157623093Y-67862131D01*
X157623093Y-67862131D02*
X157527855Y-67671654D01*
X157527855Y-67671654D02*
X157337379Y-67576416D01*
X157337379Y-67576416D02*
X156956426Y-67576416D01*
X156956426Y-67576416D02*
X156765950Y-67671654D01*
X156765950Y-67671654D02*
X156670712Y-67862131D01*
X156670712Y-67862131D02*
X156670712Y-68052607D01*
X156670712Y-68052607D02*
X157623093Y-68243083D01*
X153718330Y-69671654D02*
X153813569Y-69576416D01*
X153813569Y-69576416D02*
X154004045Y-69290702D01*
X154004045Y-69290702D02*
X154099283Y-69100226D01*
X154099283Y-69100226D02*
X154194521Y-68814512D01*
X154194521Y-68814512D02*
X154289759Y-68338321D01*
X154289759Y-68338321D02*
X154289759Y-67957369D01*
X154289759Y-67957369D02*
X154194521Y-67481178D01*
X154194521Y-67481178D02*
X154099283Y-67195464D01*
X154099283Y-67195464D02*
X154004045Y-67004988D01*
X154004045Y-67004988D02*
X153813569Y-66719273D01*
X153813569Y-66719273D02*
X153718330Y-66624035D01*
X151908807Y-68909750D02*
X153051664Y-68909750D01*
X152480236Y-68909750D02*
X152480236Y-66909750D01*
X152480236Y-66909750D02*
X152670712Y-67195464D01*
X152670712Y-67195464D02*
X152861188Y-67385940D01*
X152861188Y-67385940D02*
X153051664Y-67481178D01*
X149623093Y-66814512D02*
X151337378Y-69385940D01*
X149051664Y-67100226D02*
X148956426Y-67004988D01*
X148956426Y-67004988D02*
X148765950Y-66909750D01*
X148765950Y-66909750D02*
X148289759Y-66909750D01*
X148289759Y-66909750D02*
X148099283Y-67004988D01*
X148099283Y-67004988D02*
X148004045Y-67100226D01*
X148004045Y-67100226D02*
X147908807Y-67290702D01*
X147908807Y-67290702D02*
X147908807Y-67481178D01*
X147908807Y-67481178D02*
X148004045Y-67766892D01*
X148004045Y-67766892D02*
X149146902Y-68909750D01*
X149146902Y-68909750D02*
X147908807Y-68909750D01*
X145623093Y-66814512D02*
X147337378Y-69385940D01*
X145146902Y-66909750D02*
X143908807Y-66909750D01*
X143908807Y-66909750D02*
X144575474Y-67671654D01*
X144575474Y-67671654D02*
X144289759Y-67671654D01*
X144289759Y-67671654D02*
X144099283Y-67766892D01*
X144099283Y-67766892D02*
X144004045Y-67862131D01*
X144004045Y-67862131D02*
X143908807Y-68052607D01*
X143908807Y-68052607D02*
X143908807Y-68528797D01*
X143908807Y-68528797D02*
X144004045Y-68719273D01*
X144004045Y-68719273D02*
X144099283Y-68814512D01*
X144099283Y-68814512D02*
X144289759Y-68909750D01*
X144289759Y-68909750D02*
X144861188Y-68909750D01*
X144861188Y-68909750D02*
X145051664Y-68814512D01*
X145051664Y-68814512D02*
X145146902Y-68719273D01*
X141623093Y-66814512D02*
X143337378Y-69385940D01*
X140099283Y-67576416D02*
X140099283Y-68909750D01*
X140575474Y-66814512D02*
X141051664Y-68243083D01*
X141051664Y-68243083D02*
X139813569Y-68243083D01*
X139242140Y-69671654D02*
X139146902Y-69576416D01*
X139146902Y-69576416D02*
X138956426Y-69290702D01*
X138956426Y-69290702D02*
X138861188Y-69100226D01*
X138861188Y-69100226D02*
X138765950Y-68814512D01*
X138765950Y-68814512D02*
X138670712Y-68338321D01*
X138670712Y-68338321D02*
X138670712Y-67957369D01*
X138670712Y-67957369D02*
X138765950Y-67481178D01*
X138765950Y-67481178D02*
X138861188Y-67195464D01*
X138861188Y-67195464D02*
X138956426Y-67004988D01*
X138956426Y-67004988D02*
X139146902Y-66719273D01*
X139146902Y-66719273D02*
X139242140Y-66624035D01*
X180242145Y-72129638D02*
X181194526Y-72129638D01*
X181194526Y-72129638D02*
X181194526Y-70129638D01*
X179289764Y-72129638D02*
X179480240Y-72034400D01*
X179480240Y-72034400D02*
X179575478Y-71939161D01*
X179575478Y-71939161D02*
X179670716Y-71748685D01*
X179670716Y-71748685D02*
X179670716Y-71177257D01*
X179670716Y-71177257D02*
X179575478Y-70986780D01*
X179575478Y-70986780D02*
X179480240Y-70891542D01*
X179480240Y-70891542D02*
X179289764Y-70796304D01*
X179289764Y-70796304D02*
X179004049Y-70796304D01*
X179004049Y-70796304D02*
X178813573Y-70891542D01*
X178813573Y-70891542D02*
X178718335Y-70986780D01*
X178718335Y-70986780D02*
X178623097Y-71177257D01*
X178623097Y-71177257D02*
X178623097Y-71748685D01*
X178623097Y-71748685D02*
X178718335Y-71939161D01*
X178718335Y-71939161D02*
X178813573Y-72034400D01*
X178813573Y-72034400D02*
X179004049Y-72129638D01*
X179004049Y-72129638D02*
X179289764Y-72129638D01*
X177765954Y-70796304D02*
X177765954Y-72129638D01*
X177765954Y-70986780D02*
X177670716Y-70891542D01*
X177670716Y-70891542D02*
X177480240Y-70796304D01*
X177480240Y-70796304D02*
X177194525Y-70796304D01*
X177194525Y-70796304D02*
X177004049Y-70891542D01*
X177004049Y-70891542D02*
X176908811Y-71082019D01*
X176908811Y-71082019D02*
X176908811Y-72129638D01*
X175099287Y-70796304D02*
X175099287Y-72415352D01*
X175099287Y-72415352D02*
X175194525Y-72605828D01*
X175194525Y-72605828D02*
X175289763Y-72701066D01*
X175289763Y-72701066D02*
X175480240Y-72796304D01*
X175480240Y-72796304D02*
X175765954Y-72796304D01*
X175765954Y-72796304D02*
X175956430Y-72701066D01*
X175099287Y-72034400D02*
X175289763Y-72129638D01*
X175289763Y-72129638D02*
X175670716Y-72129638D01*
X175670716Y-72129638D02*
X175861192Y-72034400D01*
X175861192Y-72034400D02*
X175956430Y-71939161D01*
X175956430Y-71939161D02*
X176051668Y-71748685D01*
X176051668Y-71748685D02*
X176051668Y-71177257D01*
X176051668Y-71177257D02*
X175956430Y-70986780D01*
X175956430Y-70986780D02*
X175861192Y-70891542D01*
X175861192Y-70891542D02*
X175670716Y-70796304D01*
X175670716Y-70796304D02*
X175289763Y-70796304D01*
X175289763Y-70796304D02*
X175099287Y-70891542D01*
X172718334Y-71558209D02*
X171765953Y-71558209D01*
X172908810Y-72129638D02*
X172242144Y-70129638D01*
X172242144Y-70129638D02*
X171575477Y-72129638D01*
X170908810Y-71939161D02*
X170813572Y-72034400D01*
X170813572Y-72034400D02*
X170908810Y-72129638D01*
X170908810Y-72129638D02*
X171004048Y-72034400D01*
X171004048Y-72034400D02*
X170908810Y-71939161D01*
X170908810Y-71939161D02*
X170908810Y-72129638D01*
X170908810Y-70891542D02*
X170813572Y-70986780D01*
X170813572Y-70986780D02*
X170908810Y-71082019D01*
X170908810Y-71082019D02*
X171004048Y-70986780D01*
X171004048Y-70986780D02*
X170908810Y-70891542D01*
X170908810Y-70891542D02*
X170908810Y-71082019D01*
X167670714Y-72034400D02*
X167861190Y-72129638D01*
X167861190Y-72129638D02*
X168242143Y-72129638D01*
X168242143Y-72129638D02*
X168432619Y-72034400D01*
X168432619Y-72034400D02*
X168527857Y-71843923D01*
X168527857Y-71843923D02*
X168527857Y-71082019D01*
X168527857Y-71082019D02*
X168432619Y-70891542D01*
X168432619Y-70891542D02*
X168242143Y-70796304D01*
X168242143Y-70796304D02*
X167861190Y-70796304D01*
X167861190Y-70796304D02*
X167670714Y-70891542D01*
X167670714Y-70891542D02*
X167575476Y-71082019D01*
X167575476Y-71082019D02*
X167575476Y-71272495D01*
X167575476Y-71272495D02*
X168527857Y-71462971D01*
X166718333Y-70796304D02*
X166718333Y-72129638D01*
X166718333Y-70986780D02*
X166623095Y-70891542D01*
X166623095Y-70891542D02*
X166432619Y-70796304D01*
X166432619Y-70796304D02*
X166146904Y-70796304D01*
X166146904Y-70796304D02*
X165956428Y-70891542D01*
X165956428Y-70891542D02*
X165861190Y-71082019D01*
X165861190Y-71082019D02*
X165861190Y-72129638D01*
X165194523Y-70796304D02*
X164432619Y-70796304D01*
X164908809Y-70129638D02*
X164908809Y-71843923D01*
X164908809Y-71843923D02*
X164813571Y-72034400D01*
X164813571Y-72034400D02*
X164623095Y-72129638D01*
X164623095Y-72129638D02*
X164432619Y-72129638D01*
X163004047Y-72034400D02*
X163194523Y-72129638D01*
X163194523Y-72129638D02*
X163575476Y-72129638D01*
X163575476Y-72129638D02*
X163765952Y-72034400D01*
X163765952Y-72034400D02*
X163861190Y-71843923D01*
X163861190Y-71843923D02*
X163861190Y-71082019D01*
X163861190Y-71082019D02*
X163765952Y-70891542D01*
X163765952Y-70891542D02*
X163575476Y-70796304D01*
X163575476Y-70796304D02*
X163194523Y-70796304D01*
X163194523Y-70796304D02*
X163004047Y-70891542D01*
X163004047Y-70891542D02*
X162908809Y-71082019D01*
X162908809Y-71082019D02*
X162908809Y-71272495D01*
X162908809Y-71272495D02*
X163861190Y-71462971D01*
X162051666Y-72129638D02*
X162051666Y-70796304D01*
X162051666Y-71177257D02*
X161956428Y-70986780D01*
X161956428Y-70986780D02*
X161861190Y-70891542D01*
X161861190Y-70891542D02*
X161670714Y-70796304D01*
X161670714Y-70796304D02*
X161480237Y-70796304D01*
X159575475Y-70129638D02*
X158432618Y-70129638D01*
X159004047Y-72129638D02*
X159004047Y-70129638D01*
X157765951Y-72129638D02*
X157765951Y-70796304D01*
X157765951Y-70129638D02*
X157861189Y-70224876D01*
X157861189Y-70224876D02*
X157765951Y-70320114D01*
X157765951Y-70320114D02*
X157670713Y-70224876D01*
X157670713Y-70224876D02*
X157765951Y-70129638D01*
X157765951Y-70129638D02*
X157765951Y-70320114D01*
X156813570Y-72129638D02*
X156813570Y-70796304D01*
X156813570Y-70986780D02*
X156718332Y-70891542D01*
X156718332Y-70891542D02*
X156527856Y-70796304D01*
X156527856Y-70796304D02*
X156242141Y-70796304D01*
X156242141Y-70796304D02*
X156051665Y-70891542D01*
X156051665Y-70891542D02*
X155956427Y-71082019D01*
X155956427Y-71082019D02*
X155956427Y-72129638D01*
X155956427Y-71082019D02*
X155861189Y-70891542D01*
X155861189Y-70891542D02*
X155670713Y-70796304D01*
X155670713Y-70796304D02*
X155384999Y-70796304D01*
X155384999Y-70796304D02*
X155194522Y-70891542D01*
X155194522Y-70891542D02*
X155099284Y-71082019D01*
X155099284Y-71082019D02*
X155099284Y-72129638D01*
X153384998Y-72034400D02*
X153575474Y-72129638D01*
X153575474Y-72129638D02*
X153956427Y-72129638D01*
X153956427Y-72129638D02*
X154146903Y-72034400D01*
X154146903Y-72034400D02*
X154242141Y-71843923D01*
X154242141Y-71843923D02*
X154242141Y-71082019D01*
X154242141Y-71082019D02*
X154146903Y-70891542D01*
X154146903Y-70891542D02*
X153956427Y-70796304D01*
X153956427Y-70796304D02*
X153575474Y-70796304D01*
X153575474Y-70796304D02*
X153384998Y-70891542D01*
X153384998Y-70891542D02*
X153289760Y-71082019D01*
X153289760Y-71082019D02*
X153289760Y-71272495D01*
X153289760Y-71272495D02*
X154242141Y-71462971D01*
X151004045Y-72034400D02*
X150718331Y-72129638D01*
X150718331Y-72129638D02*
X150242140Y-72129638D01*
X150242140Y-72129638D02*
X150051664Y-72034400D01*
X150051664Y-72034400D02*
X149956426Y-71939161D01*
X149956426Y-71939161D02*
X149861188Y-71748685D01*
X149861188Y-71748685D02*
X149861188Y-71558209D01*
X149861188Y-71558209D02*
X149956426Y-71367733D01*
X149956426Y-71367733D02*
X150051664Y-71272495D01*
X150051664Y-71272495D02*
X150242140Y-71177257D01*
X150242140Y-71177257D02*
X150623093Y-71082019D01*
X150623093Y-71082019D02*
X150813569Y-70986780D01*
X150813569Y-70986780D02*
X150908807Y-70891542D01*
X150908807Y-70891542D02*
X151004045Y-70701066D01*
X151004045Y-70701066D02*
X151004045Y-70510590D01*
X151004045Y-70510590D02*
X150908807Y-70320114D01*
X150908807Y-70320114D02*
X150813569Y-70224876D01*
X150813569Y-70224876D02*
X150623093Y-70129638D01*
X150623093Y-70129638D02*
X150146902Y-70129638D01*
X150146902Y-70129638D02*
X149861188Y-70224876D01*
X148242140Y-72034400D02*
X148432616Y-72129638D01*
X148432616Y-72129638D02*
X148813569Y-72129638D01*
X148813569Y-72129638D02*
X149004045Y-72034400D01*
X149004045Y-72034400D02*
X149099283Y-71843923D01*
X149099283Y-71843923D02*
X149099283Y-71082019D01*
X149099283Y-71082019D02*
X149004045Y-70891542D01*
X149004045Y-70891542D02*
X148813569Y-70796304D01*
X148813569Y-70796304D02*
X148432616Y-70796304D01*
X148432616Y-70796304D02*
X148242140Y-70891542D01*
X148242140Y-70891542D02*
X148146902Y-71082019D01*
X148146902Y-71082019D02*
X148146902Y-71272495D01*
X148146902Y-71272495D02*
X149099283Y-71462971D01*
X147575473Y-70796304D02*
X146813569Y-70796304D01*
X147289759Y-70129638D02*
X147289759Y-71843923D01*
X147289759Y-71843923D02*
X147194521Y-72034400D01*
X147194521Y-72034400D02*
X147004045Y-72129638D01*
X147004045Y-72129638D02*
X146813569Y-72129638D01*
X144623092Y-72129638D02*
X144623092Y-70796304D01*
X144623092Y-70986780D02*
X144527854Y-70891542D01*
X144527854Y-70891542D02*
X144337378Y-70796304D01*
X144337378Y-70796304D02*
X144051663Y-70796304D01*
X144051663Y-70796304D02*
X143861187Y-70891542D01*
X143861187Y-70891542D02*
X143765949Y-71082019D01*
X143765949Y-71082019D02*
X143765949Y-72129638D01*
X143765949Y-71082019D02*
X143670711Y-70891542D01*
X143670711Y-70891542D02*
X143480235Y-70796304D01*
X143480235Y-70796304D02*
X143194521Y-70796304D01*
X143194521Y-70796304D02*
X143004044Y-70891542D01*
X143004044Y-70891542D02*
X142908806Y-71082019D01*
X142908806Y-71082019D02*
X142908806Y-72129638D01*
X141670711Y-72129638D02*
X141861187Y-72034400D01*
X141861187Y-72034400D02*
X141956425Y-71939161D01*
X141956425Y-71939161D02*
X142051663Y-71748685D01*
X142051663Y-71748685D02*
X142051663Y-71177257D01*
X142051663Y-71177257D02*
X141956425Y-70986780D01*
X141956425Y-70986780D02*
X141861187Y-70891542D01*
X141861187Y-70891542D02*
X141670711Y-70796304D01*
X141670711Y-70796304D02*
X141384996Y-70796304D01*
X141384996Y-70796304D02*
X141194520Y-70891542D01*
X141194520Y-70891542D02*
X141099282Y-70986780D01*
X141099282Y-70986780D02*
X141004044Y-71177257D01*
X141004044Y-71177257D02*
X141004044Y-71748685D01*
X141004044Y-71748685D02*
X141099282Y-71939161D01*
X141099282Y-71939161D02*
X141194520Y-72034400D01*
X141194520Y-72034400D02*
X141384996Y-72129638D01*
X141384996Y-72129638D02*
X141670711Y-72129638D01*
X139289758Y-72129638D02*
X139289758Y-70129638D01*
X139289758Y-72034400D02*
X139480234Y-72129638D01*
X139480234Y-72129638D02*
X139861187Y-72129638D01*
X139861187Y-72129638D02*
X140051663Y-72034400D01*
X140051663Y-72034400D02*
X140146901Y-71939161D01*
X140146901Y-71939161D02*
X140242139Y-71748685D01*
X140242139Y-71748685D02*
X140242139Y-71177257D01*
X140242139Y-71177257D02*
X140146901Y-70986780D01*
X140146901Y-70986780D02*
X140051663Y-70891542D01*
X140051663Y-70891542D02*
X139861187Y-70796304D01*
X139861187Y-70796304D02*
X139480234Y-70796304D01*
X139480234Y-70796304D02*
X139289758Y-70891542D01*
X137575472Y-72034400D02*
X137765948Y-72129638D01*
X137765948Y-72129638D02*
X138146901Y-72129638D01*
X138146901Y-72129638D02*
X138337377Y-72034400D01*
X138337377Y-72034400D02*
X138432615Y-71843923D01*
X138432615Y-71843923D02*
X138432615Y-71082019D01*
X138432615Y-71082019D02*
X138337377Y-70891542D01*
X138337377Y-70891542D02*
X138146901Y-70796304D01*
X138146901Y-70796304D02*
X137765948Y-70796304D01*
X137765948Y-70796304D02*
X137575472Y-70891542D01*
X137575472Y-70891542D02*
X137480234Y-71082019D01*
X137480234Y-71082019D02*
X137480234Y-71272495D01*
X137480234Y-71272495D02*
X138432615Y-71462971D01*
D10*
X141054148Y-46566619D02*
X139149386Y-46566619D01*
X141435100Y-47709476D02*
X140101767Y-43709476D01*
X140101767Y-43709476D02*
X138768433Y-47709476D01*
X131275338Y-45614238D02*
X130703910Y-45804714D01*
X130703910Y-45804714D02*
X130513433Y-45995190D01*
X130513433Y-45995190D02*
X130322957Y-46376142D01*
X130322957Y-46376142D02*
X130322957Y-46947571D01*
X130322957Y-46947571D02*
X130513433Y-47328523D01*
X130513433Y-47328523D02*
X130703910Y-47519000D01*
X130703910Y-47519000D02*
X131084862Y-47709476D01*
X131084862Y-47709476D02*
X132608672Y-47709476D01*
X132608672Y-47709476D02*
X132608672Y-43709476D01*
X132608672Y-43709476D02*
X131275338Y-43709476D01*
X131275338Y-43709476D02*
X130894386Y-43899952D01*
X130894386Y-43899952D02*
X130703910Y-44090428D01*
X130703910Y-44090428D02*
X130513433Y-44471380D01*
X130513433Y-44471380D02*
X130513433Y-44852333D01*
X130513433Y-44852333D02*
X130703910Y-45233285D01*
X130703910Y-45233285D02*
X130894386Y-45423761D01*
X130894386Y-45423761D02*
X131275338Y-45614238D01*
X131275338Y-45614238D02*
X132608672Y-45614238D01*
D11*
X179545714Y-92404750D02*
X179545714Y-90404750D01*
X179545714Y-90404750D02*
X179069524Y-90404750D01*
X179069524Y-90404750D02*
X178783809Y-90499988D01*
X178783809Y-90499988D02*
X178593333Y-90690464D01*
X178593333Y-90690464D02*
X178498095Y-90880940D01*
X178498095Y-90880940D02*
X178402857Y-91261892D01*
X178402857Y-91261892D02*
X178402857Y-91547607D01*
X178402857Y-91547607D02*
X178498095Y-91928559D01*
X178498095Y-91928559D02*
X178593333Y-92119035D01*
X178593333Y-92119035D02*
X178783809Y-92309512D01*
X178783809Y-92309512D02*
X179069524Y-92404750D01*
X179069524Y-92404750D02*
X179545714Y-92404750D01*
X176402857Y-92214273D02*
X176498095Y-92309512D01*
X176498095Y-92309512D02*
X176783809Y-92404750D01*
X176783809Y-92404750D02*
X176974285Y-92404750D01*
X176974285Y-92404750D02*
X177260000Y-92309512D01*
X177260000Y-92309512D02*
X177450476Y-92119035D01*
X177450476Y-92119035D02*
X177545714Y-91928559D01*
X177545714Y-91928559D02*
X177640952Y-91547607D01*
X177640952Y-91547607D02*
X177640952Y-91261892D01*
X177640952Y-91261892D02*
X177545714Y-90880940D01*
X177545714Y-90880940D02*
X177450476Y-90690464D01*
X177450476Y-90690464D02*
X177260000Y-90499988D01*
X177260000Y-90499988D02*
X176974285Y-90404750D01*
X176974285Y-90404750D02*
X176783809Y-90404750D01*
X176783809Y-90404750D02*
X176498095Y-90499988D01*
X176498095Y-90499988D02*
X176402857Y-90595226D01*
X174879047Y-91357131D02*
X175545714Y-91357131D01*
X175545714Y-92404750D02*
X175545714Y-90404750D01*
X175545714Y-90404750D02*
X174593333Y-90404750D01*
X174021904Y-90404750D02*
X172688571Y-90404750D01*
X172688571Y-90404750D02*
X173545714Y-92404750D01*
X172117142Y-90404750D02*
X170783809Y-90404750D01*
X170783809Y-90404750D02*
X171640952Y-92404750D01*
X177879047Y-95624638D02*
X178545714Y-94672257D01*
X179021904Y-95624638D02*
X179021904Y-93624638D01*
X179021904Y-93624638D02*
X178259999Y-93624638D01*
X178259999Y-93624638D02*
X178069523Y-93719876D01*
X178069523Y-93719876D02*
X177974285Y-93815114D01*
X177974285Y-93815114D02*
X177879047Y-94005590D01*
X177879047Y-94005590D02*
X177879047Y-94291304D01*
X177879047Y-94291304D02*
X177974285Y-94481780D01*
X177974285Y-94481780D02*
X178069523Y-94577019D01*
X178069523Y-94577019D02*
X178259999Y-94672257D01*
X178259999Y-94672257D02*
X179021904Y-94672257D01*
X177021904Y-94577019D02*
X176355237Y-94577019D01*
X176069523Y-95624638D02*
X177021904Y-95624638D01*
X177021904Y-95624638D02*
X177021904Y-93624638D01*
X177021904Y-93624638D02*
X176069523Y-93624638D01*
X175498094Y-93624638D02*
X174831428Y-95624638D01*
X174831428Y-95624638D02*
X174164761Y-93624638D01*
X173498094Y-95434161D02*
X173402856Y-95529400D01*
X173402856Y-95529400D02*
X173498094Y-95624638D01*
X173498094Y-95624638D02*
X173593332Y-95529400D01*
X173593332Y-95529400D02*
X173498094Y-95434161D01*
X173498094Y-95434161D02*
X173498094Y-95624638D01*
X171879046Y-94577019D02*
X171593332Y-94672257D01*
X171593332Y-94672257D02*
X171498094Y-94767495D01*
X171498094Y-94767495D02*
X171402856Y-94957971D01*
X171402856Y-94957971D02*
X171402856Y-95243685D01*
X171402856Y-95243685D02*
X171498094Y-95434161D01*
X171498094Y-95434161D02*
X171593332Y-95529400D01*
X171593332Y-95529400D02*
X171783808Y-95624638D01*
X171783808Y-95624638D02*
X172545713Y-95624638D01*
X172545713Y-95624638D02*
X172545713Y-93624638D01*
X172545713Y-93624638D02*
X171879046Y-93624638D01*
X171879046Y-93624638D02*
X171688570Y-93719876D01*
X171688570Y-93719876D02*
X171593332Y-93815114D01*
X171593332Y-93815114D02*
X171498094Y-94005590D01*
X171498094Y-94005590D02*
X171498094Y-94196066D01*
X171498094Y-94196066D02*
X171593332Y-94386542D01*
X171593332Y-94386542D02*
X171688570Y-94481780D01*
X171688570Y-94481780D02*
X171879046Y-94577019D01*
X171879046Y-94577019D02*
X172545713Y-94577019D01*
D12*
X127702200Y-51671667D02*
X127749819Y-51814524D01*
X127749819Y-51814524D02*
X127749819Y-52052619D01*
X127749819Y-52052619D02*
X127702200Y-52147857D01*
X127702200Y-52147857D02*
X127654580Y-52195476D01*
X127654580Y-52195476D02*
X127559342Y-52243095D01*
X127559342Y-52243095D02*
X127464104Y-52243095D01*
X127464104Y-52243095D02*
X127368866Y-52195476D01*
X127368866Y-52195476D02*
X127321247Y-52147857D01*
X127321247Y-52147857D02*
X127273628Y-52052619D01*
X127273628Y-52052619D02*
X127226009Y-51862143D01*
X127226009Y-51862143D02*
X127178390Y-51766905D01*
X127178390Y-51766905D02*
X127130771Y-51719286D01*
X127130771Y-51719286D02*
X127035533Y-51671667D01*
X127035533Y-51671667D02*
X126940295Y-51671667D01*
X126940295Y-51671667D02*
X126845057Y-51719286D01*
X126845057Y-51719286D02*
X126797438Y-51766905D01*
X126797438Y-51766905D02*
X126749819Y-51862143D01*
X126749819Y-51862143D02*
X126749819Y-52100238D01*
X126749819Y-52100238D02*
X126797438Y-52243095D01*
X126749819Y-52576429D02*
X127749819Y-52814524D01*
X127749819Y-52814524D02*
X127035533Y-53005000D01*
X127035533Y-53005000D02*
X127749819Y-53195476D01*
X127749819Y-53195476D02*
X126749819Y-53433572D01*
X126845057Y-53766905D02*
X126797438Y-53814524D01*
X126797438Y-53814524D02*
X126749819Y-53909762D01*
X126749819Y-53909762D02*
X126749819Y-54147857D01*
X126749819Y-54147857D02*
X126797438Y-54243095D01*
X126797438Y-54243095D02*
X126845057Y-54290714D01*
X126845057Y-54290714D02*
X126940295Y-54338333D01*
X126940295Y-54338333D02*
X127035533Y-54338333D01*
X127035533Y-54338333D02*
X127178390Y-54290714D01*
X127178390Y-54290714D02*
X127749819Y-53719286D01*
X127749819Y-53719286D02*
X127749819Y-54338333D01*
X119637200Y-51671667D02*
X119684819Y-51814524D01*
X119684819Y-51814524D02*
X119684819Y-52052619D01*
X119684819Y-52052619D02*
X119637200Y-52147857D01*
X119637200Y-52147857D02*
X119589580Y-52195476D01*
X119589580Y-52195476D02*
X119494342Y-52243095D01*
X119494342Y-52243095D02*
X119399104Y-52243095D01*
X119399104Y-52243095D02*
X119303866Y-52195476D01*
X119303866Y-52195476D02*
X119256247Y-52147857D01*
X119256247Y-52147857D02*
X119208628Y-52052619D01*
X119208628Y-52052619D02*
X119161009Y-51862143D01*
X119161009Y-51862143D02*
X119113390Y-51766905D01*
X119113390Y-51766905D02*
X119065771Y-51719286D01*
X119065771Y-51719286D02*
X118970533Y-51671667D01*
X118970533Y-51671667D02*
X118875295Y-51671667D01*
X118875295Y-51671667D02*
X118780057Y-51719286D01*
X118780057Y-51719286D02*
X118732438Y-51766905D01*
X118732438Y-51766905D02*
X118684819Y-51862143D01*
X118684819Y-51862143D02*
X118684819Y-52100238D01*
X118684819Y-52100238D02*
X118732438Y-52243095D01*
X118684819Y-52576429D02*
X119684819Y-52814524D01*
X119684819Y-52814524D02*
X118970533Y-53005000D01*
X118970533Y-53005000D02*
X119684819Y-53195476D01*
X119684819Y-53195476D02*
X118684819Y-53433572D01*
X118684819Y-53719286D02*
X118684819Y-54338333D01*
X118684819Y-54338333D02*
X119065771Y-54005000D01*
X119065771Y-54005000D02*
X119065771Y-54147857D01*
X119065771Y-54147857D02*
X119113390Y-54243095D01*
X119113390Y-54243095D02*
X119161009Y-54290714D01*
X119161009Y-54290714D02*
X119256247Y-54338333D01*
X119256247Y-54338333D02*
X119494342Y-54338333D01*
X119494342Y-54338333D02*
X119589580Y-54290714D01*
X119589580Y-54290714D02*
X119637200Y-54243095D01*
X119637200Y-54243095D02*
X119684819Y-54147857D01*
X119684819Y-54147857D02*
X119684819Y-53862143D01*
X119684819Y-53862143D02*
X119637200Y-53766905D01*
X119637200Y-53766905D02*
X119589580Y-53719286D01*
D13*
X157701904Y-73887419D02*
X157701904Y-74696942D01*
X157701904Y-74696942D02*
X157654285Y-74792180D01*
X157654285Y-74792180D02*
X157606666Y-74839800D01*
X157606666Y-74839800D02*
X157511428Y-74887419D01*
X157511428Y-74887419D02*
X157320952Y-74887419D01*
X157320952Y-74887419D02*
X157225714Y-74839800D01*
X157225714Y-74839800D02*
X157178095Y-74792180D01*
X157178095Y-74792180D02*
X157130476Y-74696942D01*
X157130476Y-74696942D02*
X157130476Y-73887419D01*
X156130476Y-74887419D02*
X156701904Y-74887419D01*
X156416190Y-74887419D02*
X156416190Y-73887419D01*
X156416190Y-73887419D02*
X156511428Y-74030276D01*
X156511428Y-74030276D02*
X156606666Y-74125514D01*
X156606666Y-74125514D02*
X156701904Y-74173133D01*
D14*
X131186231Y-83056838D02*
X131186231Y-81056838D01*
X131186231Y-81056838D02*
X130519564Y-82485409D01*
X130519564Y-82485409D02*
X129852898Y-81056838D01*
X129852898Y-81056838D02*
X129852898Y-83056838D01*
X128614803Y-83056838D02*
X128805279Y-82961600D01*
X128805279Y-82961600D02*
X128900517Y-82866361D01*
X128900517Y-82866361D02*
X128995755Y-82675885D01*
X128995755Y-82675885D02*
X128995755Y-82104457D01*
X128995755Y-82104457D02*
X128900517Y-81913980D01*
X128900517Y-81913980D02*
X128805279Y-81818742D01*
X128805279Y-81818742D02*
X128614803Y-81723504D01*
X128614803Y-81723504D02*
X128329088Y-81723504D01*
X128329088Y-81723504D02*
X128138612Y-81818742D01*
X128138612Y-81818742D02*
X128043374Y-81913980D01*
X128043374Y-81913980D02*
X127948136Y-82104457D01*
X127948136Y-82104457D02*
X127948136Y-82675885D01*
X127948136Y-82675885D02*
X128043374Y-82866361D01*
X128043374Y-82866361D02*
X128138612Y-82961600D01*
X128138612Y-82961600D02*
X128329088Y-83056838D01*
X128329088Y-83056838D02*
X128614803Y-83056838D01*
X127281469Y-81723504D02*
X126805279Y-83056838D01*
X126805279Y-83056838D02*
X126329088Y-81723504D01*
X125567183Y-83056838D02*
X125567183Y-81723504D01*
X125567183Y-81913980D02*
X125471945Y-81818742D01*
X125471945Y-81818742D02*
X125281469Y-81723504D01*
X125281469Y-81723504D02*
X124995754Y-81723504D01*
X124995754Y-81723504D02*
X124805278Y-81818742D01*
X124805278Y-81818742D02*
X124710040Y-82009219D01*
X124710040Y-82009219D02*
X124710040Y-83056838D01*
X124710040Y-82009219D02*
X124614802Y-81818742D01*
X124614802Y-81818742D02*
X124424326Y-81723504D01*
X124424326Y-81723504D02*
X124138612Y-81723504D01*
X124138612Y-81723504D02*
X123948135Y-81818742D01*
X123948135Y-81818742D02*
X123852897Y-82009219D01*
X123852897Y-82009219D02*
X123852897Y-83056838D01*
X122138611Y-82961600D02*
X122329087Y-83056838D01*
X122329087Y-83056838D02*
X122710040Y-83056838D01*
X122710040Y-83056838D02*
X122900516Y-82961600D01*
X122900516Y-82961600D02*
X122995754Y-82771123D01*
X122995754Y-82771123D02*
X122995754Y-82009219D01*
X122995754Y-82009219D02*
X122900516Y-81818742D01*
X122900516Y-81818742D02*
X122710040Y-81723504D01*
X122710040Y-81723504D02*
X122329087Y-81723504D01*
X122329087Y-81723504D02*
X122138611Y-81818742D01*
X122138611Y-81818742D02*
X122043373Y-82009219D01*
X122043373Y-82009219D02*
X122043373Y-82199695D01*
X122043373Y-82199695D02*
X122995754Y-82390171D01*
X121186230Y-81723504D02*
X121186230Y-83056838D01*
X121186230Y-81913980D02*
X121090992Y-81818742D01*
X121090992Y-81818742D02*
X120900516Y-81723504D01*
X120900516Y-81723504D02*
X120614801Y-81723504D01*
X120614801Y-81723504D02*
X120424325Y-81818742D01*
X120424325Y-81818742D02*
X120329087Y-82009219D01*
X120329087Y-82009219D02*
X120329087Y-83056838D01*
X119662420Y-81723504D02*
X118900516Y-81723504D01*
X119376706Y-81056838D02*
X119376706Y-82771123D01*
X119376706Y-82771123D02*
X119281468Y-82961600D01*
X119281468Y-82961600D02*
X119090992Y-83056838D01*
X119090992Y-83056838D02*
X118900516Y-83056838D01*
X115757658Y-81056838D02*
X116710039Y-81056838D01*
X116710039Y-81056838D02*
X116805277Y-82009219D01*
X116805277Y-82009219D02*
X116710039Y-81913980D01*
X116710039Y-81913980D02*
X116519563Y-81818742D01*
X116519563Y-81818742D02*
X116043372Y-81818742D01*
X116043372Y-81818742D02*
X115852896Y-81913980D01*
X115852896Y-81913980D02*
X115757658Y-82009219D01*
X115757658Y-82009219D02*
X115662420Y-82199695D01*
X115662420Y-82199695D02*
X115662420Y-82675885D01*
X115662420Y-82675885D02*
X115757658Y-82866361D01*
X115757658Y-82866361D02*
X115852896Y-82961600D01*
X115852896Y-82961600D02*
X116043372Y-83056838D01*
X116043372Y-83056838D02*
X116519563Y-83056838D01*
X116519563Y-83056838D02*
X116710039Y-82961600D01*
X116710039Y-82961600D02*
X116805277Y-82866361D01*
X114424325Y-81056838D02*
X114233848Y-81056838D01*
X114233848Y-81056838D02*
X114043372Y-81152076D01*
X114043372Y-81152076D02*
X113948134Y-81247314D01*
X113948134Y-81247314D02*
X113852896Y-81437790D01*
X113852896Y-81437790D02*
X113757658Y-81818742D01*
X113757658Y-81818742D02*
X113757658Y-82294933D01*
X113757658Y-82294933D02*
X113852896Y-82675885D01*
X113852896Y-82675885D02*
X113948134Y-82866361D01*
X113948134Y-82866361D02*
X114043372Y-82961600D01*
X114043372Y-82961600D02*
X114233848Y-83056838D01*
X114233848Y-83056838D02*
X114424325Y-83056838D01*
X114424325Y-83056838D02*
X114614801Y-82961600D01*
X114614801Y-82961600D02*
X114710039Y-82866361D01*
X114710039Y-82866361D02*
X114805277Y-82675885D01*
X114805277Y-82675885D02*
X114900515Y-82294933D01*
X114900515Y-82294933D02*
X114900515Y-81818742D01*
X114900515Y-81818742D02*
X114805277Y-81437790D01*
X114805277Y-81437790D02*
X114710039Y-81247314D01*
X114710039Y-81247314D02*
X114614801Y-81152076D01*
X114614801Y-81152076D02*
X114424325Y-81056838D01*
X113090991Y-81056838D02*
X111852896Y-81056838D01*
X111852896Y-81056838D02*
X112519563Y-81818742D01*
X112519563Y-81818742D02*
X112233848Y-81818742D01*
X112233848Y-81818742D02*
X112043372Y-81913980D01*
X112043372Y-81913980D02*
X111948134Y-82009219D01*
X111948134Y-82009219D02*
X111852896Y-82199695D01*
X111852896Y-82199695D02*
X111852896Y-82675885D01*
X111852896Y-82675885D02*
X111948134Y-82866361D01*
X111948134Y-82866361D02*
X112043372Y-82961600D01*
X112043372Y-82961600D02*
X112233848Y-83056838D01*
X112233848Y-83056838D02*
X112805277Y-83056838D01*
X112805277Y-83056838D02*
X112995753Y-82961600D01*
X112995753Y-82961600D02*
X113090991Y-82866361D01*
X111186229Y-81056838D02*
X109852896Y-81056838D01*
X109852896Y-81056838D02*
X110710039Y-83056838D01*
D13*
X118012306Y-107124038D02*
X118107544Y-107076419D01*
X118107544Y-107076419D02*
X118250401Y-107076419D01*
X118250401Y-107076419D02*
X118393258Y-107124038D01*
X118393258Y-107124038D02*
X118488496Y-107219276D01*
X118488496Y-107219276D02*
X118536115Y-107314514D01*
X118536115Y-107314514D02*
X118583734Y-107504990D01*
X118583734Y-107504990D02*
X118583734Y-107647847D01*
X118583734Y-107647847D02*
X118536115Y-107838323D01*
X118536115Y-107838323D02*
X118488496Y-107933561D01*
X118488496Y-107933561D02*
X118393258Y-108028800D01*
X118393258Y-108028800D02*
X118250401Y-108076419D01*
X118250401Y-108076419D02*
X118155163Y-108076419D01*
X118155163Y-108076419D02*
X118012306Y-108028800D01*
X118012306Y-108028800D02*
X117964687Y-107981180D01*
X117964687Y-107981180D02*
X117964687Y-107647847D01*
X117964687Y-107647847D02*
X118155163Y-107647847D01*
X117536115Y-108076419D02*
X117536115Y-107076419D01*
X117536115Y-107076419D02*
X116964687Y-108076419D01*
X116964687Y-108076419D02*
X116964687Y-107076419D01*
X116488496Y-108076419D02*
X116488496Y-107076419D01*
X116488496Y-107076419D02*
X116250401Y-107076419D01*
X116250401Y-107076419D02*
X116107544Y-107124038D01*
X116107544Y-107124038D02*
X116012306Y-107219276D01*
X116012306Y-107219276D02*
X115964687Y-107314514D01*
X115964687Y-107314514D02*
X115917068Y-107504990D01*
X115917068Y-107504990D02*
X115917068Y-107647847D01*
X115917068Y-107647847D02*
X115964687Y-107838323D01*
X115964687Y-107838323D02*
X116012306Y-107933561D01*
X116012306Y-107933561D02*
X116107544Y-108028800D01*
X116107544Y-108028800D02*
X116250401Y-108076419D01*
X116250401Y-108076419D02*
X116488496Y-108076419D01*
X111932115Y-107695466D02*
X111170211Y-107695466D01*
X111551163Y-108076419D02*
X111551163Y-107314514D01*
X110217830Y-107076419D02*
X110694020Y-107076419D01*
X110694020Y-107076419D02*
X110741639Y-107552609D01*
X110741639Y-107552609D02*
X110694020Y-107504990D01*
X110694020Y-107504990D02*
X110598782Y-107457371D01*
X110598782Y-107457371D02*
X110360687Y-107457371D01*
X110360687Y-107457371D02*
X110265449Y-107504990D01*
X110265449Y-107504990D02*
X110217830Y-107552609D01*
X110217830Y-107552609D02*
X110170211Y-107647847D01*
X110170211Y-107647847D02*
X110170211Y-107885942D01*
X110170211Y-107885942D02*
X110217830Y-107981180D01*
X110217830Y-107981180D02*
X110265449Y-108028800D01*
X110265449Y-108028800D02*
X110360687Y-108076419D01*
X110360687Y-108076419D02*
X110598782Y-108076419D01*
X110598782Y-108076419D02*
X110694020Y-108028800D01*
X110694020Y-108028800D02*
X110741639Y-107981180D01*
X109884496Y-107076419D02*
X109551163Y-108076419D01*
X109551163Y-108076419D02*
X109217830Y-107076419D01*
D12*
X136147200Y-51671667D02*
X136194819Y-51814524D01*
X136194819Y-51814524D02*
X136194819Y-52052619D01*
X136194819Y-52052619D02*
X136147200Y-52147857D01*
X136147200Y-52147857D02*
X136099580Y-52195476D01*
X136099580Y-52195476D02*
X136004342Y-52243095D01*
X136004342Y-52243095D02*
X135909104Y-52243095D01*
X135909104Y-52243095D02*
X135813866Y-52195476D01*
X135813866Y-52195476D02*
X135766247Y-52147857D01*
X135766247Y-52147857D02*
X135718628Y-52052619D01*
X135718628Y-52052619D02*
X135671009Y-51862143D01*
X135671009Y-51862143D02*
X135623390Y-51766905D01*
X135623390Y-51766905D02*
X135575771Y-51719286D01*
X135575771Y-51719286D02*
X135480533Y-51671667D01*
X135480533Y-51671667D02*
X135385295Y-51671667D01*
X135385295Y-51671667D02*
X135290057Y-51719286D01*
X135290057Y-51719286D02*
X135242438Y-51766905D01*
X135242438Y-51766905D02*
X135194819Y-51862143D01*
X135194819Y-51862143D02*
X135194819Y-52100238D01*
X135194819Y-52100238D02*
X135242438Y-52243095D01*
X135194819Y-52576429D02*
X136194819Y-52814524D01*
X136194819Y-52814524D02*
X135480533Y-53005000D01*
X135480533Y-53005000D02*
X136194819Y-53195476D01*
X136194819Y-53195476D02*
X135194819Y-53433572D01*
X136194819Y-54338333D02*
X136194819Y-53766905D01*
X136194819Y-54052619D02*
X135194819Y-54052619D01*
X135194819Y-54052619D02*
X135337676Y-53957381D01*
X135337676Y-53957381D02*
X135432914Y-53862143D01*
X135432914Y-53862143D02*
X135480533Y-53766905D01*
D15*
%TO.C,SW2*%
X128395000Y-49755000D02*
X129045000Y-49755000D01*
X128395000Y-56255000D02*
X128395000Y-49755000D01*
X129045000Y-56255000D02*
X128395000Y-56255000D01*
X130545000Y-49755000D02*
X133045000Y-49755000D01*
X130545000Y-56255000D02*
X133045000Y-56255000D01*
X134545000Y-56255000D02*
X135195000Y-56255000D01*
X135195000Y-49755000D02*
X134545000Y-49755000D01*
X135195000Y-56255000D02*
X135195000Y-49755000D01*
%TO.C,SW3*%
X120330000Y-49755000D02*
X120980000Y-49755000D01*
X120330000Y-56255000D02*
X120330000Y-49755000D01*
X120980000Y-56255000D02*
X120330000Y-56255000D01*
X122480000Y-49755000D02*
X124980000Y-49755000D01*
X122480000Y-56255000D02*
X124980000Y-56255000D01*
X126480000Y-56255000D02*
X127130000Y-56255000D01*
X127130000Y-49755000D02*
X126480000Y-49755000D01*
X127130000Y-56255000D02*
X127130000Y-49755000D01*
%TO.C,U1*%
D13*
X112871000Y-105156000D02*
X108045000Y-105156000D01*
X108045000Y-109982000D01*
X112871000Y-109982000D01*
X112871000Y-105156000D01*
X119602000Y-105156000D02*
X114776000Y-105156000D01*
X114776000Y-109982000D01*
X119602000Y-109982000D01*
X119602000Y-105156000D01*
X138398000Y-75692000D02*
X122904000Y-75692000D01*
X122904000Y-79502000D01*
X138398000Y-79502000D01*
X138398000Y-75692000D01*
X138398000Y-106172000D02*
X125190000Y-106172000D01*
X125190000Y-110490000D01*
X138398000Y-110490000D01*
X138398000Y-106172000D01*
D11*
X156940000Y-74930000D02*
X106648000Y-74930000D01*
X106648000Y-110998000D01*
X156940000Y-110998000D01*
X156940000Y-74930000D01*
D13*
X154908000Y-95504000D02*
G75*
G02*
X132048000Y-95504000I-11430000J0D01*
G01*
X132048000Y-95504000D02*
G75*
G02*
X154908000Y-95504000I11430000J0D01*
G01*
D15*
%TO.C,SW1*%
X136840000Y-49755000D02*
X137490000Y-49755000D01*
X136840000Y-56255000D02*
X136840000Y-49755000D01*
X137490000Y-56255000D02*
X136840000Y-56255000D01*
X138990000Y-49755000D02*
X141490000Y-49755000D01*
X138990000Y-56255000D02*
X141490000Y-56255000D01*
X142990000Y-56255000D02*
X143640000Y-56255000D01*
X143640000Y-49755000D02*
X142990000Y-49755000D01*
X143640000Y-56255000D02*
X143640000Y-49755000D01*
%TD*%
D16*
%TO.C,D50*%
X71493541Y-66866625D03*
%TD*%
D17*
%TO.C,D34*%
X111268840Y-155275078D03*
%TD*%
D18*
%TO.C,D36*%
X98790370Y-149777456D03*
%TD*%
D19*
%TO.C,D9*%
X179484548Y-49331187D03*
%TD*%
D20*
%TO.C,D54*%
X87350087Y-44862252D03*
%TD*%
D21*
%TO.C,D41*%
X74823344Y-125996470D03*
%TD*%
D22*
%TO.C,D29*%
X144992430Y-156910873D03*
%TD*%
D23*
%TO.C,D12*%
X190665637Y-66402544D03*
%TD*%
D24*
%TO.C,D53*%
X82541334Y-49708705D03*
%TD*%
D25*
%TO.C,D51*%
X74569344Y-60771470D03*
%TD*%
D26*
%TO.C,D57*%
X104421444Y-33681263D03*
%TD*%
D27*
%TO.C,D58*%
X110785703Y-31209803D03*
%TD*%
D28*
%TO.C,D26*%
X164015370Y-149523456D03*
%TD*%
D27*
%TO.C,D28*%
X151580097Y-155118097D03*
%TD*%
D29*
%TO.C,D48*%
X67330408Y-79851369D03*
%TD*%
D16*
%TO.C,D20*%
X190872259Y-119461275D03*
%TD*%
D30*
%TO.C,D13*%
X193137097Y-72766803D03*
%TD*%
D31*
%TO.C,D60*%
X124112372Y-28322782D03*
%TD*%
D32*
%TO.C,D40*%
X78564069Y-131707742D03*
%TD*%
D33*
%TO.C,D39*%
X82881252Y-136996713D03*
%TD*%
D34*
%TO.C,D10*%
X183801731Y-54620158D03*
%TD*%
D35*
%TO.C,D42*%
X71700163Y-119925356D03*
%TD*%
D36*
%TO.C,D22*%
X184100326Y-131296762D03*
%TD*%
%TO.C,D52*%
X78265474Y-55031138D03*
%TD*%
D37*
%TO.C,D37*%
X93050138Y-146081426D03*
%TD*%
D38*
%TO.C,D4*%
X151096960Y-31052822D03*
%TD*%
D39*
%TO.C,D47*%
X66288682Y-86598689D03*
%TD*%
D25*
%TO.C,D21*%
X187796356Y-125556530D03*
%TD*%
D22*
%TO.C,D59*%
X117373370Y-29417127D03*
%TD*%
D24*
%TO.C,D23*%
X179824466Y-136619195D03*
%TD*%
D40*
%TO.C,D55*%
X92639158Y-40545169D03*
%TD*%
D41*
%TO.C,D14*%
X194929773Y-79354470D03*
%TD*%
D42*
%TO.C,D32*%
X124617589Y-158058218D03*
%TD*%
D43*
%TO.C,D44*%
X67436027Y-106973430D03*
%TD*%
D40*
%TO.C,D25*%
X169726642Y-145782831D03*
%TD*%
D26*
%TO.C,D27*%
X157944356Y-152646637D03*
%TD*%
D31*
%TO.C,D30*%
X138253328Y-158005118D03*
%TD*%
D44*
%TO.C,D8*%
X174638195Y-44522334D03*
%TD*%
D45*
%TO.C,D5*%
X157480275Y-33474641D03*
%TD*%
D46*
%TO.C,D35*%
X104885525Y-152853259D03*
%TD*%
D47*
%TO.C,D3*%
X144495531Y-29311508D03*
%TD*%
D20*
%TO.C,D24*%
X175015713Y-141465648D03*
%TD*%
D48*
%TO.C,D2*%
X137748111Y-28269682D03*
%TD*%
D49*
%TO.C,D1*%
X130928900Y-27939000D03*
%TD*%
D50*
%TO.C,D16*%
X196407900Y-92910000D03*
%TD*%
D29*
%TO.C,D18*%
X195035392Y-106476531D03*
%TD*%
D39*
%TO.C,D17*%
X196077118Y-99729211D03*
%TD*%
D51*
%TO.C,D38*%
X87727605Y-141805566D03*
%TD*%
D28*
%TO.C,D56*%
X98350430Y-36804444D03*
%TD*%
D52*
%TO.C,D15*%
X196024018Y-86093472D03*
%TD*%
D53*
%TO.C,D33*%
X117870269Y-157016492D03*
%TD*%
D54*
%TO.C,D6*%
X163575430Y-36550444D03*
%TD*%
D50*
%TO.C,D46*%
X65957900Y-93418000D03*
%TD*%
D55*
%TO.C,D45*%
X66341782Y-100234428D03*
%TD*%
D56*
%TO.C,D7*%
X169315662Y-40246574D03*
%TD*%
D57*
%TO.C,D11*%
X187542356Y-60331530D03*
%TD*%
D49*
%TO.C,D31*%
X131436900Y-158389000D03*
%TD*%
D58*
%TO.C,D43*%
X69228703Y-113561197D03*
%TD*%
D59*
%TO.C,D49*%
X69071722Y-73249940D03*
%TD*%
%TO.C,D19*%
X193294078Y-113078060D03*
%TD*%
M02*
