M48
; DRILL file {KiCad 7.0.7} date Thu Nov 28 18:31:46 2024
; FORMAT={-:-/ absolute / inch / decimal}
; #@! TF.CreationDate,2024-11-28T18:31:46+01:00
; #@! TF.GenerationSoftware,Kicad,Pcbnew,7.0.7
; #@! TF.FileFunction,Plated,1,2,PTH
FMAT,2
INCH
; #@! TA.AperFunction,Plated,PTH,ComponentDrill
T1C0.0276
; #@! TA.AperFunction,Plated,PTH,ComponentDrill
T2C0.0394
%
G90
G05
T1
X2.5456Y-3.6708
X2.5596Y-3.4033
X2.5596Y-3.9383
X2.5956Y-3.6708
X2.6015Y-3.1388
X2.6015Y-4.2029
X2.6096Y-3.4033
X2.6096Y-3.9383
X2.6456Y-3.6708
X2.6515Y-3.1388
X2.6515Y-4.2029
X2.6596Y-3.4033
X2.6596Y-3.9383
X2.6709Y-2.88
X2.6709Y-4.4616
X2.6956Y-3.6708
X2.7015Y-3.1388
X2.7015Y-4.2029
X2.7096Y-3.4033
X2.7096Y-3.9383
X2.7209Y-2.88
X2.7209Y-4.4616
X2.7515Y-3.1388
X2.7515Y-4.2029
X2.7669Y-2.63
X2.7669Y-4.7117
X2.7709Y-2.88
X2.7709Y-4.4616
X2.8169Y-2.63
X2.8169Y-4.7117
X2.8209Y-2.88
X2.8209Y-4.4616
X2.8669Y-2.63
X2.8669Y-4.7117
X2.8885Y-2.3913
X2.8885Y-4.9504
X2.9169Y-2.63
X2.9169Y-4.7117
X2.9385Y-2.3913
X2.9385Y-4.9504
X2.9885Y-2.3913
X2.9885Y-4.9504
X3.0344Y-2.1666
X3.0344Y-5.175
X3.0385Y-2.3913
X3.0385Y-4.9504
X3.0844Y-2.1666
X3.0844Y-5.175
X3.1344Y-2.1666
X3.1344Y-5.175
X3.1844Y-2.1666
X3.1844Y-5.175
X3.2029Y-1.9585
X3.2029Y-5.3832
X3.2529Y-1.9585
X3.2529Y-5.3832
X3.3029Y-1.9585
X3.3029Y-5.3832
X3.3529Y-1.9585
X3.3529Y-5.3832
X3.3923Y-1.7691
X3.3923Y-5.5726
X3.4423Y-1.7691
X3.4423Y-5.5726
X3.4923Y-1.7691
X3.4923Y-5.5726
X3.5423Y-1.7691
X3.5423Y-5.5726
X3.6005Y-1.6005
X3.6005Y-5.7411
X3.6505Y-1.6005
X3.6505Y-5.7411
X3.7005Y-1.6005
X3.7005Y-5.7411
X3.7505Y-1.6005
X3.7505Y-5.7411
X3.8252Y-1.4546
X3.8252Y-5.887
X3.8752Y-1.4546
X3.8752Y-5.887
X3.9252Y-1.4546
X3.9252Y-5.887
X3.9752Y-1.4546
X3.9752Y-5.887
X4.0638Y-1.333
X4.0638Y-6.0086
X4.1138Y-1.333
X4.1138Y-6.0086
X4.1638Y-1.333
X4.1638Y-6.0086
X4.2138Y-1.333
X4.2138Y-6.0086
X4.3139Y-1.237
X4.3139Y-6.1046
X4.3639Y-1.237
X4.3639Y-6.1046
X4.4139Y-1.237
X4.4139Y-6.1046
X4.4639Y-1.237
X4.4639Y-6.1046
X4.5726Y-1.1677
X4.5726Y-6.174
X4.6226Y-1.1677
X4.6226Y-6.174
X4.6726Y-1.1677
X4.6726Y-6.174
X4.7226Y-1.1677
X4.7226Y-6.174
X4.8372Y-1.1258
X4.8372Y-6.2159
X4.8872Y-1.1258
X4.8872Y-6.2159
X4.9372Y-1.1258
X4.9372Y-6.2159
X4.9872Y-1.1258
X4.9872Y-6.2159
X5.1047Y-1.1118
X5.1047Y-6.2299
X5.1547Y-1.1118
X5.1547Y-6.2299
X5.2047Y-1.1118
X5.2047Y-6.2299
X5.2547Y-1.1118
X5.2547Y-6.2299
X5.3722Y-1.1258
X5.3722Y-6.2159
X5.4222Y-1.1258
X5.4222Y-6.2159
X5.4722Y-1.1258
X5.4722Y-6.2159
X5.5222Y-1.1258
X5.5222Y-6.2159
X5.6367Y-1.1677
X5.6367Y-6.174
X5.6867Y-1.1677
X5.6867Y-6.174
X5.7367Y-1.1677
X5.7367Y-6.174
X5.7867Y-1.1677
X5.7867Y-6.174
X5.8955Y-1.237
X5.8955Y-6.1046
X5.9455Y-1.237
X5.9455Y-6.1046
X5.9955Y-1.237
X5.9955Y-6.1046
X6.0455Y-1.237
X6.0455Y-6.1046
X6.1455Y-1.333
X6.1455Y-6.0086
X6.1955Y-1.333
X6.1955Y-6.0086
X6.2455Y-1.333
X6.2455Y-6.0086
X6.2955Y-1.333
X6.2955Y-6.0086
X6.3842Y-1.4546
X6.3842Y-5.887
X6.4342Y-1.4546
X6.4342Y-5.887
X6.4842Y-1.4546
X6.4842Y-5.887
X6.5342Y-1.4546
X6.5342Y-5.887
X6.6089Y-1.6005
X6.6089Y-5.7411
X6.6589Y-1.6005
X6.6589Y-5.7411
X6.7089Y-1.6005
X6.7089Y-5.7411
X6.7589Y-1.6005
X6.7589Y-5.7411
X6.817Y-1.7691
X6.817Y-5.5726
X6.867Y-1.7691
X6.867Y-5.5726
X6.917Y-1.7691
X6.917Y-5.5726
X6.967Y-1.7691
X6.967Y-5.5726
X7.0064Y-1.9585
X7.0064Y-5.3832
X7.0564Y-1.9585
X7.0564Y-5.3832
X7.1064Y-1.9585
X7.1064Y-5.3832
X7.1564Y-1.9585
X7.1564Y-5.3832
X7.175Y-2.1666
X7.175Y-5.175
X7.225Y-2.1666
X7.225Y-5.175
X7.275Y-2.1666
X7.275Y-5.175
X7.3209Y-2.3913
X7.3209Y-4.9504
X7.325Y-2.1666
X7.325Y-5.175
X7.3709Y-2.3913
X7.3709Y-4.9504
X7.4209Y-2.3913
X7.4209Y-4.9504
X7.4425Y-2.63
X7.4425Y-4.7117
X7.4709Y-2.3913
X7.4709Y-4.9504
X7.4925Y-2.63
X7.4925Y-4.7117
X7.5385Y-2.88
X7.5385Y-4.4616
X7.5425Y-2.63
X7.5425Y-4.7117
X7.5885Y-2.88
X7.5885Y-4.4616
X7.5925Y-2.63
X7.5925Y-4.7117
X7.6078Y-3.1388
X7.6078Y-4.2029
X7.6385Y-2.88
X7.6385Y-4.4616
X7.6497Y-3.4033
X7.6497Y-3.9383
X7.6578Y-3.1388
X7.6578Y-4.2029
X7.6637Y-3.6708
X7.6885Y-2.88
X7.6885Y-4.4616
X7.6997Y-3.4033
X7.6997Y-3.9383
X7.7078Y-3.1388
X7.7078Y-4.2029
X7.7137Y-3.6708
X7.7497Y-3.4033
X7.7497Y-3.9383
X7.7578Y-3.1388
X7.7578Y-4.2029
X7.7637Y-3.6708
X7.7997Y-3.4033
X7.7997Y-3.9383
X7.8137Y-3.6708
T2
X4.9Y-3.05
X4.9987Y-4.27
X5.0Y-3.05
X5.0987Y-4.27
X5.1Y-3.05
X5.1987Y-4.27
X5.2Y-3.05
X5.2987Y-4.27
X5.3Y-3.05
X5.3987Y-4.27
X5.4Y-3.05
T0
M30
