%TF.GenerationSoftware,KiCad,Pcbnew,7.0.7*%
%TF.CreationDate,2024-11-28T18:31:40+01:00*%
%TF.ProjectId,FaceDCF77,46616365-4443-4463-9737-2e6b69636164,rev?*%
%TF.SameCoordinates,Original*%
%TF.FileFunction,Soldermask,Bot*%
%TF.FilePolarity,Negative*%
%FSLAX46Y46*%
G04 Gerber Fmt 4.6, Leading zero omitted, Abs format (unit mm)*
G04 Created by KiCad (PCBNEW 7.0.7) date 2024-11-28 18:31:40*
%MOMM*%
%LPD*%
G01*
G04 APERTURE LIST*
%ADD10R,0.900000X1.800000*%
%ADD11O,0.900000X1.800000*%
%ADD12R,1.000000X2.750000*%
%ADD13R,1.524000X3.000000*%
%ADD14O,1.524000X3.000000*%
G04 APERTURE END LIST*
D10*
%TO.C,D50*%
X74088400Y-66501100D03*
D11*
X72818400Y-67101100D03*
X71548400Y-66501100D03*
X70278400Y-67101100D03*
%TD*%
D10*
%TO.C,D34*%
X113382800Y-154757600D03*
D11*
X112112800Y-155357600D03*
X110842800Y-154757600D03*
X109572800Y-155357600D03*
%TD*%
D10*
%TO.C,D36*%
X100968900Y-149230600D03*
D11*
X99698900Y-149830600D03*
X98428900Y-149230600D03*
X97158900Y-149830600D03*
%TD*%
D10*
%TO.C,D9*%
X181773300Y-49445500D03*
D11*
X180503300Y-50045500D03*
X179233300Y-49445500D03*
X177963300Y-50045500D03*
%TD*%
D10*
%TO.C,D54*%
X89975400Y-44634500D03*
D11*
X88705400Y-45234500D03*
X87435400Y-44634500D03*
X86165400Y-45234500D03*
%TD*%
D10*
%TO.C,D41*%
X77177200Y-125439000D03*
D11*
X75907200Y-126039000D03*
X74637200Y-125439000D03*
X73367200Y-126039000D03*
%TD*%
D10*
%TO.C,D29*%
X146983200Y-156518600D03*
D11*
X145713200Y-157118600D03*
X144443200Y-156518600D03*
X143173200Y-157118600D03*
%TD*%
D10*
%TO.C,D12*%
X192849400Y-66501100D03*
D11*
X191579400Y-67101100D03*
X190309400Y-66501100D03*
X189039400Y-67101100D03*
%TD*%
D10*
%TO.C,D53*%
X85164500Y-49445500D03*
D11*
X83894500Y-50045500D03*
X82624500Y-49445500D03*
X81354500Y-50045500D03*
%TD*%
D10*
%TO.C,D51*%
X77177200Y-60439000D03*
D11*
X75907200Y-61039000D03*
X74637200Y-60439000D03*
X73367200Y-61039000D03*
%TD*%
D10*
%TO.C,D57*%
X107031000Y-33558500D03*
D11*
X105761000Y-34158500D03*
X104491000Y-33558500D03*
X103221000Y-34158500D03*
%TD*%
D10*
%TO.C,D58*%
X113382800Y-31120300D03*
D11*
X112112800Y-31720300D03*
X110842800Y-31120300D03*
X109572800Y-31720300D03*
%TD*%
D10*
%TO.C,D26*%
X165968900Y-149230600D03*
D11*
X164698900Y-149830600D03*
X163428900Y-149230600D03*
X162158900Y-149830600D03*
%TD*%
D10*
%TO.C,D28*%
X153555000Y-154757600D03*
D11*
X152285000Y-155357600D03*
X151015000Y-154757600D03*
X149745000Y-155357600D03*
%TD*%
D10*
%TO.C,D48*%
X69889300Y-79424700D03*
D11*
X68619300Y-80024700D03*
X67349300Y-79424700D03*
X66079300Y-80024700D03*
%TD*%
D10*
%TO.C,D20*%
X192849400Y-119376800D03*
D11*
X191579400Y-119976800D03*
X190309400Y-119376800D03*
X189039400Y-119976800D03*
%TD*%
D10*
%TO.C,D13*%
X195287600Y-72852900D03*
D11*
X194017600Y-73452900D03*
X192747600Y-72852900D03*
X191477600Y-73452900D03*
%TD*%
D10*
%TO.C,D60*%
X126674500Y-28295000D03*
D11*
X125404500Y-28895000D03*
X124134500Y-28295000D03*
X122864500Y-28895000D03*
%TD*%
D10*
%TO.C,D40*%
X80882800Y-131145000D03*
D11*
X79612800Y-131745000D03*
X78342800Y-131145000D03*
X77072800Y-131745000D03*
%TD*%
D10*
%TO.C,D39*%
X85164500Y-136432400D03*
D11*
X83894500Y-137032400D03*
X82624500Y-136432400D03*
X81354500Y-137032400D03*
%TD*%
D10*
%TO.C,D10*%
X186055000Y-54732900D03*
D11*
X184785000Y-55332900D03*
X183515000Y-54732900D03*
X182245000Y-55332900D03*
%TD*%
D10*
%TO.C,D42*%
X74088400Y-119376800D03*
D11*
X72818400Y-119976800D03*
X71548400Y-119376800D03*
X70278400Y-119976800D03*
%TD*%
D10*
%TO.C,D22*%
X186055000Y-131145000D03*
D11*
X184785000Y-131745000D03*
X183515000Y-131145000D03*
X182245000Y-131745000D03*
%TD*%
D10*
%TO.C,D52*%
X80882800Y-54732900D03*
D11*
X79612800Y-55332900D03*
X78342800Y-54732900D03*
X77072800Y-55332900D03*
%TD*%
D10*
%TO.C,D37*%
X95262900Y-145525100D03*
D11*
X93992900Y-146125100D03*
X92722900Y-145525100D03*
X91452900Y-146125100D03*
%TD*%
D10*
%TO.C,D4*%
X153555000Y-31120300D03*
D11*
X152285000Y-31720300D03*
X151015000Y-31120300D03*
X149745000Y-31720300D03*
%TD*%
D10*
%TO.C,D47*%
X68825000Y-86144600D03*
D11*
X67555000Y-86744600D03*
X66285000Y-86144600D03*
X65015000Y-86744600D03*
%TD*%
D10*
%TO.C,D21*%
X189760500Y-125439000D03*
D11*
X188490500Y-126039000D03*
X187220500Y-125439000D03*
X185950500Y-126039000D03*
%TD*%
D10*
%TO.C,D59*%
X119954600Y-29359400D03*
D11*
X118684600Y-29959400D03*
X117414600Y-29359400D03*
X116144600Y-29959400D03*
%TD*%
D10*
%TO.C,D23*%
X181773300Y-136432400D03*
D11*
X180503300Y-137032400D03*
X179233300Y-136432400D03*
X177963300Y-137032400D03*
%TD*%
D10*
%TO.C,D55*%
X95262900Y-40352900D03*
D11*
X93992900Y-40952900D03*
X92722900Y-40352900D03*
X91452900Y-40952900D03*
%TD*%
D10*
%TO.C,D14*%
X197048500Y-79424700D03*
D11*
X195778500Y-80024700D03*
X194508500Y-79424700D03*
X193238500Y-80024700D03*
%TD*%
D10*
%TO.C,D32*%
X126674500Y-157582900D03*
D11*
X125404500Y-158182900D03*
X124134500Y-157582900D03*
X122864500Y-158182900D03*
%TD*%
D10*
%TO.C,D44*%
X69889300Y-106453200D03*
D11*
X68619300Y-107053200D03*
X67349300Y-106453200D03*
X66079300Y-107053200D03*
%TD*%
D10*
%TO.C,D25*%
X171674900Y-145525100D03*
D11*
X170404900Y-146125100D03*
X169134900Y-145525100D03*
X167864900Y-146125100D03*
%TD*%
D10*
%TO.C,D27*%
X159906800Y-152319400D03*
D11*
X158636800Y-152919400D03*
X157366800Y-152319400D03*
X156096800Y-152919400D03*
%TD*%
D10*
%TO.C,D30*%
X140263200Y-157582900D03*
D11*
X138993200Y-158182900D03*
X137723200Y-157582900D03*
X136453200Y-158182900D03*
%TD*%
D10*
%TO.C,D8*%
X176962400Y-44634500D03*
D11*
X175692400Y-45234500D03*
X174422400Y-44634500D03*
X173152400Y-45234500D03*
%TD*%
D10*
%TO.C,D5*%
X159906800Y-33558500D03*
D11*
X158636800Y-34158500D03*
X157366800Y-33558500D03*
X156096800Y-34158500D03*
%TD*%
D10*
%TO.C,D35*%
X107031000Y-152319400D03*
D11*
X105761000Y-152919400D03*
X104491000Y-152319400D03*
X103221000Y-152919400D03*
%TD*%
D10*
%TO.C,D3*%
X146983200Y-29359400D03*
D11*
X145713200Y-29959400D03*
X144443200Y-29359400D03*
X143173200Y-29959400D03*
%TD*%
D10*
%TO.C,D24*%
X176962400Y-141243400D03*
D11*
X175692400Y-141843400D03*
X174422400Y-141243400D03*
X173152400Y-141843400D03*
%TD*%
D10*
%TO.C,D2*%
X140263200Y-28295000D03*
D11*
X138993200Y-28895000D03*
X137723200Y-28295000D03*
X136453200Y-28895000D03*
%TD*%
D10*
%TO.C,D1*%
X133468900Y-27939000D03*
D11*
X132198900Y-28539000D03*
X130928900Y-27939000D03*
X129658900Y-28539000D03*
%TD*%
D10*
%TO.C,D16*%
X198468900Y-92939000D03*
D11*
X197198900Y-93539000D03*
X195928900Y-92939000D03*
X194658900Y-93539000D03*
%TD*%
D10*
%TO.C,D18*%
X197048500Y-106453200D03*
D11*
X195778500Y-107053200D03*
X194508500Y-106453200D03*
X193238500Y-107053200D03*
%TD*%
D10*
%TO.C,D17*%
X198112800Y-99733300D03*
D11*
X196842800Y-100333300D03*
X195572800Y-99733300D03*
X194302800Y-100333300D03*
%TD*%
D10*
%TO.C,D38*%
X89975400Y-141243400D03*
D11*
X88705400Y-141843400D03*
X87435400Y-141243400D03*
X86165400Y-141843400D03*
%TD*%
D10*
%TO.C,D56*%
X100968900Y-36647300D03*
D11*
X99698900Y-37247300D03*
X98428900Y-36647300D03*
X97158900Y-37247300D03*
%TD*%
D10*
%TO.C,D15*%
X198112800Y-86144600D03*
D11*
X196842800Y-86744600D03*
X195572800Y-86144600D03*
X194302800Y-86744600D03*
%TD*%
D10*
%TO.C,D33*%
X119954600Y-156518600D03*
D11*
X118684600Y-157118600D03*
X117414600Y-156518600D03*
X116144600Y-157118600D03*
%TD*%
D10*
%TO.C,D6*%
X165968900Y-36647300D03*
D11*
X164698900Y-37247300D03*
X163428900Y-36647300D03*
X162158900Y-37247300D03*
%TD*%
D10*
%TO.C,D46*%
X68468900Y-92939000D03*
D11*
X67198900Y-93539000D03*
X65928900Y-92939000D03*
X64658900Y-93539000D03*
%TD*%
D10*
%TO.C,D45*%
X68825000Y-99733300D03*
D11*
X67555000Y-100333300D03*
X66285000Y-99733300D03*
X65015000Y-100333300D03*
%TD*%
D10*
%TO.C,D7*%
X171674900Y-40352900D03*
D11*
X170404900Y-40952900D03*
X169134900Y-40352900D03*
X167864900Y-40952900D03*
%TD*%
D10*
%TO.C,D11*%
X189760500Y-60439000D03*
D11*
X188490500Y-61039000D03*
X187220500Y-60439000D03*
X185950500Y-61039000D03*
%TD*%
D10*
%TO.C,D31*%
X133468900Y-157939000D03*
D11*
X132198900Y-158539000D03*
X130928900Y-157939000D03*
X129658900Y-158539000D03*
%TD*%
D10*
%TO.C,D43*%
X71650200Y-113025100D03*
D11*
X70380200Y-113625100D03*
X69110200Y-113025100D03*
X67840200Y-113625100D03*
%TD*%
D10*
%TO.C,D49*%
X71650200Y-72852900D03*
D11*
X70380200Y-73452900D03*
X69110200Y-72852900D03*
X67840200Y-73452900D03*
%TD*%
D10*
%TO.C,D19*%
X195287600Y-113025100D03*
D11*
X194017600Y-113625100D03*
X192747600Y-113025100D03*
X191477600Y-113625100D03*
%TD*%
D12*
%TO.C,SW2*%
X129795000Y-50130000D03*
X129795000Y-55880000D03*
X133795000Y-50130000D03*
X133795000Y-55880000D03*
%TD*%
%TO.C,SW3*%
X121730000Y-50130000D03*
X121730000Y-55880000D03*
X125730000Y-50130000D03*
X125730000Y-55880000D03*
%TD*%
D13*
%TO.C,U1*%
X124460000Y-77470000D03*
D14*
X127000000Y-77470000D03*
X129540000Y-77470000D03*
X132080000Y-77470000D03*
X134620000Y-77470000D03*
X137160000Y-77470000D03*
D13*
X126968000Y-108458000D03*
D14*
X129508000Y-108458000D03*
X132048000Y-108458000D03*
X134588000Y-108458000D03*
X137128000Y-108458000D03*
%TD*%
D12*
%TO.C,SW1*%
X138240000Y-50130000D03*
X138240000Y-55880000D03*
X142240000Y-50130000D03*
X142240000Y-55880000D03*
%TD*%
M02*
