M48
; DRILL file {KiCad (7.0.0)} date Fri May 30 19:50:17 2025
; FORMAT={-:-/ absolute / inch / decimal}
; #@! TF.CreationDate,2025-05-30T19:50:17+02:00
; #@! TF.GenerationSoftware,Kicad,Pcbnew,(7.0.0)
; #@! TF.FileFunction,Plated,1,2,PTH
FMAT,2
INCH
; #@! TA.AperFunction,Plated,PTH,ViaDrill
T1C0.0157
; #@! TA.AperFunction,Plated,PTH,ComponentDrill
T2C0.0276
; #@! TA.AperFunction,Plated,PTH,ComponentDrill
T3C0.0394
%
G90
G05
T1
X2.64Y-2.96
X2.82Y-4.83
X2.96Y-2.17
X3.16Y-2.28
X3.29Y-2.1
X4.8479Y-2.313
X4.9472Y-2.1054
X4.9943Y-1.9883
X5.1549Y-2.313
X5.2594Y-2.1054
X5.3125Y-1.9883
X5.3361Y-2.2363
X5.6151Y-2.1054
X5.6455Y-1.9883
X6.08Y-5.91
X6.25Y-6.11
X6.42Y-5.83
X6.72Y-5.85
T2
X2.6086Y-3.5779
X2.6086Y-3.6279
X2.6086Y-3.6779
X2.6086Y-3.7279
X2.6132Y-3.8456
X2.6163Y-3.4604
X2.6184Y-3.8953
X2.6215Y-3.4106
X2.6236Y-3.945
X2.6268Y-3.3609
X2.6289Y-3.9947
X2.632Y-3.3112
X2.6457Y-4.1113
X2.652Y-3.1951
X2.6561Y-4.1602
X2.6624Y-3.1462
X2.6665Y-4.2091
X2.6728Y-3.0973
X2.6769Y-4.258
X2.6831Y-3.0484
X2.7059Y-4.3722
X2.7151Y-2.9351
X2.7213Y-4.4197
X2.7306Y-2.8875
X2.7368Y-4.4673
X2.746Y-2.84
X2.7522Y-4.5148
X2.7615Y-2.7924
X2.793Y-4.6253
X2.8052Y-2.683
X2.8133Y-4.671
X2.8255Y-2.6373
X2.8336Y-4.7167
X2.8458Y-2.5917
X2.854Y-4.7623
X2.8662Y-2.546
X2.906Y-4.868
X2.921Y-2.4418
X2.931Y-4.9113
X2.946Y-2.3985
X2.956Y-4.9546
X2.971Y-2.3552
X2.981Y-4.9979
X2.996Y-2.3119
X3.0439Y-5.0975
X3.0615Y-2.214
X3.0732Y-5.138
X3.0909Y-2.1735
X3.1026Y-5.1784
X3.1203Y-2.1331
X3.132Y-5.2189
X3.1497Y-2.0926
X3.2049Y-5.3114
X3.225Y-2.0021
X3.2384Y-5.3485
X3.2584Y-1.9649
X3.2718Y-5.3857
X3.2919Y-1.9278
X3.3053Y-5.4228
X3.3253Y-1.8906
X3.3874Y-5.5072
X3.4097Y-1.8085
X3.4246Y-5.5407
X3.4469Y-1.775
X3.4617Y-5.5741
X3.484Y-1.7416
X3.4989Y-5.6076
X3.5212Y-1.7081
X3.5894Y-5.6829
X3.6137Y-1.6352
X3.6299Y-5.7123
X3.6542Y-1.6058
X3.6703Y-5.7417
X3.6946Y-1.5764
X3.7108Y-5.7711
X3.7351Y-1.547
X3.8087Y-5.8365
X3.8347Y-1.4842
X3.852Y-5.8615
X3.878Y-1.4592
X3.8953Y-5.8865
X3.9213Y-1.4342
X3.9386Y-5.9115
X3.9646Y-1.4092
X4.0428Y-5.9664
X4.0702Y-1.3572
X4.0885Y-5.9867
X4.1159Y-1.3368
X4.1342Y-6.0071
X4.1616Y-1.3165
X4.1798Y-6.0274
X4.2072Y-1.2962
X4.2892Y-6.0711
X4.3177Y-1.2554
X4.3368Y-6.0865
X4.3653Y-1.24
X4.3843Y-6.102
X4.4128Y-1.2245
X4.4319Y-6.1174
X4.4604Y-1.2091
X4.5452Y-6.1494
X4.5745Y-1.1801
X4.5941Y-6.1598
X4.6235Y-1.1697
X4.643Y-6.1702
X4.6724Y-1.1593
X4.6919Y-6.1806
X4.7213Y-1.1489
X4.808Y-6.2006
X4.8378Y-1.132
X4.8577Y-6.2058
X4.8875Y-1.1268
X4.9074Y-6.211
X4.9373Y-1.1216
X4.9572Y-6.2162
X4.987Y-1.1164
X5.0747Y-6.224
X5.1047Y-1.1118
X5.1247Y-6.224
X5.1547Y-1.1118
X5.1747Y-6.224
X5.2047Y-1.1118
X5.2247Y-6.224
X5.2547Y-1.1118
X5.3424Y-6.2194
X5.3722Y-1.1195
X5.3921Y-6.2142
X5.4219Y-1.1247
X5.4418Y-6.2089
X5.4716Y-1.13
X5.4915Y-6.2037
X5.5214Y-1.1352
X5.6081Y-6.1868
X5.6374Y-1.1552
X5.657Y-6.1764
X5.6863Y-1.1655
X5.7059Y-6.166
X5.7353Y-1.1759
X5.7548Y-6.1556
X5.7842Y-1.1863
X5.869Y-6.1267
X5.8975Y-1.2183
X5.9165Y-6.1112
X5.945Y-1.2338
X5.9641Y-6.0958
X5.9926Y-1.2492
X6.0116Y-6.0803
X6.0402Y-1.2647
X6.1221Y-6.0396
X6.1495Y-1.3084
X6.1678Y-6.0193
X6.1952Y-1.3287
X6.2135Y-5.9989
X6.2409Y-1.349
X6.2592Y-5.9786
X6.2866Y-1.3694
X6.3648Y-5.9265
X6.3908Y-1.4242
X6.4081Y-5.9015
X6.4341Y-1.4492
X6.4514Y-5.8765
X6.4774Y-1.4742
X6.4947Y-5.8515
X6.5207Y-1.4992
X6.5943Y-5.7887
X6.6186Y-1.5647
X6.6348Y-5.7593
X6.659Y-1.5941
X6.6752Y-5.7299
X6.6995Y-1.6235
X6.7157Y-5.7005
X6.7399Y-1.6528
X6.8082Y-5.6276
X6.8305Y-1.7282
X6.8453Y-5.5942
X6.8676Y-1.7616
X6.8825Y-5.5607
X6.9048Y-1.7951
X6.9196Y-5.5273
X6.9419Y-1.8285
X7.004Y-5.4451
X7.0241Y-1.9129
X7.0375Y-5.408
X7.0575Y-1.9501
X7.0709Y-5.3708
X7.091Y-1.9872
X7.1044Y-5.3336
X7.1245Y-2.0244
X7.1797Y-5.2431
X7.1973Y-2.1169
X7.2091Y-5.2027
X7.2267Y-2.1573
X7.2385Y-5.1622
X7.2561Y-2.1978
X7.2679Y-5.1218
X7.2855Y-2.2382
X7.3333Y-5.0239
X7.3483Y-2.3379
X7.3583Y-4.9806
X7.3733Y-2.3812
X7.3833Y-4.9373
X7.3983Y-2.4245
X7.4083Y-4.894
X7.4233Y-2.4678
X7.4632Y-4.7898
X7.4754Y-2.5734
X7.4835Y-4.7441
X7.4957Y-2.6191
X7.5039Y-4.6984
X7.5161Y-2.6648
X7.5242Y-4.6527
X7.5364Y-2.7104
X7.5679Y-4.5433
X7.5771Y-2.8209
X7.5833Y-4.4958
X7.5926Y-2.8685
X7.5988Y-4.4482
X7.608Y-2.916
X7.6142Y-4.4007
X7.6235Y-2.9636
X7.6462Y-4.2873
X7.6525Y-3.0777
X7.6566Y-4.2384
X7.6628Y-3.1266
X7.667Y-4.1895
X7.6732Y-3.1756
X7.6774Y-4.1406
X7.6836Y-3.2245
X7.6974Y-4.0246
X7.7005Y-3.341
X7.7026Y-3.9748
X7.7057Y-3.3907
X7.7078Y-3.9251
X7.711Y-3.4405
X7.7131Y-3.8754
X7.7162Y-3.4902
X7.7208Y-3.6079
X7.7208Y-3.6579
X7.7208Y-3.7079
X7.7208Y-3.7579
T3
X4.9Y-3.05
X4.9987Y-4.27
X5.0Y-3.05
X5.0987Y-4.27
X5.1Y-3.05
X5.1987Y-4.27
X5.2Y-3.05
X5.2987Y-4.27
X5.3Y-3.05
X5.3987Y-4.27
X5.4Y-3.05
T0
M30
